G04 DipTrace 2.3.0.1*
%INbluetooth_modul_top.gbr*%
%MOIN*%
%ADD13C,0.0197*%
%ADD19R,0.0591X0.0591*%
%ADD20C,0.0591*%
%ADD24R,0.0276X0.0335*%
%ADD27R,0.0433X0.0394*%
%ADD29R,0.0394X0.0433*%
%ADD30R,0.0787X0.0394*%
%ADD31R,0.0394X0.0787*%
%ADD32C,0.04*%
%ADD68C,0.0062*%
%ADD69C,0.0077*%
%ADD70C,0.0046*%
%FSLAX44Y44*%
G04*
G70*
G90*
G75*
G01*
%LNTop*%
%LPD*%
X12480Y12854D2*
D13*
X11622D1*
X11610Y12842D1*
X13776Y12854D2*
Y13148D1*
X13578Y13346D1*
X12657D1*
X12480Y13169D1*
Y12854D1*
X13776D2*
X14031D1*
X14212Y12672D1*
Y9917D1*
X13956Y9661D1*
X6790Y12252D2*
X6082D1*
X5877Y9121D2*
Y9905D1*
X6149Y10176D1*
Y12185D1*
X6082Y12252D1*
X5712Y10787D2*
Y10326D1*
X4917Y9531D1*
X6039Y12846D2*
X6786D1*
X6790Y12842D1*
X6792Y6347D2*
X6773Y6365D1*
X6082D1*
X5850Y6598D1*
Y7239D1*
X5877Y8452D2*
Y7239D1*
X5850D1*
X12956Y9661D2*
Y8960D1*
X12440Y8444D1*
X12507Y11661D2*
X11610D1*
Y11662D1*
X13027Y11669D2*
X12507Y11661D1*
X13022Y11066D2*
X11615D1*
X11610Y11072D1*
X13117Y12267D2*
X12700D1*
X13094Y10472D2*
X12696D1*
X11610Y5752D2*
X12074D1*
X12464Y5361D1*
X13117Y12267D2*
Y12843D1*
X13106Y12854D1*
X6792Y5756D2*
X5719D1*
X11270Y4822D2*
X11556Y4535D1*
X12082D1*
X5712Y11456D2*
Y11857D1*
X5039Y12531D1*
X4917D1*
X13696Y11669D2*
X13783Y11755D1*
Y12267D1*
X13691Y11066D2*
X13759Y10998D1*
Y10472D1*
D32*
X12480Y12854D3*
D3*
X6082Y12252D3*
X6039Y12846D3*
X5850Y7239D3*
X12507Y11661D3*
D3*
X12700Y12267D3*
X12696Y10472D3*
X12464Y5361D3*
X5719Y5756D3*
X12082Y4535D3*
X12440Y8444D3*
D19*
X4917Y12531D3*
D20*
Y11531D3*
Y10531D3*
Y9531D3*
Y8531D3*
D24*
X13094Y10472D3*
X13759D3*
X13117Y12267D3*
X13783D3*
D27*
X13696Y11669D3*
X13027D3*
X13691Y11066D3*
X13022D3*
X13106Y12854D3*
X13776D3*
D29*
X5712Y10787D3*
Y11456D3*
X5877Y8452D3*
Y9121D3*
D30*
X11610Y12842D3*
Y12252D3*
Y11662D3*
Y11072D3*
Y10481D3*
Y9892D3*
Y9302D3*
Y8712D3*
Y8122D3*
Y7531D3*
Y6942D3*
Y6352D3*
Y5752D3*
X6790Y12842D3*
Y12252D3*
Y11662D3*
X6792Y11071D3*
X6790Y10481D3*
X6792Y9890D3*
Y9299D3*
Y8709D3*
Y8118D3*
Y7528D3*
Y6937D3*
Y6347D3*
Y5756D3*
D31*
X7130Y4822D3*
X7720D3*
X8310D3*
X8900D3*
X9500D3*
X10090D3*
X10680D3*
X11270D3*
D19*
X13956Y9661D3*
D20*
X12956D3*
X4828Y13850D2*
D68*
X4637D1*
X4618Y13678D1*
X4637Y13697D1*
X4695Y13716D1*
X4752D1*
X4809Y13697D1*
X4848Y13659D1*
X4867Y13601D1*
Y13563D1*
X4848Y13506D1*
X4809Y13467D1*
X4752Y13448D1*
X4695D1*
X4637Y13467D1*
X4618Y13487D1*
X4599Y13525D1*
X4990Y13850D2*
X5143Y13448D1*
X5296Y13850D1*
X4614Y4718D2*
D69*
X4422Y5221D1*
X4231Y4718D1*
X4302Y4886D2*
X4542D1*
X5031Y4982D2*
X5007Y5030D1*
X4935Y5053D1*
X4864D1*
X4792Y5030D1*
X4768Y4982D1*
X4792Y4934D1*
X4840Y4910D1*
X4959Y4886D1*
X5007Y4862D1*
X5031Y4814D1*
Y4790D1*
X5007Y4743D1*
X4935Y4718D1*
X4864D1*
X4792Y4743D1*
X4768Y4790D1*
X5473Y4982D2*
X5425Y5030D1*
X5377Y5053D1*
X5305D1*
X5257Y5030D1*
X5210Y4982D1*
X5185Y4910D1*
Y4862D1*
X5210Y4790D1*
X5257Y4743D1*
X5305Y4718D1*
X5377D1*
X5425Y4743D1*
X5473Y4790D1*
X5627Y4910D2*
X5914D1*
Y4958D1*
X5890Y5006D1*
X5867Y5030D1*
X5818Y5053D1*
X5747D1*
X5699Y5030D1*
X5651Y4982D1*
X5627Y4910D1*
Y4862D1*
X5651Y4790D1*
X5699Y4743D1*
X5747Y4718D1*
X5818D1*
X5867Y4743D1*
X5914Y4790D1*
X6140Y5221D2*
Y4814D1*
X6164Y4743D1*
X6212Y4718D1*
X6260D1*
X6069Y5053D2*
X6236D1*
X4722Y7608D2*
D70*
X4708Y7636D1*
X4679Y7665D1*
X4650Y7679D1*
X4593D1*
X4564Y7665D1*
X4535Y7636D1*
X4521Y7608D1*
X4507Y7565D1*
Y7493D1*
X4521Y7450D1*
X4535Y7421D1*
X4564Y7393D1*
X4593Y7378D1*
X4650D1*
X4679Y7393D1*
X4708Y7421D1*
X4722Y7450D1*
Y7493D1*
X4650D1*
X5015Y7679D2*
Y7378D1*
X4814Y7679D1*
Y7378D1*
X5108Y7679D2*
Y7378D1*
X5209D1*
X5252Y7393D1*
X5281Y7421D1*
X5295Y7450D1*
X5309Y7493D1*
Y7565D1*
X5295Y7608D1*
X5281Y7636D1*
X5252Y7665D1*
X5209Y7679D1*
X5108D1*
X13360Y4911D2*
D69*
X13862D1*
Y5126D1*
X13838Y5198D1*
X13814Y5222D1*
X13767Y5246D1*
X13695D1*
X13647Y5222D1*
X13623Y5198D1*
X13599Y5126D1*
X13575Y5198D1*
X13551Y5222D1*
X13503Y5246D1*
X13455D1*
X13408Y5222D1*
X13383Y5198D1*
X13360Y5126D1*
Y4911D1*
X13599D2*
Y5126D1*
X13360Y5400D2*
X13862D1*
X13527Y5555D2*
X13767D1*
X13838Y5578D1*
X13862Y5627D1*
Y5698D1*
X13838Y5746D1*
X13767Y5818D1*
X13527D2*
X13862D1*
X13671Y5972D2*
Y6259D1*
X13623D1*
X13575Y6235D1*
X13551Y6211D1*
X13527Y6163D1*
Y6092D1*
X13551Y6044D1*
X13599Y5996D1*
X13671Y5972D1*
X13718D1*
X13790Y5996D1*
X13838Y6044D1*
X13862Y6092D1*
Y6163D1*
X13838Y6211D1*
X13790Y6259D1*
X13360Y6485D2*
X13767D1*
X13838Y6509D1*
X13862Y6557D1*
Y6605D1*
X13527Y6413D2*
Y6581D1*
Y6878D2*
X13551Y6831D1*
X13599Y6783D1*
X13671Y6759D1*
X13718D1*
X13790Y6783D1*
X13838Y6831D1*
X13862Y6878D1*
Y6950D1*
X13838Y6998D1*
X13790Y7046D1*
X13718Y7070D1*
X13671D1*
X13599Y7046D1*
X13551Y6998D1*
X13527Y6950D1*
Y6878D1*
Y7344D2*
X13551Y7296D1*
X13599Y7248D1*
X13671Y7225D1*
X13718D1*
X13790Y7248D1*
X13838Y7296D1*
X13862Y7344D1*
Y7416D1*
X13838Y7464D1*
X13790Y7511D1*
X13718Y7536D1*
X13671D1*
X13599Y7511D1*
X13551Y7464D1*
X13527Y7416D1*
Y7344D1*
X13360Y7762D2*
X13767D1*
X13838Y7786D1*
X13862Y7834D1*
Y7881D1*
X13527Y7690D2*
Y7858D1*
X13360Y8036D2*
X13862D1*
X13623D2*
X13551Y8108D1*
X13527Y8156D1*
Y8228D1*
X13551Y8275D1*
X13623Y8299D1*
X13862D1*
M02*
