G04 CAM Products 2000  RS274-X Output*
G04 Serial Number: 0000-00-00000*
G04 File Name:Z:\media\yandex\zakaz_moduli_lcd_bt\bluetooth\gerberRS274X\bot.gbr *
%FSLAX34Y34*%
%MOIN*%
%SFA1B1*%

%IPPOS*%
%ADD11C,0.005500*%
%ADD13C,0.019700*%
%ADD14C,0.025000*%
%ADD15C,0.013000*%
%ADD17R,0.094500X0.094500*%
%ADD18R,0.059100X0.051200*%
%ADD19R,0.059100X0.059100*%
%ADD20C,0.059100*%
%ADD21R,0.063000X0.049200*%
%ADD22R,0.068900X0.043300*%
%ADD23R,0.068900X0.137800*%
%ADD24R,0.027600X0.033500*%
%ADD25R,0.033500X0.039400*%
%ADD26R,0.039400X0.033500*%
%ADD27R,0.043300X0.039400*%
%ADD28R,0.063000X0.070900*%
%ADD29R,0.039400X0.043300*%
%ADD30R,0.078700X0.039400*%
%ADD31R,0.039400X0.078700*%
%ADD32C,0.040000*%
%ADD38R,0.047400X0.086800*%
%ADD40R,0.086800X0.047400*%
%ADD42R,0.047400X0.051300*%
%ADD44R,0.071000X0.078900*%
%ADD46R,0.051300X0.047400*%
%ADD48R,0.047400X0.041500*%
%ADD50R,0.041500X0.047400*%
%ADD52R,0.035600X0.041500*%
%ADD54R,0.076900X0.145800*%
%ADD56R,0.076900X0.051300*%
%ADD58R,0.071000X0.057200*%
%ADD60C,0.067100*%
%ADD62R,0.067100X0.067100*%
%ADD64R,0.067100X0.059200*%
%ADD66R,0.102500X0.102500*%
%ADD68C,0.006200*%
%ADD69C,0.007700*%
%ADD70C,0.004600*%
%ADD500C,0.019100*%
%ADD501C,0.035400*%
%LNbot-1*%
%LPD*%
G54D13*
X11633Y11881D02*
Y12637D01*
X11850Y12854*
X12480*
X10420Y9216D02*
X9613D01*
Y9212*
X6082Y12252D02*
X5889Y12058D01*
Y11747*
X5865Y11724*
Y10365D02*
X5082D01*
X4917Y10531*
X9239Y10157D02*
X7731D01*
X7480Y9905*
X9239Y10157D02*
X10535D01*
X6535Y9531D02*
X4917D01*
Y11531D02*
Y11354D01*
X5255Y11015*
X10535*
X10531Y11881D02*
Y11019D01*
X10535Y11015*
X11090Y9216D02*
Y12377D01*
X10621Y12846*
X6039*
X9259Y7224D02*
X9255Y7228D01*
X8208*
X5850Y7239D02*
X5861Y7228D01*
X8208*
X11857Y7224D02*
Y8082D01*
X11814*
Y9980*
X11637Y10157*
X13294Y8086D02*
X11857Y8082D01*
X11637Y11015D02*
X12247D01*
X12507Y11275*
Y11661*
X12700Y12267D02*
X12779D01*
X12696Y10472D02*
X12763Y10460D01*
X12464Y5361D02*
X12436Y5389D01*
X5719Y5756D02*
X5755Y5720D01*
X12082Y4535D02*
X12161Y4519D01*
X12196*
X9259Y8129D02*
X9243Y8113D01*
X6806*
X6283*
X5357Y9039*
X4606*
X4259Y9385*
Y11873*
X4917Y12531*
G54D32*
X12480Y12854D03*
D03*
X6082Y12252D03*
X6039Y12846D03*
X5850Y7239D03*
X12507Y11661D03*
D03*
X12700Y12267D03*
X12696Y10472D03*
X12464Y5361D03*
X5719Y5756D03*
X12082Y4535D03*
G54D14*
X6561Y12440D02*
X9898D01*
X12772D02*
X14312D01*
X6596Y12192D02*
X9898D01*
X12264D02*
X14316D01*
X6499Y11943D02*
X9898D01*
X12936D02*
X14316D01*
X6499Y11694D02*
X9898D01*
X13022D02*
X14316D01*
X6499Y11446D02*
X9898D01*
X12975D02*
X14316D01*
X12917Y11197D02*
X14316D01*
X12757Y10948D02*
X14316D01*
X12503Y10700D02*
X14316D01*
X6499Y10451D02*
X7449D01*
X12268D02*
X14316D01*
X6499Y10202D02*
X6964D01*
X12268D02*
X14316D01*
X12268Y9954D02*
X14316D01*
X7995Y9705D02*
X8753D01*
X12268D02*
X14316D01*
X7995Y9456D02*
X8382D01*
X12229D02*
X14316D01*
X7995Y9208D02*
X8382D01*
X12229D02*
X14316D01*
X6014Y8959D02*
X6964D01*
X7995D02*
X8382D01*
X12229D02*
X14316D01*
X4147Y8710D02*
X4334D01*
X7995D02*
X11398D01*
X12229D02*
X12503D01*
X14085D02*
X14316D01*
X4147Y8461D02*
X4310D01*
X9921D02*
X11398D01*
X14085D02*
X14316D01*
X4147Y8213D02*
X4398D01*
X5436D02*
X5605D01*
X9921D02*
X11398D01*
X14085D02*
X14316D01*
X4147Y7964D02*
X4734D01*
X5096D02*
X5855D01*
X9921D02*
X11195D01*
X14085D02*
X14316D01*
X4147Y7715D02*
X5699D01*
X9921D02*
X11195D01*
X14085D02*
X14316D01*
X4147Y7467D02*
X5386D01*
X9921D02*
X11195D01*
X14085D02*
X14316D01*
X4147Y7218D02*
X5332D01*
X9921D02*
X11195D01*
X12518D02*
X14316D01*
X4147Y6969D02*
X5414D01*
X9921D02*
X11195D01*
X14085D02*
X14316D01*
X4147Y6721D02*
X6015D01*
X9921D02*
X11195D01*
X14085D02*
X14316D01*
X4147Y6472D02*
X6015D01*
X9921D02*
X11195D01*
X14085D02*
X14316D01*
X4147Y6223D02*
X6015D01*
X9921D02*
X12503D01*
X14085D02*
X14316D01*
X4147Y5975D02*
X6015D01*
X9921D02*
X12503D01*
X14085D02*
X14316D01*
X4147Y5726D02*
X6015D01*
X7596D02*
X12503D01*
X14085D02*
X14316D01*
X4147Y5477D02*
X14316D01*
X4147Y5229D02*
X14316D01*
X4147Y4980D02*
X14316D01*
X4147Y4731D02*
X14316D01*
X4147Y4482D02*
X14316D01*
X4147Y4234D02*
X14316D01*
X6473Y10627D02*
Y9994D01*
X6988Y9991*
X6990Y10365*
X7385*
X7455Y10433*
X7556Y10506*
X7679Y10543*
X7731Y10548*
X8782*
X8660Y10624*
X6476*
X6473Y11954D02*
Y11407D01*
X9923Y11406*
Y12457*
X7996Y12455*
X6531*
X6566Y12345*
X6575Y12252*
X6559Y12128*
X6513Y12012*
X6473Y11959*
X12244Y10628D02*
Y9510D01*
X12201*
X12205Y9105*
Y8476*
X12532Y8475*
X12530Y8851*
X14059*
Y7321*
X12530*
Y7692*
X12494Y7580*
Y6242*
X11221*
Y8205*
X11423Y8207*
Y8726*
X10581Y8730*
X10179Y8726*
X9948Y8722*
X9154Y8726*
X9100Y8722*
X8406*
Y9701*
X8780*
X8739Y9766*
X7970*
X7965Y9445*
X7969Y9391*
Y8697*
X7571*
Y8507*
X8623Y8504*
X8622Y8638*
X9896*
X9892Y7620*
X9896Y7358*
X9892Y6715*
X9896Y6602*
Y5809*
X8622*
X8621Y5931*
X7620*
Y6839*
X7571Y6837*
Y5616*
X6041*
Y6786*
X5873Y6747*
X5749Y6757*
X5631Y6798*
X5527Y6867*
X5444Y6960*
X5387Y7071*
X5359Y7192*
X5363Y7317*
X5398Y7437*
X5462Y7544*
X5551Y7631*
X5659Y7693*
X5779Y7727*
X5904Y7729*
X6042Y7690*
X6041Y7805*
X5479Y8365*
X5452Y8288*
X5389Y8181*
X5304Y8089*
X5202Y8017*
X5087Y7968*
X4965Y7945*
X4840Y7948*
X4719Y7977*
X4606Y8031*
X4508Y8108*
X4428Y8204*
X4370Y8314*
X4337Y8435*
X4329Y8559*
X4349Y8682*
X4364Y8731*
X4122Y8969*
X4124Y4160*
X14343Y4164*
X14339Y12689*
X12944Y12687*
X12910Y12614*
X12836Y12514*
X12739Y12435*
X12626Y12383*
X12503Y12362*
X12379Y12371*
X12238Y12427*
X12241Y12071*
X12316Y12115*
X12437Y12148*
X12561Y12150*
X12682Y12121*
X12792Y12062*
X12884Y11978*
X12952Y11873*
X12991Y11754*
X13000Y11661*
X12984Y11537*
X12937Y11421*
X12898Y11368*
Y11275*
X12878Y11152*
X12818Y11039*
X12784Y10998*
X12524Y10739*
X12423Y10666*
X12300Y10628*
X12243Y10624*
X12241Y10368*
X12555Y7118D02*
X14059D01*
Y5589*
X12530*
Y7118*
X12555*
X6069Y8878D02*
X6991D01*
X6990Y9071*
X6045*
Y9137*
X5811Y9138*
X6073Y8876*
X12940Y12690D02*
X12910Y12614D01*
X12836Y12514*
X12739Y12435*
X12626Y12383*
X12503Y12362*
X12379Y12371*
X12238Y12427*
X12239Y12070D02*
X12316Y12115D01*
X12437Y12148*
X12561Y12150*
X12682Y12121*
X12792Y12062*
X12884Y11978*
X12952Y11873*
X12991Y11754*
X13000Y11661*
X12984Y11537*
X12937Y11421*
X12898Y11368*
X12890Y11196*
X12846Y11080*
G54D15*
X8208Y6480D02*
Y5932D01*
X7621Y6480D02*
X8208D01*
X13294Y7118D02*
Y5589D01*
X12530Y6354D02*
X14059D01*
X6806Y6381D02*
Y5617D01*
X6042Y6381D02*
X7571D01*
X9259Y6318D02*
Y5810D01*
Y6318D02*
X9896D01*
X4917Y8531D02*
X5332Y8115D01*
X4917Y8531D02*
X4501Y8115D01*
X8865Y9701D02*
Y8723D01*
X8406Y9212D02*
X8865D01*
X7480Y9157D02*
Y8697D01*
X6991Y9157D02*
X7968D01*
G54D17*
X6806Y6381D03*
Y8113D03*
X13294Y6354D03*
Y8086D03*
G54D18*
X8208Y6480D03*
Y7228D03*
G54D19*
X4917Y12531D03*
G54D20*
X4917Y11531D03*
Y10531D03*
Y9531D03*
Y8531D03*
G54D21*
X5865Y10365D03*
Y11724D03*
G54D22*
X9259Y6318D03*
Y7224D03*
Y8129D03*
G54D23*
X11857Y7224D03*
G54D25*
X9613Y9212D03*
X8865D03*
X9239Y10157D03*
G54D26*
X7480Y9905D03*
Y9157D03*
X6535Y9531D03*
G54D28*
X11633Y11881D03*
X10531D03*
X11637Y11015D03*
X10535D03*
X11637Y10157D03*
X10535D03*
G54D27*
X11090Y9216D03*
X10420D03*
M02*