G04 DipTrace 2.3.0.1*
%INbluetooth_modul_TopMask.gbr*%
%MOIN*%
%ADD38R,0.0474X0.0868*%
%ADD40R,0.0868X0.0474*%
%ADD42R,0.0474X0.0513*%
%ADD46R,0.0513X0.0474*%
%ADD52R,0.0356X0.0415*%
%ADD60C,0.0671*%
%ADD62R,0.0671X0.0671*%
%FSLAX44Y44*%
G04*
G70*
G90*
G75*
G01*
%LNTopMask*%
%LPD*%
D62*
X4917Y12531D3*
D60*
Y11531D3*
Y10531D3*
Y9531D3*
Y8531D3*
D52*
X13094Y10472D3*
X13759D3*
X13117Y12267D3*
X13783D3*
D46*
X13696Y11669D3*
X13027D3*
X13691Y11066D3*
X13022D3*
X13106Y12854D3*
X13776D3*
D42*
X5712Y10787D3*
Y11456D3*
X5877Y8452D3*
Y9121D3*
D40*
X11610Y12842D3*
Y12252D3*
Y11662D3*
Y11072D3*
Y10481D3*
Y9892D3*
Y9302D3*
Y8712D3*
Y8122D3*
Y7531D3*
Y6942D3*
Y6352D3*
Y5752D3*
X6790Y12842D3*
Y12252D3*
Y11662D3*
X6792Y11071D3*
X6790Y10481D3*
X6792Y9890D3*
Y9299D3*
Y8709D3*
Y8118D3*
Y7528D3*
Y6937D3*
Y6347D3*
Y5756D3*
D38*
X7130Y4822D3*
X7720D3*
X8310D3*
X8900D3*
X9500D3*
X10090D3*
X10680D3*
X11270D3*
D62*
X13956Y9661D3*
D60*
X12956D3*
M02*
