G04 CAM Products 2000  RS274-X Output*
G04 Serial Number: 0000-00-00000*
G04 File Name:Z:\media\yandex\zakaz_moduli_lcd_bt\bluetooth\gerberRS274X\TopMask.gbr *
%FSLAX34Y34*%
%MOIN*%
%SFA1B1*%

%IPPOS*%
%ADD11C,0.005500*%
%ADD13C,0.019700*%
%ADD14C,0.025000*%
%ADD15C,0.013000*%
%ADD17R,0.094500X0.094500*%
%ADD18R,0.059100X0.051200*%
%ADD19R,0.059100X0.059100*%
%ADD20C,0.059100*%
%ADD21R,0.063000X0.049200*%
%ADD22R,0.068900X0.043300*%
%ADD23R,0.068900X0.137800*%
%ADD24R,0.027600X0.033500*%
%ADD25R,0.033500X0.039400*%
%ADD26R,0.039400X0.033500*%
%ADD27R,0.043300X0.039400*%
%ADD28R,0.063000X0.070900*%
%ADD29R,0.039400X0.043300*%
%ADD30R,0.078700X0.039400*%
%ADD31R,0.039400X0.078700*%
%ADD32C,0.040000*%
%ADD38R,0.047400X0.086800*%
%ADD40R,0.086800X0.047400*%
%ADD42R,0.047400X0.051300*%
%ADD44R,0.071000X0.078900*%
%ADD46R,0.051300X0.047400*%
%ADD48R,0.047400X0.041500*%
%ADD50R,0.041500X0.047400*%
%ADD52R,0.035600X0.041500*%
%ADD54R,0.076900X0.145800*%
%ADD56R,0.076900X0.051300*%
%ADD58R,0.071000X0.057200*%
%ADD60C,0.067100*%
%ADD62R,0.067100X0.067100*%
%ADD64R,0.067100X0.059200*%
%ADD66R,0.102500X0.102500*%
%ADD68C,0.006200*%
%ADD69C,0.007700*%
%ADD70C,0.004600*%
%ADD500C,0.019100*%
%ADD501C,0.035400*%
%LNTopMask-1*%
%LPD*%
G54D62*
X4917Y12531D03*
G54D60*
X4917Y11531D03*
Y10531D03*
Y9531D03*
Y8531D03*
G54D52*
X13094Y10472D03*
X13759D03*
X13117Y12267D03*
X13783D03*
G54D46*
X13696Y11669D03*
X13027D03*
X13691Y11066D03*
X13022D03*
X13106Y12854D03*
X13776D03*
G54D42*
X5909Y9539D03*
Y10208D03*
G54D40*
X11610Y12842D03*
Y12252D03*
Y11662D03*
Y11072D03*
Y10481D03*
Y9892D03*
Y9302D03*
Y8712D03*
Y8122D03*
Y7531D03*
Y6942D03*
Y6352D03*
Y5752D03*
X6790Y12842D03*
Y12252D03*
Y11662D03*
X6792Y11071D03*
X6790Y10481D03*
X6792Y9890D03*
Y9299D03*
Y8709D03*
Y8118D03*
Y7528D03*
Y6937D03*
Y6347D03*
Y5756D03*
G54D38*
X7130Y4822D03*
X7720D03*
X8310D03*
X8900D03*
X9500D03*
X10090D03*
X10680D03*
X11270D03*
M02*