G04 CAM Products 2000  RS274-X Output*
G04 Serial Number: 0000-00-00000*
G04 File Name:board_outline.grb *
%FSLAX34Y34*%
%MOIN*%
%SFA1B1*%

%IPPOS*%
%AMRECTHERMD11*
4,1,4,-0.007400,-0.007500,
-0.039400,-0.007500,
-0.039400,-0.020700,
-0.007400,-0.020700,
-0.007400,-0.007500,0.0*
4,1,4,-0.007400,0.020700,
-0.039400,0.020700,
-0.039400,0.007500,
-0.007400,0.007500,
-0.007400,0.020700,0.0*
4,1,4,0.039400,-0.007500,
0.007400,-0.007500,
0.007400,-0.020700,
0.039400,-0.020700,
0.039400,-0.007500,0.0*
4,1,4,0.039400,0.020700,
0.007400,0.020700,
0.007400,0.007500,
0.039400,0.007500,
0.039400,0.020700,0.0*
%
%AMRECTHERMD14*
4,1,4,-0.007500,-0.007400,
-0.020700,-0.007400,
-0.020700,-0.039400,
-0.007500,-0.039400,
-0.007500,-0.007400,0.0*
4,1,4,-0.007500,0.039400,
-0.020700,0.039400,
-0.020700,0.007400,
-0.007500,0.007400,
-0.007500,0.039400,0.0*
4,1,4,0.020700,-0.007400,
0.007500,-0.007400,
0.007500,-0.039400,
0.020700,-0.039400,
0.020700,-0.007400,0.0*
4,1,4,0.020700,0.039400,
0.007500,0.039400,
0.007500,0.007400,
0.020700,0.007400,
0.020700,0.039400,0.0*
%
%AMRECTHERMD15*
4,1,4,-0.007500,-0.007500,
-0.041500,-0.007500,
-0.041500,-0.049400,
-0.007500,-0.049400,
-0.007500,-0.007500,0.0*
4,1,4,-0.007500,0.049400,
-0.041500,0.049400,
-0.041500,0.007500,
-0.007500,0.007500,
-0.007500,0.049400,0.0*
4,1,4,0.041500,-0.007500,
0.007500,-0.007500,
0.007500,-0.049400,
0.041500,-0.049400,
0.041500,-0.007500,0.0*
4,1,4,0.041500,0.049400,
0.007500,0.049400,
0.007500,0.007500,
0.041500,0.007500,
0.041500,0.049400,0.0*
%
%AMTHERM19*
1,1,0.095000,0.000000,0.000000*
1,0,0.075000,0.000000,0.000000*
4,0,4,-0.031800,0.042400,
-0.042400,0.031800,
0.031800,-0.042400,
0.042400,-0.031800,
-0.031800,0.042400,0.0*
4,0,4,0.031800,0.042400,
-0.042400,-0.031800,
-0.031800,-0.042400,
0.042400,0.031800,
0.031800,0.042400,0.0*
%
%AMRECTHERMD21*
4,1,4,-0.007500,-0.007500,
-0.049400,-0.007500,
-0.049400,-0.041500,
-0.007500,-0.041500,
-0.007500,-0.007500,0.0*
4,1,4,-0.007500,0.041500,
-0.049400,0.041500,
-0.049400,0.007500,
-0.007500,0.007500,
-0.007500,0.041500,0.0*
4,1,4,0.049400,-0.007500,
0.007500,-0.007500,
0.007500,-0.041500,
0.049400,-0.041500,
0.049400,-0.007500,0.0*
4,1,4,0.049400,0.041500,
0.007500,0.041500,
0.007500,0.007500,
0.049400,0.007500,
0.049400,0.041500,0.0*
%
%AMRECTHERMD24*
4,1,4,-0.007400,-0.007400,
-0.023900,-0.007400,
-0.023900,-0.053400,
-0.007400,-0.053400,
-0.007400,-0.007400,0.0*
4,1,4,-0.007400,0.053400,
-0.023900,0.053400,
-0.023900,0.007400,
-0.007400,0.007400,
-0.007400,0.053400,0.0*
4,1,4,0.023900,-0.007400,
0.007400,-0.007400,
0.007400,-0.053400,
0.023900,-0.053400,
0.023900,-0.007400,0.0*
4,1,4,0.023900,0.053400,
0.007400,0.053400,
0.007400,0.007400,
0.023900,0.007400,
0.023900,0.053400,0.0*
%
%AMRECTHERMD26*
4,1,4,-0.007400,-0.007500,
-0.031600,-0.007500,
-0.031600,-0.033600,
-0.007400,-0.033600,
-0.007400,-0.007500,0.0*
4,1,4,-0.007400,0.033600,
-0.031600,0.033600,
-0.031600,0.007500,
-0.007400,0.007500,
-0.007400,0.033600,0.0*
4,1,4,0.031600,-0.007500,
0.007400,-0.007500,
0.007400,-0.033600,
0.031600,-0.033600,
0.031600,-0.007500,0.0*
4,1,4,0.031600,0.033600,
0.007400,0.033600,
0.007400,0.007500,
0.031600,0.007500,
0.031600,0.033600,0.0*
%
%AMRECTHERMD28*
4,1,4,-0.007500,-0.007500,
-0.034000,-0.007500,
-0.034000,-0.030000,
-0.007500,-0.030000,
-0.007500,-0.007500,0.0*
4,1,4,-0.007500,0.030000,
-0.034000,0.030000,
-0.034000,0.007500,
-0.007500,0.007500,
-0.007500,0.030000,0.0*
4,1,4,0.034000,-0.007500,
0.007500,-0.007500,
0.007500,-0.030000,
0.034000,-0.030000,
0.034000,-0.007500,0.0*
4,1,4,0.034000,0.030000,
0.007500,0.030000,
0.007500,0.007500,
0.034000,0.007500,
0.034000,0.030000,0.0*
%
%AMRECTHERMD30*
4,1,4,-0.007500,-0.007500,
-0.041500,-0.007500,
-0.041500,-0.041500,
-0.007500,-0.041500,
-0.007500,-0.007500,0.0*
4,1,4,-0.007500,0.041500,
-0.041500,0.041500,
-0.041500,0.007500,
-0.007500,0.007500,
-0.007500,0.041500,0.0*
4,1,4,0.041500,-0.007500,
0.007500,-0.007500,
0.007500,-0.041500,
0.041500,-0.041500,
0.041500,-0.007500,0.0*
4,1,4,0.041500,0.041500,
0.007500,0.041500,
0.007500,0.007500,
0.041500,0.007500,
0.041500,0.041500,0.0*
%
%AMRECTHERMD31*
4,1,4,-0.007500,-0.007500,
-0.047500,-0.007500,
-0.047500,-0.047500,
-0.007500,-0.047500,
-0.007500,-0.007500,0.0*
4,1,4,-0.007500,0.047500,
-0.047500,0.047500,
-0.047500,0.007500,
-0.007500,0.007500,
-0.007500,0.047500,0.0*
4,1,4,0.047500,-0.007500,
0.007500,-0.007500,
0.007500,-0.047500,
0.047500,-0.047500,
0.047500,-0.007500,0.0*
4,1,4,0.047500,0.047500,
0.007500,0.047500,
0.007500,0.007500,
0.047500,0.007500,
0.047500,0.047500,0.0*
%
%AMRECTHERMD33*
4,1,4,-0.007500,-0.007500,
-0.030000,-0.007500,
-0.030000,-0.034000,
-0.007500,-0.034000,
-0.007500,-0.007500,0.0*
4,1,4,-0.007500,0.034000,
-0.030000,0.034000,
-0.030000,0.007500,
-0.007500,0.007500,
-0.007500,0.034000,0.0*
4,1,4,0.030000,-0.007500,
0.007500,-0.007500,
0.007500,-0.034000,
0.030000,-0.034000,
0.030000,-0.007500,0.0*
4,1,4,0.030000,0.034000,
0.007500,0.034000,
0.007500,0.007500,
0.030000,0.007500,
0.030000,0.034000,0.0*
%
%AMRECTHERMD34*
4,1,4,-0.007500,-0.007400,
-0.033600,-0.007400,
-0.033600,-0.031600,
-0.007500,-0.031600,
-0.007500,-0.007400,0.0*
4,1,4,-0.007500,0.031600,
-0.033600,0.031600,
-0.033600,0.007400,
-0.007500,0.007400,
-0.007500,0.031600,0.0*
4,1,4,0.033600,-0.007400,
0.007500,-0.007400,
0.007500,-0.031600,
0.033600,-0.031600,
0.033600,-0.007400,0.0*
4,1,4,0.033600,0.031600,
0.007500,0.031600,
0.007500,0.007400,
0.033600,0.007400,
0.033600,0.031600,0.0*
%
%AMTHERM35*
1,1,0.100000,0.000000,0.000000*
1,0,0.080000,0.000000,0.000000*
4,0,4,-0.033600,0.044200,
-0.044200,0.033600,
0.033600,-0.044200,
0.044200,-0.033600,
-0.033600,0.044200,0.0*
4,0,4,0.033600,0.044200,
-0.044200,-0.033600,
-0.033600,-0.044200,
0.044200,0.033600,
0.033600,0.044200,0.0*
%
%AMRECTHERMD38*
4,1,4,-0.007400,-0.007400,
-0.069900,-0.007400,
-0.069900,-0.069900,
-0.007400,-0.069900,
-0.007400,-0.007400,0.0*
4,1,4,-0.007400,0.069900,
-0.069900,0.069900,
-0.069900,0.007400,
-0.007400,0.007400,
-0.007400,0.069900,0.0*
4,1,4,0.069900,-0.007400,
0.007400,-0.007400,
0.007400,-0.069900,
0.069900,-0.069900,
0.069900,-0.007400,0.0*
4,1,4,0.069900,0.069900,
0.007400,0.069900,
0.007400,0.007400,
0.069900,0.007400,
0.069900,0.069900,0.0*
%
%AMRECTHERMD35*
4,1,4,-0.007400,-0.007400,
-0.069900,-0.007400,
-0.069900,-0.069900,
-0.007400,-0.069900,
-0.007400,-0.007400,0.0*
4,1,4,-0.007400,0.069900,
-0.069900,0.069900,
-0.069900,0.007400,
-0.007400,0.007400,
-0.007400,0.069900,0.0*
4,1,4,0.069900,-0.007400,
0.007400,-0.007400,
0.007400,-0.069900,
0.069900,-0.069900,
0.069900,-0.007400,0.0*
4,1,4,0.069900,0.069900,
0.007400,0.069900,
0.007400,0.007400,
0.069900,0.007400,
0.069900,0.069900,0.0*
%
%AMRECTHERMD12*
4,1,4,-0.007400,-0.007500,
-0.039400,-0.007500,
-0.039400,-0.020700,
-0.007400,-0.020700,
-0.007400,-0.007500,0.0*
4,1,4,-0.007400,0.020700,
-0.039400,0.020700,
-0.039400,0.007500,
-0.007400,0.007500,
-0.007400,0.020700,0.0*
4,1,4,0.039400,-0.007500,
0.007400,-0.007500,
0.007400,-0.020700,
0.039400,-0.020700,
0.039400,-0.007500,0.0*
4,1,4,0.039400,0.020700,
0.007400,0.020700,
0.007400,0.007500,
0.039400,0.007500,
0.039400,0.020700,0.0*
%
%AMRECTHERMD15~*
4,1,4,-0.007500,-0.007400,
-0.020700,-0.007400,
-0.020700,-0.039400,
-0.007500,-0.039400,
-0.007500,-0.007400,0.0*
4,1,4,-0.007500,0.039400,
-0.020700,0.039400,
-0.020700,0.007400,
-0.007500,0.007400,
-0.007500,0.039400,0.0*
4,1,4,0.020700,-0.007400,
0.007500,-0.007400,
0.007500,-0.039400,
0.020700,-0.039400,
0.020700,-0.007400,0.0*
4,1,4,0.020700,0.039400,
0.007500,0.039400,
0.007500,0.007400,
0.020700,0.007400,
0.020700,0.039400,0.0*
%
%AMRECTHERMD16*
4,1,4,-0.007500,-0.007500,
-0.041500,-0.007500,
-0.041500,-0.049400,
-0.007500,-0.049400,
-0.007500,-0.007500,0.0*
4,1,4,-0.007500,0.049400,
-0.041500,0.049400,
-0.041500,0.007500,
-0.007500,0.007500,
-0.007500,0.049400,0.0*
4,1,4,0.041500,-0.007500,
0.007500,-0.007500,
0.007500,-0.049400,
0.041500,-0.049400,
0.041500,-0.007500,0.0*
4,1,4,0.041500,0.049400,
0.007500,0.049400,
0.007500,0.007500,
0.041500,0.007500,
0.041500,0.049400,0.0*
%
%AMTHERM20*
1,1,0.095000,0.000000,0.000000*
1,0,0.075000,0.000000,0.000000*
4,0,4,-0.031800,0.042400,
-0.042400,0.031800,
0.031800,-0.042400,
0.042400,-0.031800,
-0.031800,0.042400,0.0*
4,0,4,0.031800,0.042400,
-0.042400,-0.031800,
-0.031800,-0.042400,
0.042400,0.031800,
0.031800,0.042400,0.0*
%
%AMRECTHERMD22*
4,1,4,-0.007500,-0.007500,
-0.049400,-0.007500,
-0.049400,-0.041500,
-0.007500,-0.041500,
-0.007500,-0.007500,0.0*
4,1,4,-0.007500,0.041500,
-0.049400,0.041500,
-0.049400,0.007500,
-0.007500,0.007500,
-0.007500,0.041500,0.0*
4,1,4,0.049400,-0.007500,
0.007500,-0.007500,
0.007500,-0.041500,
0.049400,-0.041500,
0.049400,-0.007500,0.0*
4,1,4,0.049400,0.041500,
0.007500,0.041500,
0.007500,0.007500,
0.049400,0.007500,
0.049400,0.041500,0.0*
%
%AMRECTHERMD25*
4,1,4,-0.007400,-0.007400,
-0.023900,-0.007400,
-0.023900,-0.053400,
-0.007400,-0.053400,
-0.007400,-0.007400,0.0*
4,1,4,-0.007400,0.053400,
-0.023900,0.053400,
-0.023900,0.007400,
-0.007400,0.007400,
-0.007400,0.053400,0.0*
4,1,4,0.023900,-0.007400,
0.007400,-0.007400,
0.007400,-0.053400,
0.023900,-0.053400,
0.023900,-0.007400,0.0*
4,1,4,0.023900,0.053400,
0.007400,0.053400,
0.007400,0.007400,
0.023900,0.007400,
0.023900,0.053400,0.0*
%
%AMRECTHERMD27*
4,1,4,-0.007400,-0.007500,
-0.031600,-0.007500,
-0.031600,-0.033600,
-0.007400,-0.033600,
-0.007400,-0.007500,0.0*
4,1,4,-0.007400,0.033600,
-0.031600,0.033600,
-0.031600,0.007500,
-0.007400,0.007500,
-0.007400,0.033600,0.0*
4,1,4,0.031600,-0.007500,
0.007400,-0.007500,
0.007400,-0.033600,
0.031600,-0.033600,
0.031600,-0.007500,0.0*
4,1,4,0.031600,0.033600,
0.007400,0.033600,
0.007400,0.007500,
0.031600,0.007500,
0.031600,0.033600,0.0*
%
%AMRECTHERMD29*
4,1,4,-0.007500,-0.007500,
-0.034000,-0.007500,
-0.034000,-0.030000,
-0.007500,-0.030000,
-0.007500,-0.007500,0.0*
4,1,4,-0.007500,0.030000,
-0.034000,0.030000,
-0.034000,0.007500,
-0.007500,0.007500,
-0.007500,0.030000,0.0*
4,1,4,0.034000,-0.007500,
0.007500,-0.007500,
0.007500,-0.030000,
0.034000,-0.030000,
0.034000,-0.007500,0.0*
4,1,4,0.034000,0.030000,
0.007500,0.030000,
0.007500,0.007500,
0.034000,0.007500,
0.034000,0.030000,0.0*
%
%AMRECTHERMD31~*
4,1,4,-0.007500,-0.007500,
-0.041500,-0.007500,
-0.041500,-0.041500,
-0.007500,-0.041500,
-0.007500,-0.007500,0.0*
4,1,4,-0.007500,0.041500,
-0.041500,0.041500,
-0.041500,0.007500,
-0.007500,0.007500,
-0.007500,0.041500,0.0*
4,1,4,0.041500,-0.007500,
0.007500,-0.007500,
0.007500,-0.041500,
0.041500,-0.041500,
0.041500,-0.007500,0.0*
4,1,4,0.041500,0.041500,
0.007500,0.041500,
0.007500,0.007500,
0.041500,0.007500,
0.041500,0.041500,0.0*
%
%AMRECTHERMD32*
4,1,4,-0.007500,-0.007500,
-0.047500,-0.007500,
-0.047500,-0.047500,
-0.007500,-0.047500,
-0.007500,-0.007500,0.0*
4,1,4,-0.007500,0.047500,
-0.047500,0.047500,
-0.047500,0.007500,
-0.007500,0.007500,
-0.007500,0.047500,0.0*
4,1,4,0.047500,-0.007500,
0.007500,-0.007500,
0.007500,-0.047500,
0.047500,-0.047500,
0.047500,-0.007500,0.0*
4,1,4,0.047500,0.047500,
0.007500,0.047500,
0.007500,0.007500,
0.047500,0.007500,
0.047500,0.047500,0.0*
%
%AMRECTHERMD34~*
4,1,4,-0.007500,-0.007500,
-0.030000,-0.007500,
-0.030000,-0.034000,
-0.007500,-0.034000,
-0.007500,-0.007500,0.0*
4,1,4,-0.007500,0.034000,
-0.030000,0.034000,
-0.030000,0.007500,
-0.007500,0.007500,
-0.007500,0.034000,0.0*
4,1,4,0.030000,-0.007500,
0.007500,-0.007500,
0.007500,-0.034000,
0.030000,-0.034000,
0.030000,-0.007500,0.0*
4,1,4,0.030000,0.034000,
0.007500,0.034000,
0.007500,0.007500,
0.030000,0.007500,
0.030000,0.034000,0.0*
%
%AMRECTHERMD35~*
4,1,4,-0.007500,-0.007400,
-0.033600,-0.007400,
-0.033600,-0.031600,
-0.007500,-0.031600,
-0.007500,-0.007400,0.0*
4,1,4,-0.007500,0.031600,
-0.033600,0.031600,
-0.033600,0.007400,
-0.007500,0.007400,
-0.007500,0.031600,0.0*
4,1,4,0.033600,-0.007400,
0.007500,-0.007400,
0.007500,-0.031600,
0.033600,-0.031600,
0.033600,-0.007400,0.0*
4,1,4,0.033600,0.031600,
0.007500,0.031600,
0.007500,0.007400,
0.033600,0.007400,
0.033600,0.031600,0.0*
%
%AMRECTHERMD36*
4,1,4,-0.007400,-0.007400,
-0.069900,-0.007400,
-0.069900,-0.069900,
-0.007400,-0.069900,
-0.007400,-0.007400,0.0*
4,1,4,-0.007400,0.069900,
-0.069900,0.069900,
-0.069900,0.007400,
-0.007400,0.007400,
-0.007400,0.069900,0.0*
4,1,4,0.069900,-0.007400,
0.007400,-0.007400,
0.007400,-0.069900,
0.069900,-0.069900,
0.069900,-0.007400,0.0*
4,1,4,0.069900,0.069900,
0.007400,0.069900,
0.007400,0.007400,
0.069900,0.007400,
0.069900,0.069900,0.0*
%
%ADD10R,0.079000X0.041600*%
%ADD11RECTHERMD11*%
%ADD12C,0.001000*%
%ADD13R,0.041600X0.079000*%
%ADD14RECTHERMD14*%
%ADD15RECTHERMD15*%
%ADD16R,0.083000X0.098700*%
%ADD17C,0.095000*%
%ADD18R,0.095000X0.095000*%
%ADD19THERM19*%
%ADD20R,0.067200X0.063300*%
%ADD21RECTHERMD21*%
%ADD22R,0.098700X0.083000*%
%ADD23R,0.048000X0.107000*%
%ADD24RECTHERMD24*%
%ADD25R,0.063300X0.067200*%
%ADD26RECTHERMD26*%
%ADD27R,0.068000X0.060000*%
%ADD28RECTHERMD28*%
%ADD29R,0.083000X0.083000*%
%ADD30RECTHERMD30*%
%ADD31RECTHERMD31*%
%ADD32R,0.060000X0.068000*%
%ADD33RECTHERMD33*%
%ADD34RECTHERMD34*%
%ADD35THERM35*%
%ADD36R,0.100000X0.100000*%
%ADD37C,0.100000*%
%ADD38RECTHERMD38*%
%ADD39C,0.140000*%
%ADD40C,0.120000*%
%ADD41C,0.036000*%
%ADD42C,0.040000*%
%ADD43C,0.045000*%
%ADD44C,0.010000*%
%ADD45R,0.059000X0.021600*%
%ADD46R,0.021600X0.059000*%
%ADD47R,0.063000X0.078700*%
%ADD48C,0.075000*%
%ADD49R,0.075000X0.075000*%
%ADD50R,0.047200X0.043300*%
%ADD51R,0.078700X0.063000*%
%ADD52R,0.028000X0.087000*%
%ADD53R,0.043300X0.047200*%
%ADD54R,0.048000X0.040000*%
%ADD55R,0.063000X0.063000*%
%ADD56R,0.040000X0.048000*%
%ADD57C,0.080000*%
%ADD58R,0.080000X0.080000*%
%ADD59R,0.120000X0.120000*%
%ADD60C,0.016000*%
%ADD61C,0.020000*%
%ADD62C,0.025000*%
%ADD63RECTHERMD35*%
%ADD64RECTHERMD12*%
%ADD65RECTHERMD15~*%
%ADD66RECTHERMD16*%
%ADD67THERM20*%
%ADD68RECTHERMD22*%
%ADD69RECTHERMD25*%
%ADD70RECTHERMD27*%
%ADD71RECTHERMD29*%
%ADD72RECTHERMD31~*%
%ADD73RECTHERMD32*%
%ADD74RECTHERMD34~*%
%ADD75RECTHERMD35~*%
%ADD76RECTHERMD36*%
%ADD77R,0.075000X0.037600*%
%ADD78R,0.037600X0.075000*%
%ADD79R,0.079000X0.094700*%
%ADD80C,0.091000*%
%ADD81R,0.091000X0.091000*%
%ADD82R,0.063200X0.059300*%
%ADD83R,0.094700X0.079000*%
%ADD84R,0.044000X0.103000*%
%ADD85R,0.059300X0.063200*%
%ADD86R,0.064000X0.056000*%
%ADD87R,0.079000X0.079000*%
%ADD88R,0.056000X0.064000*%
%ADD89R,0.136000X0.136000*%
%ADD90C,0.136000*%
%ADD91C,0.116000*%
%ADD92C,0.005000*%
%ADD501C,0.030000*%
%ADD502C,0.040000*%
%ADD503C,0.055000*%
%ADD504C,0.070000*%
%LNboard_outline-1*%
%LPD*%
G54D44*
X-29800Y1854D02*
Y900D01*
Y1854D02*
X-29390D01*
X-29254Y1809D01*
X-29209Y1763D01*
X-29163Y1672D01*
Y1581D01*
X-29209Y1490D01*
X-29254Y1445D01*
X-29390Y1400D01*
X-29800D02*
X-29390D01*
X-29254Y1354D01*
X-29209Y1309D01*
X-29163Y1218D01*
Y1081D01*
X-29209Y990D01*
X-29254Y945D01*
X-29390Y900D01*
X-29800D01*
X-28572Y1536D02*
X-28663Y1490D01*
X-28754Y1400D01*
X-28800Y1263D01*
Y1172D01*
X-28754Y1036D01*
X-28663Y945D01*
X-28572Y900D01*
X-28436D01*
X-28345Y945D01*
X-28254Y1036D01*
X-28209Y1172D01*
Y1263D01*
X-28254Y1400D01*
X-28345Y1490D01*
X-28436Y1536D01*
X-28572D01*
X-27300D02*
Y900D01*
Y1400D02*
X-27390Y1490D01*
X-27481Y1536D01*
X-27618D01*
X-27709Y1490D01*
X-27800Y1400D01*
X-27845Y1263D01*
Y1172D01*
X-27800Y1036D01*
X-27709Y945D01*
X-27618Y900D01*
X-27481D01*
X-27390Y945D01*
X-27300Y1036D01*
X-26936Y1536D02*
Y900D01*
Y1263D02*
X-26890Y1400D01*
X-26800Y1490D01*
X-26709Y1536D01*
X-26572D01*
X-25663Y1854D02*
Y900D01*
Y1400D02*
X-25754Y1490D01*
X-25845Y1536D01*
X-25981D01*
X-26072Y1490D01*
X-26163Y1400D01*
X-26209Y1263D01*
Y1172D01*
X-26163Y1036D01*
X-26072Y945D01*
X-25981Y900D01*
X-25845D01*
X-25754Y945D01*
X-25663Y1036D01*
X-24300Y1854D02*
X-24390Y1809D01*
X-24481Y1718D01*
X-24527Y1627D01*
X-24572Y1490D01*
Y1263D01*
X-24527Y1127D01*
X-24481Y1036D01*
X-24390Y945D01*
X-24300Y900D01*
X-24118D01*
X-24027Y945D01*
X-23936Y1036D01*
X-23890Y1127D01*
X-23845Y1263D01*
Y1490D01*
X-23890Y1627D01*
X-23936Y1718D01*
X-24027Y1809D01*
X-24118Y1854D01*
X-24300D01*
X-23481Y1536D02*
Y1081D01*
X-23436Y945D01*
X-23345Y900D01*
X-23209D01*
X-23118Y945D01*
X-22981Y1081D01*
Y1536D02*
Y900D01*
X-22481Y1854D02*
Y1081D01*
X-22436Y945D01*
X-22345Y900D01*
X-22254D01*
X-22618Y1536D02*
X-22300D01*
X-21890Y1854D02*
Y900D01*
X-21527Y1854D02*
X-21481Y1809D01*
X-21436Y1854D01*
X-21481Y1900D01*
X-21527Y1854D01*
X-21481Y1536D02*
Y900D01*
X-21072Y1536D02*
Y900D01*
Y1354D02*
X-20936Y1490D01*
X-20845Y1536D01*
X-20709D01*
X-20618Y1490D01*
X-20572Y1354D01*
Y900D01*
X-20209Y1263D02*
X-19663D01*
Y1354D01*
X-19709Y1445D01*
X-19754Y1490D01*
X-19845Y1536D01*
X-19981D01*
X-20072Y1490D01*
X-20163Y1400D01*
X-20209Y1263D01*
Y1172D01*
X-20163Y1036D01*
X-20072Y945D01*
X-19981Y900D01*
X-19845D01*
X-19754Y945D01*
X-19663Y1036D01*
G54D92*
X0Y2900D02*
Y18600D01*
X-29800*
Y2900*
X0*
M02*