G04 CAM Products 2000  RS274-X Output*
G04 Serial Number: 0000-00-00000*
G04 File Name:top_copper.grb *
%FSLAX34Y34*%
%MOIN*%
%SFA1B1*%

%IPPOS*%
%AMRECTHERMD11*
4,1,4,-0.007400,-0.007500,
-0.039400,-0.007500,
-0.039400,-0.020700,
-0.007400,-0.020700,
-0.007400,-0.007500,0.0*
4,1,4,-0.007400,0.020700,
-0.039400,0.020700,
-0.039400,0.007500,
-0.007400,0.007500,
-0.007400,0.020700,0.0*
4,1,4,0.039400,-0.007500,
0.007400,-0.007500,
0.007400,-0.020700,
0.039400,-0.020700,
0.039400,-0.007500,0.0*
4,1,4,0.039400,0.020700,
0.007400,0.020700,
0.007400,0.007500,
0.039400,0.007500,
0.039400,0.020700,0.0*
%
%AMRECTHERMD14*
4,1,4,-0.007500,-0.007400,
-0.020700,-0.007400,
-0.020700,-0.039400,
-0.007500,-0.039400,
-0.007500,-0.007400,0.0*
4,1,4,-0.007500,0.039400,
-0.020700,0.039400,
-0.020700,0.007400,
-0.007500,0.007400,
-0.007500,0.039400,0.0*
4,1,4,0.020700,-0.007400,
0.007500,-0.007400,
0.007500,-0.039400,
0.020700,-0.039400,
0.020700,-0.007400,0.0*
4,1,4,0.020700,0.039400,
0.007500,0.039400,
0.007500,0.007400,
0.020700,0.007400,
0.020700,0.039400,0.0*
%
%AMRECTHERMD15*
4,1,4,-0.007500,-0.007500,
-0.041500,-0.007500,
-0.041500,-0.049400,
-0.007500,-0.049400,
-0.007500,-0.007500,0.0*
4,1,4,-0.007500,0.049400,
-0.041500,0.049400,
-0.041500,0.007500,
-0.007500,0.007500,
-0.007500,0.049400,0.0*
4,1,4,0.041500,-0.007500,
0.007500,-0.007500,
0.007500,-0.049400,
0.041500,-0.049400,
0.041500,-0.007500,0.0*
4,1,4,0.041500,0.049400,
0.007500,0.049400,
0.007500,0.007500,
0.041500,0.007500,
0.041500,0.049400,0.0*
%
%AMTHERM19*
1,1,0.095000,0.000000,0.000000*
1,0,0.075000,0.000000,0.000000*
4,0,4,-0.031800,0.042400,
-0.042400,0.031800,
0.031800,-0.042400,
0.042400,-0.031800,
-0.031800,0.042400,0.0*
4,0,4,0.031800,0.042400,
-0.042400,-0.031800,
-0.031800,-0.042400,
0.042400,0.031800,
0.031800,0.042400,0.0*
%
%AMRECTHERMD21*
4,1,4,-0.007500,-0.007500,
-0.049400,-0.007500,
-0.049400,-0.041500,
-0.007500,-0.041500,
-0.007500,-0.007500,0.0*
4,1,4,-0.007500,0.041500,
-0.049400,0.041500,
-0.049400,0.007500,
-0.007500,0.007500,
-0.007500,0.041500,0.0*
4,1,4,0.049400,-0.007500,
0.007500,-0.007500,
0.007500,-0.041500,
0.049400,-0.041500,
0.049400,-0.007500,0.0*
4,1,4,0.049400,0.041500,
0.007500,0.041500,
0.007500,0.007500,
0.049400,0.007500,
0.049400,0.041500,0.0*
%
%AMRECTHERMD24*
4,1,4,-0.007400,-0.007400,
-0.023900,-0.007400,
-0.023900,-0.053400,
-0.007400,-0.053400,
-0.007400,-0.007400,0.0*
4,1,4,-0.007400,0.053400,
-0.023900,0.053400,
-0.023900,0.007400,
-0.007400,0.007400,
-0.007400,0.053400,0.0*
4,1,4,0.023900,-0.007400,
0.007400,-0.007400,
0.007400,-0.053400,
0.023900,-0.053400,
0.023900,-0.007400,0.0*
4,1,4,0.023900,0.053400,
0.007400,0.053400,
0.007400,0.007400,
0.023900,0.007400,
0.023900,0.053400,0.0*
%
%AMRECTHERMD26*
4,1,4,-0.007400,-0.007500,
-0.031600,-0.007500,
-0.031600,-0.033600,
-0.007400,-0.033600,
-0.007400,-0.007500,0.0*
4,1,4,-0.007400,0.033600,
-0.031600,0.033600,
-0.031600,0.007500,
-0.007400,0.007500,
-0.007400,0.033600,0.0*
4,1,4,0.031600,-0.007500,
0.007400,-0.007500,
0.007400,-0.033600,
0.031600,-0.033600,
0.031600,-0.007500,0.0*
4,1,4,0.031600,0.033600,
0.007400,0.033600,
0.007400,0.007500,
0.031600,0.007500,
0.031600,0.033600,0.0*
%
%AMRECTHERMD28*
4,1,4,-0.007500,-0.007500,
-0.034000,-0.007500,
-0.034000,-0.030000,
-0.007500,-0.030000,
-0.007500,-0.007500,0.0*
4,1,4,-0.007500,0.030000,
-0.034000,0.030000,
-0.034000,0.007500,
-0.007500,0.007500,
-0.007500,0.030000,0.0*
4,1,4,0.034000,-0.007500,
0.007500,-0.007500,
0.007500,-0.030000,
0.034000,-0.030000,
0.034000,-0.007500,0.0*
4,1,4,0.034000,0.030000,
0.007500,0.030000,
0.007500,0.007500,
0.034000,0.007500,
0.034000,0.030000,0.0*
%
%AMRECTHERMD30*
4,1,4,-0.007500,-0.007500,
-0.041500,-0.007500,
-0.041500,-0.041500,
-0.007500,-0.041500,
-0.007500,-0.007500,0.0*
4,1,4,-0.007500,0.041500,
-0.041500,0.041500,
-0.041500,0.007500,
-0.007500,0.007500,
-0.007500,0.041500,0.0*
4,1,4,0.041500,-0.007500,
0.007500,-0.007500,
0.007500,-0.041500,
0.041500,-0.041500,
0.041500,-0.007500,0.0*
4,1,4,0.041500,0.041500,
0.007500,0.041500,
0.007500,0.007500,
0.041500,0.007500,
0.041500,0.041500,0.0*
%
%AMRECTHERMD31*
4,1,4,-0.007500,-0.007500,
-0.047500,-0.007500,
-0.047500,-0.047500,
-0.007500,-0.047500,
-0.007500,-0.007500,0.0*
4,1,4,-0.007500,0.047500,
-0.047500,0.047500,
-0.047500,0.007500,
-0.007500,0.007500,
-0.007500,0.047500,0.0*
4,1,4,0.047500,-0.007500,
0.007500,-0.007500,
0.007500,-0.047500,
0.047500,-0.047500,
0.047500,-0.007500,0.0*
4,1,4,0.047500,0.047500,
0.007500,0.047500,
0.007500,0.007500,
0.047500,0.007500,
0.047500,0.047500,0.0*
%
%AMRECTHERMD33*
4,1,4,-0.007500,-0.007500,
-0.030000,-0.007500,
-0.030000,-0.034000,
-0.007500,-0.034000,
-0.007500,-0.007500,0.0*
4,1,4,-0.007500,0.034000,
-0.030000,0.034000,
-0.030000,0.007500,
-0.007500,0.007500,
-0.007500,0.034000,0.0*
4,1,4,0.030000,-0.007500,
0.007500,-0.007500,
0.007500,-0.034000,
0.030000,-0.034000,
0.030000,-0.007500,0.0*
4,1,4,0.030000,0.034000,
0.007500,0.034000,
0.007500,0.007500,
0.030000,0.007500,
0.030000,0.034000,0.0*
%
%AMRECTHERMD34*
4,1,4,-0.007500,-0.007400,
-0.033600,-0.007400,
-0.033600,-0.031600,
-0.007500,-0.031600,
-0.007500,-0.007400,0.0*
4,1,4,-0.007500,0.031600,
-0.033600,0.031600,
-0.033600,0.007400,
-0.007500,0.007400,
-0.007500,0.031600,0.0*
4,1,4,0.033600,-0.007400,
0.007500,-0.007400,
0.007500,-0.031600,
0.033600,-0.031600,
0.033600,-0.007400,0.0*
4,1,4,0.033600,0.031600,
0.007500,0.031600,
0.007500,0.007400,
0.033600,0.007400,
0.033600,0.031600,0.0*
%
%AMTHERM35*
1,1,0.100000,0.000000,0.000000*
1,0,0.080000,0.000000,0.000000*
4,0,4,-0.033600,0.044200,
-0.044200,0.033600,
0.033600,-0.044200,
0.044200,-0.033600,
-0.033600,0.044200,0.0*
4,0,4,0.033600,0.044200,
-0.044200,-0.033600,
-0.033600,-0.044200,
0.044200,0.033600,
0.033600,0.044200,0.0*
%
%AMRECTHERMD38*
4,1,4,-0.007400,-0.007400,
-0.069900,-0.007400,
-0.069900,-0.069900,
-0.007400,-0.069900,
-0.007400,-0.007400,0.0*
4,1,4,-0.007400,0.069900,
-0.069900,0.069900,
-0.069900,0.007400,
-0.007400,0.007400,
-0.007400,0.069900,0.0*
4,1,4,0.069900,-0.007400,
0.007400,-0.007400,
0.007400,-0.069900,
0.069900,-0.069900,
0.069900,-0.007400,0.0*
4,1,4,0.069900,0.069900,
0.007400,0.069900,
0.007400,0.007400,
0.069900,0.007400,
0.069900,0.069900,0.0*
%
%AMRECTHERMD35*
4,1,4,-0.007400,-0.007400,
-0.069900,-0.007400,
-0.069900,-0.069900,
-0.007400,-0.069900,
-0.007400,-0.007400,0.0*
4,1,4,-0.007400,0.069900,
-0.069900,0.069900,
-0.069900,0.007400,
-0.007400,0.007400,
-0.007400,0.069900,0.0*
4,1,4,0.069900,-0.007400,
0.007400,-0.007400,
0.007400,-0.069900,
0.069900,-0.069900,
0.069900,-0.007400,0.0*
4,1,4,0.069900,0.069900,
0.007400,0.069900,
0.007400,0.007400,
0.069900,0.007400,
0.069900,0.069900,0.0*
%
%AMRECTHERMD12*
4,1,4,-0.007400,-0.007500,
-0.039400,-0.007500,
-0.039400,-0.020700,
-0.007400,-0.020700,
-0.007400,-0.007500,0.0*
4,1,4,-0.007400,0.020700,
-0.039400,0.020700,
-0.039400,0.007500,
-0.007400,0.007500,
-0.007400,0.020700,0.0*
4,1,4,0.039400,-0.007500,
0.007400,-0.007500,
0.007400,-0.020700,
0.039400,-0.020700,
0.039400,-0.007500,0.0*
4,1,4,0.039400,0.020700,
0.007400,0.020700,
0.007400,0.007500,
0.039400,0.007500,
0.039400,0.020700,0.0*
%
%AMRECTHERMD15~*
4,1,4,-0.007500,-0.007400,
-0.020700,-0.007400,
-0.020700,-0.039400,
-0.007500,-0.039400,
-0.007500,-0.007400,0.0*
4,1,4,-0.007500,0.039400,
-0.020700,0.039400,
-0.020700,0.007400,
-0.007500,0.007400,
-0.007500,0.039400,0.0*
4,1,4,0.020700,-0.007400,
0.007500,-0.007400,
0.007500,-0.039400,
0.020700,-0.039400,
0.020700,-0.007400,0.0*
4,1,4,0.020700,0.039400,
0.007500,0.039400,
0.007500,0.007400,
0.020700,0.007400,
0.020700,0.039400,0.0*
%
%AMRECTHERMD16*
4,1,4,-0.007500,-0.007500,
-0.041500,-0.007500,
-0.041500,-0.049400,
-0.007500,-0.049400,
-0.007500,-0.007500,0.0*
4,1,4,-0.007500,0.049400,
-0.041500,0.049400,
-0.041500,0.007500,
-0.007500,0.007500,
-0.007500,0.049400,0.0*
4,1,4,0.041500,-0.007500,
0.007500,-0.007500,
0.007500,-0.049400,
0.041500,-0.049400,
0.041500,-0.007500,0.0*
4,1,4,0.041500,0.049400,
0.007500,0.049400,
0.007500,0.007500,
0.041500,0.007500,
0.041500,0.049400,0.0*
%
%AMTHERM20*
1,1,0.095000,0.000000,0.000000*
1,0,0.075000,0.000000,0.000000*
4,0,4,-0.031800,0.042400,
-0.042400,0.031800,
0.031800,-0.042400,
0.042400,-0.031800,
-0.031800,0.042400,0.0*
4,0,4,0.031800,0.042400,
-0.042400,-0.031800,
-0.031800,-0.042400,
0.042400,0.031800,
0.031800,0.042400,0.0*
%
%AMRECTHERMD22*
4,1,4,-0.007500,-0.007500,
-0.049400,-0.007500,
-0.049400,-0.041500,
-0.007500,-0.041500,
-0.007500,-0.007500,0.0*
4,1,4,-0.007500,0.041500,
-0.049400,0.041500,
-0.049400,0.007500,
-0.007500,0.007500,
-0.007500,0.041500,0.0*
4,1,4,0.049400,-0.007500,
0.007500,-0.007500,
0.007500,-0.041500,
0.049400,-0.041500,
0.049400,-0.007500,0.0*
4,1,4,0.049400,0.041500,
0.007500,0.041500,
0.007500,0.007500,
0.049400,0.007500,
0.049400,0.041500,0.0*
%
%AMRECTHERMD25*
4,1,4,-0.007400,-0.007400,
-0.023900,-0.007400,
-0.023900,-0.053400,
-0.007400,-0.053400,
-0.007400,-0.007400,0.0*
4,1,4,-0.007400,0.053400,
-0.023900,0.053400,
-0.023900,0.007400,
-0.007400,0.007400,
-0.007400,0.053400,0.0*
4,1,4,0.023900,-0.007400,
0.007400,-0.007400,
0.007400,-0.053400,
0.023900,-0.053400,
0.023900,-0.007400,0.0*
4,1,4,0.023900,0.053400,
0.007400,0.053400,
0.007400,0.007400,
0.023900,0.007400,
0.023900,0.053400,0.0*
%
%AMRECTHERMD27*
4,1,4,-0.007400,-0.007500,
-0.031600,-0.007500,
-0.031600,-0.033600,
-0.007400,-0.033600,
-0.007400,-0.007500,0.0*
4,1,4,-0.007400,0.033600,
-0.031600,0.033600,
-0.031600,0.007500,
-0.007400,0.007500,
-0.007400,0.033600,0.0*
4,1,4,0.031600,-0.007500,
0.007400,-0.007500,
0.007400,-0.033600,
0.031600,-0.033600,
0.031600,-0.007500,0.0*
4,1,4,0.031600,0.033600,
0.007400,0.033600,
0.007400,0.007500,
0.031600,0.007500,
0.031600,0.033600,0.0*
%
%AMRECTHERMD29*
4,1,4,-0.007500,-0.007500,
-0.034000,-0.007500,
-0.034000,-0.030000,
-0.007500,-0.030000,
-0.007500,-0.007500,0.0*
4,1,4,-0.007500,0.030000,
-0.034000,0.030000,
-0.034000,0.007500,
-0.007500,0.007500,
-0.007500,0.030000,0.0*
4,1,4,0.034000,-0.007500,
0.007500,-0.007500,
0.007500,-0.030000,
0.034000,-0.030000,
0.034000,-0.007500,0.0*
4,1,4,0.034000,0.030000,
0.007500,0.030000,
0.007500,0.007500,
0.034000,0.007500,
0.034000,0.030000,0.0*
%
%AMRECTHERMD31~*
4,1,4,-0.007500,-0.007500,
-0.041500,-0.007500,
-0.041500,-0.041500,
-0.007500,-0.041500,
-0.007500,-0.007500,0.0*
4,1,4,-0.007500,0.041500,
-0.041500,0.041500,
-0.041500,0.007500,
-0.007500,0.007500,
-0.007500,0.041500,0.0*
4,1,4,0.041500,-0.007500,
0.007500,-0.007500,
0.007500,-0.041500,
0.041500,-0.041500,
0.041500,-0.007500,0.0*
4,1,4,0.041500,0.041500,
0.007500,0.041500,
0.007500,0.007500,
0.041500,0.007500,
0.041500,0.041500,0.0*
%
%AMRECTHERMD32*
4,1,4,-0.007500,-0.007500,
-0.047500,-0.007500,
-0.047500,-0.047500,
-0.007500,-0.047500,
-0.007500,-0.007500,0.0*
4,1,4,-0.007500,0.047500,
-0.047500,0.047500,
-0.047500,0.007500,
-0.007500,0.007500,
-0.007500,0.047500,0.0*
4,1,4,0.047500,-0.007500,
0.007500,-0.007500,
0.007500,-0.047500,
0.047500,-0.047500,
0.047500,-0.007500,0.0*
4,1,4,0.047500,0.047500,
0.007500,0.047500,
0.007500,0.007500,
0.047500,0.007500,
0.047500,0.047500,0.0*
%
%AMRECTHERMD34~*
4,1,4,-0.007500,-0.007500,
-0.030000,-0.007500,
-0.030000,-0.034000,
-0.007500,-0.034000,
-0.007500,-0.007500,0.0*
4,1,4,-0.007500,0.034000,
-0.030000,0.034000,
-0.030000,0.007500,
-0.007500,0.007500,
-0.007500,0.034000,0.0*
4,1,4,0.030000,-0.007500,
0.007500,-0.007500,
0.007500,-0.034000,
0.030000,-0.034000,
0.030000,-0.007500,0.0*
4,1,4,0.030000,0.034000,
0.007500,0.034000,
0.007500,0.007500,
0.030000,0.007500,
0.030000,0.034000,0.0*
%
%AMRECTHERMD35~*
4,1,4,-0.007500,-0.007400,
-0.033600,-0.007400,
-0.033600,-0.031600,
-0.007500,-0.031600,
-0.007500,-0.007400,0.0*
4,1,4,-0.007500,0.031600,
-0.033600,0.031600,
-0.033600,0.007400,
-0.007500,0.007400,
-0.007500,0.031600,0.0*
4,1,4,0.033600,-0.007400,
0.007500,-0.007400,
0.007500,-0.031600,
0.033600,-0.031600,
0.033600,-0.007400,0.0*
4,1,4,0.033600,0.031600,
0.007500,0.031600,
0.007500,0.007400,
0.033600,0.007400,
0.033600,0.031600,0.0*
%
%AMRECTHERMD36*
4,1,4,-0.007400,-0.007400,
-0.069900,-0.007400,
-0.069900,-0.069900,
-0.007400,-0.069900,
-0.007400,-0.007400,0.0*
4,1,4,-0.007400,0.069900,
-0.069900,0.069900,
-0.069900,0.007400,
-0.007400,0.007400,
-0.007400,0.069900,0.0*
4,1,4,0.069900,-0.007400,
0.007400,-0.007400,
0.007400,-0.069900,
0.069900,-0.069900,
0.069900,-0.007400,0.0*
4,1,4,0.069900,0.069900,
0.007400,0.069900,
0.007400,0.007400,
0.069900,0.007400,
0.069900,0.069900,0.0*
%
%ADD10R,0.079000X0.041600*%
%ADD11RECTHERMD11*%
%ADD12C,0.001000*%
%ADD13R,0.041600X0.079000*%
%ADD14RECTHERMD14*%
%ADD15RECTHERMD15*%
%ADD16R,0.083000X0.098700*%
%ADD17C,0.095000*%
%ADD18R,0.095000X0.095000*%
%ADD19THERM19*%
%ADD20R,0.067200X0.063300*%
%ADD21RECTHERMD21*%
%ADD22R,0.098700X0.083000*%
%ADD23R,0.048000X0.107000*%
%ADD24RECTHERMD24*%
%ADD25R,0.063300X0.067200*%
%ADD26RECTHERMD26*%
%ADD27R,0.068000X0.060000*%
%ADD28RECTHERMD28*%
%ADD29R,0.083000X0.083000*%
%ADD30RECTHERMD30*%
%ADD31RECTHERMD31*%
%ADD32R,0.060000X0.068000*%
%ADD33RECTHERMD33*%
%ADD34RECTHERMD34*%
%ADD35THERM35*%
%ADD36R,0.100000X0.100000*%
%ADD37C,0.100000*%
%ADD38RECTHERMD38*%
%ADD39C,0.140000*%
%ADD40C,0.120000*%
%ADD41C,0.036000*%
%ADD42C,0.040000*%
%ADD43C,0.045000*%
%ADD44C,0.010000*%
%ADD45R,0.059000X0.021600*%
%ADD46R,0.021600X0.059000*%
%ADD47R,0.063000X0.078700*%
%ADD48C,0.075000*%
%ADD49R,0.075000X0.075000*%
%ADD50R,0.047200X0.043300*%
%ADD51R,0.078700X0.063000*%
%ADD52R,0.028000X0.087000*%
%ADD53R,0.043300X0.047200*%
%ADD54R,0.048000X0.040000*%
%ADD55R,0.063000X0.063000*%
%ADD56R,0.040000X0.048000*%
%ADD57C,0.080000*%
%ADD58R,0.080000X0.080000*%
%ADD59R,0.120000X0.120000*%
%ADD60C,0.016000*%
%ADD61C,0.020000*%
%ADD62C,0.025000*%
%ADD63RECTHERMD35*%
%ADD64RECTHERMD12*%
%ADD65RECTHERMD15~*%
%ADD66RECTHERMD16*%
%ADD67THERM20*%
%ADD68RECTHERMD22*%
%ADD69RECTHERMD25*%
%ADD70RECTHERMD27*%
%ADD71RECTHERMD29*%
%ADD72RECTHERMD31~*%
%ADD73RECTHERMD32*%
%ADD74RECTHERMD34~*%
%ADD75RECTHERMD35~*%
%ADD76RECTHERMD36*%
%ADD77R,0.075000X0.037600*%
%ADD78R,0.037600X0.075000*%
%ADD79R,0.079000X0.094700*%
%ADD80C,0.091000*%
%ADD81R,0.091000X0.091000*%
%ADD82R,0.063200X0.059300*%
%ADD83R,0.094700X0.079000*%
%ADD84R,0.044000X0.103000*%
%ADD85R,0.059300X0.063200*%
%ADD86R,0.064000X0.056000*%
%ADD87R,0.079000X0.079000*%
%ADD88R,0.056000X0.064000*%
%ADD89R,0.136000X0.136000*%
%ADD90C,0.136000*%
%ADD91C,0.116000*%
%ADD501C,0.030000*%
%ADD502C,0.040000*%
%ADD503C,0.055000*%
%ADD504C,0.070000*%
%LNtop_copper-1*%
%LPD*%
G54D44*
X-29481Y1854D02*
Y900D01*
X-29800Y1854D02*
X-29163D01*
X-28572Y1536D02*
X-28663Y1490D01*
X-28754Y1400D01*
X-28800Y1263D01*
Y1172D01*
X-28754Y1036D01*
X-28663Y945D01*
X-28572Y900D01*
X-28436D01*
X-28345Y945D01*
X-28254Y1036D01*
X-28209Y1172D01*
Y1263D01*
X-28254Y1400D01*
X-28345Y1490D01*
X-28436Y1536D01*
X-28572D01*
X-27845D02*
Y581D01*
Y1400D02*
X-27754Y1490D01*
X-27663Y1536D01*
X-27527D01*
X-27436Y1490D01*
X-27345Y1400D01*
X-27300Y1263D01*
Y1172D01*
X-27345Y1036D01*
X-27436Y945D01*
X-27527Y900D01*
X-27663D01*
X-27754Y945D01*
X-27845Y1036D01*
X-25527Y1627D02*
X-25572Y1718D01*
X-25663Y1809D01*
X-25754Y1854D01*
X-25936D01*
X-26027Y1809D01*
X-26118Y1718D01*
X-26163Y1627D01*
X-26209Y1490D01*
Y1263D01*
X-26163Y1127D01*
X-26118Y1036D01*
X-26027Y945D01*
X-25936Y900D01*
X-25754D01*
X-25663Y945D01*
X-25572Y1036D01*
X-25527Y1127D01*
X-24936Y1536D02*
X-25027Y1490D01*
X-25118Y1400D01*
X-25163Y1263D01*
Y1172D01*
X-25118Y1036D01*
X-25027Y945D01*
X-24936Y900D01*
X-24800D01*
X-24709Y945D01*
X-24618Y1036D01*
X-24572Y1172D01*
Y1263D01*
X-24618Y1400D01*
X-24709Y1490D01*
X-24800Y1536D01*
X-24936D01*
X-24209D02*
Y581D01*
Y1400D02*
X-24118Y1490D01*
X-24027Y1536D01*
X-23890D01*
X-23800Y1490D01*
X-23709Y1400D01*
X-23663Y1263D01*
Y1172D01*
X-23709Y1036D01*
X-23800Y945D01*
X-23890Y900D01*
X-24027D01*
X-24118Y945D01*
X-24209Y1036D01*
X-23300Y1536D02*
Y581D01*
Y1400D02*
X-23209Y1490D01*
X-23118Y1536D01*
X-22981D01*
X-22890Y1490D01*
X-22800Y1400D01*
X-22754Y1263D01*
Y1172D01*
X-22800Y1036D01*
X-22890Y945D01*
X-22981Y900D01*
X-23118D01*
X-23209Y945D01*
X-23300Y1036D01*
X-22390Y1263D02*
X-21845D01*
Y1354D01*
X-21890Y1445D01*
X-21936Y1490D01*
X-22027Y1536D01*
X-22163D01*
X-22254Y1490D01*
X-22345Y1400D01*
X-22390Y1263D01*
Y1172D01*
X-22345Y1036D01*
X-22254Y945D01*
X-22163Y900D01*
X-22027D01*
X-21936Y945D01*
X-21845Y1036D01*
X-21481Y1536D02*
Y900D01*
Y1263D02*
X-21436Y1400D01*
X-21345Y1490D01*
X-21254Y1536D01*
X-21118D01*
X-20027Y1854D02*
Y900D01*
X-19481D01*
X-18572Y1536D02*
Y900D01*
Y1400D02*
X-18663Y1490D01*
X-18754Y1536D01*
X-18890D01*
X-18981Y1490D01*
X-19072Y1400D01*
X-19118Y1263D01*
Y1172D01*
X-19072Y1036D01*
X-18981Y945D01*
X-18890Y900D01*
X-18754D01*
X-18663Y945D01*
X-18572Y1036D01*
X-18163Y1536D02*
X-17890Y900D01*
X-17618Y1536D02*
X-17890Y900D01*
X-17981Y718D01*
X-18072Y627D01*
X-18163Y581D01*
X-18209D01*
X-17254Y1263D02*
X-16709D01*
Y1354D01*
X-16754Y1445D01*
X-16800Y1490D01*
X-16890Y1536D01*
X-17027D01*
X-17118Y1490D01*
X-17209Y1400D01*
X-17254Y1263D01*
Y1172D01*
X-17209Y1036D01*
X-17118Y945D01*
X-17027Y900D01*
X-16890D01*
X-16800Y945D01*
X-16709Y1036D01*
X-16345Y1536D02*
Y900D01*
Y1263D02*
X-16300Y1400D01*
X-16209Y1490D01*
X-16118Y1536D01*
X-15981D01*
G36*
X-100Y3000D02*
X-29625D01*
Y18500*
X-100*
Y3000*
G37*
%LNtop_copper-2*%
%LPC*%
G54D10*
X-17744Y12674D03*
Y12359D03*
Y12044D03*
Y11729D03*
Y11414D03*
G54D64*
X-17744Y11100D03*
G54D10*
X-17744Y10785D03*
Y10470D03*
Y10155D03*
Y9840D03*
Y9525D03*
G54D13*
X-17074Y8855D03*
X-16759D03*
X-16444D03*
X-16129D03*
X-15814D03*
X-15500D03*
G54D65*
X-15185Y8855D03*
G54D13*
X-14870Y8855D03*
X-14555D03*
X-14240D03*
X-13925D03*
G54D10*
X-13255Y9525D03*
Y9840D03*
Y10155D03*
Y10470D03*
Y10785D03*
G54D64*
X-13255Y11100D03*
G54D10*
X-13255Y11414D03*
Y11729D03*
Y12044D03*
Y12359D03*
Y12674D03*
G54D13*
X-13925Y13344D03*
X-14240D03*
X-14555D03*
X-14870D03*
X-15185D03*
G54D65*
X-15500Y13344D03*
G54D13*
X-15814Y13344D03*
X-16129D03*
X-16444D03*
X-16759D03*
X-17074D03*
G54D66*
X-21900Y10600D03*
G54D16*
X-20797Y10600D03*
G54D66*
X-21900Y9600D03*
G54D16*
X-20797Y9600D03*
G54D17*
X-19900Y10400D03*
Y8400D03*
G54D18*
X-23100Y15200D03*
G54D17*
X-23100Y14200D03*
Y13200D03*
Y12200D03*
Y11200D03*
G54D67*
X-23100Y10200D03*
G54D20*
X-25400Y11500D03*
Y12169D03*
G54D68*
X-24200Y10900D03*
G54D22*
X-24200Y12002D03*
G54D23*
X-27300Y6800D03*
X-26800D03*
X-26300D03*
X-25800D03*
X-25300D03*
X-24800D03*
X-24300D03*
X-23800D03*
Y9300D03*
X-24300D03*
X-24800D03*
X-25300D03*
X-25800D03*
X-26300D03*
G54D69*
X-26800Y9300D03*
G54D23*
X-27300Y9300D03*
G54D16*
X-27400Y5200D03*
X-28502D03*
X-27300Y3900D03*
X-28402D03*
G54D22*
X-28300Y7500D03*
Y8602D03*
G54D66*
X-25500Y5100D03*
G54D16*
X-24397Y5100D03*
G54D18*
X-23900Y3800D03*
G54D17*
X-24900Y3800D03*
G54D67*
X-25900Y3800D03*
G54D18*
X-19800Y17200D03*
G54D67*
X-20800Y17200D03*
G54D17*
X-21800Y17200D03*
X-22800D03*
G54D25*
X-24200Y16300D03*
G54D70*
X-24869Y16300D03*
G54D27*
X-19000Y17200D03*
X-18100Y16800D03*
G54D71*
X-18100Y17600D03*
G54D29*
X-18900Y14300D03*
G54D72*
X-18900Y15402D03*
G54D29*
X-18000Y15400D03*
Y14297D03*
G54D18*
X-7000Y4100D03*
G54D67*
X-6000Y4100D03*
G54D17*
X-7000Y5100D03*
X-6000D03*
X-7000Y6100D03*
X-6000D03*
X-7000Y7100D03*
X-6000D03*
X-7000Y8100D03*
G54D67*
X-6000Y8100D03*
G54D18*
X-21600Y14700D03*
G54D17*
X-21600Y11700D03*
G54D25*
X-20100Y6200D03*
X-19430D03*
G54D29*
X-18500Y6200D03*
Y5097D03*
G54D18*
X-21700Y3800D03*
G54D17*
X-21700Y5800D03*
G54D73*
X-22700Y5800D03*
G54D17*
X-22700Y3800D03*
G54D18*
X-20600Y4400D03*
G54D67*
X-19600Y4400D03*
G54D29*
X-17400Y6200D03*
Y5097D03*
X-16400Y6200D03*
Y5097D03*
X-15400Y6200D03*
Y5097D03*
X-14400Y6200D03*
Y5097D03*
G54D73*
X-9700Y3800D03*
G54D67*
X-10700Y3800D03*
X-11700D03*
X-12700D03*
G54D17*
X-12700Y6800D03*
X-11700D03*
G54D67*
X-10700Y6800D03*
G54D17*
X-9700Y6800D03*
G54D29*
X-11700Y4800D03*
Y5902D03*
X-12700Y4800D03*
Y5902D03*
G54D73*
X-14000Y4000D03*
G54D17*
X-15000Y4000D03*
X-16000D03*
X-17000D03*
X-18000D03*
G54D32*
X-5700Y13800D03*
X-6100Y12900D03*
G54D74*
X-5300Y12900D03*
G54D25*
X-9000Y9600D03*
X-9669D03*
X-9700Y8900D03*
G54D70*
X-9030Y8900D03*
G54D29*
X-5700Y14700D03*
Y15802D03*
G54D32*
X-7200Y13800D03*
X-7600Y12900D03*
G54D74*
X-6800Y12900D03*
G54D25*
X-10700Y9100D03*
X-11369D03*
G54D20*
X-11300Y9900D03*
G54D75*
X-11300Y10569D03*
G54D29*
X-6800Y14700D03*
Y15802D03*
G54D18*
X-5800Y16800D03*
G54D17*
X-6800Y16800D03*
G54D29*
X-7900Y14700D03*
Y15802D03*
G54D18*
X-4000Y16800D03*
G54D67*
X-3000Y16800D03*
G54D25*
X-8700Y12300D03*
G54D70*
X-9369Y12300D03*
G54D18*
X-28400Y13300D03*
G54D17*
X-27400Y13300D03*
X-26400D03*
X-25400D03*
G54D67*
X-25400Y10300D03*
X-26400D03*
X-27400D03*
X-28400D03*
G54D22*
X-20400Y15200D03*
Y14097D03*
G54D66*
X-20000Y16200D03*
G54D16*
X-21102Y16200D03*
X-23100D03*
X-21997D03*
G54D18*
X-25400Y14800D03*
G54D67*
X-24400Y14800D03*
G54D18*
X-25400Y17200D03*
G54D67*
X-24400Y17200D03*
G54D20*
X-16900Y14600D03*
Y15269D03*
X-16100Y14600D03*
Y15269D03*
X-15300Y14600D03*
Y15269D03*
X-14500Y14600D03*
Y15269D03*
X-13700Y14600D03*
Y15269D03*
G54D25*
X-11600Y17200D03*
X-10930D03*
X-11600Y16200D03*
X-10930D03*
X-11600Y15200D03*
X-10930D03*
X-11600Y14200D03*
X-10930D03*
X-11700Y13200D03*
X-11030D03*
G54D73*
X-17100Y17600D03*
G54D17*
X-17100Y16600D03*
G54D67*
X-16100Y17600D03*
G54D17*
X-16100Y16600D03*
G54D67*
X-15100Y17600D03*
G54D17*
X-15100Y16600D03*
G54D67*
X-14100Y17600D03*
G54D17*
X-14100Y16600D03*
G54D67*
X-13100Y17600D03*
G54D17*
X-13100Y16600D03*
G54D73*
X-9200Y17200D03*
G54D17*
X-10200Y17200D03*
G54D67*
X-9200Y16200D03*
G54D17*
X-10200Y16200D03*
G54D67*
X-9200Y15200D03*
G54D17*
X-10200Y15200D03*
G54D67*
X-9200Y14200D03*
G54D17*
X-10200Y14200D03*
G54D67*
X-9200Y13200D03*
G54D17*
X-10200Y13200D03*
G54D67*
X-7000Y10800D03*
G54D18*
X-6000Y10800D03*
X-21700Y7400D03*
G54D67*
X-22700Y7400D03*
G54D17*
X-27700Y15800D03*
G54D18*
X-27700Y14800D03*
G54D66*
X-8800Y11200D03*
G54D16*
X-9902Y11200D03*
G54D67*
X-1000Y7700D03*
Y9040D03*
G54D18*
X-1000Y10380D03*
G54D17*
X-2540Y8370D03*
Y9710D03*
G54D76*
X-3900Y11900D03*
G54D39*
X-1900Y11900D03*
G54D67*
X-2400Y14000D03*
G54D18*
X-3400Y14000D03*
G54D40*
X-1700Y5000D03*
X-3700D03*
G54D29*
X-8100Y6800D03*
Y5697D03*
X-9700Y5100D03*
X-10802D03*
G54D22*
X-4700Y3900D03*
Y5002D03*
G54D29*
X-26000Y16400D03*
X-27102D03*
X-28700Y17200D03*
Y16097D03*
X-4100Y7100D03*
X-5202D03*
G54D41*
X-19800Y17200D02*
X-19000D01*
X-19800D02*
X-19825Y17250D01*
X-19425Y16850D01*
Y15125D01*
X-19900Y14650D01*
X-21600D01*
Y14700D01*
X-12700Y6800D02*
Y5902D01*
Y6800D02*
X-12675Y6875D01*
X-13625Y7825D01*
X-14050D01*
X-14555Y8330D01*
Y8855D01*
G54D42*
X-27102Y16400D02*
X-27700Y15800D01*
G54D43*
X-1700Y5000D02*
Y9200D01*
X-2210Y9710D01*
X-2540D01*
X-1900Y11900D02*
X-2540Y9710D01*
G54D41*
X-17744Y9840D02*
X-18560D01*
X-18850Y9551D01*
Y8075D01*
X-19425Y7500D01*
X-20375D01*
X-21525Y8650D01*
X-24100D01*
X-24300Y8850D01*
Y9400D01*
Y9300D01*
X-17074Y8855D02*
Y7500D01*
X-17625Y6950D01*
X-18325D01*
X-18500Y6775D01*
Y5975D01*
Y6200D01*
G54D42*
X-19430Y6200D02*
X-18500D01*
G54D41*
X-5700Y14700D02*
Y13800D01*
G54D42*
X-17100Y16600D02*
X-16900Y15269D01*
G54D43*
X-4000Y16800D02*
Y15525D01*
X-3400Y14925D01*
Y14000D01*
G54D42*
X-1000Y10380D02*
X-750Y10475D01*
Y12400D01*
X-1675Y13325D01*
G54D43*
X-1675Y13325D02*
X-2725D01*
X-3425Y14025D01*
X-3400Y14000D01*
G54D42*
X-4000Y16800D02*
X-3975Y16775D01*
X-4925Y17725D01*
X-7700D01*
X-8100Y17325D01*
Y15775D01*
X-7900Y15802D01*
G54D41*
X-23800Y9300D02*
X-23550D01*
X-23225Y8975D01*
X-21375D01*
X-20200Y7800D01*
X-19551D01*
X-19225Y8126D01*
Y9651D01*
X-18720Y10155D01*
X-17744D01*
X-27300Y6800D02*
Y6350D01*
X-27600Y6050D01*
X-28125D01*
X-28500Y5675D01*
Y5075D01*
X-28502Y5200D01*
G54D42*
X-18500Y5097D02*
X-18425Y5100D01*
X-19900D01*
X-20600Y4400D01*
G54D41*
X-21700Y3800D02*
X-22700D01*
X-20600Y4400D02*
X-21700Y3800D01*
X-6100Y12900D02*
Y12950D01*
Y12625D01*
X-7425Y11300D01*
X-7475D01*
X-7600Y11175D01*
Y10150D01*
X-8150Y9600D01*
X-9000D01*
G54D42*
X-16100Y16600D02*
Y15269D01*
X-7000Y5100D02*
X-7925D01*
X-8100Y5275D01*
Y5697D01*
G54D41*
X-23100Y12200D02*
X-23125D01*
X-23025Y12300D01*
X-19250D01*
X-18700Y11750D01*
X-17575D01*
X-17744Y11729D01*
X-23100Y12200D02*
X-24200Y12002D01*
X-25400Y12169D01*
X-7900Y14700D02*
X-7825Y14725D01*
X-8300Y14250D01*
Y11875D01*
X-8350Y11825D01*
X-10375D01*
X-10475Y11725D01*
X-10479Y11729D01*
X-13255D01*
X-7900Y14700D02*
Y14625D01*
X-8300Y14225D01*
Y12300D01*
X-8700D01*
X-25800Y6800D02*
Y6375D01*
X-26550Y5625D01*
Y5050D01*
X-27075Y4525D01*
X-27975D01*
X-28402Y4097D01*
Y3900D01*
X-17400Y5097D02*
X-18000Y4000D01*
G54D42*
X-6800Y15802D02*
X-5700D01*
G54D41*
X-6800Y16800D02*
Y15802D01*
G54D42*
X-15100Y16600D02*
X-15300Y15269D01*
X-25400Y17200D02*
X-26000Y16400D01*
G54D41*
X-23100Y15200D02*
X-23150Y15225D01*
X-22525Y14600D01*
Y14100D01*
X-22100Y13675D01*
X-21525D01*
X-21100Y13250D01*
X-18650D01*
X-18075Y12675D01*
X-17750D01*
X-17744Y12674D01*
X-11600Y16200D02*
X-11625D01*
X-12400Y15425D01*
Y14401D01*
X-13456Y13344D01*
X-13925D01*
X-11700Y13200D02*
X-11900D01*
X-12125Y12975D01*
Y12450D01*
X-12525Y12050D01*
X-13225D01*
X-13255Y12044D01*
X-25300Y6800D02*
Y6400D01*
X-26200Y5500D01*
Y4425D01*
X-26725Y3900D01*
X-27300D01*
X-16759Y8855D02*
Y7340D01*
X-17400Y6700D01*
Y6200D01*
X-6800Y14700D02*
X-7200Y13800D01*
G54D42*
X-14100Y16600D02*
X-14500Y15269D01*
G54D41*
X-20797Y9600D02*
X-20800Y9300D01*
X-19900Y8400D01*
X-17744Y10470D02*
X-18879D01*
X-19900Y9450D01*
Y8400D01*
X-11600Y17200D02*
X-11625D01*
X-12050Y16775D01*
Y16225D01*
X-12700Y15575D01*
Y14600D01*
X-13450Y13850D01*
X-14150D01*
X-14240Y13759D01*
Y13344D01*
X-11600Y14200D02*
Y14150D01*
X-12450Y13300D01*
Y12600D01*
X-12690Y12359D01*
X-13255D01*
X-26800Y6800D02*
Y7325D01*
X-26975Y7500D01*
X-28300D01*
X-17000Y4000D02*
X-16400Y5097D01*
X-7600Y12900D02*
Y11600D01*
X-7900Y11300D01*
Y10350D01*
X-8200Y10050D01*
X-10150D01*
X-10350Y9850D01*
Y9550D01*
X-10675Y9225D01*
X-10700Y9100D01*
G54D42*
X-13100Y16600D02*
X-13700Y15269D01*
G54D41*
X-13700Y14600D02*
Y14350D01*
X-13900Y14150D01*
X-14350D01*
X-14555Y13944D01*
Y13344D01*
X-11600Y15200D02*
X-11800D01*
X-12050Y14950D01*
Y14250D01*
X-12800Y13500D01*
Y12800D01*
X-12925Y12674D01*
X-13255D01*
X-17744Y10785D02*
X-19514D01*
X-19900Y10400D01*
X-20797Y10600D02*
X-19900Y10400D01*
X-23900Y3800D02*
X-23500Y4200D01*
Y5875D01*
X-23800Y6175D01*
Y6800D01*
X-16129Y8855D02*
Y7979D01*
X-15375Y7225D01*
Y6050D01*
X-15400Y6200D01*
X-25400Y14800D02*
X-26400Y13300D01*
G54D42*
X-10200Y17200D02*
X-10930D01*
G54D41*
X-18000Y14297D02*
X-17950Y14175D01*
X-17675Y13900D01*
X-17425D01*
X-17074Y13549D01*
Y13344D01*
X-18900Y14300D02*
X-18000Y14297D01*
X-14500Y14600D02*
X-14475Y14475D01*
X-14870Y14079D01*
Y13344D01*
X-17744Y12359D02*
X-17700Y12350D01*
X-18200D01*
X-18800Y12950D01*
X-21275D01*
X-21650Y13325D01*
X-22225D01*
X-23125Y14225D01*
X-23100Y14200D01*
X-22800Y17200D02*
X-22825Y17225D01*
X-22525Y16925D01*
Y15200D01*
X-22200Y14875D01*
Y14250D01*
X-21950Y14000D01*
X-21350D01*
X-20900Y13550D01*
X-17950D01*
X-17250Y12850D01*
Y9675D01*
X-17399Y9525D01*
X-17744D01*
X-22800Y17200D02*
X-23300D01*
X-24200Y16300D01*
X-16000Y4000D02*
X-15400Y5097D01*
X-23100Y16200D02*
X-23425D01*
X-23725Y15900D01*
Y14200D01*
X-24625Y13300D01*
X-25450D01*
X-25400D01*
G54D42*
X-10200Y16200D02*
X-10930D01*
G54D41*
X-8100Y6800D02*
Y7325D01*
X-8825Y8050D01*
X-12300D01*
X-13255Y9005D01*
Y9525D01*
X-15300Y14600D02*
Y14400D01*
X-15814Y13885D01*
Y13344D01*
X-17744Y12044D02*
X-17625Y12050D01*
X-18450D01*
X-19025Y12625D01*
X-21425D01*
X-21800Y13000D01*
X-23025D01*
X-23100Y13200D01*
X-18100Y16800D02*
X-18000Y15400D01*
X-15000Y4000D02*
X-14400Y5097D01*
X-16759Y13344D02*
Y13734D01*
X-17225Y14200D01*
X-17450D01*
X-17500Y14250D01*
Y14825D01*
X-17525Y14850D01*
X-19275D01*
X-20025Y14100D01*
X-20400Y14097D01*
X-7000Y6100D02*
X-7150Y6250D01*
X-8550D01*
X-8750Y6425D01*
Y7500D01*
X-9000Y7750D01*
X-12550D01*
X-13675Y8875D01*
X-13875D01*
X-13925Y8855D01*
X-13255Y10785D02*
X-13735D01*
X-13775Y10825D01*
Y12625D01*
X-14000Y12850D01*
X-15000D01*
X-15175Y13025D01*
Y13300D01*
X-15185Y13344D01*
G54D43*
X-3700Y5000D02*
Y7250D01*
X-2580Y8370D01*
X-2540D01*
X-4700Y5002D02*
X-3700Y5000D01*
X-5800Y16800D02*
X-5150D01*
X-4850Y16500D01*
Y14925D01*
X-4525Y14600D01*
Y13575D01*
X-3725Y12775D01*
X-3025D01*
X-3000Y12750D01*
Y10800D01*
X-6000D01*
X-4300D01*
Y9425D01*
X-3250Y8375D01*
X-2500D01*
X-2540Y8370D01*
G54D42*
X-10802Y5100D02*
X-11700Y4800D01*
X-12700D02*
X-11700D01*
X-12700D02*
X-13175D01*
X-13725Y5350D01*
Y6925D01*
X-13950Y7150D01*
X-14350D01*
X-15500Y8300D01*
G54D41*
X-15500Y8300D02*
Y8900D01*
Y8855D01*
X-12700Y4800D02*
X-12650D01*
X-13150D01*
X-13725Y5375D01*
Y5650D01*
X-21550D01*
X-21700Y5800D01*
X-21475Y5650D01*
X-20100D01*
Y6200D01*
X-21700Y7400D02*
X-22375Y8075D01*
X-25725D01*
X-26000Y8350D01*
X-27000D01*
X-27300Y8650D01*
Y9325D01*
Y9300D01*
X-28300Y8602D02*
X-28325Y8600D01*
X-27625Y9300D01*
X-27300D01*
X-21600Y11700D02*
X-22275D01*
X-22725Y11250D01*
X-23275D01*
X-23100Y11200D01*
X-25400Y11500D02*
Y11450D01*
X-23350D01*
X-23100Y11200D01*
X-17744Y11414D02*
X-18839D01*
X-19400Y11975D01*
X-21375D01*
X-21650Y11700D01*
X-21600D01*
X-21800Y17200D02*
Y17475D01*
X-22375Y18050D01*
X-27950D01*
X-28775Y17225D01*
X-28700Y17200D01*
X-4100Y7100D02*
X-3700D01*
Y7250D01*
X-2525Y8425D01*
X-2540Y8370D01*
X-28700Y16097D02*
X-28400Y13300D01*
X-28375Y13250D01*
X-26625Y11500D01*
X-25400D01*
X-21700Y7400D02*
Y5800D01*
X-16100Y14600D02*
X-16150Y14625D01*
X-16129Y14604D01*
Y13344D01*
X-27400Y5200D02*
X-27000D01*
X-26875Y5325D01*
Y5800D01*
X-26300Y6375D01*
Y6800D01*
X-5202Y7100D02*
X-7000D01*
G54D43*
X-4700Y3900D02*
X-4675Y3925D01*
X-5175Y3425D01*
X-7825D01*
X-9500Y5100D01*
X-9700D01*
Y6800D01*
G54D41*
X-7000Y4100D02*
X-6950Y4125D01*
X-7650D01*
X-8625Y5100D01*
Y5700D01*
X-9050Y6125D01*
Y7275D01*
X-9225Y7450D01*
X-12700D01*
X-13425Y8175D01*
X-13925D01*
X-14225Y8475D01*
Y8850D01*
X-14240Y8855D01*
X-16900Y14600D02*
X-16875D01*
Y14350D01*
X-16444Y13919D01*
Y13794D01*
Y13344D01*
X-24397Y5100D02*
X-24400Y5125D01*
Y5500D01*
X-24800Y5900D01*
Y6800D01*
X-13255Y9840D02*
X-12915D01*
X-12725Y9650D01*
Y9000D01*
X-12075Y8350D01*
X-7325D01*
X-6950Y7975D01*
X-7000Y8100D01*
X-14400Y6200D02*
X-14375Y6225D01*
Y6675D01*
X-15814Y8114D01*
Y8855D01*
X-11300Y9900D02*
X-11275D01*
X-11369Y9805D01*
Y9100D01*
X-11300Y9900D02*
X-11175D01*
X-12100D01*
X-12670Y10470D01*
X-13255D01*
X-24900Y3800D02*
X-24925Y3975D01*
X-24425Y4475D01*
X-23925D01*
X-23825Y4575D01*
Y5650D01*
X-24300Y6125D01*
Y6800D01*
X-16400Y6200D02*
X-16275Y6100D01*
X-16444Y6269D01*
Y8855D01*
X-9700Y8900D02*
X-9925Y8675D01*
X-11900D01*
X-12425Y9200D01*
Y9775D01*
X-12805Y10155D01*
X-13255D01*
X-9669Y9600D02*
X-9700Y8900D01*
X-9902Y11200D02*
X-9900D01*
X-10114Y11414D01*
X-13255D01*
G54D42*
X-10200Y15200D02*
X-10930D01*
G54D41*
X-21102Y16200D02*
X-21997D01*
X-20400Y15200D02*
X-21102Y16200D01*
G54D42*
X-10200Y14200D02*
X-10930D01*
G54D41*
X-11700Y6800D02*
Y5902D01*
X-14870Y8855D02*
Y8145D01*
X-14225Y7500D01*
X-13800D01*
X-13400Y7100D01*
Y5550D01*
X-13200Y5350D01*
X-12250D01*
X-11650Y5950D01*
X-11700Y5902D01*
G54D42*
X-27400Y13300D02*
X-27700Y14800D01*
X-10200Y13200D02*
X-11030D01*
G54D44*
X-3309Y3963D02*
X-3600Y3200D01*
X-3309Y3963D02*
X-3018Y3200D01*
X-3490Y3454D02*
X-3127D01*
X-2327Y3600D02*
X-2363Y3672D01*
X-2472Y3709D01*
X-2581D01*
X-2690Y3672D01*
X-2727Y3600D01*
X-2690Y3527D01*
X-2618Y3490D01*
X-2436Y3454D01*
X-2363Y3418D01*
X-2327Y3345D01*
Y3309D01*
X-2363Y3236D01*
X-2472Y3200D01*
X-2581D01*
X-2690Y3236D01*
X-2727Y3309D01*
X-1600Y3600D02*
X-1672Y3672D01*
X-1745Y3709D01*
X-1854D01*
X-1927Y3672D01*
X-2000Y3600D01*
X-2036Y3490D01*
Y3418D01*
X-2000Y3309D01*
X-1927Y3236D01*
X-1854Y3200D01*
X-1745D01*
X-1672Y3236D01*
X-1600Y3309D01*
X-1309Y3490D02*
X-872D01*
Y3563D01*
X-909Y3636D01*
X-945Y3672D01*
X-1018Y3709D01*
X-1127D01*
X-1200Y3672D01*
X-1272Y3600D01*
X-1309Y3490D01*
Y3418D01*
X-1272Y3309D01*
X-1200Y3236D01*
X-1127Y3200D01*
X-1018D01*
X-945Y3236D01*
X-872Y3309D01*
X-472Y3963D02*
Y3345D01*
X-436Y3236D01*
X-363Y3200D01*
X-290D01*
X-581Y3709D02*
X-327D01*
%LNtop_copper-3*%
%LPD*%
G54D45*
X-17744Y12674D03*
Y12359D03*
Y12044D03*
Y11729D03*
Y11414D03*
Y11100D03*
Y10785D03*
Y10470D03*
Y10155D03*
Y9840D03*
Y9525D03*
G54D46*
X-17074Y8855D03*
X-16759D03*
X-16444D03*
X-16129D03*
X-15814D03*
X-15500D03*
X-15185D03*
X-14870D03*
X-14555D03*
X-14240D03*
X-13925D03*
G54D45*
X-13255Y9525D03*
Y9840D03*
Y10155D03*
Y10470D03*
Y10785D03*
Y11100D03*
Y11414D03*
Y11729D03*
Y12044D03*
Y12359D03*
Y12674D03*
G54D46*
X-13925Y13344D03*
X-14240D03*
X-14555D03*
X-14870D03*
X-15185D03*
X-15500D03*
X-15814D03*
X-16129D03*
X-16444D03*
X-16759D03*
X-17074D03*
G54D47*
X-21900Y10600D03*
X-20797D03*
X-21900Y9600D03*
X-20797D03*
G54D48*
X-19900Y10400D03*
Y8400D03*
G54D49*
X-23100Y15200D03*
G54D48*
X-23100Y14200D03*
Y13200D03*
Y12200D03*
Y11200D03*
Y10200D03*
G54D50*
X-25400Y11500D03*
Y12169D03*
G54D51*
X-24200Y10900D03*
Y12002D03*
G54D52*
X-27300Y6800D03*
X-26800D03*
X-26300D03*
X-25800D03*
X-25300D03*
X-24800D03*
X-24300D03*
X-23800D03*
Y9300D03*
X-24300D03*
X-24800D03*
X-25300D03*
X-25800D03*
X-26300D03*
X-26800D03*
X-27300D03*
G54D47*
X-27400Y5200D03*
X-28502D03*
X-27300Y3900D03*
X-28402D03*
G54D51*
X-28300Y7500D03*
Y8602D03*
G54D47*
X-25500Y5100D03*
X-24397D03*
G54D49*
X-23900Y3800D03*
G54D48*
X-24900Y3800D03*
X-25900D03*
G54D49*
X-19800Y17200D03*
G54D48*
X-20800Y17200D03*
X-21800D03*
X-22800D03*
G54D53*
X-24200Y16300D03*
X-24869D03*
G54D54*
X-19000Y17200D03*
X-18100Y16800D03*
Y17600D03*
G54D55*
X-18900Y14300D03*
Y15402D03*
X-18000Y15400D03*
Y14297D03*
G54D49*
X-7000Y4100D03*
G54D48*
X-6000Y4100D03*
X-7000Y5100D03*
X-6000D03*
X-7000Y6100D03*
X-6000D03*
X-7000Y7100D03*
X-6000D03*
X-7000Y8100D03*
X-6000D03*
G54D49*
X-21600Y14700D03*
G54D48*
X-21600Y11700D03*
G54D53*
X-20100Y6200D03*
X-19430D03*
G54D55*
X-18500Y6200D03*
Y5097D03*
G54D49*
X-21700Y3800D03*
G54D48*
X-21700Y5800D03*
G54D49*
X-22700Y5800D03*
G54D48*
X-22700Y3800D03*
G54D49*
X-20600Y4400D03*
G54D48*
X-19600Y4400D03*
G54D55*
X-17400Y6200D03*
Y5097D03*
X-16400Y6200D03*
Y5097D03*
X-15400Y6200D03*
Y5097D03*
X-14400Y6200D03*
Y5097D03*
G54D49*
X-9700Y3800D03*
G54D48*
X-10700Y3800D03*
X-11700D03*
X-12700D03*
Y6800D03*
X-11700D03*
X-10700D03*
X-9700D03*
G54D55*
X-11700Y4800D03*
Y5902D03*
X-12700Y4800D03*
Y5902D03*
G54D49*
X-14000Y4000D03*
G54D48*
X-15000Y4000D03*
X-16000D03*
X-17000D03*
X-18000D03*
G54D56*
X-5700Y13800D03*
X-6100Y12900D03*
X-5300D03*
G54D53*
X-9000Y9600D03*
X-9669D03*
X-9700Y8900D03*
X-9030D03*
G54D55*
X-5700Y14700D03*
Y15802D03*
G54D56*
X-7200Y13800D03*
X-7600Y12900D03*
X-6800D03*
G54D53*
X-10700Y9100D03*
X-11369D03*
G54D50*
X-11300Y9900D03*
Y10569D03*
G54D55*
X-6800Y14700D03*
Y15802D03*
G54D49*
X-5800Y16800D03*
G54D48*
X-6800Y16800D03*
G54D55*
X-7900Y14700D03*
Y15802D03*
G54D49*
X-4000Y16800D03*
G54D48*
X-3000Y16800D03*
G54D53*
X-8700Y12300D03*
X-9369D03*
G54D49*
X-28400Y13300D03*
G54D48*
X-27400Y13300D03*
X-26400D03*
X-25400D03*
Y10300D03*
X-26400D03*
X-27400D03*
X-28400D03*
G54D51*
X-20400Y15200D03*
Y14097D03*
G54D47*
X-20000Y16200D03*
X-21102D03*
X-23100D03*
X-21997D03*
G54D49*
X-25400Y14800D03*
G54D48*
X-24400Y14800D03*
G54D49*
X-25400Y17200D03*
G54D48*
X-24400Y17200D03*
G54D50*
X-16900Y14600D03*
Y15269D03*
X-16100Y14600D03*
Y15269D03*
X-15300Y14600D03*
Y15269D03*
X-14500Y14600D03*
Y15269D03*
X-13700Y14600D03*
Y15269D03*
G54D53*
X-11600Y17200D03*
X-10930D03*
X-11600Y16200D03*
X-10930D03*
X-11600Y15200D03*
X-10930D03*
X-11600Y14200D03*
X-10930D03*
X-11700Y13200D03*
X-11030D03*
G54D49*
X-17100Y17600D03*
G54D48*
X-17100Y16600D03*
X-16100Y17600D03*
Y16600D03*
X-15100Y17600D03*
Y16600D03*
X-14100Y17600D03*
Y16600D03*
X-13100Y17600D03*
Y16600D03*
G54D49*
X-9200Y17200D03*
G54D48*
X-10200Y17200D03*
X-9200Y16200D03*
X-10200D03*
X-9200Y15200D03*
X-10200D03*
X-9200Y14200D03*
X-10200D03*
X-9200Y13200D03*
X-10200D03*
X-7000Y10800D03*
G54D49*
X-6000Y10800D03*
X-21700Y7400D03*
G54D48*
X-22700Y7400D03*
X-27700Y15800D03*
G54D49*
X-27700Y14800D03*
G54D47*
X-8800Y11200D03*
X-9902D03*
G54D48*
X-1000Y7700D03*
Y9040D03*
G54D49*
X-1000Y10380D03*
G54D48*
X-2540Y8370D03*
Y9710D03*
G54D59*
X-3900Y11900D03*
G54D40*
X-1900Y11900D03*
G54D48*
X-2400Y14000D03*
G54D49*
X-3400Y14000D03*
G54D37*
X-1700Y5000D03*
X-3700D03*
G54D55*
X-8100Y6800D03*
Y5697D03*
X-9700Y5100D03*
X-10802D03*
G54D51*
X-4700Y3900D03*
Y5002D03*
G54D55*
X-26000Y16400D03*
X-27102D03*
X-28700Y17200D03*
Y16097D03*
X-4100Y7100D03*
X-5202D03*
G54D60*
X-19800Y17200D02*
X-19000D01*
X-19800D02*
X-19825Y17250D01*
X-19425Y16850D01*
Y15125D01*
X-19900Y14650D01*
X-21600D01*
Y14700D01*
X-12700Y6800D02*
Y5902D01*
Y6800D02*
X-12675Y6875D01*
X-13625Y7825D01*
X-14050D01*
X-14555Y8330D01*
Y8855D01*
G54D61*
X-27102Y16400D02*
X-27700Y15800D01*
G54D62*
X-1700Y5000D02*
Y9200D01*
X-2210Y9710D01*
X-2540D01*
X-1900Y11900D02*
X-2540Y9710D01*
G54D60*
X-17744Y9840D02*
X-18560D01*
X-18850Y9551D01*
Y8075D01*
X-19425Y7500D01*
X-20375D01*
X-21525Y8650D01*
X-24100D01*
X-24300Y8850D01*
Y9400D01*
Y9300D01*
X-17074Y8855D02*
Y7500D01*
X-17625Y6950D01*
X-18325D01*
X-18500Y6775D01*
Y5975D01*
Y6200D01*
G54D61*
X-19430Y6200D02*
X-18500D01*
G54D60*
X-5700Y14700D02*
Y13800D01*
G54D61*
X-17100Y16600D02*
X-16900Y15269D01*
G54D62*
X-4000Y16800D02*
Y15525D01*
X-3400Y14925D01*
Y14000D01*
G54D61*
X-1000Y10380D02*
X-750Y10475D01*
Y12400D01*
X-1675Y13325D01*
G54D62*
X-1675Y13325D02*
X-2725D01*
X-3425Y14025D01*
X-3400Y14000D01*
G54D61*
X-4000Y16800D02*
X-3975Y16775D01*
X-4925Y17725D01*
X-7700D01*
X-8100Y17325D01*
Y15775D01*
X-7900Y15802D01*
G54D60*
X-23800Y9300D02*
X-23550D01*
X-23225Y8975D01*
X-21375D01*
X-20200Y7800D01*
X-19551D01*
X-19225Y8126D01*
Y9651D01*
X-18720Y10155D01*
X-17744D01*
X-27300Y6800D02*
Y6350D01*
X-27600Y6050D01*
X-28125D01*
X-28500Y5675D01*
Y5075D01*
X-28502Y5200D01*
G54D61*
X-18500Y5097D02*
X-18425Y5100D01*
X-19900D01*
X-20600Y4400D01*
G54D60*
X-21700Y3800D02*
X-22700D01*
X-20600Y4400D02*
X-21700Y3800D01*
X-6100Y12900D02*
Y12950D01*
Y12625D01*
X-7425Y11300D01*
X-7475D01*
X-7600Y11175D01*
Y10150D01*
X-8150Y9600D01*
X-9000D01*
G54D61*
X-16100Y16600D02*
Y15269D01*
X-7000Y5100D02*
X-7925D01*
X-8100Y5275D01*
Y5697D01*
G54D60*
X-23100Y12200D02*
X-23125D01*
X-23025Y12300D01*
X-19250D01*
X-18700Y11750D01*
X-17575D01*
X-17744Y11729D01*
X-23100Y12200D02*
X-24200Y12002D01*
X-25400Y12169D01*
X-7900Y14700D02*
X-7825Y14725D01*
X-8300Y14250D01*
Y11875D01*
X-8350Y11825D01*
X-10375D01*
X-10475Y11725D01*
X-10479Y11729D01*
X-13255D01*
X-7900Y14700D02*
Y14625D01*
X-8300Y14225D01*
Y12300D01*
X-8700D01*
X-25800Y6800D02*
Y6375D01*
X-26550Y5625D01*
Y5050D01*
X-27075Y4525D01*
X-27975D01*
X-28402Y4097D01*
Y3900D01*
X-17400Y5097D02*
X-18000Y4000D01*
G54D61*
X-6800Y15802D02*
X-5700D01*
G54D60*
X-6800Y16800D02*
Y15802D01*
G54D61*
X-15100Y16600D02*
X-15300Y15269D01*
X-25400Y17200D02*
X-26000Y16400D01*
G54D60*
X-23100Y15200D02*
X-23150Y15225D01*
X-22525Y14600D01*
Y14100D01*
X-22100Y13675D01*
X-21525D01*
X-21100Y13250D01*
X-18650D01*
X-18075Y12675D01*
X-17750D01*
X-17744Y12674D01*
X-11600Y16200D02*
X-11625D01*
X-12400Y15425D01*
Y14401D01*
X-13456Y13344D01*
X-13925D01*
X-11700Y13200D02*
X-11900D01*
X-12125Y12975D01*
Y12450D01*
X-12525Y12050D01*
X-13225D01*
X-13255Y12044D01*
X-25300Y6800D02*
Y6400D01*
X-26200Y5500D01*
Y4425D01*
X-26725Y3900D01*
X-27300D01*
X-16759Y8855D02*
Y7340D01*
X-17400Y6700D01*
Y6200D01*
X-6800Y14700D02*
X-7200Y13800D01*
G54D61*
X-14100Y16600D02*
X-14500Y15269D01*
G54D60*
X-20797Y9600D02*
X-20800Y9300D01*
X-19900Y8400D01*
X-17744Y10470D02*
X-18879D01*
X-19900Y9450D01*
Y8400D01*
X-11600Y17200D02*
X-11625D01*
X-12050Y16775D01*
Y16225D01*
X-12700Y15575D01*
Y14600D01*
X-13450Y13850D01*
X-14150D01*
X-14240Y13759D01*
Y13344D01*
X-11600Y14200D02*
Y14150D01*
X-12450Y13300D01*
Y12600D01*
X-12690Y12359D01*
X-13255D01*
X-26800Y6800D02*
Y7325D01*
X-26975Y7500D01*
X-28300D01*
X-17000Y4000D02*
X-16400Y5097D01*
X-7600Y12900D02*
Y11600D01*
X-7900Y11300D01*
Y10350D01*
X-8200Y10050D01*
X-10150D01*
X-10350Y9850D01*
Y9550D01*
X-10675Y9225D01*
X-10700Y9100D01*
G54D61*
X-13100Y16600D02*
X-13700Y15269D01*
G54D60*
X-13700Y14600D02*
Y14350D01*
X-13900Y14150D01*
X-14350D01*
X-14555Y13944D01*
Y13344D01*
X-11600Y15200D02*
X-11800D01*
X-12050Y14950D01*
Y14250D01*
X-12800Y13500D01*
Y12800D01*
X-12925Y12674D01*
X-13255D01*
X-17744Y10785D02*
X-19514D01*
X-19900Y10400D01*
X-20797Y10600D02*
X-19900Y10400D01*
X-23900Y3800D02*
X-23500Y4200D01*
Y5875D01*
X-23800Y6175D01*
Y6800D01*
X-16129Y8855D02*
Y7979D01*
X-15375Y7225D01*
Y6050D01*
X-15400Y6200D01*
X-25400Y14800D02*
X-26400Y13300D01*
G54D61*
X-10200Y17200D02*
X-10930D01*
G54D60*
X-18000Y14297D02*
X-17950Y14175D01*
X-17675Y13900D01*
X-17425D01*
X-17074Y13549D01*
Y13344D01*
X-18900Y14300D02*
X-18000Y14297D01*
X-14500Y14600D02*
X-14475Y14475D01*
X-14870Y14079D01*
Y13344D01*
X-17744Y12359D02*
X-17700Y12350D01*
X-18200D01*
X-18800Y12950D01*
X-21275D01*
X-21650Y13325D01*
X-22225D01*
X-23125Y14225D01*
X-23100Y14200D01*
X-22800Y17200D02*
X-22825Y17225D01*
X-22525Y16925D01*
Y15200D01*
X-22200Y14875D01*
Y14250D01*
X-21950Y14000D01*
X-21350D01*
X-20900Y13550D01*
X-17950D01*
X-17250Y12850D01*
Y9675D01*
X-17399Y9525D01*
X-17744D01*
X-22800Y17200D02*
X-23300D01*
X-24200Y16300D01*
X-16000Y4000D02*
X-15400Y5097D01*
X-23100Y16200D02*
X-23425D01*
X-23725Y15900D01*
Y14200D01*
X-24625Y13300D01*
X-25450D01*
X-25400D01*
G54D61*
X-10200Y16200D02*
X-10930D01*
G54D60*
X-8100Y6800D02*
Y7325D01*
X-8825Y8050D01*
X-12300D01*
X-13255Y9005D01*
Y9525D01*
X-15300Y14600D02*
Y14400D01*
X-15814Y13885D01*
Y13344D01*
X-17744Y12044D02*
X-17625Y12050D01*
X-18450D01*
X-19025Y12625D01*
X-21425D01*
X-21800Y13000D01*
X-23025D01*
X-23100Y13200D01*
X-18100Y16800D02*
X-18000Y15400D01*
X-15000Y4000D02*
X-14400Y5097D01*
X-16759Y13344D02*
Y13734D01*
X-17225Y14200D01*
X-17450D01*
X-17500Y14250D01*
Y14825D01*
X-17525Y14850D01*
X-19275D01*
X-20025Y14100D01*
X-20400Y14097D01*
X-7000Y6100D02*
X-7150Y6250D01*
X-8550D01*
X-8750Y6425D01*
Y7500D01*
X-9000Y7750D01*
X-12550D01*
X-13675Y8875D01*
X-13875D01*
X-13925Y8855D01*
X-13255Y10785D02*
X-13735D01*
X-13775Y10825D01*
Y12625D01*
X-14000Y12850D01*
X-15000D01*
X-15175Y13025D01*
Y13300D01*
X-15185Y13344D01*
G54D62*
X-3700Y5000D02*
Y7250D01*
X-2580Y8370D01*
X-2540D01*
X-4700Y5002D02*
X-3700Y5000D01*
X-5800Y16800D02*
X-5150D01*
X-4850Y16500D01*
Y14925D01*
X-4525Y14600D01*
Y13575D01*
X-3725Y12775D01*
X-3025D01*
X-3000Y12750D01*
Y10800D01*
X-6000D01*
X-4300D01*
Y9425D01*
X-3250Y8375D01*
X-2500D01*
X-2540Y8370D01*
G54D61*
X-10802Y5100D02*
X-11700Y4800D01*
X-12700D02*
X-11700D01*
X-12700D02*
X-13175D01*
X-13725Y5350D01*
Y6925D01*
X-13950Y7150D01*
X-14350D01*
X-15500Y8300D01*
G54D60*
X-15500Y8300D02*
Y8900D01*
Y8855D01*
X-12700Y4800D02*
X-12650D01*
X-13150D01*
X-13725Y5375D01*
Y5650D01*
X-21550D01*
X-21700Y5800D01*
X-21475Y5650D01*
X-20100D01*
Y6200D01*
X-21700Y7400D02*
X-22375Y8075D01*
X-25725D01*
X-26000Y8350D01*
X-27000D01*
X-27300Y8650D01*
Y9325D01*
Y9300D01*
X-28300Y8602D02*
X-28325Y8600D01*
X-27625Y9300D01*
X-27300D01*
X-21600Y11700D02*
X-22275D01*
X-22725Y11250D01*
X-23275D01*
X-23100Y11200D01*
X-25400Y11500D02*
Y11450D01*
X-23350D01*
X-23100Y11200D01*
X-17744Y11414D02*
X-18839D01*
X-19400Y11975D01*
X-21375D01*
X-21650Y11700D01*
X-21600D01*
X-21800Y17200D02*
Y17475D01*
X-22375Y18050D01*
X-27950D01*
X-28775Y17225D01*
X-28700Y17200D01*
X-4100Y7100D02*
X-3700D01*
Y7250D01*
X-2525Y8425D01*
X-2540Y8370D01*
X-28700Y16097D02*
X-28400Y13300D01*
X-28375Y13250D01*
X-26625Y11500D01*
X-25400D01*
X-21700Y7400D02*
Y5800D01*
X-16100Y14600D02*
X-16150Y14625D01*
X-16129Y14604D01*
Y13344D01*
X-27400Y5200D02*
X-27000D01*
X-26875Y5325D01*
Y5800D01*
X-26300Y6375D01*
Y6800D01*
X-5202Y7100D02*
X-7000D01*
G54D62*
X-4700Y3900D02*
X-4675Y3925D01*
X-5175Y3425D01*
X-7825D01*
X-9500Y5100D01*
X-9700D01*
Y6800D01*
G54D60*
X-7000Y4100D02*
X-6950Y4125D01*
X-7650D01*
X-8625Y5100D01*
Y5700D01*
X-9050Y6125D01*
Y7275D01*
X-9225Y7450D01*
X-12700D01*
X-13425Y8175D01*
X-13925D01*
X-14225Y8475D01*
Y8850D01*
X-14240Y8855D01*
X-16900Y14600D02*
X-16875D01*
Y14350D01*
X-16444Y13919D01*
Y13794D01*
Y13344D01*
X-24397Y5100D02*
X-24400Y5125D01*
Y5500D01*
X-24800Y5900D01*
Y6800D01*
X-13255Y9840D02*
X-12915D01*
X-12725Y9650D01*
Y9000D01*
X-12075Y8350D01*
X-7325D01*
X-6950Y7975D01*
X-7000Y8100D01*
X-14400Y6200D02*
X-14375Y6225D01*
Y6675D01*
X-15814Y8114D01*
Y8855D01*
X-11300Y9900D02*
X-11275D01*
X-11369Y9805D01*
Y9100D01*
X-11300Y9900D02*
X-11175D01*
X-12100D01*
X-12670Y10470D01*
X-13255D01*
X-24900Y3800D02*
X-24925Y3975D01*
X-24425Y4475D01*
X-23925D01*
X-23825Y4575D01*
Y5650D01*
X-24300Y6125D01*
Y6800D01*
X-16400Y6200D02*
X-16275Y6100D01*
X-16444Y6269D01*
Y8855D01*
X-9700Y8900D02*
X-9925Y8675D01*
X-11900D01*
X-12425Y9200D01*
Y9775D01*
X-12805Y10155D01*
X-13255D01*
X-9669Y9600D02*
X-9700Y8900D01*
X-9902Y11200D02*
X-9900D01*
X-10114Y11414D01*
X-13255D01*
G54D61*
X-10200Y15200D02*
X-10930D01*
G54D60*
X-21102Y16200D02*
X-21997D01*
X-20400Y15200D02*
X-21102Y16200D01*
G54D61*
X-10200Y14200D02*
X-10930D01*
G54D60*
X-11700Y6800D02*
Y5902D01*
X-14870Y8855D02*
Y8145D01*
X-14225Y7500D01*
X-13800D01*
X-13400Y7100D01*
Y5550D01*
X-13200Y5350D01*
X-12250D01*
X-11650Y5950D01*
X-11700Y5902D01*
G54D61*
X-27400Y13300D02*
X-27700Y14800D01*
X-10200Y13200D02*
X-11030D01*
%LNtop_copper-4*%
%LPC*%
G54D61*
X-19900Y10400D03*
Y8400D03*
X-23100Y15200D03*
Y14200D03*
Y13200D03*
Y12200D03*
Y11200D03*
Y10200D03*
X-23900Y3800D03*
X-24900D03*
X-25900D03*
X-19800Y17200D03*
X-20800D03*
X-21800D03*
X-22800D03*
X-7000Y4100D03*
X-6000D03*
X-7000Y5100D03*
X-6000D03*
X-7000Y6100D03*
X-6000D03*
X-7000Y7100D03*
X-6000D03*
X-7000Y8100D03*
X-6000D03*
X-21600Y14700D03*
Y11700D03*
X-21700Y3800D03*
Y5800D03*
X-22700D03*
Y3800D03*
X-20600Y4400D03*
X-19600D03*
X-9700Y3800D03*
X-10700D03*
X-11700D03*
X-12700D03*
Y6800D03*
X-11700D03*
X-10700D03*
X-9700D03*
X-14000Y4000D03*
X-15000D03*
X-16000D03*
X-17000D03*
X-18000D03*
X-5800Y16800D03*
X-6800D03*
X-4000D03*
X-3000D03*
X-28400Y13300D03*
X-27400D03*
X-26400D03*
X-25400D03*
Y10300D03*
X-26400D03*
X-27400D03*
X-28400D03*
X-25400Y14800D03*
X-24400D03*
X-25400Y17200D03*
X-24400D03*
X-17100Y17600D03*
Y16600D03*
X-16100Y17600D03*
Y16600D03*
X-15100Y17600D03*
Y16600D03*
X-14100Y17600D03*
Y16600D03*
X-13100Y17600D03*
Y16600D03*
X-9200Y17200D03*
X-10200D03*
X-9200Y16200D03*
X-10200D03*
X-9200Y15200D03*
X-10200D03*
X-9200Y14200D03*
X-10200D03*
X-9200Y13200D03*
X-10200D03*
X-7000Y10800D03*
X-6000D03*
X-21700Y7400D03*
X-22700D03*
X-27700Y15800D03*
Y14800D03*
X-1000Y7700D03*
Y9040D03*
Y10380D03*
X-2540Y8370D03*
Y9710D03*
X-3900Y11900D03*
X-1900D03*
X-2400Y14000D03*
X-3400D03*
X-1700Y5000D03*
X-3700D03*
M02*