M48
INCH
T01C0.035
T02C0.0354
T03C0.04
T04C0.0472
T05C0.138
%
T01
X+010060Y+007815
X+010060Y+010815
X+006320Y+010815
X+006320Y+007815
T02
X+005190Y+009815
X+005190Y+008815
X+005190Y+007815
X+005190Y+006815
X+006690Y+005315
X+007690Y+005315
X+008690Y+005315
X+009690Y+005315
X+011190Y+006815
X+011190Y+007815
X+011190Y+008815
X+011190Y+009815
T03
X+007690Y+010815
X+008690Y+010815
T04
X+012690Y+007315
X+012690Y+008315
X+012690Y+009315
X+009190Y+003815
X+008190Y+003815
X+007190Y+003815
X+003690Y+007315
X+003690Y+008315
X+003690Y+009315
T05
X+008190Y+008315
T00
M30
