G04 CAM Products 2000  RS274-X Output*
G04 Serial Number: 0000-00-00000*
G04 File Name:ir_sensor_top.gbr *
%FSLAX34Y34*%
%MOIN*%
%SFA1B1*%

%IPPOS*%
%ADD10C,0.005500*%
%ADD11C,0.006000*%
%ADD13C,0.013000*%
%ADD14C,0.025000*%
%ADD15R,0.074800X0.100000*%
%ADD16R,0.059100X0.059100*%
%ADD17C,0.059100*%
%ADD18R,0.070900X0.070900*%
%ADD19C,0.070900*%
%ADD20C,0.059000*%
%ADD21C,0.078700*%
%ADD22C,0.138000*%
%ADD28C,0.086700*%
%ADD29C,0.067000*%
%ADD32R,0.078900X0.078900*%
%ADD34C,0.067100*%
%ADD36R,0.067100X0.067100*%
%ADD38R,0.082800X0.108000*%
%ADD41C,0.007700*%
%ADD500C,0.035000*%
%ADD501C,0.039400*%
%ADD502C,0.047200*%
%ADD503C,0.138000*%
%LNir_sensor_top-1*%
%LPD*%
G54D13*
X10060Y7815D02*
Y6685D01*
X9815Y6440*
X7190Y3815D02*
X7779Y4404D01*
X10404*
X11190Y5190*
Y6815*
X12190*
X12690Y7315*
X10060Y10815D02*
X8690D01*
X10060D02*
X10190D01*
X11190Y9815*
X8690Y10815D02*
Y10315D01*
X8565Y10190*
X7190*
X6815Y9815*
X5190*
X6320Y10815D02*
X7690D01*
X5190Y8815D02*
X6320D01*
Y7815*
X11190Y8815D02*
X10815D01*
X9815Y9815*
X7315*
X6320Y8820*
G54D14*
X6552Y13541D02*
X9811D01*
X5900Y13292D02*
X6900D01*
X9587D02*
X10467D01*
X5411Y13043D02*
X6900D01*
X9587D02*
X10951D01*
X5017Y12795D02*
X6900D01*
X9587D02*
X11350D01*
X4673Y12546D02*
X6900D01*
X9587D02*
X11690D01*
X4400Y12297D02*
X6900D01*
X9587D02*
X11967D01*
X4142Y12049D02*
X6900D01*
X9587D02*
X12221D01*
X3919Y11800D02*
X12443D01*
X3724Y11551D02*
X12639D01*
X3544Y11303D02*
X6022D01*
X6618D02*
X7045D01*
X9095D02*
X9760D01*
X10361D02*
X12822D01*
X3392Y11054D02*
X5787D01*
X10591D02*
X12975D01*
X3247Y10805D02*
X5736D01*
X10693D02*
X13119D01*
X3126Y10556D02*
X5799D01*
X10939D02*
X13236D01*
X3017Y10308D02*
X4604D01*
X5775D02*
X6057D01*
X6583D02*
X6815D01*
X9072D02*
X9799D01*
X11775D02*
X13350D01*
X2923Y10059D02*
X4604D01*
X10064D02*
X10455D01*
X11775D02*
X13443D01*
X2841Y9810D02*
X3233D01*
X4150D02*
X4604D01*
X10310D02*
X10604D01*
X11775D02*
X12233D01*
X13150D02*
X13525D01*
X2767Y9562D02*
X3053D01*
X4325D02*
X4604D01*
X11775D02*
X12053D01*
X13325D02*
X13596D01*
X2716Y9313D02*
X3006D01*
X4372D02*
X4604D01*
X5775D02*
X6322D01*
X7306D02*
X7975D01*
X8408D02*
X9826D01*
X11775D02*
X12006D01*
X13372D02*
X13650D01*
X2661Y9064D02*
X3057D01*
X4325D02*
X4662D01*
X7056D02*
X7479D01*
X8900D02*
X10072D01*
X11716D02*
X12057D01*
X13325D02*
X13701D01*
X2638Y8816D02*
X3236D01*
X4146D02*
X4604D01*
X6806D02*
X7279D01*
X9099D02*
X10322D01*
X11775D02*
X12236D01*
X13146D02*
X13729D01*
X2611Y8567D02*
X3057D01*
X4322D02*
X4662D01*
X6673D02*
X7182D01*
X9200D02*
X10572D01*
X11716D02*
X12057D01*
X13322D02*
X13756D01*
X2601Y8318D02*
X3006D01*
X4372D02*
X4904D01*
X5474D02*
X5967D01*
X6673D02*
X7150D01*
X9232D02*
X9791D01*
X10329D02*
X10904D01*
X11474D02*
X12006D01*
X13372D02*
X13764D01*
X2601Y8070D02*
X3053D01*
X4325D02*
X4666D01*
X5712D02*
X5794D01*
X6845D02*
X7178D01*
X9200D02*
X9537D01*
X10583D02*
X10665D01*
X11712D02*
X12053D01*
X13325D02*
X13764D01*
X2607Y7821D02*
X3229D01*
X4150D02*
X4604D01*
X6904D02*
X7275D01*
X9103D02*
X9475D01*
X11775D02*
X12229D01*
X13150D02*
X13756D01*
X2634Y7572D02*
X3061D01*
X4322D02*
X4658D01*
X6849D02*
X7471D01*
X8908D02*
X9529D01*
X11720D02*
X12061D01*
X13322D02*
X13733D01*
X2661Y7324D02*
X3006D01*
X4372D02*
X4897D01*
X5486D02*
X6025D01*
X6615D02*
X7943D01*
X8439D02*
X9705D01*
X10415D02*
X10897D01*
X11486D02*
X12006D01*
X13372D02*
X13705D01*
X2712Y7075D02*
X3053D01*
X4329D02*
X4670D01*
X5712D02*
X7615D01*
X8943D02*
X9150D01*
X10478D02*
X10672D01*
X13329D02*
X13654D01*
X2763Y6826D02*
X3225D01*
X4158D02*
X4604D01*
X5775D02*
X7615D01*
X8943D02*
X9150D01*
X10478D02*
X10602D01*
X13158D02*
X13600D01*
X2833Y6577D02*
X4658D01*
X5724D02*
X7615D01*
X8943D02*
X9150D01*
X10478D02*
X10656D01*
X12443D02*
X13533D01*
X2915Y6329D02*
X4889D01*
X5493D02*
X7615D01*
X8943D02*
X9150D01*
X10478D02*
X10834D01*
X11544D02*
X13451D01*
X3005Y6080D02*
X7615D01*
X8943D02*
X9150D01*
X10478D02*
X10834D01*
X11544D02*
X13358D01*
X3118Y5831D02*
X6447D01*
X6931D02*
X7447D01*
X8943D02*
X9104D01*
X10478D02*
X10834D01*
X11544D02*
X13248D01*
X3236Y5583D02*
X6174D01*
X10275D02*
X10834D01*
X11544D02*
X13131D01*
X3376Y5334D02*
X6104D01*
X10275D02*
X10834D01*
X11544D02*
X12986D01*
X3529Y5085D02*
X6154D01*
X10275D02*
X10596D01*
X11529D02*
X12838D01*
X3708Y4837D02*
X6373D01*
X7005D02*
X7373D01*
X8005D02*
X8373D01*
X9005D02*
X9103D01*
X11329D02*
X12658D01*
X3900Y4588D02*
X7471D01*
X11079D02*
X12467D01*
X4122Y4339D02*
X6768D01*
X10829D02*
X12240D01*
X4372Y4091D02*
X6568D01*
X10533D02*
X11990D01*
X4650Y3842D02*
X6506D01*
X9872D02*
X11717D01*
X4986Y3593D02*
X6545D01*
X9833D02*
X11381D01*
X5372Y3345D02*
X6705D01*
X9677D02*
X10990D01*
X5849Y3096D02*
X10518D01*
X6486Y2847D02*
X9881D01*
X7697Y2598D02*
X8666D01*
X9301Y7205D02*
X9727D01*
X9730Y7361*
X9627Y7460*
X9559Y7565*
X9516Y7682*
X9500Y7806*
X9512Y7930*
X9551Y8048*
X9615Y8155*
X9702Y8245*
X9806Y8314*
X9922Y8358*
X10046Y8375*
X10170Y8364*
X10289Y8326*
X10397Y8263*
X10487Y8177*
X10557Y8073*
X10602Y7957*
X10620Y7815*
X10606Y7691*
X10565Y7573*
X10499Y7467*
X10388Y7364*
X10390Y7202*
X10454Y7205*
Y5675*
X10247*
X10250Y5000*
Y4755*
X9130*
X9129Y4967*
X9042Y4879*
X8936Y4812*
X8819Y4770*
X8695Y4755*
X8571Y4768*
X8453Y4807*
X8346Y4872*
X8257Y4959*
X8191Y5061*
X8113Y4948*
X8022Y4864*
X7914Y4801*
X7794Y4765*
X7670Y4755*
X7547Y4773*
X7430Y4818*
X7327Y4888*
X7242Y4979*
X7190Y5062*
X7129Y4967*
X7042Y4879*
X6936Y4812*
X6819Y4770*
X6695Y4755*
X6571Y4768*
X6453Y4807*
X6346Y4872*
X6257Y4959*
X6189Y5064*
X6146Y5181*
X6130Y5305*
X6141Y5429*
X6180Y5548*
X6244Y5655*
X6331Y5745*
X6435Y5814*
X6551Y5858*
X6675Y5875*
X6799Y5865*
X6918Y5827*
X7026Y5764*
X7117Y5678*
X7191Y5564*
X7230Y5634*
X7312Y5728*
X7413Y5802*
X7527Y5851*
X7641Y5873*
Y7205*
X8919*
Y5826*
X9026Y5764*
X9132Y5656*
X9130Y5875*
X9173*
X9176Y6550*
Y7205*
X9301*
X4755Y10375D02*
X5750D01*
Y10145*
X6678*
X6960Y10425*
X6940Y10485*
X6772*
X6671Y10379*
X6566Y10312*
X6448Y10270*
X6325Y10255*
X6201Y10268*
X6082Y10308*
X5976Y10373*
X5887Y10460*
X5819Y10565*
X5776Y10682*
X5760Y10806*
X5772Y10930*
X5811Y11048*
X5875Y11155*
X5962Y11245*
X6066Y11314*
X6182Y11358*
X6306Y11375*
X6430Y11364*
X6549Y11326*
X6657Y11263*
X6767Y11148*
X7074Y11145*
X7071Y11434*
X8309*
Y11305*
X8407Y11366*
X8524Y11412*
X8647Y11433*
X8771Y11429*
X8893Y11400*
X9006Y11348*
X9106Y11274*
X9190Y11181*
X9211Y11144*
X9608Y11145*
X9702Y11245*
X9806Y11314*
X9922Y11358*
X10046Y11375*
X10170Y11364*
X10289Y11326*
X10397Y11263*
X10487Y11177*
X10557Y11073*
X10602Y10957*
X10617Y10853*
X11095Y10377*
X11750Y10375*
Y9255*
X11535*
X11617Y9178*
X11686Y9075*
X11732Y8959*
X11750Y8815*
X11736Y8691*
X11695Y8573*
X11629Y8467*
X11542Y8379*
X11440Y8314*
X11526Y8264*
X11617Y8178*
X11686Y8075*
X11732Y7959*
X11750Y7835*
X11741Y7716*
X11706Y7596*
X11644Y7487*
X11561Y7395*
X11459Y7323*
X11443Y7315*
X11526Y7264*
X11617Y7178*
X11641Y7143*
X12053Y7145*
X12035Y7246*
X12034Y7371*
X12056Y7493*
X12101Y7610*
X12167Y7716*
X12262Y7814*
X12160Y7923*
X12096Y8030*
X12053Y8147*
X12033Y8271*
X12036Y8395*
X12063Y8517*
X12113Y8632*
X12183Y8735*
X12261Y8815*
X12176Y8904*
X12107Y9008*
X12060Y9123*
X12035Y9246*
X12034Y9371*
X12056Y9493*
X12101Y9610*
X12167Y9716*
X12252Y9807*
X12353Y9881*
X12466Y9934*
X12586Y9965*
X12711Y9973*
X12835Y9958*
X12953Y9919*
X13063Y9858*
X13158Y9778*
X13237Y9682*
X13297Y9572*
X13334Y9453*
X13349Y9315*
X13337Y9191*
X13302Y9071*
X13245Y8960*
X13168Y8862*
X13118Y8818*
X13208Y8722*
X13275Y8617*
X13322Y8501*
X13346Y8379*
X13344Y8240*
X13319Y8118*
X13270Y8003*
X13201Y7899*
X13119Y7815*
X13237Y7682*
X13297Y7572*
X13334Y7453*
X13349Y7315*
X13337Y7191*
X13302Y7071*
X13245Y6960*
X13168Y6862*
X13074Y6780*
X12966Y6717*
X12848Y6676*
X12725Y6657*
X12600Y6662*
X12520Y6681*
X12423Y6582*
X12320Y6512*
X12190Y6485*
X11639*
X11542Y6379*
X11519Y6364*
X11520Y5190*
X11497Y5068*
X11423Y4957*
X10637Y4170*
X10534Y4101*
X10404Y4074*
X9797Y4072*
X9834Y3953*
X9849Y3815*
X9837Y3691*
X9802Y3571*
X9745Y3460*
X9668Y3362*
X9574Y3280*
X9466Y3217*
X9348Y3176*
X9225Y3157*
X9100Y3162*
X8978Y3191*
X8865Y3242*
X8762Y3314*
X8689Y3390*
X8632Y3327*
X8532Y3252*
X8420Y3198*
X8299Y3165*
X8175Y3156*
X8051Y3171*
X7932Y3209*
X7822Y3269*
X7726Y3348*
X7690Y3386*
X7574Y3280*
X7466Y3217*
X7348Y3176*
X7225Y3157*
X7100Y3162*
X6978Y3191*
X6865Y3242*
X6762Y3314*
X6676Y3404*
X6607Y3508*
X6560Y3623*
X6535Y3746*
X6534Y3871*
X6556Y3993*
X6601Y4110*
X6667Y4216*
X6752Y4307*
X6853Y4381*
X6966Y4434*
X7086Y4465*
X7211Y4473*
X7361Y4449*
X7545Y4637*
X7648Y4707*
X7779Y4734*
X10267*
X10858Y5325*
X10860Y6366*
X10757Y6459*
X10689Y6564*
X10646Y6681*
X10630Y6805*
X10641Y6929*
X10680Y7048*
X10744Y7155*
X10831Y7245*
X10938Y7315*
X10846Y7372*
X10757Y7459*
X10689Y7564*
X10646Y7681*
X10630Y7805*
X10641Y7929*
X10680Y8048*
X10744Y8155*
X10831Y8245*
X10938Y8315*
X10846Y8372*
X10757Y8459*
X10734Y8495*
X10609Y8557*
X9678Y9485*
X7452*
X6651Y8684*
X6650Y8269*
X6747Y8177*
X6817Y8073*
X6862Y7957*
X6880Y7815*
X6866Y7691*
X6825Y7573*
X6759Y7467*
X6671Y7379*
X6566Y7312*
X6448Y7270*
X6325Y7255*
X6201Y7268*
X6082Y7308*
X5976Y7373*
X5887Y7460*
X5819Y7565*
X5776Y7682*
X5760Y7806*
X5772Y7930*
X5811Y8048*
X5875Y8155*
X5991Y8265*
X5990Y8483*
X5644Y8485*
X5542Y8379*
X5440Y8314*
X5526Y8264*
X5617Y8178*
X5686Y8075*
X5732Y7959*
X5750Y7835*
X5741Y7716*
X5706Y7596*
X5644Y7487*
X5561Y7395*
X5459Y7323*
X5443Y7315*
X5526Y7264*
X5617Y7178*
X5686Y7075*
X5732Y6959*
X5750Y6815*
X5736Y6691*
X5695Y6573*
X5629Y6467*
X5542Y6379*
X5436Y6312*
X5319Y6270*
X5195Y6255*
X5071Y6268*
X4953Y6307*
X4846Y6372*
X4757Y6459*
X4689Y6564*
X4646Y6681*
X4630Y6805*
X4641Y6929*
X4680Y7048*
X4744Y7155*
X4831Y7245*
X4938Y7315*
X4846Y7372*
X4757Y7459*
X4689Y7564*
X4646Y7681*
X4630Y7805*
X4641Y7929*
X4680Y8048*
X4744Y8155*
X4831Y8245*
X4938Y8315*
X4846Y8372*
X4757Y8459*
X4689Y8564*
X4646Y8681*
X4630Y8805*
X4641Y8929*
X4680Y9048*
X4744Y9155*
X4847Y9256*
X4630Y9255*
Y10375*
X4755*
X5750Y9489D02*
Y9255D01*
X5535*
X5617Y9178*
X5641Y9143*
X6178Y9145*
X6520Y9487*
X5749Y9485*
X10630Y9470D02*
Y9907D01*
X10252Y10286*
X10065Y10255*
X9941Y10268*
X9822Y10308*
X9716Y10373*
X9612Y10483*
X9212Y10485*
X9118Y10368*
X9016Y10289*
X8979Y10156*
X8994Y10190*
X9065Y10145*
X9815*
X9937Y10122*
X10048Y10048*
X10631Y9466*
X9199Y8190D02*
X9176Y8068D01*
X9138Y7948*
X9086Y7835*
X9020Y7729*
X8942Y7631*
X8852Y7544*
X8753Y7469*
X8645Y7406*
X8530Y7357*
X8410Y7323*
X8286Y7303*
X8161Y7299*
X8037Y7310*
X7915Y7337*
X7797Y7378*
X7685Y7433*
X7581Y7502*
X7485Y7583*
X7401Y7675*
X7328Y7776*
X7269Y7886*
X7223Y8002*
X7192Y8123*
X7176Y8247*
X7175Y8372*
X7190Y8496*
X7220Y8618*
X7264Y8734*
X7323Y8845*
X7394Y8947*
X7478Y9040*
X7572Y9122*
X7676Y9192*
X7787Y9248*
X7905Y9290*
X8026Y9318*
X8151Y9331*
X8276Y9328*
X8399Y9310*
X8520Y9276*
X8635Y9229*
X8744Y9167*
X8844Y9093*
X8935Y9007*
X9014Y8910*
X9081Y8804*
X9134Y8691*
X9173Y8573*
X9197Y8450*
X9206Y8315*
X9199Y8190*
X4337Y9191D02*
X4302Y9071D01*
X4245Y8960*
X4168Y8862*
X4118Y8818*
X4208Y8722*
X4275Y8617*
X4322Y8501*
X4346Y8379*
X4344Y8240*
X4319Y8118*
X4270Y8003*
X4201Y7899*
X4119Y7815*
X4237Y7682*
X4297Y7572*
X4334Y7453*
X4349Y7315*
X4337Y7191*
X4302Y7071*
X4245Y6960*
X4168Y6862*
X4074Y6780*
X3966Y6717*
X3848Y6676*
X3725Y6657*
X3600Y6662*
X3478Y6691*
X3365Y6742*
X3262Y6814*
X3176Y6904*
X3107Y7008*
X3060Y7123*
X3035Y7246*
X3034Y7371*
X3056Y7493*
X3101Y7610*
X3167Y7716*
X3262Y7814*
X3160Y7923*
X3096Y8030*
X3053Y8147*
X3033Y8271*
X3036Y8395*
X3063Y8517*
X3113Y8632*
X3183Y8735*
X3261Y8815*
X3176Y8904*
X3107Y9008*
X3060Y9123*
X3035Y9246*
X3034Y9371*
X3056Y9493*
X3101Y9610*
X3167Y9716*
X3252Y9807*
X3353Y9881*
X3466Y9934*
X3586Y9965*
X3711Y9973*
X3835Y9958*
X3953Y9919*
X4063Y9858*
X4158Y9778*
X4237Y9682*
X4297Y9572*
X4334Y9453*
X4349Y9315*
X4337Y9191*
X7050Y13330D02*
X9561D01*
Y11898*
X6925*
Y13330*
X7050*
X4211Y4214D02*
X4652Y3817D01*
X5128Y3472*
X5637Y3178*
X6174Y2940*
X6733Y2758*
X7308Y2637*
X7892Y2575*
X8480Y2576*
X9064Y2638*
X9639Y2760*
X10198Y2942*
X10735Y3181*
X11243Y3476*
X11719Y3821*
X12155Y4215*
X12548Y4652*
X12893Y5127*
X13187Y5637*
X13426Y6174*
X13607Y6733*
X13729Y7308*
X13790Y7892*
X13789Y8480*
X13728Y9064*
X13605Y9639*
X13423Y10198*
X13184Y10735*
X12890Y11243*
X12544Y11719*
X12150Y12155*
X11713Y12548*
X11238Y12893*
X10729Y13187*
X10192Y13426*
X9633Y13607*
X9058Y13729*
X8473Y13790*
X7885Y13789*
X7301Y13728*
X6726Y13605*
X6167Y13423*
X5631Y13184*
X5122Y12890*
X4647Y12544*
X4210Y12150*
X3817Y11713*
X3472Y11238*
X3178Y10729*
X2940Y10192*
X2758Y9633*
X2637Y9058*
X2576Y8473*
Y7885*
X2638Y7301*
X2760Y6726*
X2942Y6167*
X3182Y5631*
X3476Y5122*
X3821Y4647*
X4215Y4210*
G54D13*
X7641Y6440D02*
X8918D01*
X4794Y8211D02*
X5586Y7419D01*
Y8211D02*
X4794Y7419D01*
X7294Y5711D02*
X8086Y4919D01*
X7690Y5315D02*
X7294Y4919D01*
X10794Y8211D02*
X11586Y7419D01*
Y8211D02*
X10794Y7419D01*
X12225Y8780D02*
X13155Y7850D01*
Y8780D02*
X12225Y7850D01*
X8190Y3815D02*
X8655Y3350D01*
X8190Y3815D02*
X7725Y3350D01*
X3225Y8780D02*
X4155Y7850D01*
Y8780D02*
X3225Y7850D01*
G54D15*
X9815Y6440D03*
X8280D03*
G54D16*
X5190Y9815D03*
G54D17*
X5190Y8815D03*
Y7815D03*
Y6815D03*
G54D16*
X9690Y5315D03*
G54D17*
X8690Y5315D03*
X7690D03*
X6690D03*
G54D16*
X11190Y9815D03*
G54D17*
X11190Y8815D03*
Y7815D03*
Y6815D03*
G54D18*
X7690Y10815D03*
G54D19*
X8690Y10815D03*
G54D20*
X10060Y7815D03*
G54D17*
X10060Y10815D03*
G54D20*
X6320Y10815D03*
Y7815D03*
G54D21*
X12690Y7315D03*
Y8315D03*
Y9315D03*
X7190Y3815D03*
X8190D03*
X9190D03*
X3690Y9315D03*
Y8315D03*
Y7315D03*
G54D41*
X7612Y12393D02*
X7420Y12895D01*
X7229Y12393*
X7300Y12560D02*
X7540D01*
X8029Y12656D02*
X8005Y12704D01*
X7933Y12728*
X7862*
X7790Y12704*
X7766Y12656*
X7790Y12609*
X7838Y12584*
X7957Y12560*
X8005Y12537*
X8029Y12489*
Y12465*
X8005Y12417*
X7933Y12393*
X7862*
X7790Y12417*
X7766Y12465*
X8471Y12656D02*
X8423Y12704D01*
X8375Y12728*
X8303*
X8255Y12704*
X8208Y12656*
X8183Y12584*
Y12537*
X8208Y12465*
X8255Y12417*
X8303Y12393*
X8375*
X8423Y12417*
X8471Y12465*
X8625Y12584D02*
X8912D01*
Y12632*
X8888Y12680*
X8865Y12704*
X8817Y12728*
X8745*
X8697Y12704*
X8649Y12656*
X8625Y12584*
Y12537*
X8649Y12465*
X8697Y12417*
X8745Y12393*
X8817*
X8865Y12417*
X8912Y12465*
X9138Y12895D02*
Y12489D01*
X9162Y12417*
X9210Y12393*
X9258*
X9067Y12728D02*
X9234D01*
M02*