;Holesize 1 =   30.0 PLATED MILS
;Holesize 2 =   40.0 PLATED MILS
;Holesize 3 =   11.0 PLATED MILS
M48
INCH,00.0000
T01C0.030
T02C0.040
T03C0.011
%
G05
G90
T01
X-019400Y010500
X-021400Y010500
T02
X-018800Y013000
X-019800Y013000
X-020800Y013000
X-021800Y013000
X-022800Y013000
X-023800Y013000
X-005900Y009700
X-005900Y010700
X-005900Y011700
X-005900Y012700
X-005900Y013700
X-021100Y008400
X-022100Y008400
X-023100Y008400
X-024100Y008400
X-018700Y008400
X-019700Y008400
X-008700Y008500
X-009700Y008500
X-010700Y008500
X-011700Y008500
X-012700Y008500
X-005900Y015200
X-005900Y016200
X-005900Y017200
X-024300Y010700
X-024300Y011700
X-018100Y017100
X-018100Y016100
X-017100Y017100
X-017100Y016100
X-016100Y017100
X-016100Y016100
X-015100Y017100
X-015100Y016100
X-014100Y017100
X-014100Y016100
X-012100Y017100
X-012100Y016100
X-011100Y017100
X-011100Y016100
X-010100Y017100
X-010100Y016100
X-009100Y017100
X-009100Y016100
X-008100Y017100
X-008100Y016100
X-023800Y017000
X-022800Y017000
X-021800Y017000
X-020800Y017000
X-020800Y014000
X-021800Y014000
X-022800Y014000
X-023800Y014000
X-005400Y008400
X-006400Y008400
X-007400Y008400
T03
X-007100Y014400
X-016400Y009400
X-015400Y009900
X-025100Y014400
X-014600Y012100
X-020800Y014800
X-011000Y011300
X-020900Y011100
X-016900Y010200
X-017100Y009800
X-016500Y008300
X-015800Y008300
X-008700Y007600
X-014900Y007700
X-021700Y009300
X-014300Y010000
X-014900Y010000
X-015200Y013900
X-007200Y012900
X-019300Y007300
X-025200Y008600
X-010000Y010500
X-007100Y015300
X-013400Y008400
M30
