G04 CAM Products 2000  RS274-X Output*
G04 Serial Number: 0000-00-00000*
G04 File Name:top_copper.grb *
%FSLAX34Y34*%
%MOIN*%
%SFA1B1*%

%IPPOS*%
%AMRECTHERMD11*
4,1,4,-0.007400,-0.007500,
-0.039400,-0.007500,
-0.039400,-0.020700,
-0.007400,-0.020700,
-0.007400,-0.007500,0.0*
4,1,4,-0.007400,0.020700,
-0.039400,0.020700,
-0.039400,0.007500,
-0.007400,0.007500,
-0.007400,0.020700,0.0*
4,1,4,0.039400,-0.007500,
0.007400,-0.007500,
0.007400,-0.020700,
0.039400,-0.020700,
0.039400,-0.007500,0.0*
4,1,4,0.039400,0.020700,
0.007400,0.020700,
0.007400,0.007500,
0.039400,0.007500,
0.039400,0.020700,0.0*
%
%AMRECTHERMD14*
4,1,4,-0.007500,-0.007400,
-0.020700,-0.007400,
-0.020700,-0.039400,
-0.007500,-0.039400,
-0.007500,-0.007400,0.0*
4,1,4,-0.007500,0.039400,
-0.020700,0.039400,
-0.020700,0.007400,
-0.007500,0.007400,
-0.007500,0.039400,0.0*
4,1,4,0.020700,-0.007400,
0.007500,-0.007400,
0.007500,-0.039400,
0.020700,-0.039400,
0.020700,-0.007400,0.0*
4,1,4,0.020700,0.039400,
0.007500,0.039400,
0.007500,0.007400,
0.020700,0.007400,
0.020700,0.039400,0.0*
%
%AMRECTHERMD15*
4,1,4,-0.007400,-0.007500,
-0.031600,-0.007500,
-0.031600,-0.033600,
-0.007400,-0.033600,
-0.007400,-0.007500,0.0*
4,1,4,-0.007400,0.033600,
-0.031600,0.033600,
-0.031600,0.007500,
-0.007400,0.007500,
-0.007400,0.033600,0.0*
4,1,4,0.031600,-0.007500,
0.007400,-0.007500,
0.007400,-0.033600,
0.031600,-0.033600,
0.031600,-0.007500,0.0*
4,1,4,0.031600,0.033600,
0.007400,0.033600,
0.007400,0.007500,
0.031600,0.007500,
0.031600,0.033600,0.0*
%
%AMTHERM19*
1,1,0.095000,0.000000,0.000000*
1,0,0.075000,0.000000,0.000000*
4,0,4,-0.031800,0.042400,
-0.042400,0.031800,
0.031800,-0.042400,
0.042400,-0.031800,
-0.031800,0.042400,0.0*
4,0,4,0.031800,0.042400,
-0.042400,-0.031800,
-0.031800,-0.042400,
0.042400,0.031800,
0.031800,0.042400,0.0*
%
%AMRECTHERMD20*
4,1,4,-0.007500,-0.007500,
-0.041500,-0.007500,
-0.041500,-0.049400,
-0.007500,-0.049400,
-0.007500,-0.007500,0.0*
4,1,4,-0.007500,0.049400,
-0.041500,0.049400,
-0.041500,0.007500,
-0.007500,0.007500,
-0.007500,0.049400,0.0*
4,1,4,0.041500,-0.007500,
0.007500,-0.007500,
0.007500,-0.049400,
0.041500,-0.049400,
0.041500,-0.007500,0.0*
4,1,4,0.041500,0.049400,
0.007500,0.049400,
0.007500,0.007500,
0.041500,0.007500,
0.041500,0.049400,0.0*
%
%AMRECTHERMD23*
4,1,4,-0.007500,-0.007400,
-0.033600,-0.007400,
-0.033600,-0.031600,
-0.007500,-0.031600,
-0.007500,-0.007400,0.0*
4,1,4,-0.007500,0.031600,
-0.033600,0.031600,
-0.033600,0.007400,
-0.007500,0.007400,
-0.007500,0.031600,0.0*
4,1,4,0.033600,-0.007400,
0.007500,-0.007400,
0.007500,-0.031600,
0.033600,-0.031600,
0.033600,-0.007400,0.0*
4,1,4,0.033600,0.031600,
0.007500,0.031600,
0.007500,0.007400,
0.033600,0.007400,
0.033600,0.031600,0.0*
%
%AMRECTHERMD25*
4,1,4,-0.007500,-0.007500,
-0.034000,-0.007500,
-0.034000,-0.030000,
-0.007500,-0.030000,
-0.007500,-0.007500,0.0*
4,1,4,-0.007500,0.030000,
-0.034000,0.030000,
-0.034000,0.007500,
-0.007500,0.007500,
-0.007500,0.030000,0.0*
4,1,4,0.034000,-0.007500,
0.007500,-0.007500,
0.007500,-0.030000,
0.034000,-0.030000,
0.034000,-0.007500,0.0*
4,1,4,0.034000,0.030000,
0.007500,0.030000,
0.007500,0.007500,
0.034000,0.007500,
0.034000,0.030000,0.0*
%
%AMRECTHERMD27*
4,1,4,-0.007500,-0.007500,
-0.029700,-0.007500,
-0.029700,-0.054300,
-0.007500,-0.054300,
-0.007500,-0.007500,0.0*
4,1,4,-0.007500,0.054300,
-0.029700,0.054300,
-0.029700,0.007500,
-0.007500,0.007500,
-0.007500,0.054300,0.0*
4,1,4,0.029700,-0.007500,
0.007500,-0.007500,
0.007500,-0.054300,
0.029700,-0.054300,
0.029700,-0.007500,0.0*
4,1,4,0.029700,0.054300,
0.007500,0.054300,
0.007500,0.007500,
0.029700,0.007500,
0.029700,0.054300,0.0*
%
%AMRECTHERMD28*
4,1,4,-0.007500,-0.007500,
-0.047500,-0.007500,
-0.047500,-0.047500,
-0.007500,-0.047500,
-0.007500,-0.007500,0.0*
4,1,4,-0.007500,0.047500,
-0.047500,0.047500,
-0.047500,0.007500,
-0.007500,0.007500,
-0.007500,0.047500,0.0*
4,1,4,0.047500,-0.007500,
0.007500,-0.007500,
0.007500,-0.047500,
0.047500,-0.047500,
0.047500,-0.007500,0.0*
4,1,4,0.047500,0.047500,
0.007500,0.047500,
0.007500,0.007500,
0.047500,0.007500,
0.047500,0.047500,0.0*
%
%AMRECTHERMD30*
4,1,4,-0.007500,-0.007500,
-0.030000,-0.007500,
-0.030000,-0.034000,
-0.007500,-0.034000,
-0.007500,-0.007500,0.0*
4,1,4,-0.007500,0.034000,
-0.030000,0.034000,
-0.030000,0.007500,
-0.007500,0.007500,
-0.007500,0.034000,0.0*
4,1,4,0.030000,-0.007500,
0.007500,-0.007500,
0.007500,-0.034000,
0.030000,-0.034000,
0.030000,-0.007500,0.0*
4,1,4,0.030000,0.034000,
0.007500,0.034000,
0.007500,0.007500,
0.030000,0.007500,
0.030000,0.034000,0.0*
%
%AMRECTHERMD33*
4,1,4,-0.007500,-0.007500,
-0.065000,-0.007500,
-0.065000,-0.036900,
-0.007500,-0.036900,
-0.007500,-0.007500,0.0*
4,1,4,-0.007500,0.036900,
-0.065000,0.036900,
-0.065000,0.007500,
-0.007500,0.007500,
-0.007500,0.036900,0.0*
4,1,4,0.065000,-0.007500,
0.007500,-0.007500,
0.007500,-0.036900,
0.065000,-0.036900,
0.065000,-0.007500,0.0*
4,1,4,0.065000,0.036900,
0.007500,0.036900,
0.007500,0.007500,
0.065000,0.007500,
0.065000,0.036900,0.0*
%
%AMRECTHERMD36*
4,1,4,-0.007500,-0.007500,
-0.036900,-0.007500,
-0.036900,-0.065000,
-0.007500,-0.065000,
-0.007500,-0.007500,0.0*
4,1,4,-0.007500,0.065000,
-0.036900,0.065000,
-0.036900,0.007500,
-0.007500,0.007500,
-0.007500,0.065000,0.0*
4,1,4,0.036900,-0.007500,
0.007500,-0.007500,
0.007500,-0.065000,
0.036900,-0.065000,
0.036900,-0.007500,0.0*
4,1,4,0.036900,0.065000,
0.007500,0.065000,
0.007500,0.007500,
0.036900,0.007500,
0.036900,0.065000,0.0*
%
%AMTHERM12*
1,1,0.095000,0.000000,0.000000*
1,0,0.075000,0.000000,0.000000*
4,0,4,-0.031800,0.042400,
-0.042400,0.031800,
0.031800,-0.042400,
0.042400,-0.031800,
-0.031800,0.042400,0.0*
4,0,4,0.031800,0.042400,
-0.042400,-0.031800,
-0.031800,-0.042400,
0.042400,0.031800,
0.031800,0.042400,0.0*
%
%AMRECTHERMD15~*
4,1,4,-0.007500,-0.007500,
-0.023800,-0.007500,
-0.023800,-0.053300,
-0.007500,-0.053300,
-0.007500,-0.007500,0.0*
4,1,4,-0.007500,0.053300,
-0.023800,0.053300,
-0.023800,0.007500,
-0.007500,0.007500,
-0.007500,0.053300,0.0*
4,1,4,0.023800,-0.007500,
0.007500,-0.007500,
0.007500,-0.053300,
0.023800,-0.053300,
0.023800,-0.007500,0.0*
4,1,4,0.023800,0.053300,
0.007500,0.053300,
0.007500,0.007500,
0.023800,0.007500,
0.023800,0.053300,0.0*
%
%AMRECTHERMD18*
4,1,4,-0.007500,-0.007500,
-0.047500,-0.007500,
-0.047500,-0.047500,
-0.007500,-0.047500,
-0.007500,-0.007500,0.0*
4,1,4,-0.007500,0.047500,
-0.047500,0.047500,
-0.047500,0.007500,
-0.007500,0.007500,
-0.007500,0.047500,0.0*
4,1,4,0.047500,-0.007500,
0.007500,-0.007500,
0.007500,-0.047500,
0.047500,-0.047500,
0.047500,-0.007500,0.0*
4,1,4,0.047500,0.047500,
0.007500,0.047500,
0.007500,0.007500,
0.047500,0.007500,
0.047500,0.047500,0.0*
%
%AMRECTHERMD20~*
4,1,4,-0.007500,-0.007500,
-0.030000,-0.007500,
-0.030000,-0.034000,
-0.007500,-0.034000,
-0.007500,-0.007500,0.0*
4,1,4,-0.007500,0.034000,
-0.030000,0.034000,
-0.030000,0.007500,
-0.007500,0.007500,
-0.007500,0.034000,0.0*
4,1,4,0.030000,-0.007500,
0.007500,-0.007500,
0.007500,-0.034000,
0.030000,-0.034000,
0.030000,-0.007500,0.0*
4,1,4,0.030000,0.034000,
0.007500,0.034000,
0.007500,0.007500,
0.030000,0.007500,
0.030000,0.034000,0.0*
%
%AMRECTHERMD21*
4,1,4,-0.007500,-0.007400,
-0.033600,-0.007400,
-0.033600,-0.031600,
-0.007500,-0.031600,
-0.007500,-0.007400,0.0*
4,1,4,-0.007500,0.031600,
-0.033600,0.031600,
-0.033600,0.007400,
-0.007500,0.007400,
-0.007500,0.031600,0.0*
4,1,4,0.033600,-0.007400,
0.007500,-0.007400,
0.007500,-0.031600,
0.033600,-0.031600,
0.033600,-0.007400,0.0*
4,1,4,0.033600,0.031600,
0.007500,0.031600,
0.007500,0.007400,
0.033600,0.007400,
0.033600,0.031600,0.0*
%
%AMRECTHERMD24*
4,1,4,-0.007500,-0.007400,
-0.051300,-0.007400,
-0.051300,-0.098500,
-0.007500,-0.098500,
-0.007500,-0.007400,0.0*
4,1,4,-0.007500,0.098500,
-0.051300,0.098500,
-0.051300,0.007400,
-0.007500,0.007400,
-0.007500,0.098500,0.0*
4,1,4,0.051300,-0.007400,
0.007500,-0.007400,
0.007500,-0.098500,
0.051300,-0.098500,
0.051300,-0.007400,0.0*
4,1,4,0.051300,0.098500,
0.007500,0.098500,
0.007500,0.007400,
0.051300,0.007400,
0.051300,0.098500,0.0*
%
%AMTHERM12~*
1,1,0.095000,0.000000,0.000000*
1,0,0.075000,0.000000,0.000000*
4,0,4,-0.031800,0.042400,
-0.042400,0.031800,
0.031800,-0.042400,
0.042400,-0.031800,
-0.031800,0.042400,0.0*
4,0,4,0.031800,0.042400,
-0.042400,-0.031800,
-0.031800,-0.042400,
0.042400,0.031800,
0.031800,0.042400,0.0*
%
%AMRECTHERMD15~~*
4,1,4,-0.007500,-0.007500,
-0.023800,-0.007500,
-0.023800,-0.053300,
-0.007500,-0.053300,
-0.007500,-0.007500,0.0*
4,1,4,-0.007500,0.053300,
-0.023800,0.053300,
-0.023800,0.007500,
-0.007500,0.007500,
-0.007500,0.053300,0.0*
4,1,4,0.023800,-0.007500,
0.007500,-0.007500,
0.007500,-0.053300,
0.023800,-0.053300,
0.023800,-0.007500,0.0*
4,1,4,0.023800,0.053300,
0.007500,0.053300,
0.007500,0.007500,
0.023800,0.007500,
0.023800,0.053300,0.0*
%
%AMRECTHERMD18~*
4,1,4,-0.007500,-0.007500,
-0.047500,-0.007500,
-0.047500,-0.047500,
-0.007500,-0.047500,
-0.007500,-0.007500,0.0*
4,1,4,-0.007500,0.047500,
-0.047500,0.047500,
-0.047500,0.007500,
-0.007500,0.007500,
-0.007500,0.047500,0.0*
4,1,4,0.047500,-0.007500,
0.007500,-0.007500,
0.007500,-0.047500,
0.047500,-0.047500,
0.047500,-0.007500,0.0*
4,1,4,0.047500,0.047500,
0.007500,0.047500,
0.007500,0.007500,
0.047500,0.007500,
0.047500,0.047500,0.0*
%
%AMRECTHERMD20~~*
4,1,4,-0.007500,-0.007500,
-0.030000,-0.007500,
-0.030000,-0.034000,
-0.007500,-0.034000,
-0.007500,-0.007500,0.0*
4,1,4,-0.007500,0.034000,
-0.030000,0.034000,
-0.030000,0.007500,
-0.007500,0.007500,
-0.007500,0.034000,0.0*
4,1,4,0.030000,-0.007500,
0.007500,-0.007500,
0.007500,-0.034000,
0.030000,-0.034000,
0.030000,-0.007500,0.0*
4,1,4,0.030000,0.034000,
0.007500,0.034000,
0.007500,0.007500,
0.030000,0.007500,
0.030000,0.034000,0.0*
%
%AMRECTHERMD21~*
4,1,4,-0.007500,-0.007400,
-0.033600,-0.007400,
-0.033600,-0.031600,
-0.007500,-0.031600,
-0.007500,-0.007400,0.0*
4,1,4,-0.007500,0.031600,
-0.033600,0.031600,
-0.033600,0.007400,
-0.007500,0.007400,
-0.007500,0.031600,0.0*
4,1,4,0.033600,-0.007400,
0.007500,-0.007400,
0.007500,-0.031600,
0.033600,-0.031600,
0.033600,-0.007400,0.0*
4,1,4,0.033600,0.031600,
0.007500,0.031600,
0.007500,0.007400,
0.033600,0.007400,
0.033600,0.031600,0.0*
%
%AMRECTHERMD24~*
4,1,4,-0.007500,-0.007400,
-0.051300,-0.007400,
-0.051300,-0.098500,
-0.007500,-0.098500,
-0.007500,-0.007400,0.0*
4,1,4,-0.007500,0.098500,
-0.051300,0.098500,
-0.051300,0.007400,
-0.007500,0.007400,
-0.007500,0.098500,0.0*
4,1,4,0.051300,-0.007400,
0.007500,-0.007400,
0.007500,-0.098500,
0.051300,-0.098500,
0.051300,-0.007400,0.0*
4,1,4,0.051300,0.098500,
0.007500,0.098500,
0.007500,0.007400,
0.051300,0.007400,
0.051300,0.098500,0.0*
%
%AMRECTHERMD12*
4,1,4,-0.007400,-0.007500,
-0.039400,-0.007500,
-0.039400,-0.020700,
-0.007400,-0.020700,
-0.007400,-0.007500,0.0*
4,1,4,-0.007400,0.020700,
-0.039400,0.020700,
-0.039400,0.007500,
-0.007400,0.007500,
-0.007400,0.020700,0.0*
4,1,4,0.039400,-0.007500,
0.007400,-0.007500,
0.007400,-0.020700,
0.039400,-0.020700,
0.039400,-0.007500,0.0*
4,1,4,0.039400,0.020700,
0.007400,0.020700,
0.007400,0.007500,
0.039400,0.007500,
0.039400,0.020700,0.0*
%
%AMRECTHERMD15~~~*
4,1,4,-0.007500,-0.007400,
-0.020700,-0.007400,
-0.020700,-0.039400,
-0.007500,-0.039400,
-0.007500,-0.007400,0.0*
4,1,4,-0.007500,0.039400,
-0.020700,0.039400,
-0.020700,0.007400,
-0.007500,0.007400,
-0.007500,0.039400,0.0*
4,1,4,0.020700,-0.007400,
0.007500,-0.007400,
0.007500,-0.039400,
0.020700,-0.039400,
0.020700,-0.007400,0.0*
4,1,4,0.020700,0.039400,
0.007500,0.039400,
0.007500,0.007400,
0.020700,0.007400,
0.020700,0.039400,0.0*
%
%AMRECTHERMD16*
4,1,4,-0.007400,-0.007500,
-0.031600,-0.007500,
-0.031600,-0.033600,
-0.007400,-0.033600,
-0.007400,-0.007500,0.0*
4,1,4,-0.007400,0.033600,
-0.031600,0.033600,
-0.031600,0.007500,
-0.007400,0.007500,
-0.007400,0.033600,0.0*
4,1,4,0.031600,-0.007500,
0.007400,-0.007500,
0.007400,-0.033600,
0.031600,-0.033600,
0.031600,-0.007500,0.0*
4,1,4,0.031600,0.033600,
0.007400,0.033600,
0.007400,0.007500,
0.031600,0.007500,
0.031600,0.033600,0.0*
%
%AMTHERM20*
1,1,0.095000,0.000000,0.000000*
1,0,0.075000,0.000000,0.000000*
4,0,4,-0.031800,0.042400,
-0.042400,0.031800,
0.031800,-0.042400,
0.042400,-0.031800,
-0.031800,0.042400,0.0*
4,0,4,0.031800,0.042400,
-0.042400,-0.031800,
-0.031800,-0.042400,
0.042400,0.031800,
0.031800,0.042400,0.0*
%
%AMRECTHERMD21~~*
4,1,4,-0.007500,-0.007500,
-0.041500,-0.007500,
-0.041500,-0.049400,
-0.007500,-0.049400,
-0.007500,-0.007500,0.0*
4,1,4,-0.007500,0.049400,
-0.041500,0.049400,
-0.041500,0.007500,
-0.007500,0.007500,
-0.007500,0.049400,0.0*
4,1,4,0.041500,-0.007500,
0.007500,-0.007500,
0.007500,-0.049400,
0.041500,-0.049400,
0.041500,-0.007500,0.0*
4,1,4,0.041500,0.049400,
0.007500,0.049400,
0.007500,0.007500,
0.041500,0.007500,
0.041500,0.049400,0.0*
%
%AMRECTHERMD24~~*
4,1,4,-0.007500,-0.007500,
-0.034000,-0.007500,
-0.034000,-0.030000,
-0.007500,-0.030000,
-0.007500,-0.007500,0.0*
4,1,4,-0.007500,0.030000,
-0.034000,0.030000,
-0.034000,0.007500,
-0.007500,0.007500,
-0.007500,0.030000,0.0*
4,1,4,0.034000,-0.007500,
0.007500,-0.007500,
0.007500,-0.030000,
0.034000,-0.030000,
0.034000,-0.007500,0.0*
4,1,4,0.034000,0.030000,
0.007500,0.030000,
0.007500,0.007500,
0.034000,0.007500,
0.034000,0.030000,0.0*
%
%AMRECTHERMD26*
4,1,4,-0.007500,-0.007500,
-0.029700,-0.007500,
-0.029700,-0.054300,
-0.007500,-0.054300,
-0.007500,-0.007500,0.0*
4,1,4,-0.007500,0.054300,
-0.029700,0.054300,
-0.029700,0.007500,
-0.007500,0.007500,
-0.007500,0.054300,0.0*
4,1,4,0.029700,-0.007500,
0.007500,-0.007500,
0.007500,-0.054300,
0.029700,-0.054300,
0.029700,-0.007500,0.0*
4,1,4,0.029700,0.054300,
0.007500,0.054300,
0.007500,0.007500,
0.029700,0.007500,
0.029700,0.054300,0.0*
%
%AMRECTHERMD27~*
4,1,4,-0.007500,-0.007500,
-0.047500,-0.007500,
-0.047500,-0.047500,
-0.007500,-0.047500,
-0.007500,-0.007500,0.0*
4,1,4,-0.007500,0.047500,
-0.047500,0.047500,
-0.047500,0.007500,
-0.007500,0.007500,
-0.007500,0.047500,0.0*
4,1,4,0.047500,-0.007500,
0.007500,-0.007500,
0.007500,-0.047500,
0.047500,-0.047500,
0.047500,-0.007500,0.0*
4,1,4,0.047500,0.047500,
0.007500,0.047500,
0.007500,0.007500,
0.047500,0.007500,
0.047500,0.047500,0.0*
%
%AMRECTHERMD29*
4,1,4,-0.007500,-0.007500,
-0.030000,-0.007500,
-0.030000,-0.034000,
-0.007500,-0.034000,
-0.007500,-0.007500,0.0*
4,1,4,-0.007500,0.034000,
-0.030000,0.034000,
-0.030000,0.007500,
-0.007500,0.007500,
-0.007500,0.034000,0.0*
4,1,4,0.030000,-0.007500,
0.007500,-0.007500,
0.007500,-0.034000,
0.030000,-0.034000,
0.030000,-0.007500,0.0*
4,1,4,0.030000,0.034000,
0.007500,0.034000,
0.007500,0.007500,
0.030000,0.007500,
0.030000,0.034000,0.0*
%
%AMRECTHERMD31*
4,1,4,-0.007500,-0.007400,
-0.033600,-0.007400,
-0.033600,-0.031600,
-0.007500,-0.031600,
-0.007500,-0.007400,0.0*
4,1,4,-0.007500,0.031600,
-0.033600,0.031600,
-0.033600,0.007400,
-0.007500,0.007400,
-0.007500,0.031600,0.0*
4,1,4,0.033600,-0.007400,
0.007500,-0.007400,
0.007500,-0.031600,
0.033600,-0.031600,
0.033600,-0.007400,0.0*
4,1,4,0.033600,0.031600,
0.007500,0.031600,
0.007500,0.007400,
0.033600,0.007400,
0.033600,0.031600,0.0*
%
%AMRECTHERMD34*
4,1,4,-0.007500,-0.007500,
-0.065000,-0.007500,
-0.065000,-0.036900,
-0.007500,-0.036900,
-0.007500,-0.007500,0.0*
4,1,4,-0.007500,0.036900,
-0.065000,0.036900,
-0.065000,0.007500,
-0.007500,0.007500,
-0.007500,0.036900,0.0*
4,1,4,0.065000,-0.007500,
0.007500,-0.007500,
0.007500,-0.036900,
0.065000,-0.036900,
0.065000,-0.007500,0.0*
4,1,4,0.065000,0.036900,
0.007500,0.036900,
0.007500,0.007500,
0.065000,0.007500,
0.065000,0.036900,0.0*
%
%AMRECTHERMD37*
4,1,4,-0.007500,-0.007500,
-0.036900,-0.007500,
-0.036900,-0.065000,
-0.007500,-0.065000,
-0.007500,-0.007500,0.0*
4,1,4,-0.007500,0.065000,
-0.036900,0.065000,
-0.036900,0.007500,
-0.007500,0.007500,
-0.007500,0.065000,0.0*
4,1,4,0.036900,-0.007500,
0.007500,-0.007500,
0.007500,-0.065000,
0.036900,-0.065000,
0.036900,-0.007500,0.0*
4,1,4,0.036900,0.065000,
0.007500,0.065000,
0.007500,0.007500,
0.036900,0.007500,
0.036900,0.065000,0.0*
%
%AMTHERM13*
1,1,0.095000,0.000000,0.000000*
1,0,0.075000,0.000000,0.000000*
4,0,4,-0.031800,0.042400,
-0.042400,0.031800,
0.031800,-0.042400,
0.042400,-0.031800,
-0.031800,0.042400,0.0*
4,0,4,0.031800,0.042400,
-0.042400,-0.031800,
-0.031800,-0.042400,
0.042400,0.031800,
0.031800,0.042400,0.0*
%
%AMRECTHERMD16~*
4,1,4,-0.007500,-0.007500,
-0.023800,-0.007500,
-0.023800,-0.053300,
-0.007500,-0.053300,
-0.007500,-0.007500,0.0*
4,1,4,-0.007500,0.053300,
-0.023800,0.053300,
-0.023800,0.007500,
-0.007500,0.007500,
-0.007500,0.053300,0.0*
4,1,4,0.023800,-0.007500,
0.007500,-0.007500,
0.007500,-0.053300,
0.023800,-0.053300,
0.023800,-0.007500,0.0*
4,1,4,0.023800,0.053300,
0.007500,0.053300,
0.007500,0.007500,
0.023800,0.007500,
0.023800,0.053300,0.0*
%
%AMRECTHERMD19*
4,1,4,-0.007500,-0.007500,
-0.047500,-0.007500,
-0.047500,-0.047500,
-0.007500,-0.047500,
-0.007500,-0.007500,0.0*
4,1,4,-0.007500,0.047500,
-0.047500,0.047500,
-0.047500,0.007500,
-0.007500,0.007500,
-0.007500,0.047500,0.0*
4,1,4,0.047500,-0.007500,
0.007500,-0.007500,
0.007500,-0.047500,
0.047500,-0.047500,
0.047500,-0.007500,0.0*
4,1,4,0.047500,0.047500,
0.007500,0.047500,
0.007500,0.007500,
0.047500,0.007500,
0.047500,0.047500,0.0*
%
%AMRECTHERMD21~~~*
4,1,4,-0.007500,-0.007500,
-0.030000,-0.007500,
-0.030000,-0.034000,
-0.007500,-0.034000,
-0.007500,-0.007500,0.0*
4,1,4,-0.007500,0.034000,
-0.030000,0.034000,
-0.030000,0.007500,
-0.007500,0.007500,
-0.007500,0.034000,0.0*
4,1,4,0.030000,-0.007500,
0.007500,-0.007500,
0.007500,-0.034000,
0.030000,-0.034000,
0.030000,-0.007500,0.0*
4,1,4,0.030000,0.034000,
0.007500,0.034000,
0.007500,0.007500,
0.030000,0.007500,
0.030000,0.034000,0.0*
%
%AMRECTHERMD22*
4,1,4,-0.007500,-0.007400,
-0.033600,-0.007400,
-0.033600,-0.031600,
-0.007500,-0.031600,
-0.007500,-0.007400,0.0*
4,1,4,-0.007500,0.031600,
-0.033600,0.031600,
-0.033600,0.007400,
-0.007500,0.007400,
-0.007500,0.031600,0.0*
4,1,4,0.033600,-0.007400,
0.007500,-0.007400,
0.007500,-0.031600,
0.033600,-0.031600,
0.033600,-0.007400,0.0*
4,1,4,0.033600,0.031600,
0.007500,0.031600,
0.007500,0.007400,
0.033600,0.007400,
0.033600,0.031600,0.0*
%
%AMRECTHERMD25~*
4,1,4,-0.007500,-0.007400,
-0.051300,-0.007400,
-0.051300,-0.098500,
-0.007500,-0.098500,
-0.007500,-0.007400,0.0*
4,1,4,-0.007500,0.098500,
-0.051300,0.098500,
-0.051300,0.007400,
-0.007500,0.007400,
-0.007500,0.098500,0.0*
4,1,4,0.051300,-0.007400,
0.007500,-0.007400,
0.007500,-0.098500,
0.051300,-0.098500,
0.051300,-0.007400,0.0*
4,1,4,0.051300,0.098500,
0.007500,0.098500,
0.007500,0.007400,
0.051300,0.007400,
0.051300,0.098500,0.0*
%
%AMRECTHERMD12~*
4,1,4,-0.007400,-0.007500,
-0.039400,-0.007500,
-0.039400,-0.020700,
-0.007400,-0.020700,
-0.007400,-0.007500,0.0*
4,1,4,-0.007400,0.020700,
-0.039400,0.020700,
-0.039400,0.007500,
-0.007400,0.007500,
-0.007400,0.020700,0.0*
4,1,4,0.039400,-0.007500,
0.007400,-0.007500,
0.007400,-0.020700,
0.039400,-0.020700,
0.039400,-0.007500,0.0*
4,1,4,0.039400,0.020700,
0.007400,0.020700,
0.007400,0.007500,
0.039400,0.007500,
0.039400,0.020700,0.0*
%
%AMRECTHERMD15~~~~*
4,1,4,-0.007500,-0.007400,
-0.020700,-0.007400,
-0.020700,-0.039400,
-0.007500,-0.039400,
-0.007500,-0.007400,0.0*
4,1,4,-0.007500,0.039400,
-0.020700,0.039400,
-0.020700,0.007400,
-0.007500,0.007400,
-0.007500,0.039400,0.0*
4,1,4,0.020700,-0.007400,
0.007500,-0.007400,
0.007500,-0.039400,
0.020700,-0.039400,
0.020700,-0.007400,0.0*
4,1,4,0.020700,0.039400,
0.007500,0.039400,
0.007500,0.007400,
0.020700,0.007400,
0.020700,0.039400,0.0*
%
%AMRECTHERMD16~~*
4,1,4,-0.007400,-0.007500,
-0.031600,-0.007500,
-0.031600,-0.033600,
-0.007400,-0.033600,
-0.007400,-0.007500,0.0*
4,1,4,-0.007400,0.033600,
-0.031600,0.033600,
-0.031600,0.007500,
-0.007400,0.007500,
-0.007400,0.033600,0.0*
4,1,4,0.031600,-0.007500,
0.007400,-0.007500,
0.007400,-0.033600,
0.031600,-0.033600,
0.031600,-0.007500,0.0*
4,1,4,0.031600,0.033600,
0.007400,0.033600,
0.007400,0.007500,
0.031600,0.007500,
0.031600,0.033600,0.0*
%
%AMTHERM20~*
1,1,0.095000,0.000000,0.000000*
1,0,0.075000,0.000000,0.000000*
4,0,4,-0.031800,0.042400,
-0.042400,0.031800,
0.031800,-0.042400,
0.042400,-0.031800,
-0.031800,0.042400,0.0*
4,0,4,0.031800,0.042400,
-0.042400,-0.031800,
-0.031800,-0.042400,
0.042400,0.031800,
0.031800,0.042400,0.0*
%
%AMRECTHERMD21~~~~*
4,1,4,-0.007500,-0.007500,
-0.041500,-0.007500,
-0.041500,-0.049400,
-0.007500,-0.049400,
-0.007500,-0.007500,0.0*
4,1,4,-0.007500,0.049400,
-0.041500,0.049400,
-0.041500,0.007500,
-0.007500,0.007500,
-0.007500,0.049400,0.0*
4,1,4,0.041500,-0.007500,
0.007500,-0.007500,
0.007500,-0.049400,
0.041500,-0.049400,
0.041500,-0.007500,0.0*
4,1,4,0.041500,0.049400,
0.007500,0.049400,
0.007500,0.007500,
0.041500,0.007500,
0.041500,0.049400,0.0*
%
%AMRECTHERMD24~~~*
4,1,4,-0.007500,-0.007500,
-0.034000,-0.007500,
-0.034000,-0.030000,
-0.007500,-0.030000,
-0.007500,-0.007500,0.0*
4,1,4,-0.007500,0.030000,
-0.034000,0.030000,
-0.034000,0.007500,
-0.007500,0.007500,
-0.007500,0.030000,0.0*
4,1,4,0.034000,-0.007500,
0.007500,-0.007500,
0.007500,-0.030000,
0.034000,-0.030000,
0.034000,-0.007500,0.0*
4,1,4,0.034000,0.030000,
0.007500,0.030000,
0.007500,0.007500,
0.034000,0.007500,
0.034000,0.030000,0.0*
%
%AMRECTHERMD26~*
4,1,4,-0.007500,-0.007500,
-0.029700,-0.007500,
-0.029700,-0.054300,
-0.007500,-0.054300,
-0.007500,-0.007500,0.0*
4,1,4,-0.007500,0.054300,
-0.029700,0.054300,
-0.029700,0.007500,
-0.007500,0.007500,
-0.007500,0.054300,0.0*
4,1,4,0.029700,-0.007500,
0.007500,-0.007500,
0.007500,-0.054300,
0.029700,-0.054300,
0.029700,-0.007500,0.0*
4,1,4,0.029700,0.054300,
0.007500,0.054300,
0.007500,0.007500,
0.029700,0.007500,
0.029700,0.054300,0.0*
%
%AMRECTHERMD27~~*
4,1,4,-0.007500,-0.007500,
-0.047500,-0.007500,
-0.047500,-0.047500,
-0.007500,-0.047500,
-0.007500,-0.007500,0.0*
4,1,4,-0.007500,0.047500,
-0.047500,0.047500,
-0.047500,0.007500,
-0.007500,0.007500,
-0.007500,0.047500,0.0*
4,1,4,0.047500,-0.007500,
0.007500,-0.007500,
0.007500,-0.047500,
0.047500,-0.047500,
0.047500,-0.007500,0.0*
4,1,4,0.047500,0.047500,
0.007500,0.047500,
0.007500,0.007500,
0.047500,0.007500,
0.047500,0.047500,0.0*
%
%AMRECTHERMD29~*
4,1,4,-0.007500,-0.007500,
-0.030000,-0.007500,
-0.030000,-0.034000,
-0.007500,-0.034000,
-0.007500,-0.007500,0.0*
4,1,4,-0.007500,0.034000,
-0.030000,0.034000,
-0.030000,0.007500,
-0.007500,0.007500,
-0.007500,0.034000,0.0*
4,1,4,0.030000,-0.007500,
0.007500,-0.007500,
0.007500,-0.034000,
0.030000,-0.034000,
0.030000,-0.007500,0.0*
4,1,4,0.030000,0.034000,
0.007500,0.034000,
0.007500,0.007500,
0.030000,0.007500,
0.030000,0.034000,0.0*
%
%AMRECTHERMD31~*
4,1,4,-0.007500,-0.007400,
-0.033600,-0.007400,
-0.033600,-0.031600,
-0.007500,-0.031600,
-0.007500,-0.007400,0.0*
4,1,4,-0.007500,0.031600,
-0.033600,0.031600,
-0.033600,0.007400,
-0.007500,0.007400,
-0.007500,0.031600,0.0*
4,1,4,0.033600,-0.007400,
0.007500,-0.007400,
0.007500,-0.031600,
0.033600,-0.031600,
0.033600,-0.007400,0.0*
4,1,4,0.033600,0.031600,
0.007500,0.031600,
0.007500,0.007400,
0.033600,0.007400,
0.033600,0.031600,0.0*
%
%AMRECTHERMD34~*
4,1,4,-0.007500,-0.007500,
-0.065000,-0.007500,
-0.065000,-0.036900,
-0.007500,-0.036900,
-0.007500,-0.007500,0.0*
4,1,4,-0.007500,0.036900,
-0.065000,0.036900,
-0.065000,0.007500,
-0.007500,0.007500,
-0.007500,0.036900,0.0*
4,1,4,0.065000,-0.007500,
0.007500,-0.007500,
0.007500,-0.036900,
0.065000,-0.036900,
0.065000,-0.007500,0.0*
4,1,4,0.065000,0.036900,
0.007500,0.036900,
0.007500,0.007500,
0.065000,0.007500,
0.065000,0.036900,0.0*
%
%AMRECTHERMD37~*
4,1,4,-0.007500,-0.007500,
-0.036900,-0.007500,
-0.036900,-0.065000,
-0.007500,-0.065000,
-0.007500,-0.007500,0.0*
4,1,4,-0.007500,0.065000,
-0.036900,0.065000,
-0.036900,0.007500,
-0.007500,0.007500,
-0.007500,0.065000,0.0*
4,1,4,0.036900,-0.007500,
0.007500,-0.007500,
0.007500,-0.065000,
0.036900,-0.065000,
0.036900,-0.007500,0.0*
4,1,4,0.036900,0.065000,
0.007500,0.065000,
0.007500,0.007500,
0.036900,0.007500,
0.036900,0.065000,0.0*
%
%AMRECTHERMD12~~*
4,1,4,-0.007400,-0.007500,
-0.039400,-0.007500,
-0.039400,-0.020700,
-0.007400,-0.020700,
-0.007400,-0.007500,0.0*
4,1,4,-0.007400,0.020700,
-0.039400,0.020700,
-0.039400,0.007500,
-0.007400,0.007500,
-0.007400,0.020700,0.0*
4,1,4,0.039400,-0.007500,
0.007400,-0.007500,
0.007400,-0.020700,
0.039400,-0.020700,
0.039400,-0.007500,0.0*
4,1,4,0.039400,0.020700,
0.007400,0.020700,
0.007400,0.007500,
0.039400,0.007500,
0.039400,0.020700,0.0*
%
%AMRECTHERMD15~~~~~*
4,1,4,-0.007500,-0.007400,
-0.020700,-0.007400,
-0.020700,-0.039400,
-0.007500,-0.039400,
-0.007500,-0.007400,0.0*
4,1,4,-0.007500,0.039400,
-0.020700,0.039400,
-0.020700,0.007400,
-0.007500,0.007400,
-0.007500,0.039400,0.0*
4,1,4,0.020700,-0.007400,
0.007500,-0.007400,
0.007500,-0.039400,
0.020700,-0.039400,
0.020700,-0.007400,0.0*
4,1,4,0.020700,0.039400,
0.007500,0.039400,
0.007500,0.007400,
0.020700,0.007400,
0.020700,0.039400,0.0*
%
%AMRECTHERMD16~~~*
4,1,4,-0.007400,-0.007500,
-0.031600,-0.007500,
-0.031600,-0.033600,
-0.007400,-0.033600,
-0.007400,-0.007500,0.0*
4,1,4,-0.007400,0.033600,
-0.031600,0.033600,
-0.031600,0.007500,
-0.007400,0.007500,
-0.007400,0.033600,0.0*
4,1,4,0.031600,-0.007500,
0.007400,-0.007500,
0.007400,-0.033600,
0.031600,-0.033600,
0.031600,-0.007500,0.0*
4,1,4,0.031600,0.033600,
0.007400,0.033600,
0.007400,0.007500,
0.031600,0.007500,
0.031600,0.033600,0.0*
%
%AMTHERM20~~*
1,1,0.095000,0.000000,0.000000*
1,0,0.075000,0.000000,0.000000*
4,0,4,-0.031800,0.042400,
-0.042400,0.031800,
0.031800,-0.042400,
0.042400,-0.031800,
-0.031800,0.042400,0.0*
4,0,4,0.031800,0.042400,
-0.042400,-0.031800,
-0.031800,-0.042400,
0.042400,0.031800,
0.031800,0.042400,0.0*
%
%AMRECTHERMD21~~~~~*
4,1,4,-0.007500,-0.007500,
-0.041500,-0.007500,
-0.041500,-0.049400,
-0.007500,-0.049400,
-0.007500,-0.007500,0.0*
4,1,4,-0.007500,0.049400,
-0.041500,0.049400,
-0.041500,0.007500,
-0.007500,0.007500,
-0.007500,0.049400,0.0*
4,1,4,0.041500,-0.007500,
0.007500,-0.007500,
0.007500,-0.049400,
0.041500,-0.049400,
0.041500,-0.007500,0.0*
4,1,4,0.041500,0.049400,
0.007500,0.049400,
0.007500,0.007500,
0.041500,0.007500,
0.041500,0.049400,0.0*
%
%AMRECTHERMD24~~~~*
4,1,4,-0.007500,-0.007500,
-0.034000,-0.007500,
-0.034000,-0.030000,
-0.007500,-0.030000,
-0.007500,-0.007500,0.0*
4,1,4,-0.007500,0.030000,
-0.034000,0.030000,
-0.034000,0.007500,
-0.007500,0.007500,
-0.007500,0.030000,0.0*
4,1,4,0.034000,-0.007500,
0.007500,-0.007500,
0.007500,-0.030000,
0.034000,-0.030000,
0.034000,-0.007500,0.0*
4,1,4,0.034000,0.030000,
0.007500,0.030000,
0.007500,0.007500,
0.034000,0.007500,
0.034000,0.030000,0.0*
%
%AMRECTHERMD26~~*
4,1,4,-0.007500,-0.007500,
-0.029700,-0.007500,
-0.029700,-0.054300,
-0.007500,-0.054300,
-0.007500,-0.007500,0.0*
4,1,4,-0.007500,0.054300,
-0.029700,0.054300,
-0.029700,0.007500,
-0.007500,0.007500,
-0.007500,0.054300,0.0*
4,1,4,0.029700,-0.007500,
0.007500,-0.007500,
0.007500,-0.054300,
0.029700,-0.054300,
0.029700,-0.007500,0.0*
4,1,4,0.029700,0.054300,
0.007500,0.054300,
0.007500,0.007500,
0.029700,0.007500,
0.029700,0.054300,0.0*
%
%AMRECTHERMD27~~~*
4,1,4,-0.007500,-0.007500,
-0.047500,-0.007500,
-0.047500,-0.047500,
-0.007500,-0.047500,
-0.007500,-0.007500,0.0*
4,1,4,-0.007500,0.047500,
-0.047500,0.047500,
-0.047500,0.007500,
-0.007500,0.007500,
-0.007500,0.047500,0.0*
4,1,4,0.047500,-0.007500,
0.007500,-0.007500,
0.007500,-0.047500,
0.047500,-0.047500,
0.047500,-0.007500,0.0*
4,1,4,0.047500,0.047500,
0.007500,0.047500,
0.007500,0.007500,
0.047500,0.007500,
0.047500,0.047500,0.0*
%
%AMRECTHERMD29~~*
4,1,4,-0.007500,-0.007500,
-0.030000,-0.007500,
-0.030000,-0.034000,
-0.007500,-0.034000,
-0.007500,-0.007500,0.0*
4,1,4,-0.007500,0.034000,
-0.030000,0.034000,
-0.030000,0.007500,
-0.007500,0.007500,
-0.007500,0.034000,0.0*
4,1,4,0.030000,-0.007500,
0.007500,-0.007500,
0.007500,-0.034000,
0.030000,-0.034000,
0.030000,-0.007500,0.0*
4,1,4,0.030000,0.034000,
0.007500,0.034000,
0.007500,0.007500,
0.030000,0.007500,
0.030000,0.034000,0.0*
%
%AMRECTHERMD31~~*
4,1,4,-0.007500,-0.007400,
-0.033600,-0.007400,
-0.033600,-0.031600,
-0.007500,-0.031600,
-0.007500,-0.007400,0.0*
4,1,4,-0.007500,0.031600,
-0.033600,0.031600,
-0.033600,0.007400,
-0.007500,0.007400,
-0.007500,0.031600,0.0*
4,1,4,0.033600,-0.007400,
0.007500,-0.007400,
0.007500,-0.031600,
0.033600,-0.031600,
0.033600,-0.007400,0.0*
4,1,4,0.033600,0.031600,
0.007500,0.031600,
0.007500,0.007400,
0.033600,0.007400,
0.033600,0.031600,0.0*
%
%AMRECTHERMD34~~*
4,1,4,-0.007500,-0.007500,
-0.065000,-0.007500,
-0.065000,-0.036900,
-0.007500,-0.036900,
-0.007500,-0.007500,0.0*
4,1,4,-0.007500,0.036900,
-0.065000,0.036900,
-0.065000,0.007500,
-0.007500,0.007500,
-0.007500,0.036900,0.0*
4,1,4,0.065000,-0.007500,
0.007500,-0.007500,
0.007500,-0.036900,
0.065000,-0.036900,
0.065000,-0.007500,0.0*
4,1,4,0.065000,0.036900,
0.007500,0.036900,
0.007500,0.007500,
0.065000,0.007500,
0.065000,0.036900,0.0*
%
%AMRECTHERMD37~~*
4,1,4,-0.007500,-0.007500,
-0.036900,-0.007500,
-0.036900,-0.065000,
-0.007500,-0.065000,
-0.007500,-0.007500,0.0*
4,1,4,-0.007500,0.065000,
-0.036900,0.065000,
-0.036900,0.007500,
-0.007500,0.007500,
-0.007500,0.065000,0.0*
4,1,4,0.036900,-0.007500,
0.007500,-0.007500,
0.007500,-0.065000,
0.036900,-0.065000,
0.036900,-0.007500,0.0*
4,1,4,0.036900,0.065000,
0.007500,0.065000,
0.007500,0.007500,
0.036900,0.007500,
0.036900,0.065000,0.0*
%
%AMRECTHERMD12~~~*
4,1,4,-0.007400,-0.007500,
-0.039400,-0.007500,
-0.039400,-0.020700,
-0.007400,-0.020700,
-0.007400,-0.007500,0.0*
4,1,4,-0.007400,0.020700,
-0.039400,0.020700,
-0.039400,0.007500,
-0.007400,0.007500,
-0.007400,0.020700,0.0*
4,1,4,0.039400,-0.007500,
0.007400,-0.007500,
0.007400,-0.020700,
0.039400,-0.020700,
0.039400,-0.007500,0.0*
4,1,4,0.039400,0.020700,
0.007400,0.020700,
0.007400,0.007500,
0.039400,0.007500,
0.039400,0.020700,0.0*
%
%AMRECTHERMD15~~~~~~*
4,1,4,-0.007500,-0.007400,
-0.020700,-0.007400,
-0.020700,-0.039400,
-0.007500,-0.039400,
-0.007500,-0.007400,0.0*
4,1,4,-0.007500,0.039400,
-0.020700,0.039400,
-0.020700,0.007400,
-0.007500,0.007400,
-0.007500,0.039400,0.0*
4,1,4,0.020700,-0.007400,
0.007500,-0.007400,
0.007500,-0.039400,
0.020700,-0.039400,
0.020700,-0.007400,0.0*
4,1,4,0.020700,0.039400,
0.007500,0.039400,
0.007500,0.007400,
0.020700,0.007400,
0.020700,0.039400,0.0*
%
%AMRECTHERMD16~~~~*
4,1,4,-0.007400,-0.007500,
-0.031600,-0.007500,
-0.031600,-0.033600,
-0.007400,-0.033600,
-0.007400,-0.007500,0.0*
4,1,4,-0.007400,0.033600,
-0.031600,0.033600,
-0.031600,0.007500,
-0.007400,0.007500,
-0.007400,0.033600,0.0*
4,1,4,0.031600,-0.007500,
0.007400,-0.007500,
0.007400,-0.033600,
0.031600,-0.033600,
0.031600,-0.007500,0.0*
4,1,4,0.031600,0.033600,
0.007400,0.033600,
0.007400,0.007500,
0.031600,0.007500,
0.031600,0.033600,0.0*
%
%AMTHERM20~~~*
1,1,0.095000,0.000000,0.000000*
1,0,0.075000,0.000000,0.000000*
4,0,4,-0.031800,0.042400,
-0.042400,0.031800,
0.031800,-0.042400,
0.042400,-0.031800,
-0.031800,0.042400,0.0*
4,0,4,0.031800,0.042400,
-0.042400,-0.031800,
-0.031800,-0.042400,
0.042400,0.031800,
0.031800,0.042400,0.0*
%
%AMRECTHERMD21~~~~~~*
4,1,4,-0.007500,-0.007500,
-0.041500,-0.007500,
-0.041500,-0.049400,
-0.007500,-0.049400,
-0.007500,-0.007500,0.0*
4,1,4,-0.007500,0.049400,
-0.041500,0.049400,
-0.041500,0.007500,
-0.007500,0.007500,
-0.007500,0.049400,0.0*
4,1,4,0.041500,-0.007500,
0.007500,-0.007500,
0.007500,-0.049400,
0.041500,-0.049400,
0.041500,-0.007500,0.0*
4,1,4,0.041500,0.049400,
0.007500,0.049400,
0.007500,0.007500,
0.041500,0.007500,
0.041500,0.049400,0.0*
%
%AMRECTHERMD24~~~~~*
4,1,4,-0.007500,-0.007500,
-0.034000,-0.007500,
-0.034000,-0.030000,
-0.007500,-0.030000,
-0.007500,-0.007500,0.0*
4,1,4,-0.007500,0.030000,
-0.034000,0.030000,
-0.034000,0.007500,
-0.007500,0.007500,
-0.007500,0.030000,0.0*
4,1,4,0.034000,-0.007500,
0.007500,-0.007500,
0.007500,-0.030000,
0.034000,-0.030000,
0.034000,-0.007500,0.0*
4,1,4,0.034000,0.030000,
0.007500,0.030000,
0.007500,0.007500,
0.034000,0.007500,
0.034000,0.030000,0.0*
%
%AMRECTHERMD26~~~*
4,1,4,-0.007500,-0.007500,
-0.029700,-0.007500,
-0.029700,-0.054300,
-0.007500,-0.054300,
-0.007500,-0.007500,0.0*
4,1,4,-0.007500,0.054300,
-0.029700,0.054300,
-0.029700,0.007500,
-0.007500,0.007500,
-0.007500,0.054300,0.0*
4,1,4,0.029700,-0.007500,
0.007500,-0.007500,
0.007500,-0.054300,
0.029700,-0.054300,
0.029700,-0.007500,0.0*
4,1,4,0.029700,0.054300,
0.007500,0.054300,
0.007500,0.007500,
0.029700,0.007500,
0.029700,0.054300,0.0*
%
%AMRECTHERMD27~~~~*
4,1,4,-0.007500,-0.007500,
-0.047500,-0.007500,
-0.047500,-0.047500,
-0.007500,-0.047500,
-0.007500,-0.007500,0.0*
4,1,4,-0.007500,0.047500,
-0.047500,0.047500,
-0.047500,0.007500,
-0.007500,0.007500,
-0.007500,0.047500,0.0*
4,1,4,0.047500,-0.007500,
0.007500,-0.007500,
0.007500,-0.047500,
0.047500,-0.047500,
0.047500,-0.007500,0.0*
4,1,4,0.047500,0.047500,
0.007500,0.047500,
0.007500,0.007500,
0.047500,0.007500,
0.047500,0.047500,0.0*
%
%AMRECTHERMD29~~~*
4,1,4,-0.007500,-0.007500,
-0.030000,-0.007500,
-0.030000,-0.034000,
-0.007500,-0.034000,
-0.007500,-0.007500,0.0*
4,1,4,-0.007500,0.034000,
-0.030000,0.034000,
-0.030000,0.007500,
-0.007500,0.007500,
-0.007500,0.034000,0.0*
4,1,4,0.030000,-0.007500,
0.007500,-0.007500,
0.007500,-0.034000,
0.030000,-0.034000,
0.030000,-0.007500,0.0*
4,1,4,0.030000,0.034000,
0.007500,0.034000,
0.007500,0.007500,
0.030000,0.007500,
0.030000,0.034000,0.0*
%
%AMRECTHERMD31~~~*
4,1,4,-0.007500,-0.007400,
-0.033600,-0.007400,
-0.033600,-0.031600,
-0.007500,-0.031600,
-0.007500,-0.007400,0.0*
4,1,4,-0.007500,0.031600,
-0.033600,0.031600,
-0.033600,0.007400,
-0.007500,0.007400,
-0.007500,0.031600,0.0*
4,1,4,0.033600,-0.007400,
0.007500,-0.007400,
0.007500,-0.031600,
0.033600,-0.031600,
0.033600,-0.007400,0.0*
4,1,4,0.033600,0.031600,
0.007500,0.031600,
0.007500,0.007400,
0.033600,0.007400,
0.033600,0.031600,0.0*
%
%AMRECTHERMD34~~~*
4,1,4,-0.007500,-0.007500,
-0.065000,-0.007500,
-0.065000,-0.036900,
-0.007500,-0.036900,
-0.007500,-0.007500,0.0*
4,1,4,-0.007500,0.036900,
-0.065000,0.036900,
-0.065000,0.007500,
-0.007500,0.007500,
-0.007500,0.036900,0.0*
4,1,4,0.065000,-0.007500,
0.007500,-0.007500,
0.007500,-0.036900,
0.065000,-0.036900,
0.065000,-0.007500,0.0*
4,1,4,0.065000,0.036900,
0.007500,0.036900,
0.007500,0.007500,
0.065000,0.007500,
0.065000,0.036900,0.0*
%
%AMRECTHERMD37~~~*
4,1,4,-0.007500,-0.007500,
-0.036900,-0.007500,
-0.036900,-0.065000,
-0.007500,-0.065000,
-0.007500,-0.007500,0.0*
4,1,4,-0.007500,0.065000,
-0.036900,0.065000,
-0.036900,0.007500,
-0.007500,0.007500,
-0.007500,0.065000,0.0*
4,1,4,0.036900,-0.007500,
0.007500,-0.007500,
0.007500,-0.065000,
0.036900,-0.065000,
0.036900,-0.007500,0.0*
4,1,4,0.036900,0.065000,
0.007500,0.065000,
0.007500,0.007500,
0.036900,0.007500,
0.036900,0.065000,0.0*
%
%AMTHERM13~*
1,1,0.095000,0.000000,0.000000*
1,0,0.075000,0.000000,0.000000*
4,0,4,-0.031800,0.042400,
-0.042400,0.031800,
0.031800,-0.042400,
0.042400,-0.031800,
-0.031800,0.042400,0.0*
4,0,4,0.031800,0.042400,
-0.042400,-0.031800,
-0.031800,-0.042400,
0.042400,0.031800,
0.031800,0.042400,0.0*
%
%AMRECTHERMD16~~~~~*
4,1,4,-0.007500,-0.007500,
-0.023800,-0.007500,
-0.023800,-0.053300,
-0.007500,-0.053300,
-0.007500,-0.007500,0.0*
4,1,4,-0.007500,0.053300,
-0.023800,0.053300,
-0.023800,0.007500,
-0.007500,0.007500,
-0.007500,0.053300,0.0*
4,1,4,0.023800,-0.007500,
0.007500,-0.007500,
0.007500,-0.053300,
0.023800,-0.053300,
0.023800,-0.007500,0.0*
4,1,4,0.023800,0.053300,
0.007500,0.053300,
0.007500,0.007500,
0.023800,0.007500,
0.023800,0.053300,0.0*
%
%AMRECTHERMD19~*
4,1,4,-0.007500,-0.007500,
-0.047500,-0.007500,
-0.047500,-0.047500,
-0.007500,-0.047500,
-0.007500,-0.007500,0.0*
4,1,4,-0.007500,0.047500,
-0.047500,0.047500,
-0.047500,0.007500,
-0.007500,0.007500,
-0.007500,0.047500,0.0*
4,1,4,0.047500,-0.007500,
0.007500,-0.007500,
0.007500,-0.047500,
0.047500,-0.047500,
0.047500,-0.007500,0.0*
4,1,4,0.047500,0.047500,
0.007500,0.047500,
0.007500,0.007500,
0.047500,0.007500,
0.047500,0.047500,0.0*
%
%AMRECTHERMD21~~~~~~~*
4,1,4,-0.007500,-0.007500,
-0.030000,-0.007500,
-0.030000,-0.034000,
-0.007500,-0.034000,
-0.007500,-0.007500,0.0*
4,1,4,-0.007500,0.034000,
-0.030000,0.034000,
-0.030000,0.007500,
-0.007500,0.007500,
-0.007500,0.034000,0.0*
4,1,4,0.030000,-0.007500,
0.007500,-0.007500,
0.007500,-0.034000,
0.030000,-0.034000,
0.030000,-0.007500,0.0*
4,1,4,0.030000,0.034000,
0.007500,0.034000,
0.007500,0.007500,
0.030000,0.007500,
0.030000,0.034000,0.0*
%
%AMRECTHERMD22~*
4,1,4,-0.007500,-0.007400,
-0.033600,-0.007400,
-0.033600,-0.031600,
-0.007500,-0.031600,
-0.007500,-0.007400,0.0*
4,1,4,-0.007500,0.031600,
-0.033600,0.031600,
-0.033600,0.007400,
-0.007500,0.007400,
-0.007500,0.031600,0.0*
4,1,4,0.033600,-0.007400,
0.007500,-0.007400,
0.007500,-0.031600,
0.033600,-0.031600,
0.033600,-0.007400,0.0*
4,1,4,0.033600,0.031600,
0.007500,0.031600,
0.007500,0.007400,
0.033600,0.007400,
0.033600,0.031600,0.0*
%
%AMRECTHERMD25~~*
4,1,4,-0.007500,-0.007400,
-0.051300,-0.007400,
-0.051300,-0.098500,
-0.007500,-0.098500,
-0.007500,-0.007400,0.0*
4,1,4,-0.007500,0.098500,
-0.051300,0.098500,
-0.051300,0.007400,
-0.007500,0.007400,
-0.007500,0.098500,0.0*
4,1,4,0.051300,-0.007400,
0.007500,-0.007400,
0.007500,-0.098500,
0.051300,-0.098500,
0.051300,-0.007400,0.0*
4,1,4,0.051300,0.098500,
0.007500,0.098500,
0.007500,0.007400,
0.051300,0.007400,
0.051300,0.098500,0.0*
%
%ADD10R,0.079000X0.041600*%
%ADD11RECTHERMD11*%
%ADD12C,0.001000*%
%ADD13R,0.041600X0.079000*%
%ADD14RECTHERMD14*%
%ADD15RECTHERMD15*%
%ADD16R,0.063300X0.067200*%
%ADD17C,0.095000*%
%ADD18R,0.095000X0.095000*%
%ADD19THERM19*%
%ADD20RECTHERMD20*%
%ADD21R,0.083000X0.098700*%
%ADD22R,0.067200X0.063300*%
%ADD23RECTHERMD23*%
%ADD24R,0.068000X0.060000*%
%ADD25RECTHERMD25*%
%ADD26R,0.059300X0.108500*%
%ADD27RECTHERMD27*%
%ADD28RECTHERMD28*%
%ADD29R,0.060000X0.068000*%
%ADD30RECTHERMD30*%
%ADD31R,0.083000X0.083000*%
%ADD32R,0.098700X0.083000*%
%ADD33RECTHERMD33*%
%ADD34R,0.130000X0.074000*%
%ADD35C,0.048000*%
%ADD36RECTHERMD36*%
%ADD37R,0.074000X0.130000*%
%ADD38C,0.036000*%
%ADD39C,0.040000*%
%ADD40C,0.045000*%
%ADD41C,0.007000*%
%ADD42R,0.059000X0.021600*%
%ADD43R,0.021600X0.059000*%
%ADD44R,0.043300X0.047200*%
%ADD45C,0.075000*%
%ADD46R,0.075000X0.075000*%
%ADD47R,0.063000X0.078700*%
%ADD48R,0.047200X0.043300*%
%ADD49R,0.048000X0.040000*%
%ADD50R,0.039300X0.088500*%
%ADD51R,0.040000X0.048000*%
%ADD52R,0.063000X0.063000*%
%ADD53R,0.078700X0.063000*%
%ADD54R,0.110000X0.054000*%
%ADD55C,0.028000*%
%ADD56R,0.054000X0.110000*%
%ADD57C,0.016000*%
%ADD58C,0.020000*%
%ADD59C,0.025000*%
%ADD60THERM12*%
%ADD61R,0.108500X0.059300*%
%ADD62RECTHERMD15~*%
%ADD63R,0.047500X0.106600*%
%ADD64RECTHERMD18*%
%ADD65RECTHERMD20~*%
%ADD66RECTHERMD21*%
%ADD67R,0.102600X0.197100*%
%ADD68RECTHERMD24*%
%ADD69C,0.055000*%
%ADD70R,0.088500X0.039300*%
%ADD71R,0.027500X0.086600*%
%ADD72R,0.082600X0.177100*%
%ADD73C,0.035000*%
%ADD74C,0.005000*%
%ADD75R,0.075000X0.037600*%
%ADD76R,0.037600X0.075000*%
%ADD77R,0.059300X0.063200*%
%ADD78C,0.091000*%
%ADD79R,0.091000X0.091000*%
%ADD80R,0.079000X0.094700*%
%ADD81R,0.063200X0.059300*%
%ADD82R,0.064000X0.056000*%
%ADD83R,0.055300X0.104500*%
%ADD84R,0.056000X0.064000*%
%ADD85R,0.079000X0.079000*%
%ADD86R,0.094700X0.079000*%
%ADD87R,0.126000X0.070000*%
%ADD88R,0.070000X0.126000*%
%ADD89R,0.104500X0.055300*%
%ADD90R,0.043500X0.102600*%
%ADD91R,0.098600X0.193100*%
%ADD92THERM12~*%
%ADD93RECTHERMD15~~*%
%ADD94RECTHERMD18~*%
%ADD95RECTHERMD20~~*%
%ADD96RECTHERMD21~*%
%ADD97RECTHERMD24~*%
%ADD98C,0.006000*%
%ADD99C,0.010000*%
%ADD100RECTHERMD12*%
%ADD101RECTHERMD15~~~*%
%ADD102RECTHERMD16*%
%ADD103THERM20*%
%ADD104RECTHERMD21~~*%
%ADD105RECTHERMD24~~*%
%ADD106RECTHERMD26*%
%ADD107RECTHERMD27~*%
%ADD108RECTHERMD29*%
%ADD109RECTHERMD31*%
%ADD110RECTHERMD34*%
%ADD111RECTHERMD37*%
%ADD112THERM13*%
%ADD113RECTHERMD16~*%
%ADD114RECTHERMD19*%
%ADD115RECTHERMD21~~~*%
%ADD116RECTHERMD22*%
%ADD117RECTHERMD25~*%
%ADD118RECTHERMD12~*%
%ADD119RECTHERMD15~~~~*%
%ADD120RECTHERMD16~~*%
%ADD121THERM20~*%
%ADD122RECTHERMD21~~~~*%
%ADD123RECTHERMD24~~~*%
%ADD124RECTHERMD26~*%
%ADD125RECTHERMD27~~*%
%ADD126RECTHERMD29~*%
%ADD127RECTHERMD31~*%
%ADD128RECTHERMD34~*%
%ADD129RECTHERMD37~*%
%ADD130RECTHERMD12~~*%
%ADD131RECTHERMD15~~~~~*%
%ADD132RECTHERMD16~~~*%
%ADD133THERM20~~*%
%ADD134RECTHERMD21~~~~~*%
%ADD135RECTHERMD24~~~~*%
%ADD136RECTHERMD26~~*%
%ADD137RECTHERMD27~~~*%
%ADD138RECTHERMD29~~*%
%ADD139RECTHERMD31~~*%
%ADD140RECTHERMD34~~*%
%ADD141RECTHERMD37~~*%
%ADD142RECTHERMD12~~~*%
%ADD143RECTHERMD15~~~~~~*%
%ADD144RECTHERMD16~~~~*%
%ADD145THERM20~~~*%
%ADD146RECTHERMD21~~~~~~*%
%ADD147RECTHERMD24~~~~~*%
%ADD148RECTHERMD26~~~*%
%ADD149RECTHERMD27~~~~*%
%ADD150RECTHERMD29~~~*%
%ADD151RECTHERMD31~~~*%
%ADD152RECTHERMD34~~~*%
%ADD153RECTHERMD37~~~*%
%ADD154THERM13~*%
%ADD155RECTHERMD16~~~~~*%
%ADD156RECTHERMD19~*%
%ADD157RECTHERMD21~~~~~~~*%
%ADD158RECTHERMD22~*%
%ADD159RECTHERMD25~~*%
%ADD501C,0.030000*%
%ADD502C,0.040000*%
%ADD503C,0.011000*%
%LNtop_copper-1*%
%LPD*%
G54D99*
X-25481Y5754D02*
Y4800D01*
X-25800Y5754D02*
X-25163D01*
X-24572Y5436D02*
X-24663Y5390D01*
X-24754Y5300D01*
X-24800Y5163D01*
Y5072D01*
X-24754Y4936D01*
X-24663Y4845D01*
X-24572Y4800D01*
X-24436D01*
X-24345Y4845D01*
X-24254Y4936D01*
X-24209Y5072D01*
Y5163D01*
X-24254Y5300D01*
X-24345Y5390D01*
X-24436Y5436D01*
X-24572D01*
X-23845D02*
Y4481D01*
Y5300D02*
X-23754Y5390D01*
X-23663Y5436D01*
X-23527D01*
X-23436Y5390D01*
X-23345Y5300D01*
X-23300Y5163D01*
Y5072D01*
X-23345Y4936D01*
X-23436Y4845D01*
X-23527Y4800D01*
X-23663D01*
X-23754Y4845D01*
X-23845Y4936D01*
X-21527Y5527D02*
X-21572Y5618D01*
X-21663Y5709D01*
X-21754Y5754D01*
X-21936D01*
X-22027Y5709D01*
X-22118Y5618D01*
X-22163Y5527D01*
X-22209Y5390D01*
Y5163D01*
X-22163Y5027D01*
X-22118Y4936D01*
X-22027Y4845D01*
X-21936Y4800D01*
X-21754D01*
X-21663Y4845D01*
X-21572Y4936D01*
X-21527Y5027D01*
X-20936Y5436D02*
X-21027Y5390D01*
X-21118Y5300D01*
X-21163Y5163D01*
Y5072D01*
X-21118Y4936D01*
X-21027Y4845D01*
X-20936Y4800D01*
X-20800D01*
X-20709Y4845D01*
X-20618Y4936D01*
X-20572Y5072D01*
Y5163D01*
X-20618Y5300D01*
X-20709Y5390D01*
X-20800Y5436D01*
X-20936D01*
X-20209D02*
Y4481D01*
Y5300D02*
X-20118Y5390D01*
X-20027Y5436D01*
X-19890D01*
X-19800Y5390D01*
X-19709Y5300D01*
X-19663Y5163D01*
Y5072D01*
X-19709Y4936D01*
X-19800Y4845D01*
X-19890Y4800D01*
X-20027D01*
X-20118Y4845D01*
X-20209Y4936D01*
X-19300Y5436D02*
Y4481D01*
Y5300D02*
X-19209Y5390D01*
X-19118Y5436D01*
X-18981D01*
X-18890Y5390D01*
X-18800Y5300D01*
X-18754Y5163D01*
Y5072D01*
X-18800Y4936D01*
X-18890Y4845D01*
X-18981Y4800D01*
X-19118D01*
X-19209Y4845D01*
X-19300Y4936D01*
X-18390Y5163D02*
X-17845D01*
Y5254D01*
X-17890Y5345D01*
X-17936Y5390D01*
X-18027Y5436D01*
X-18163D01*
X-18254Y5390D01*
X-18345Y5300D01*
X-18390Y5163D01*
Y5072D01*
X-18345Y4936D01*
X-18254Y4845D01*
X-18163Y4800D01*
X-18027D01*
X-17936Y4845D01*
X-17845Y4936D01*
X-17481Y5436D02*
Y4800D01*
Y5163D02*
X-17436Y5300D01*
X-17345Y5390D01*
X-17254Y5436D01*
X-17118D01*
X-16027Y5754D02*
Y4800D01*
X-15481D01*
X-14572Y5436D02*
Y4800D01*
Y5300D02*
X-14663Y5390D01*
X-14754Y5436D01*
X-14890D01*
X-14981Y5390D01*
X-15072Y5300D01*
X-15118Y5163D01*
Y5072D01*
X-15072Y4936D01*
X-14981Y4845D01*
X-14890Y4800D01*
X-14754D01*
X-14663Y4845D01*
X-14572Y4936D01*
X-14163Y5436D02*
X-13890Y4800D01*
X-13618Y5436D02*
X-13890Y4800D01*
X-13981Y4618D01*
X-14072Y4527D01*
X-14163Y4481D01*
X-14209D01*
X-13254Y5163D02*
X-12709D01*
Y5254D01*
X-12754Y5345D01*
X-12800Y5390D01*
X-12890Y5436D01*
X-13027D01*
X-13118Y5390D01*
X-13209Y5300D01*
X-13254Y5163D01*
Y5072D01*
X-13209Y4936D01*
X-13118Y4845D01*
X-13027Y4800D01*
X-12890D01*
X-12800Y4845D01*
X-12709Y4936D01*
X-12345Y5436D02*
Y4800D01*
Y5163D02*
X-12300Y5300D01*
X-12209Y5390D01*
X-12118Y5436D01*
X-11981D01*
G36*
X-4600Y6950D02*
X-25675D01*
Y18150*
X-4600*
Y6950*
G37*
%LNtop_copper-2*%
%LPC*%
G54D10*
X-17744Y12674D03*
Y12359D03*
Y12044D03*
Y11729D03*
Y11414D03*
G54D142*
X-17744Y11100D03*
G54D10*
X-17744Y10785D03*
Y10470D03*
Y10155D03*
Y9840D03*
Y9525D03*
G54D13*
X-17074Y8855D03*
X-16759D03*
X-16444D03*
X-16129D03*
X-15814D03*
X-15500D03*
G54D143*
X-15185Y8855D03*
G54D13*
X-14870Y8855D03*
X-14555D03*
X-14240D03*
X-13925D03*
G54D10*
X-13255Y9525D03*
Y9840D03*
Y10155D03*
Y10470D03*
Y10785D03*
G54D142*
X-13255Y11100D03*
G54D10*
X-13255Y11414D03*
Y11729D03*
Y12044D03*
Y12359D03*
Y12674D03*
G54D13*
X-13925Y13344D03*
X-14240D03*
X-14555D03*
X-14870D03*
X-15185D03*
G54D143*
X-15500Y13344D03*
G54D13*
X-15814Y13344D03*
X-16129D03*
X-16444D03*
X-16759D03*
X-17074D03*
G54D144*
X-20700Y10500D03*
G54D16*
X-20030Y10500D03*
G54D144*
X-22800Y10600D03*
G54D16*
X-22130Y10600D03*
G54D17*
X-19400Y10500D03*
X-21400D03*
G54D18*
X-18800Y13000D03*
G54D17*
X-19800Y13000D03*
X-20800D03*
X-21800D03*
X-22800D03*
G54D145*
X-23800Y13000D03*
G54D16*
X-20900Y11900D03*
X-21569D03*
G54D146*
X-23400Y12000D03*
G54D21*
X-22297Y12000D03*
G54D18*
X-5900Y9700D03*
G54D17*
X-5900Y10700D03*
Y11700D03*
Y12700D03*
G54D145*
X-5900Y13700D03*
G54D18*
X-21100Y8400D03*
G54D145*
X-22100Y8400D03*
G54D17*
X-23100Y8400D03*
X-24100D03*
G54D16*
X-21100Y7600D03*
G54D144*
X-21769Y7600D03*
G54D24*
X-24600Y9500D03*
X-23700Y9100D03*
G54D147*
X-23700Y9900D03*
G54D16*
X-22200Y9800D03*
G54D144*
X-22869Y9800D03*
G54D16*
X-22900Y9100D03*
X-22230D03*
G54D26*
X-24288Y7700D03*
X-22911D03*
G54D16*
X-15500Y7700D03*
X-16169D03*
X-17100Y7900D03*
X-17769D03*
G54D148*
X-19988Y7700D03*
G54D26*
X-18611Y7700D03*
G54D18*
X-18700Y8400D03*
G54D145*
X-19700Y8400D03*
G54D16*
X-12300Y9200D03*
X-11630D03*
X-13800Y7900D03*
X-13130D03*
X-11300Y7600D03*
X-10630D03*
X-9200D03*
X-9869D03*
G54D149*
X-8700Y8500D03*
G54D17*
X-9700Y8500D03*
X-10700D03*
X-11700D03*
X-12700D03*
G54D29*
X-9100Y13000D03*
X-9500Y12100D03*
G54D150*
X-8700Y12100D03*
G54D16*
X-10500Y10500D03*
X-11169D03*
G54D22*
X-11900Y10500D03*
G54D151*
X-11900Y11169D03*
G54D31*
X-8200Y13800D03*
X-7097D03*
G54D18*
X-5900Y15200D03*
G54D17*
X-5900Y16200D03*
Y17200D03*
G54D31*
X-8800Y14800D03*
X-7697D03*
G54D16*
X-9700Y13900D03*
G54D144*
X-9030Y13900D03*
G54D22*
X-17900Y15100D03*
Y14430D03*
G54D146*
X-19800Y14700D03*
G54D21*
X-18697Y14700D03*
G54D32*
X-19300Y17100D03*
Y15997D03*
G54D152*
X-24800Y15500D03*
G54D34*
X-24800Y17070D03*
G54D18*
X-24300Y10700D03*
G54D17*
X-24300Y11700D03*
G54D22*
X-17000Y14400D03*
Y15069D03*
X-16200Y14600D03*
Y15269D03*
X-15500Y14600D03*
Y15269D03*
X-14800Y14600D03*
Y15269D03*
X-14100Y14600D03*
Y15269D03*
X-13400Y14600D03*
Y15269D03*
X-12600Y14600D03*
Y15269D03*
X-11800Y14300D03*
Y14969D03*
X-11000Y13900D03*
Y14569D03*
G54D16*
X-12200Y13200D03*
X-11530D03*
G54D149*
X-18100Y17100D03*
G54D17*
X-18100Y16100D03*
G54D145*
X-17100Y17100D03*
G54D17*
X-17100Y16100D03*
G54D145*
X-16100Y17100D03*
G54D17*
X-16100Y16100D03*
G54D145*
X-15100Y17100D03*
G54D17*
X-15100Y16100D03*
G54D145*
X-14100Y17100D03*
G54D17*
X-14100Y16100D03*
G54D149*
X-12100Y17100D03*
G54D17*
X-12100Y16100D03*
G54D145*
X-11100Y17100D03*
G54D17*
X-11100Y16100D03*
G54D145*
X-10100Y17100D03*
G54D17*
X-10100Y16100D03*
G54D145*
X-9100Y17100D03*
G54D17*
X-9100Y16100D03*
G54D145*
X-8100Y17100D03*
G54D17*
X-8100Y16100D03*
G54D146*
X-10500Y12100D03*
G54D21*
X-11602Y12100D03*
G54D29*
X-7600Y12900D03*
X-8000Y12000D03*
G54D150*
X-7200Y12000D03*
G54D22*
X-8200Y11200D03*
Y10530D03*
X-9000Y10500D03*
G54D151*
X-9000Y11169D03*
G54D22*
X-20200Y16300D03*
Y15630D03*
G54D18*
X-23800Y17000D03*
G54D17*
X-22800Y17000D03*
G54D145*
X-21800Y17000D03*
G54D17*
X-20800Y17000D03*
Y14000D03*
G54D145*
X-21800Y14000D03*
G54D17*
X-22800Y14000D03*
X-23800D03*
G54D35*
X-7100Y14400D03*
X-16400Y9400D03*
G54D146*
X-8100Y9400D03*
G54D21*
X-6997Y9400D03*
G54D35*
X-16900Y10200D03*
X-17100Y9800D03*
X-16500Y8300D03*
X-15800D03*
X-8700Y7600D03*
X-14900Y7700D03*
X-21700Y9300D03*
X-14300Y10000D03*
X-14900D03*
X-15200Y13900D03*
X-7200Y12900D03*
G54D153*
X-22600Y15800D03*
G54D37*
X-21030Y15800D03*
G54D149*
X-5400Y8400D03*
G54D17*
X-6400Y8400D03*
X-7400D03*
G54D35*
X-10000Y10500D03*
G54D38*
X-17100Y16100D02*
X-16269Y15269D01*
G54D39*
X-16269Y15269D02*
X-16200D01*
G54D38*
X-17074Y13344D02*
X-17244D01*
X-17550Y13650D01*
X-17950D01*
X-18375Y14075D01*
X-19150D01*
X-19250Y14175D01*
Y15200D01*
X-19400Y15350D01*
X-19925D01*
X-20200Y15625D01*
Y15630D01*
X-24100Y8400D02*
X-24075Y8375D01*
X-24600Y8900D01*
Y9500D01*
X-24100Y8400D02*
X-24288Y7700D01*
G54D39*
X-7100Y14400D02*
X-7097Y13800D01*
G54D38*
X-16100Y16100D02*
X-15500Y15269D01*
X-21800Y13000D02*
X-21750Y12975D01*
X-21150Y12375D01*
X-20625D01*
X-19979Y11729D01*
X-17744D01*
X-21800Y13000D02*
X-22297Y12502D01*
Y12000D01*
X-22275Y12050D01*
X-22125Y11900D01*
X-21569D01*
X-17074Y8855D02*
Y7925D01*
X-17150Y7850D01*
X-17100Y7900D01*
X-16169Y7700D02*
X-16925D01*
X-17125Y7900D01*
X-17100D01*
X-8200Y13800D02*
Y13476D01*
X-8676Y13000D01*
X-9100D01*
X-15100Y16100D02*
X-14800Y15269D01*
G54D39*
X-20200Y16300D02*
Y16825D01*
X-20375Y17000D01*
X-20800D01*
X-20200Y16300D02*
X-20475D01*
X-20975Y15800D01*
X-21030D01*
G54D38*
X-7400Y8400D02*
X-7550Y8550D01*
Y9900D01*
X-7425Y10025D01*
X-6875D01*
X-6525Y10375D01*
Y14450D01*
X-6875Y14800D01*
X-7725D01*
X-7697D01*
X-18800Y13000D02*
Y12975D01*
X-18499Y12674D01*
X-17744D01*
X-11602Y12100D02*
X-11825D01*
X-12510Y11414D01*
X-13255D01*
X-18700Y8400D02*
Y8375D01*
X-18611Y8286D01*
Y7700D01*
X-17769Y7900D02*
X-18700Y8400D01*
X-9500Y12100D02*
Y11675D01*
X-10500Y10675D01*
Y10500D01*
X-14100Y16100D02*
Y15269D01*
X-17744Y10470D02*
X-18254D01*
X-18850Y9875D01*
X-21175D01*
X-21400Y10100D01*
Y10600D01*
Y10500D01*
X-22130Y10600D02*
X-21400Y10500D01*
X-12600Y14600D02*
X-12525Y14625D01*
X-13805Y13344D01*
X-13925D01*
X-8800Y14800D02*
X-8900Y14650D01*
X-9850D01*
X-10100Y14400D01*
Y13075D01*
X-10150Y13025D01*
X-10875D01*
X-11175Y12725D01*
X-12125D01*
Y12250D01*
X-12645Y11729D01*
X-13255D01*
X-8800Y14800D02*
X-8875Y14650D01*
X-9850D01*
X-10100Y14400D01*
Y13900D01*
X-9700D01*
X-11700Y8500D02*
Y9200D01*
X-11630D01*
X-16759Y13344D02*
Y13684D01*
X-17050Y13975D01*
X-17800D01*
X-17900Y14075D01*
Y14430D01*
X-12100Y16100D02*
X-12850D01*
X-13400Y15550D01*
Y15269D01*
X-17744Y10785D02*
X-19064D01*
X-19400Y10450D01*
Y10500D01*
X-20030D02*
X-19400D01*
X-13400Y14600D02*
X-13425Y14475D01*
X-14240Y13659D01*
Y13344D01*
X-12200Y13200D02*
X-12225Y13150D01*
X-12425Y12950D01*
Y12375D01*
X-12755Y12044D01*
X-13255D01*
X-12700Y8500D02*
X-13130Y7900D01*
X-18697Y14700D02*
Y15397D01*
X-19300Y16000D01*
Y15997D01*
X-17900Y15100D02*
X-18300D01*
X-18725Y14675D01*
X-18697Y14700D01*
X-11100Y16100D02*
X-11075Y16000D01*
X-11625Y15450D01*
X-12400D01*
X-12580Y15269D01*
X-12600D01*
X-14100Y14600D02*
Y14625D01*
Y14250D01*
X-14555Y13794D01*
Y13344D01*
X-11000Y13900D02*
X-11050Y13800D01*
X-12425D01*
X-12750Y13475D01*
Y12476D01*
X-12865Y12359D01*
X-13255D01*
X-17744D02*
X-19684D01*
X-19800Y12475D01*
Y13000D01*
X-10700Y8500D02*
Y7550D01*
X-10630Y7600D01*
X-22800Y17000D02*
X-22075Y17725D01*
X-19925D01*
X-19150Y16950D01*
X-19300Y17100D01*
X-10100Y16100D02*
X-10125D01*
X-10825Y15400D01*
X-11075D01*
X-11505Y14969D01*
X-11800D01*
Y14300D02*
X-12025Y14125D01*
X-12600D01*
X-13255Y13469D01*
Y12674D01*
X-14800Y14600D02*
Y14300D01*
X-14870Y14229D01*
Y13344D01*
X-17744Y12044D02*
X-19844D01*
X-20800Y13000D01*
X-9700Y8500D02*
X-9650Y8550D01*
X-9869Y8330D01*
Y7600D01*
X-20800Y14000D02*
X-21575Y14775D01*
X-23925D01*
X-24525Y14175D01*
Y13875D01*
X-24925Y13475D01*
Y11325D01*
X-24300Y10700D01*
X-9100Y16100D02*
X-9050Y16150D01*
X-9800Y15400D01*
X-10250D01*
X-11000Y14650D01*
Y14569D01*
X-12300Y9200D02*
X-12525D01*
X-12850Y9525D01*
X-13255D01*
X-15500Y14600D02*
Y14300D01*
X-15814Y13985D01*
Y13344D01*
X-17100Y9800D02*
X-17140Y9840D01*
X-17744D01*
X-14900Y10000D02*
Y10025D01*
X-14870Y9995D01*
Y8855D01*
X-23800Y14000D02*
X-24450Y13350D01*
Y11975D01*
X-24300Y11700D01*
X-8100Y16100D02*
X-8075Y16125D01*
X-8800Y15400D01*
X-9275D01*
X-9650Y15025D01*
X-10100D01*
X-10450Y14675D01*
Y13400D01*
X-11125D01*
Y13275D01*
X-11200Y13200D01*
X-11530D01*
X-13800Y7900D02*
X-13925Y8025D01*
Y8855D01*
X-13255Y10785D02*
X-13735D01*
X-13775Y10825D01*
Y12625D01*
X-14000Y12850D01*
X-15100D01*
X-15175Y12925D01*
Y13300D01*
X-15185Y13344D01*
G54D40*
X-20900Y11900D02*
Y11650D01*
G54D39*
X-20900Y11650D02*
X-20664Y11414D01*
X-17744D01*
X-20900Y11900D02*
Y11651D01*
X-21176Y11375D01*
X-22796D01*
X-22850Y11440D01*
Y12950D01*
X-22800Y13000D01*
G54D38*
X-15500Y7700D02*
X-15400Y7675D01*
Y8375D01*
X-15500Y8475D01*
Y8855D01*
G54D40*
X-23800Y17000D02*
X-23775D01*
X-23845Y17070D01*
X-24800D01*
X-23100Y8400D02*
X-22911Y7700D01*
X-15200Y13900D02*
X-15185Y13885D01*
G54D39*
X-15185Y13885D02*
Y13344D01*
X-14900Y7700D02*
X-15500D01*
G54D40*
X-6997Y9400D02*
X-6300D01*
X-5900Y9700D01*
G54D38*
X-16200Y14600D02*
Y14400D01*
X-16129Y14329D01*
Y13344D01*
X-16900Y10200D02*
X-17250D01*
X-17294Y10155D01*
X-17744D01*
X-14300Y10000D02*
Y9900D01*
X-14555Y9644D01*
Y8855D01*
X-22200Y9800D02*
Y9100D01*
X-22230D01*
X-21700Y9300D02*
X-22025D01*
X-22230Y9100D01*
X-16500Y8300D02*
X-16625D01*
X-16759Y8434D01*
Y8855D01*
X-11300Y7600D02*
X-11425Y7450D01*
X-14200D01*
X-14240Y7490D01*
Y8855D01*
X-17000Y14400D02*
X-16444Y13844D01*
Y13344D01*
X-21100Y8400D02*
Y7600D01*
X-17744Y9525D02*
X-19974D01*
X-21100Y8400D01*
X-15800Y8300D02*
Y8325D01*
X-15814Y8339D01*
Y8855D01*
X-8700Y7600D02*
X-9200D01*
X-11900Y10500D02*
X-11875Y10475D01*
X-11879Y10470D01*
X-13255D01*
X-11900Y10500D02*
X-11169D01*
X-23700Y9100D02*
X-22900D01*
X-16400Y9400D02*
Y9425D01*
X-16444Y9380D01*
Y8855D01*
X-10000Y10500D02*
Y10475D01*
Y10175D01*
X-10150Y10025D01*
X-12250D01*
X-12380Y10155D01*
X-13255D01*
X-9000Y10500D02*
Y10025D01*
X-9325Y9700D01*
X-12425D01*
X-12565Y9840D01*
X-13255D01*
X-9000Y10500D02*
X-8675D01*
X-8650Y10525D01*
X-8175D01*
X-8200Y10530D01*
G54D40*
X-7200Y12900D02*
X-7600D01*
G54D38*
X-18100Y16100D02*
X-17000Y15069D01*
G54D39*
X-8000Y12000D02*
Y12050D01*
Y11400D01*
X-8200Y11200D01*
G54D41*
X-15265Y17953D02*
X-15400Y17600D01*
X-15265Y17953D02*
X-15130Y17600D01*
X-15349Y17717D02*
X-15181D01*
X-14811Y17785D02*
X-14828Y17818D01*
X-14878Y17835D01*
X-14929D01*
X-14979Y17818D01*
X-14996Y17785D01*
X-14979Y17751D01*
X-14945Y17734D01*
X-14861Y17717D01*
X-14828Y17700D01*
X-14811Y17667D01*
Y17650D01*
X-14828Y17616D01*
X-14878Y17600D01*
X-14929D01*
X-14979Y17616D01*
X-14996Y17650D01*
X-14475Y17785D02*
X-14508Y17818D01*
X-14542Y17835D01*
X-14592D01*
X-14626Y17818D01*
X-14660Y17785D01*
X-14676Y17734D01*
Y17700D01*
X-14660Y17650D01*
X-14626Y17616D01*
X-14592Y17600D01*
X-14542D01*
X-14508Y17616D01*
X-14475Y17650D01*
X-14340Y17734D02*
X-14138D01*
Y17768D01*
X-14155Y17801D01*
X-14172Y17818D01*
X-14205Y17835D01*
X-14256D01*
X-14290Y17818D01*
X-14323Y17785D01*
X-14340Y17734D01*
Y17700D01*
X-14323Y17650D01*
X-14290Y17616D01*
X-14256Y17600D01*
X-14205D01*
X-14172Y17616D01*
X-14138Y17650D01*
X-13953Y17953D02*
Y17667D01*
X-13936Y17616D01*
X-13903Y17600D01*
X-13869D01*
X-14004Y17835D02*
X-13886D01*
X-13701Y17953D02*
X-13516D01*
X-13617Y17818D01*
X-13566D01*
X-13533Y17801D01*
X-13516Y17785D01*
X-13499Y17734D01*
Y17700D01*
X-13516Y17650D01*
X-13550Y17616D01*
X-13600Y17600D01*
X-13650D01*
X-13701Y17616D01*
X-13718Y17633D01*
X-13735Y17667D01*
X-13348Y17633D02*
X-13365Y17616D01*
X-13348Y17600D01*
X-13331Y17616D01*
X-13348Y17633D01*
X-13196Y17885D02*
X-13163Y17902D01*
X-13112Y17953D01*
Y17600D01*
X-8100Y7634D02*
X-7972Y7300D01*
X-7845Y7634D02*
X-7972Y7300D01*
X-7718Y7634D02*
Y7300D01*
Y7475D02*
X-7686Y7506D01*
X-7654Y7522D01*
X-7606D01*
X-7575Y7506D01*
X-7543Y7475D01*
X-7527Y7427D01*
Y7395D01*
X-7543Y7347D01*
X-7575Y7315D01*
X-7606Y7300D01*
X-7654D01*
X-7686Y7315D01*
X-7718Y7347D01*
X-7352Y7634D02*
Y7363D01*
X-7336Y7315D01*
X-7304Y7300D01*
X-7272D01*
X-7400Y7522D02*
X-7288D01*
X-6756Y7586D02*
Y7300D01*
X-6900Y7443D02*
X-6613D01*
X-6295Y7634D02*
X-6454D01*
X-6470Y7490D01*
X-6454Y7506D01*
X-6406Y7522D01*
X-6359D01*
X-6311Y7506D01*
X-6279Y7475D01*
X-6263Y7427D01*
Y7395D01*
X-6279Y7347D01*
X-6311Y7315D01*
X-6359Y7300D01*
X-6406D01*
X-6454Y7315D01*
X-6470Y7331D01*
X-6486Y7363D01*
X-5661Y7554D02*
X-5677Y7586D01*
X-5709Y7618D01*
X-5740Y7634D01*
X-5804D01*
X-5836Y7618D01*
X-5868Y7586D01*
X-5884Y7554D01*
X-5900Y7506D01*
Y7427D01*
X-5884Y7379D01*
X-5868Y7347D01*
X-5836Y7315D01*
X-5804Y7300D01*
X-5740D01*
X-5709Y7315D01*
X-5677Y7347D01*
X-5661Y7379D01*
Y7427D01*
X-5740D02*
X-5661D01*
X-5534Y7634D02*
Y7300D01*
Y7634D02*
X-5311Y7300D01*
Y7634D02*
Y7300D01*
X-5184Y7634D02*
Y7300D01*
Y7634D02*
X-5072D01*
X-5025Y7618D01*
X-4993Y7586D01*
X-4977Y7554D01*
X-4961Y7506D01*
Y7427D01*
X-4977Y7379D01*
X-4993Y7347D01*
X-5025Y7315D01*
X-5072Y7300D01*
X-5184D01*
X-5256Y17286D02*
Y17000D01*
X-5400Y17143D02*
X-5113D01*
X-4795Y17334D02*
X-4954D01*
X-4970Y17190D01*
X-4954Y17206D01*
X-4906Y17222D01*
X-4859D01*
X-4811Y17206D01*
X-4779Y17175D01*
X-4763Y17127D01*
Y17095D01*
X-4779Y17047D01*
X-4811Y17015D01*
X-4859Y17000D01*
X-4906D01*
X-4954Y17015D01*
X-4970Y17031D01*
X-4986Y17063D01*
X-5300Y16334D02*
Y16000D01*
X-5172Y16334D02*
Y16000D01*
Y16334D02*
X-5029D01*
X-4981Y16318D01*
X-4965Y16302D01*
X-4950Y16270D01*
Y16238D01*
X-4965Y16206D01*
X-4981Y16190D01*
X-5029Y16175D01*
X-5172D01*
X-5061D02*
X-4950Y16000D01*
X-5300Y15334D02*
Y15000D01*
Y15334D02*
X-5093D01*
X-5300Y15175D02*
X-5172D01*
X-4965Y15334D02*
Y15000D01*
X-4775D01*
X-5256Y9986D02*
Y9700D01*
X-5400Y9843D02*
X-5113D01*
X-4795Y10034D02*
X-4954D01*
X-4970Y9890D01*
X-4954Y9906D01*
X-4906Y9922D01*
X-4859D01*
X-4811Y9906D01*
X-4779Y9875D01*
X-4763Y9827D01*
Y9795D01*
X-4779Y9747D01*
X-4811Y9715D01*
X-4859Y9700D01*
X-4906D01*
X-4954Y9715D01*
X-4970Y9731D01*
X-4986Y9763D01*
X-5077Y10786D02*
X-5109Y10818D01*
X-5156Y10834D01*
X-5220D01*
X-5268Y10818D01*
X-5300Y10786D01*
Y10754D01*
X-5284Y10722D01*
X-5268Y10706D01*
X-5236Y10690D01*
X-5140Y10659D01*
X-5109Y10643D01*
X-5093Y10627D01*
X-5077Y10595D01*
Y10547D01*
X-5109Y10515D01*
X-5156Y10500D01*
X-5220D01*
X-5268Y10515D01*
X-5300Y10547D01*
X-4902Y10834D02*
Y10563D01*
X-4886Y10515D01*
X-4854Y10500D01*
X-4822D01*
X-4950Y10722D02*
X-4838D01*
X-5188Y11834D02*
Y11500D01*
X-5300Y11834D02*
X-5077D01*
X-4950Y11722D02*
X-4775Y11500D01*
Y11722D02*
X-4950Y11500D01*
X-5300Y12834D02*
Y12500D01*
Y12834D02*
X-5156D01*
X-5109Y12818D01*
X-5093Y12802D01*
X-5077Y12770D01*
Y12738D01*
X-5093Y12706D01*
X-5109Y12690D01*
X-5156Y12675D01*
X-5300D01*
X-5188D02*
X-5077Y12500D01*
X-4950Y12722D02*
X-4775Y12500D01*
Y12722D02*
X-4950Y12500D01*
%LNtop_copper-3*%
%LPD*%
G54D42*
X-17744Y12674D03*
Y12359D03*
Y12044D03*
Y11729D03*
Y11414D03*
Y11100D03*
Y10785D03*
Y10470D03*
Y10155D03*
Y9840D03*
Y9525D03*
G54D43*
X-17074Y8855D03*
X-16759D03*
X-16444D03*
X-16129D03*
X-15814D03*
X-15500D03*
X-15185D03*
X-14870D03*
X-14555D03*
X-14240D03*
X-13925D03*
G54D42*
X-13255Y9525D03*
Y9840D03*
Y10155D03*
Y10470D03*
Y10785D03*
Y11100D03*
Y11414D03*
Y11729D03*
Y12044D03*
Y12359D03*
Y12674D03*
G54D43*
X-13925Y13344D03*
X-14240D03*
X-14555D03*
X-14870D03*
X-15185D03*
X-15500D03*
X-15814D03*
X-16129D03*
X-16444D03*
X-16759D03*
X-17074D03*
G54D44*
X-20700Y10500D03*
X-20030D03*
X-22800Y10600D03*
X-22130D03*
G54D45*
X-19400Y10500D03*
X-21400D03*
G54D46*
X-18800Y13000D03*
G54D45*
X-19800Y13000D03*
X-20800D03*
X-21800D03*
X-22800D03*
X-23800D03*
G54D44*
X-20900Y11900D03*
X-21569D03*
G54D47*
X-23400Y12000D03*
X-22297D03*
G54D46*
X-5900Y9700D03*
G54D45*
X-5900Y10700D03*
Y11700D03*
Y12700D03*
Y13700D03*
G54D46*
X-21100Y8400D03*
G54D45*
X-22100Y8400D03*
X-23100D03*
X-24100D03*
G54D44*
X-21100Y7600D03*
X-21769D03*
G54D49*
X-24600Y9500D03*
X-23700Y9100D03*
Y9900D03*
G54D44*
X-22200Y9800D03*
X-22869D03*
X-22900Y9100D03*
X-22230D03*
G54D50*
X-24288Y7700D03*
X-22911D03*
G54D44*
X-15500Y7700D03*
X-16169D03*
X-17100Y7900D03*
X-17769D03*
G54D50*
X-19988Y7700D03*
X-18611D03*
G54D46*
X-18700Y8400D03*
G54D45*
X-19700Y8400D03*
G54D44*
X-12300Y9200D03*
X-11630D03*
X-13800Y7900D03*
X-13130D03*
X-11300Y7600D03*
X-10630D03*
X-9200D03*
X-9869D03*
G54D46*
X-8700Y8500D03*
G54D45*
X-9700Y8500D03*
X-10700D03*
X-11700D03*
X-12700D03*
G54D51*
X-9100Y13000D03*
X-9500Y12100D03*
X-8700D03*
G54D44*
X-10500Y10500D03*
X-11169D03*
G54D48*
X-11900Y10500D03*
Y11169D03*
G54D52*
X-8200Y13800D03*
X-7097D03*
G54D46*
X-5900Y15200D03*
G54D45*
X-5900Y16200D03*
Y17200D03*
G54D52*
X-8800Y14800D03*
X-7697D03*
G54D44*
X-9700Y13900D03*
X-9030D03*
G54D48*
X-17900Y15100D03*
Y14430D03*
G54D47*
X-19800Y14700D03*
X-18697D03*
G54D53*
X-19300Y17100D03*
Y15997D03*
G54D54*
X-24800Y15500D03*
Y17070D03*
G54D46*
X-24300Y10700D03*
G54D45*
X-24300Y11700D03*
G54D48*
X-17000Y14400D03*
Y15069D03*
X-16200Y14600D03*
Y15269D03*
X-15500Y14600D03*
Y15269D03*
X-14800Y14600D03*
Y15269D03*
X-14100Y14600D03*
Y15269D03*
X-13400Y14600D03*
Y15269D03*
X-12600Y14600D03*
Y15269D03*
X-11800Y14300D03*
Y14969D03*
X-11000Y13900D03*
Y14569D03*
G54D44*
X-12200Y13200D03*
X-11530D03*
G54D46*
X-18100Y17100D03*
G54D45*
X-18100Y16100D03*
X-17100Y17100D03*
Y16100D03*
X-16100Y17100D03*
Y16100D03*
X-15100Y17100D03*
Y16100D03*
X-14100Y17100D03*
Y16100D03*
G54D46*
X-12100Y17100D03*
G54D45*
X-12100Y16100D03*
X-11100Y17100D03*
Y16100D03*
X-10100Y17100D03*
Y16100D03*
X-9100Y17100D03*
Y16100D03*
X-8100Y17100D03*
Y16100D03*
G54D47*
X-10500Y12100D03*
X-11602D03*
G54D51*
X-7600Y12900D03*
X-8000Y12000D03*
X-7200D03*
G54D48*
X-8200Y11200D03*
Y10530D03*
X-9000Y10500D03*
Y11169D03*
X-20200Y16300D03*
Y15630D03*
G54D46*
X-23800Y17000D03*
G54D45*
X-22800Y17000D03*
X-21800D03*
X-20800D03*
Y14000D03*
X-21800D03*
X-22800D03*
X-23800D03*
G54D55*
X-7100Y14400D03*
X-16400Y9400D03*
X-15400Y9900D03*
X-25100Y14400D03*
X-14600Y12100D03*
X-20800Y14800D03*
X-11000Y11300D03*
G54D47*
X-8100Y9400D03*
X-6997D03*
G54D55*
X-20900Y11100D03*
X-16900Y10200D03*
X-17100Y9800D03*
X-16500Y8300D03*
X-15800D03*
X-8700Y7600D03*
X-14900Y7700D03*
X-21700Y9300D03*
X-14300Y10000D03*
X-14900D03*
X-15200Y13900D03*
X-7200Y12900D03*
G54D56*
X-22600Y15800D03*
X-21030D03*
G54D46*
X-5400Y8400D03*
G54D45*
X-6400Y8400D03*
X-7400D03*
G54D55*
X-19300Y7300D03*
X-25200Y8600D03*
X-10000Y10500D03*
X-7100Y15300D03*
X-13400Y8400D03*
G54D57*
X-17100Y16100D02*
X-16269Y15269D01*
G54D58*
X-16269Y15269D02*
X-16200D01*
G54D57*
X-17074Y13344D02*
X-17244D01*
X-17550Y13650D01*
X-17950D01*
X-18375Y14075D01*
X-19150D01*
X-19250Y14175D01*
Y15200D01*
X-19400Y15350D01*
X-19925D01*
X-20200Y15625D01*
Y15630D01*
X-24100Y8400D02*
X-24075Y8375D01*
X-24600Y8900D01*
Y9500D01*
X-24100Y8400D02*
X-24288Y7700D01*
G54D58*
X-7100Y14400D02*
X-7097Y13800D01*
G54D57*
X-16100Y16100D02*
X-15500Y15269D01*
X-21800Y13000D02*
X-21750Y12975D01*
X-21150Y12375D01*
X-20625D01*
X-19979Y11729D01*
X-17744D01*
X-21800Y13000D02*
X-22297Y12502D01*
Y12000D01*
X-22275Y12050D01*
X-22125Y11900D01*
X-21569D01*
X-17074Y8855D02*
Y7925D01*
X-17150Y7850D01*
X-17100Y7900D01*
X-16169Y7700D02*
X-16925D01*
X-17125Y7900D01*
X-17100D01*
X-8200Y13800D02*
Y13476D01*
X-8676Y13000D01*
X-9100D01*
X-15100Y16100D02*
X-14800Y15269D01*
G54D58*
X-20200Y16300D02*
Y16825D01*
X-20375Y17000D01*
X-20800D01*
X-20200Y16300D02*
X-20475D01*
X-20975Y15800D01*
X-21030D01*
G54D57*
X-7400Y8400D02*
X-7550Y8550D01*
Y9900D01*
X-7425Y10025D01*
X-6875D01*
X-6525Y10375D01*
Y14450D01*
X-6875Y14800D01*
X-7725D01*
X-7697D01*
X-18800Y13000D02*
Y12975D01*
X-18499Y12674D01*
X-17744D01*
X-11602Y12100D02*
X-11825D01*
X-12510Y11414D01*
X-13255D01*
X-18700Y8400D02*
Y8375D01*
X-18611Y8286D01*
Y7700D01*
X-17769Y7900D02*
X-18700Y8400D01*
X-9500Y12100D02*
Y11675D01*
X-10500Y10675D01*
Y10500D01*
X-14100Y16100D02*
Y15269D01*
X-17744Y10470D02*
X-18254D01*
X-18850Y9875D01*
X-21175D01*
X-21400Y10100D01*
Y10600D01*
Y10500D01*
X-22130Y10600D02*
X-21400Y10500D01*
X-12600Y14600D02*
X-12525Y14625D01*
X-13805Y13344D01*
X-13925D01*
X-8800Y14800D02*
X-8900Y14650D01*
X-9850D01*
X-10100Y14400D01*
Y13075D01*
X-10150Y13025D01*
X-10875D01*
X-11175Y12725D01*
X-12125D01*
Y12250D01*
X-12645Y11729D01*
X-13255D01*
X-8800Y14800D02*
X-8875Y14650D01*
X-9850D01*
X-10100Y14400D01*
Y13900D01*
X-9700D01*
X-11700Y8500D02*
Y9200D01*
X-11630D01*
X-16759Y13344D02*
Y13684D01*
X-17050Y13975D01*
X-17800D01*
X-17900Y14075D01*
Y14430D01*
X-12100Y16100D02*
X-12850D01*
X-13400Y15550D01*
Y15269D01*
X-17744Y10785D02*
X-19064D01*
X-19400Y10450D01*
Y10500D01*
X-20030D02*
X-19400D01*
X-13400Y14600D02*
X-13425Y14475D01*
X-14240Y13659D01*
Y13344D01*
X-12200Y13200D02*
X-12225Y13150D01*
X-12425Y12950D01*
Y12375D01*
X-12755Y12044D01*
X-13255D01*
X-12700Y8500D02*
X-13130Y7900D01*
X-18697Y14700D02*
Y15397D01*
X-19300Y16000D01*
Y15997D01*
X-17900Y15100D02*
X-18300D01*
X-18725Y14675D01*
X-18697Y14700D01*
X-11100Y16100D02*
X-11075Y16000D01*
X-11625Y15450D01*
X-12400D01*
X-12580Y15269D01*
X-12600D01*
X-14100Y14600D02*
Y14625D01*
Y14250D01*
X-14555Y13794D01*
Y13344D01*
X-11000Y13900D02*
X-11050Y13800D01*
X-12425D01*
X-12750Y13475D01*
Y12476D01*
X-12865Y12359D01*
X-13255D01*
X-17744D02*
X-19684D01*
X-19800Y12475D01*
Y13000D01*
X-10700Y8500D02*
Y7550D01*
X-10630Y7600D01*
X-22800Y17000D02*
X-22075Y17725D01*
X-19925D01*
X-19150Y16950D01*
X-19300Y17100D01*
X-10100Y16100D02*
X-10125D01*
X-10825Y15400D01*
X-11075D01*
X-11505Y14969D01*
X-11800D01*
Y14300D02*
X-12025Y14125D01*
X-12600D01*
X-13255Y13469D01*
Y12674D01*
X-14800Y14600D02*
Y14300D01*
X-14870Y14229D01*
Y13344D01*
X-17744Y12044D02*
X-19844D01*
X-20800Y13000D01*
X-9700Y8500D02*
X-9650Y8550D01*
X-9869Y8330D01*
Y7600D01*
X-20800Y14000D02*
X-21575Y14775D01*
X-23925D01*
X-24525Y14175D01*
Y13875D01*
X-24925Y13475D01*
Y11325D01*
X-24300Y10700D01*
X-9100Y16100D02*
X-9050Y16150D01*
X-9800Y15400D01*
X-10250D01*
X-11000Y14650D01*
Y14569D01*
X-12300Y9200D02*
X-12525D01*
X-12850Y9525D01*
X-13255D01*
X-15500Y14600D02*
Y14300D01*
X-15814Y13985D01*
Y13344D01*
X-17100Y9800D02*
X-17140Y9840D01*
X-17744D01*
X-14900Y10000D02*
Y10025D01*
X-14870Y9995D01*
Y8855D01*
X-23800Y14000D02*
X-24450Y13350D01*
Y11975D01*
X-24300Y11700D01*
X-8100Y16100D02*
X-8075Y16125D01*
X-8800Y15400D01*
X-9275D01*
X-9650Y15025D01*
X-10100D01*
X-10450Y14675D01*
Y13400D01*
X-11125D01*
Y13275D01*
X-11200Y13200D01*
X-11530D01*
X-13800Y7900D02*
X-13925Y8025D01*
Y8855D01*
X-13255Y10785D02*
X-13735D01*
X-13775Y10825D01*
Y12625D01*
X-14000Y12850D01*
X-15100D01*
X-15175Y12925D01*
Y13300D01*
X-15185Y13344D01*
G54D59*
X-20900Y11900D02*
Y11650D01*
G54D58*
X-20900Y11650D02*
X-20664Y11414D01*
X-17744D01*
X-20900Y11900D02*
Y11651D01*
X-21176Y11375D01*
X-22796D01*
X-22850Y11440D01*
Y12950D01*
X-22800Y13000D01*
G54D57*
X-15500Y7700D02*
X-15400Y7675D01*
Y8375D01*
X-15500Y8475D01*
Y8855D01*
G54D59*
X-23800Y17000D02*
X-23775D01*
X-23845Y17070D01*
X-24800D01*
X-23100Y8400D02*
X-22911Y7700D01*
X-15200Y13900D02*
X-15185Y13885D01*
G54D58*
X-15185Y13885D02*
Y13344D01*
X-14900Y7700D02*
X-15500D01*
G54D59*
X-6997Y9400D02*
X-6300D01*
X-5900Y9700D01*
G54D57*
X-16200Y14600D02*
Y14400D01*
X-16129Y14329D01*
Y13344D01*
X-16900Y10200D02*
X-17250D01*
X-17294Y10155D01*
X-17744D01*
X-14300Y10000D02*
Y9900D01*
X-14555Y9644D01*
Y8855D01*
X-22200Y9800D02*
Y9100D01*
X-22230D01*
X-21700Y9300D02*
X-22025D01*
X-22230Y9100D01*
X-16500Y8300D02*
X-16625D01*
X-16759Y8434D01*
Y8855D01*
X-11300Y7600D02*
X-11425Y7450D01*
X-14200D01*
X-14240Y7490D01*
Y8855D01*
X-17000Y14400D02*
X-16444Y13844D01*
Y13344D01*
X-21100Y8400D02*
Y7600D01*
X-17744Y9525D02*
X-19974D01*
X-21100Y8400D01*
X-15800Y8300D02*
Y8325D01*
X-15814Y8339D01*
Y8855D01*
X-8700Y7600D02*
X-9200D01*
X-11900Y10500D02*
X-11875Y10475D01*
X-11879Y10470D01*
X-13255D01*
X-11900Y10500D02*
X-11169D01*
X-23700Y9100D02*
X-22900D01*
X-16400Y9400D02*
Y9425D01*
X-16444Y9380D01*
Y8855D01*
X-10000Y10500D02*
Y10475D01*
Y10175D01*
X-10150Y10025D01*
X-12250D01*
X-12380Y10155D01*
X-13255D01*
X-9000Y10500D02*
Y10025D01*
X-9325Y9700D01*
X-12425D01*
X-12565Y9840D01*
X-13255D01*
X-9000Y10500D02*
X-8675D01*
X-8650Y10525D01*
X-8175D01*
X-8200Y10530D01*
G54D59*
X-7200Y12900D02*
X-7600D01*
G54D57*
X-18100Y16100D02*
X-17000Y15069D01*
G54D58*
X-8000Y12000D02*
Y12050D01*
Y11400D01*
X-8200Y11200D01*
%LNtop_copper-4*%
%LPC*%
G54D58*
X-19400Y10500D03*
X-21400D03*
X-18800Y13000D03*
X-19800D03*
X-20800D03*
X-21800D03*
X-22800D03*
X-23800D03*
X-5900Y9700D03*
Y10700D03*
Y11700D03*
Y12700D03*
Y13700D03*
X-21100Y8400D03*
X-22100D03*
X-23100D03*
X-24100D03*
X-18700D03*
X-19700D03*
X-8700Y8500D03*
X-9700D03*
X-10700D03*
X-11700D03*
X-12700D03*
X-5900Y15200D03*
Y16200D03*
Y17200D03*
X-24300Y10700D03*
Y11700D03*
X-18100Y17100D03*
Y16100D03*
X-17100Y17100D03*
Y16100D03*
X-16100Y17100D03*
Y16100D03*
X-15100Y17100D03*
Y16100D03*
X-14100Y17100D03*
Y16100D03*
X-12100Y17100D03*
Y16100D03*
X-11100Y17100D03*
Y16100D03*
X-10100Y17100D03*
Y16100D03*
X-9100Y17100D03*
Y16100D03*
X-8100Y17100D03*
Y16100D03*
X-23800Y17000D03*
X-22800D03*
X-21800D03*
X-20800D03*
Y14000D03*
X-21800D03*
X-22800D03*
X-23800D03*
X-7100Y14400D03*
X-16400Y9400D03*
X-15400Y9900D03*
X-25100Y14400D03*
X-14600Y12100D03*
X-20800Y14800D03*
X-11000Y11300D03*
X-20900Y11100D03*
X-16900Y10200D03*
X-17100Y9800D03*
X-16500Y8300D03*
X-15800D03*
X-8700Y7600D03*
X-14900Y7700D03*
X-21700Y9300D03*
X-14300Y10000D03*
X-14900D03*
X-15200Y13900D03*
X-7200Y12900D03*
X-5400Y8400D03*
X-6400D03*
X-7400D03*
X-19300Y7300D03*
X-25200Y8600D03*
X-10000Y10500D03*
X-7100Y15300D03*
X-13400Y8400D03*
M02*