G04 CAM Products 2000  RS274-X Output*
G04 Serial Number: 0000-00-00000*
G04 File Name:top_solder_mask.grb *
%FSLAX34Y34*%
%MOIN*%
%SFA1B1*%

%IPPOS*%
%AMRECTHERMD11*
4,1,4,-0.007400,-0.007500,
-0.039400,-0.007500,
-0.039400,-0.020700,
-0.007400,-0.020700,
-0.007400,-0.007500,0.0*
4,1,4,-0.007400,0.020700,
-0.039400,0.020700,
-0.039400,0.007500,
-0.007400,0.007500,
-0.007400,0.020700,0.0*
4,1,4,0.039400,-0.007500,
0.007400,-0.007500,
0.007400,-0.020700,
0.039400,-0.020700,
0.039400,-0.007500,0.0*
4,1,4,0.039400,0.020700,
0.007400,0.020700,
0.007400,0.007500,
0.039400,0.007500,
0.039400,0.020700,0.0*
%
%AMRECTHERMD14*
4,1,4,-0.007500,-0.007400,
-0.020700,-0.007400,
-0.020700,-0.039400,
-0.007500,-0.039400,
-0.007500,-0.007400,0.0*
4,1,4,-0.007500,0.039400,
-0.020700,0.039400,
-0.020700,0.007400,
-0.007500,0.007400,
-0.007500,0.039400,0.0*
4,1,4,0.020700,-0.007400,
0.007500,-0.007400,
0.007500,-0.039400,
0.020700,-0.039400,
0.020700,-0.007400,0.0*
4,1,4,0.020700,0.039400,
0.007500,0.039400,
0.007500,0.007400,
0.020700,0.007400,
0.020700,0.039400,0.0*
%
%AMRECTHERMD15*
4,1,4,-0.007400,-0.007500,
-0.031600,-0.007500,
-0.031600,-0.033600,
-0.007400,-0.033600,
-0.007400,-0.007500,0.0*
4,1,4,-0.007400,0.033600,
-0.031600,0.033600,
-0.031600,0.007500,
-0.007400,0.007500,
-0.007400,0.033600,0.0*
4,1,4,0.031600,-0.007500,
0.007400,-0.007500,
0.007400,-0.033600,
0.031600,-0.033600,
0.031600,-0.007500,0.0*
4,1,4,0.031600,0.033600,
0.007400,0.033600,
0.007400,0.007500,
0.031600,0.007500,
0.031600,0.033600,0.0*
%
%AMTHERM19*
1,1,0.095000,0.000000,0.000000*
1,0,0.075000,0.000000,0.000000*
4,0,4,-0.031800,0.042400,
-0.042400,0.031800,
0.031800,-0.042400,
0.042400,-0.031800,
-0.031800,0.042400,0.0*
4,0,4,0.031800,0.042400,
-0.042400,-0.031800,
-0.031800,-0.042400,
0.042400,0.031800,
0.031800,0.042400,0.0*
%
%AMRECTHERMD20*
4,1,4,-0.007500,-0.007500,
-0.041500,-0.007500,
-0.041500,-0.049400,
-0.007500,-0.049400,
-0.007500,-0.007500,0.0*
4,1,4,-0.007500,0.049400,
-0.041500,0.049400,
-0.041500,0.007500,
-0.007500,0.007500,
-0.007500,0.049400,0.0*
4,1,4,0.041500,-0.007500,
0.007500,-0.007500,
0.007500,-0.049400,
0.041500,-0.049400,
0.041500,-0.007500,0.0*
4,1,4,0.041500,0.049400,
0.007500,0.049400,
0.007500,0.007500,
0.041500,0.007500,
0.041500,0.049400,0.0*
%
%AMRECTHERMD23*
4,1,4,-0.007500,-0.007400,
-0.033600,-0.007400,
-0.033600,-0.031600,
-0.007500,-0.031600,
-0.007500,-0.007400,0.0*
4,1,4,-0.007500,0.031600,
-0.033600,0.031600,
-0.033600,0.007400,
-0.007500,0.007400,
-0.007500,0.031600,0.0*
4,1,4,0.033600,-0.007400,
0.007500,-0.007400,
0.007500,-0.031600,
0.033600,-0.031600,
0.033600,-0.007400,0.0*
4,1,4,0.033600,0.031600,
0.007500,0.031600,
0.007500,0.007400,
0.033600,0.007400,
0.033600,0.031600,0.0*
%
%AMRECTHERMD25*
4,1,4,-0.007500,-0.007500,
-0.034000,-0.007500,
-0.034000,-0.030000,
-0.007500,-0.030000,
-0.007500,-0.007500,0.0*
4,1,4,-0.007500,0.030000,
-0.034000,0.030000,
-0.034000,0.007500,
-0.007500,0.007500,
-0.007500,0.030000,0.0*
4,1,4,0.034000,-0.007500,
0.007500,-0.007500,
0.007500,-0.030000,
0.034000,-0.030000,
0.034000,-0.007500,0.0*
4,1,4,0.034000,0.030000,
0.007500,0.030000,
0.007500,0.007500,
0.034000,0.007500,
0.034000,0.030000,0.0*
%
%AMRECTHERMD27*
4,1,4,-0.007500,-0.007500,
-0.029700,-0.007500,
-0.029700,-0.054300,
-0.007500,-0.054300,
-0.007500,-0.007500,0.0*
4,1,4,-0.007500,0.054300,
-0.029700,0.054300,
-0.029700,0.007500,
-0.007500,0.007500,
-0.007500,0.054300,0.0*
4,1,4,0.029700,-0.007500,
0.007500,-0.007500,
0.007500,-0.054300,
0.029700,-0.054300,
0.029700,-0.007500,0.0*
4,1,4,0.029700,0.054300,
0.007500,0.054300,
0.007500,0.007500,
0.029700,0.007500,
0.029700,0.054300,0.0*
%
%AMRECTHERMD28*
4,1,4,-0.007500,-0.007500,
-0.047500,-0.007500,
-0.047500,-0.047500,
-0.007500,-0.047500,
-0.007500,-0.007500,0.0*
4,1,4,-0.007500,0.047500,
-0.047500,0.047500,
-0.047500,0.007500,
-0.007500,0.007500,
-0.007500,0.047500,0.0*
4,1,4,0.047500,-0.007500,
0.007500,-0.007500,
0.007500,-0.047500,
0.047500,-0.047500,
0.047500,-0.007500,0.0*
4,1,4,0.047500,0.047500,
0.007500,0.047500,
0.007500,0.007500,
0.047500,0.007500,
0.047500,0.047500,0.0*
%
%AMRECTHERMD30*
4,1,4,-0.007500,-0.007500,
-0.030000,-0.007500,
-0.030000,-0.034000,
-0.007500,-0.034000,
-0.007500,-0.007500,0.0*
4,1,4,-0.007500,0.034000,
-0.030000,0.034000,
-0.030000,0.007500,
-0.007500,0.007500,
-0.007500,0.034000,0.0*
4,1,4,0.030000,-0.007500,
0.007500,-0.007500,
0.007500,-0.034000,
0.030000,-0.034000,
0.030000,-0.007500,0.0*
4,1,4,0.030000,0.034000,
0.007500,0.034000,
0.007500,0.007500,
0.030000,0.007500,
0.030000,0.034000,0.0*
%
%AMRECTHERMD33*
4,1,4,-0.007500,-0.007500,
-0.065000,-0.007500,
-0.065000,-0.036900,
-0.007500,-0.036900,
-0.007500,-0.007500,0.0*
4,1,4,-0.007500,0.036900,
-0.065000,0.036900,
-0.065000,0.007500,
-0.007500,0.007500,
-0.007500,0.036900,0.0*
4,1,4,0.065000,-0.007500,
0.007500,-0.007500,
0.007500,-0.036900,
0.065000,-0.036900,
0.065000,-0.007500,0.0*
4,1,4,0.065000,0.036900,
0.007500,0.036900,
0.007500,0.007500,
0.065000,0.007500,
0.065000,0.036900,0.0*
%
%AMRECTHERMD36*
4,1,4,-0.007500,-0.007500,
-0.036900,-0.007500,
-0.036900,-0.065000,
-0.007500,-0.065000,
-0.007500,-0.007500,0.0*
4,1,4,-0.007500,0.065000,
-0.036900,0.065000,
-0.036900,0.007500,
-0.007500,0.007500,
-0.007500,0.065000,0.0*
4,1,4,0.036900,-0.007500,
0.007500,-0.007500,
0.007500,-0.065000,
0.036900,-0.065000,
0.036900,-0.007500,0.0*
4,1,4,0.036900,0.065000,
0.007500,0.065000,
0.007500,0.007500,
0.036900,0.007500,
0.036900,0.065000,0.0*
%
%AMTHERM12*
1,1,0.095000,0.000000,0.000000*
1,0,0.075000,0.000000,0.000000*
4,0,4,-0.031800,0.042400,
-0.042400,0.031800,
0.031800,-0.042400,
0.042400,-0.031800,
-0.031800,0.042400,0.0*
4,0,4,0.031800,0.042400,
-0.042400,-0.031800,
-0.031800,-0.042400,
0.042400,0.031800,
0.031800,0.042400,0.0*
%
%AMRECTHERMD15~*
4,1,4,-0.007500,-0.007500,
-0.023800,-0.007500,
-0.023800,-0.053300,
-0.007500,-0.053300,
-0.007500,-0.007500,0.0*
4,1,4,-0.007500,0.053300,
-0.023800,0.053300,
-0.023800,0.007500,
-0.007500,0.007500,
-0.007500,0.053300,0.0*
4,1,4,0.023800,-0.007500,
0.007500,-0.007500,
0.007500,-0.053300,
0.023800,-0.053300,
0.023800,-0.007500,0.0*
4,1,4,0.023800,0.053300,
0.007500,0.053300,
0.007500,0.007500,
0.023800,0.007500,
0.023800,0.053300,0.0*
%
%AMRECTHERMD18*
4,1,4,-0.007500,-0.007500,
-0.047500,-0.007500,
-0.047500,-0.047500,
-0.007500,-0.047500,
-0.007500,-0.007500,0.0*
4,1,4,-0.007500,0.047500,
-0.047500,0.047500,
-0.047500,0.007500,
-0.007500,0.007500,
-0.007500,0.047500,0.0*
4,1,4,0.047500,-0.007500,
0.007500,-0.007500,
0.007500,-0.047500,
0.047500,-0.047500,
0.047500,-0.007500,0.0*
4,1,4,0.047500,0.047500,
0.007500,0.047500,
0.007500,0.007500,
0.047500,0.007500,
0.047500,0.047500,0.0*
%
%AMRECTHERMD20~*
4,1,4,-0.007500,-0.007500,
-0.030000,-0.007500,
-0.030000,-0.034000,
-0.007500,-0.034000,
-0.007500,-0.007500,0.0*
4,1,4,-0.007500,0.034000,
-0.030000,0.034000,
-0.030000,0.007500,
-0.007500,0.007500,
-0.007500,0.034000,0.0*
4,1,4,0.030000,-0.007500,
0.007500,-0.007500,
0.007500,-0.034000,
0.030000,-0.034000,
0.030000,-0.007500,0.0*
4,1,4,0.030000,0.034000,
0.007500,0.034000,
0.007500,0.007500,
0.030000,0.007500,
0.030000,0.034000,0.0*
%
%AMRECTHERMD21*
4,1,4,-0.007500,-0.007400,
-0.033600,-0.007400,
-0.033600,-0.031600,
-0.007500,-0.031600,
-0.007500,-0.007400,0.0*
4,1,4,-0.007500,0.031600,
-0.033600,0.031600,
-0.033600,0.007400,
-0.007500,0.007400,
-0.007500,0.031600,0.0*
4,1,4,0.033600,-0.007400,
0.007500,-0.007400,
0.007500,-0.031600,
0.033600,-0.031600,
0.033600,-0.007400,0.0*
4,1,4,0.033600,0.031600,
0.007500,0.031600,
0.007500,0.007400,
0.033600,0.007400,
0.033600,0.031600,0.0*
%
%AMRECTHERMD24*
4,1,4,-0.007500,-0.007400,
-0.051300,-0.007400,
-0.051300,-0.098500,
-0.007500,-0.098500,
-0.007500,-0.007400,0.0*
4,1,4,-0.007500,0.098500,
-0.051300,0.098500,
-0.051300,0.007400,
-0.007500,0.007400,
-0.007500,0.098500,0.0*
4,1,4,0.051300,-0.007400,
0.007500,-0.007400,
0.007500,-0.098500,
0.051300,-0.098500,
0.051300,-0.007400,0.0*
4,1,4,0.051300,0.098500,
0.007500,0.098500,
0.007500,0.007400,
0.051300,0.007400,
0.051300,0.098500,0.0*
%
%AMTHERM12~*
1,1,0.095000,0.000000,0.000000*
1,0,0.075000,0.000000,0.000000*
4,0,4,-0.031800,0.042400,
-0.042400,0.031800,
0.031800,-0.042400,
0.042400,-0.031800,
-0.031800,0.042400,0.0*
4,0,4,0.031800,0.042400,
-0.042400,-0.031800,
-0.031800,-0.042400,
0.042400,0.031800,
0.031800,0.042400,0.0*
%
%AMRECTHERMD15~~*
4,1,4,-0.007500,-0.007500,
-0.023800,-0.007500,
-0.023800,-0.053300,
-0.007500,-0.053300,
-0.007500,-0.007500,0.0*
4,1,4,-0.007500,0.053300,
-0.023800,0.053300,
-0.023800,0.007500,
-0.007500,0.007500,
-0.007500,0.053300,0.0*
4,1,4,0.023800,-0.007500,
0.007500,-0.007500,
0.007500,-0.053300,
0.023800,-0.053300,
0.023800,-0.007500,0.0*
4,1,4,0.023800,0.053300,
0.007500,0.053300,
0.007500,0.007500,
0.023800,0.007500,
0.023800,0.053300,0.0*
%
%AMRECTHERMD18~*
4,1,4,-0.007500,-0.007500,
-0.047500,-0.007500,
-0.047500,-0.047500,
-0.007500,-0.047500,
-0.007500,-0.007500,0.0*
4,1,4,-0.007500,0.047500,
-0.047500,0.047500,
-0.047500,0.007500,
-0.007500,0.007500,
-0.007500,0.047500,0.0*
4,1,4,0.047500,-0.007500,
0.007500,-0.007500,
0.007500,-0.047500,
0.047500,-0.047500,
0.047500,-0.007500,0.0*
4,1,4,0.047500,0.047500,
0.007500,0.047500,
0.007500,0.007500,
0.047500,0.007500,
0.047500,0.047500,0.0*
%
%AMRECTHERMD20~~*
4,1,4,-0.007500,-0.007500,
-0.030000,-0.007500,
-0.030000,-0.034000,
-0.007500,-0.034000,
-0.007500,-0.007500,0.0*
4,1,4,-0.007500,0.034000,
-0.030000,0.034000,
-0.030000,0.007500,
-0.007500,0.007500,
-0.007500,0.034000,0.0*
4,1,4,0.030000,-0.007500,
0.007500,-0.007500,
0.007500,-0.034000,
0.030000,-0.034000,
0.030000,-0.007500,0.0*
4,1,4,0.030000,0.034000,
0.007500,0.034000,
0.007500,0.007500,
0.030000,0.007500,
0.030000,0.034000,0.0*
%
%AMRECTHERMD21~*
4,1,4,-0.007500,-0.007400,
-0.033600,-0.007400,
-0.033600,-0.031600,
-0.007500,-0.031600,
-0.007500,-0.007400,0.0*
4,1,4,-0.007500,0.031600,
-0.033600,0.031600,
-0.033600,0.007400,
-0.007500,0.007400,
-0.007500,0.031600,0.0*
4,1,4,0.033600,-0.007400,
0.007500,-0.007400,
0.007500,-0.031600,
0.033600,-0.031600,
0.033600,-0.007400,0.0*
4,1,4,0.033600,0.031600,
0.007500,0.031600,
0.007500,0.007400,
0.033600,0.007400,
0.033600,0.031600,0.0*
%
%AMRECTHERMD24~*
4,1,4,-0.007500,-0.007400,
-0.051300,-0.007400,
-0.051300,-0.098500,
-0.007500,-0.098500,
-0.007500,-0.007400,0.0*
4,1,4,-0.007500,0.098500,
-0.051300,0.098500,
-0.051300,0.007400,
-0.007500,0.007400,
-0.007500,0.098500,0.0*
4,1,4,0.051300,-0.007400,
0.007500,-0.007400,
0.007500,-0.098500,
0.051300,-0.098500,
0.051300,-0.007400,0.0*
4,1,4,0.051300,0.098500,
0.007500,0.098500,
0.007500,0.007400,
0.051300,0.007400,
0.051300,0.098500,0.0*
%
%AMRECTHERMD12*
4,1,4,-0.007400,-0.007500,
-0.039400,-0.007500,
-0.039400,-0.020700,
-0.007400,-0.020700,
-0.007400,-0.007500,0.0*
4,1,4,-0.007400,0.020700,
-0.039400,0.020700,
-0.039400,0.007500,
-0.007400,0.007500,
-0.007400,0.020700,0.0*
4,1,4,0.039400,-0.007500,
0.007400,-0.007500,
0.007400,-0.020700,
0.039400,-0.020700,
0.039400,-0.007500,0.0*
4,1,4,0.039400,0.020700,
0.007400,0.020700,
0.007400,0.007500,
0.039400,0.007500,
0.039400,0.020700,0.0*
%
%AMRECTHERMD15~~~*
4,1,4,-0.007500,-0.007400,
-0.020700,-0.007400,
-0.020700,-0.039400,
-0.007500,-0.039400,
-0.007500,-0.007400,0.0*
4,1,4,-0.007500,0.039400,
-0.020700,0.039400,
-0.020700,0.007400,
-0.007500,0.007400,
-0.007500,0.039400,0.0*
4,1,4,0.020700,-0.007400,
0.007500,-0.007400,
0.007500,-0.039400,
0.020700,-0.039400,
0.020700,-0.007400,0.0*
4,1,4,0.020700,0.039400,
0.007500,0.039400,
0.007500,0.007400,
0.020700,0.007400,
0.020700,0.039400,0.0*
%
%AMRECTHERMD16*
4,1,4,-0.007400,-0.007500,
-0.031600,-0.007500,
-0.031600,-0.033600,
-0.007400,-0.033600,
-0.007400,-0.007500,0.0*
4,1,4,-0.007400,0.033600,
-0.031600,0.033600,
-0.031600,0.007500,
-0.007400,0.007500,
-0.007400,0.033600,0.0*
4,1,4,0.031600,-0.007500,
0.007400,-0.007500,
0.007400,-0.033600,
0.031600,-0.033600,
0.031600,-0.007500,0.0*
4,1,4,0.031600,0.033600,
0.007400,0.033600,
0.007400,0.007500,
0.031600,0.007500,
0.031600,0.033600,0.0*
%
%AMTHERM20*
1,1,0.095000,0.000000,0.000000*
1,0,0.075000,0.000000,0.000000*
4,0,4,-0.031800,0.042400,
-0.042400,0.031800,
0.031800,-0.042400,
0.042400,-0.031800,
-0.031800,0.042400,0.0*
4,0,4,0.031800,0.042400,
-0.042400,-0.031800,
-0.031800,-0.042400,
0.042400,0.031800,
0.031800,0.042400,0.0*
%
%AMRECTHERMD21~~*
4,1,4,-0.007500,-0.007500,
-0.041500,-0.007500,
-0.041500,-0.049400,
-0.007500,-0.049400,
-0.007500,-0.007500,0.0*
4,1,4,-0.007500,0.049400,
-0.041500,0.049400,
-0.041500,0.007500,
-0.007500,0.007500,
-0.007500,0.049400,0.0*
4,1,4,0.041500,-0.007500,
0.007500,-0.007500,
0.007500,-0.049400,
0.041500,-0.049400,
0.041500,-0.007500,0.0*
4,1,4,0.041500,0.049400,
0.007500,0.049400,
0.007500,0.007500,
0.041500,0.007500,
0.041500,0.049400,0.0*
%
%AMRECTHERMD24~~*
4,1,4,-0.007500,-0.007500,
-0.034000,-0.007500,
-0.034000,-0.030000,
-0.007500,-0.030000,
-0.007500,-0.007500,0.0*
4,1,4,-0.007500,0.030000,
-0.034000,0.030000,
-0.034000,0.007500,
-0.007500,0.007500,
-0.007500,0.030000,0.0*
4,1,4,0.034000,-0.007500,
0.007500,-0.007500,
0.007500,-0.030000,
0.034000,-0.030000,
0.034000,-0.007500,0.0*
4,1,4,0.034000,0.030000,
0.007500,0.030000,
0.007500,0.007500,
0.034000,0.007500,
0.034000,0.030000,0.0*
%
%AMRECTHERMD26*
4,1,4,-0.007500,-0.007500,
-0.029700,-0.007500,
-0.029700,-0.054300,
-0.007500,-0.054300,
-0.007500,-0.007500,0.0*
4,1,4,-0.007500,0.054300,
-0.029700,0.054300,
-0.029700,0.007500,
-0.007500,0.007500,
-0.007500,0.054300,0.0*
4,1,4,0.029700,-0.007500,
0.007500,-0.007500,
0.007500,-0.054300,
0.029700,-0.054300,
0.029700,-0.007500,0.0*
4,1,4,0.029700,0.054300,
0.007500,0.054300,
0.007500,0.007500,
0.029700,0.007500,
0.029700,0.054300,0.0*
%
%AMRECTHERMD27~*
4,1,4,-0.007500,-0.007500,
-0.047500,-0.007500,
-0.047500,-0.047500,
-0.007500,-0.047500,
-0.007500,-0.007500,0.0*
4,1,4,-0.007500,0.047500,
-0.047500,0.047500,
-0.047500,0.007500,
-0.007500,0.007500,
-0.007500,0.047500,0.0*
4,1,4,0.047500,-0.007500,
0.007500,-0.007500,
0.007500,-0.047500,
0.047500,-0.047500,
0.047500,-0.007500,0.0*
4,1,4,0.047500,0.047500,
0.007500,0.047500,
0.007500,0.007500,
0.047500,0.007500,
0.047500,0.047500,0.0*
%
%AMRECTHERMD29*
4,1,4,-0.007500,-0.007500,
-0.030000,-0.007500,
-0.030000,-0.034000,
-0.007500,-0.034000,
-0.007500,-0.007500,0.0*
4,1,4,-0.007500,0.034000,
-0.030000,0.034000,
-0.030000,0.007500,
-0.007500,0.007500,
-0.007500,0.034000,0.0*
4,1,4,0.030000,-0.007500,
0.007500,-0.007500,
0.007500,-0.034000,
0.030000,-0.034000,
0.030000,-0.007500,0.0*
4,1,4,0.030000,0.034000,
0.007500,0.034000,
0.007500,0.007500,
0.030000,0.007500,
0.030000,0.034000,0.0*
%
%AMRECTHERMD31*
4,1,4,-0.007500,-0.007400,
-0.033600,-0.007400,
-0.033600,-0.031600,
-0.007500,-0.031600,
-0.007500,-0.007400,0.0*
4,1,4,-0.007500,0.031600,
-0.033600,0.031600,
-0.033600,0.007400,
-0.007500,0.007400,
-0.007500,0.031600,0.0*
4,1,4,0.033600,-0.007400,
0.007500,-0.007400,
0.007500,-0.031600,
0.033600,-0.031600,
0.033600,-0.007400,0.0*
4,1,4,0.033600,0.031600,
0.007500,0.031600,
0.007500,0.007400,
0.033600,0.007400,
0.033600,0.031600,0.0*
%
%AMRECTHERMD34*
4,1,4,-0.007500,-0.007500,
-0.065000,-0.007500,
-0.065000,-0.036900,
-0.007500,-0.036900,
-0.007500,-0.007500,0.0*
4,1,4,-0.007500,0.036900,
-0.065000,0.036900,
-0.065000,0.007500,
-0.007500,0.007500,
-0.007500,0.036900,0.0*
4,1,4,0.065000,-0.007500,
0.007500,-0.007500,
0.007500,-0.036900,
0.065000,-0.036900,
0.065000,-0.007500,0.0*
4,1,4,0.065000,0.036900,
0.007500,0.036900,
0.007500,0.007500,
0.065000,0.007500,
0.065000,0.036900,0.0*
%
%AMRECTHERMD37*
4,1,4,-0.007500,-0.007500,
-0.036900,-0.007500,
-0.036900,-0.065000,
-0.007500,-0.065000,
-0.007500,-0.007500,0.0*
4,1,4,-0.007500,0.065000,
-0.036900,0.065000,
-0.036900,0.007500,
-0.007500,0.007500,
-0.007500,0.065000,0.0*
4,1,4,0.036900,-0.007500,
0.007500,-0.007500,
0.007500,-0.065000,
0.036900,-0.065000,
0.036900,-0.007500,0.0*
4,1,4,0.036900,0.065000,
0.007500,0.065000,
0.007500,0.007500,
0.036900,0.007500,
0.036900,0.065000,0.0*
%
%AMTHERM13*
1,1,0.095000,0.000000,0.000000*
1,0,0.075000,0.000000,0.000000*
4,0,4,-0.031800,0.042400,
-0.042400,0.031800,
0.031800,-0.042400,
0.042400,-0.031800,
-0.031800,0.042400,0.0*
4,0,4,0.031800,0.042400,
-0.042400,-0.031800,
-0.031800,-0.042400,
0.042400,0.031800,
0.031800,0.042400,0.0*
%
%AMRECTHERMD16~*
4,1,4,-0.007500,-0.007500,
-0.023800,-0.007500,
-0.023800,-0.053300,
-0.007500,-0.053300,
-0.007500,-0.007500,0.0*
4,1,4,-0.007500,0.053300,
-0.023800,0.053300,
-0.023800,0.007500,
-0.007500,0.007500,
-0.007500,0.053300,0.0*
4,1,4,0.023800,-0.007500,
0.007500,-0.007500,
0.007500,-0.053300,
0.023800,-0.053300,
0.023800,-0.007500,0.0*
4,1,4,0.023800,0.053300,
0.007500,0.053300,
0.007500,0.007500,
0.023800,0.007500,
0.023800,0.053300,0.0*
%
%AMRECTHERMD19*
4,1,4,-0.007500,-0.007500,
-0.047500,-0.007500,
-0.047500,-0.047500,
-0.007500,-0.047500,
-0.007500,-0.007500,0.0*
4,1,4,-0.007500,0.047500,
-0.047500,0.047500,
-0.047500,0.007500,
-0.007500,0.007500,
-0.007500,0.047500,0.0*
4,1,4,0.047500,-0.007500,
0.007500,-0.007500,
0.007500,-0.047500,
0.047500,-0.047500,
0.047500,-0.007500,0.0*
4,1,4,0.047500,0.047500,
0.007500,0.047500,
0.007500,0.007500,
0.047500,0.007500,
0.047500,0.047500,0.0*
%
%AMRECTHERMD21~~~*
4,1,4,-0.007500,-0.007500,
-0.030000,-0.007500,
-0.030000,-0.034000,
-0.007500,-0.034000,
-0.007500,-0.007500,0.0*
4,1,4,-0.007500,0.034000,
-0.030000,0.034000,
-0.030000,0.007500,
-0.007500,0.007500,
-0.007500,0.034000,0.0*
4,1,4,0.030000,-0.007500,
0.007500,-0.007500,
0.007500,-0.034000,
0.030000,-0.034000,
0.030000,-0.007500,0.0*
4,1,4,0.030000,0.034000,
0.007500,0.034000,
0.007500,0.007500,
0.030000,0.007500,
0.030000,0.034000,0.0*
%
%AMRECTHERMD22*
4,1,4,-0.007500,-0.007400,
-0.033600,-0.007400,
-0.033600,-0.031600,
-0.007500,-0.031600,
-0.007500,-0.007400,0.0*
4,1,4,-0.007500,0.031600,
-0.033600,0.031600,
-0.033600,0.007400,
-0.007500,0.007400,
-0.007500,0.031600,0.0*
4,1,4,0.033600,-0.007400,
0.007500,-0.007400,
0.007500,-0.031600,
0.033600,-0.031600,
0.033600,-0.007400,0.0*
4,1,4,0.033600,0.031600,
0.007500,0.031600,
0.007500,0.007400,
0.033600,0.007400,
0.033600,0.031600,0.0*
%
%AMRECTHERMD25~*
4,1,4,-0.007500,-0.007400,
-0.051300,-0.007400,
-0.051300,-0.098500,
-0.007500,-0.098500,
-0.007500,-0.007400,0.0*
4,1,4,-0.007500,0.098500,
-0.051300,0.098500,
-0.051300,0.007400,
-0.007500,0.007400,
-0.007500,0.098500,0.0*
4,1,4,0.051300,-0.007400,
0.007500,-0.007400,
0.007500,-0.098500,
0.051300,-0.098500,
0.051300,-0.007400,0.0*
4,1,4,0.051300,0.098500,
0.007500,0.098500,
0.007500,0.007400,
0.051300,0.007400,
0.051300,0.098500,0.0*
%
%AMRECTHERMD12~*
4,1,4,-0.007400,-0.007500,
-0.039400,-0.007500,
-0.039400,-0.020700,
-0.007400,-0.020700,
-0.007400,-0.007500,0.0*
4,1,4,-0.007400,0.020700,
-0.039400,0.020700,
-0.039400,0.007500,
-0.007400,0.007500,
-0.007400,0.020700,0.0*
4,1,4,0.039400,-0.007500,
0.007400,-0.007500,
0.007400,-0.020700,
0.039400,-0.020700,
0.039400,-0.007500,0.0*
4,1,4,0.039400,0.020700,
0.007400,0.020700,
0.007400,0.007500,
0.039400,0.007500,
0.039400,0.020700,0.0*
%
%AMRECTHERMD15~~~~*
4,1,4,-0.007500,-0.007400,
-0.020700,-0.007400,
-0.020700,-0.039400,
-0.007500,-0.039400,
-0.007500,-0.007400,0.0*
4,1,4,-0.007500,0.039400,
-0.020700,0.039400,
-0.020700,0.007400,
-0.007500,0.007400,
-0.007500,0.039400,0.0*
4,1,4,0.020700,-0.007400,
0.007500,-0.007400,
0.007500,-0.039400,
0.020700,-0.039400,
0.020700,-0.007400,0.0*
4,1,4,0.020700,0.039400,
0.007500,0.039400,
0.007500,0.007400,
0.020700,0.007400,
0.020700,0.039400,0.0*
%
%AMRECTHERMD16~~*
4,1,4,-0.007400,-0.007500,
-0.031600,-0.007500,
-0.031600,-0.033600,
-0.007400,-0.033600,
-0.007400,-0.007500,0.0*
4,1,4,-0.007400,0.033600,
-0.031600,0.033600,
-0.031600,0.007500,
-0.007400,0.007500,
-0.007400,0.033600,0.0*
4,1,4,0.031600,-0.007500,
0.007400,-0.007500,
0.007400,-0.033600,
0.031600,-0.033600,
0.031600,-0.007500,0.0*
4,1,4,0.031600,0.033600,
0.007400,0.033600,
0.007400,0.007500,
0.031600,0.007500,
0.031600,0.033600,0.0*
%
%AMTHERM20~*
1,1,0.095000,0.000000,0.000000*
1,0,0.075000,0.000000,0.000000*
4,0,4,-0.031800,0.042400,
-0.042400,0.031800,
0.031800,-0.042400,
0.042400,-0.031800,
-0.031800,0.042400,0.0*
4,0,4,0.031800,0.042400,
-0.042400,-0.031800,
-0.031800,-0.042400,
0.042400,0.031800,
0.031800,0.042400,0.0*
%
%AMRECTHERMD21~~~~*
4,1,4,-0.007500,-0.007500,
-0.041500,-0.007500,
-0.041500,-0.049400,
-0.007500,-0.049400,
-0.007500,-0.007500,0.0*
4,1,4,-0.007500,0.049400,
-0.041500,0.049400,
-0.041500,0.007500,
-0.007500,0.007500,
-0.007500,0.049400,0.0*
4,1,4,0.041500,-0.007500,
0.007500,-0.007500,
0.007500,-0.049400,
0.041500,-0.049400,
0.041500,-0.007500,0.0*
4,1,4,0.041500,0.049400,
0.007500,0.049400,
0.007500,0.007500,
0.041500,0.007500,
0.041500,0.049400,0.0*
%
%AMRECTHERMD24~~~*
4,1,4,-0.007500,-0.007500,
-0.034000,-0.007500,
-0.034000,-0.030000,
-0.007500,-0.030000,
-0.007500,-0.007500,0.0*
4,1,4,-0.007500,0.030000,
-0.034000,0.030000,
-0.034000,0.007500,
-0.007500,0.007500,
-0.007500,0.030000,0.0*
4,1,4,0.034000,-0.007500,
0.007500,-0.007500,
0.007500,-0.030000,
0.034000,-0.030000,
0.034000,-0.007500,0.0*
4,1,4,0.034000,0.030000,
0.007500,0.030000,
0.007500,0.007500,
0.034000,0.007500,
0.034000,0.030000,0.0*
%
%AMRECTHERMD26~*
4,1,4,-0.007500,-0.007500,
-0.029700,-0.007500,
-0.029700,-0.054300,
-0.007500,-0.054300,
-0.007500,-0.007500,0.0*
4,1,4,-0.007500,0.054300,
-0.029700,0.054300,
-0.029700,0.007500,
-0.007500,0.007500,
-0.007500,0.054300,0.0*
4,1,4,0.029700,-0.007500,
0.007500,-0.007500,
0.007500,-0.054300,
0.029700,-0.054300,
0.029700,-0.007500,0.0*
4,1,4,0.029700,0.054300,
0.007500,0.054300,
0.007500,0.007500,
0.029700,0.007500,
0.029700,0.054300,0.0*
%
%AMRECTHERMD27~~*
4,1,4,-0.007500,-0.007500,
-0.047500,-0.007500,
-0.047500,-0.047500,
-0.007500,-0.047500,
-0.007500,-0.007500,0.0*
4,1,4,-0.007500,0.047500,
-0.047500,0.047500,
-0.047500,0.007500,
-0.007500,0.007500,
-0.007500,0.047500,0.0*
4,1,4,0.047500,-0.007500,
0.007500,-0.007500,
0.007500,-0.047500,
0.047500,-0.047500,
0.047500,-0.007500,0.0*
4,1,4,0.047500,0.047500,
0.007500,0.047500,
0.007500,0.007500,
0.047500,0.007500,
0.047500,0.047500,0.0*
%
%AMRECTHERMD29~*
4,1,4,-0.007500,-0.007500,
-0.030000,-0.007500,
-0.030000,-0.034000,
-0.007500,-0.034000,
-0.007500,-0.007500,0.0*
4,1,4,-0.007500,0.034000,
-0.030000,0.034000,
-0.030000,0.007500,
-0.007500,0.007500,
-0.007500,0.034000,0.0*
4,1,4,0.030000,-0.007500,
0.007500,-0.007500,
0.007500,-0.034000,
0.030000,-0.034000,
0.030000,-0.007500,0.0*
4,1,4,0.030000,0.034000,
0.007500,0.034000,
0.007500,0.007500,
0.030000,0.007500,
0.030000,0.034000,0.0*
%
%AMRECTHERMD31~*
4,1,4,-0.007500,-0.007400,
-0.033600,-0.007400,
-0.033600,-0.031600,
-0.007500,-0.031600,
-0.007500,-0.007400,0.0*
4,1,4,-0.007500,0.031600,
-0.033600,0.031600,
-0.033600,0.007400,
-0.007500,0.007400,
-0.007500,0.031600,0.0*
4,1,4,0.033600,-0.007400,
0.007500,-0.007400,
0.007500,-0.031600,
0.033600,-0.031600,
0.033600,-0.007400,0.0*
4,1,4,0.033600,0.031600,
0.007500,0.031600,
0.007500,0.007400,
0.033600,0.007400,
0.033600,0.031600,0.0*
%
%AMRECTHERMD34~*
4,1,4,-0.007500,-0.007500,
-0.065000,-0.007500,
-0.065000,-0.036900,
-0.007500,-0.036900,
-0.007500,-0.007500,0.0*
4,1,4,-0.007500,0.036900,
-0.065000,0.036900,
-0.065000,0.007500,
-0.007500,0.007500,
-0.007500,0.036900,0.0*
4,1,4,0.065000,-0.007500,
0.007500,-0.007500,
0.007500,-0.036900,
0.065000,-0.036900,
0.065000,-0.007500,0.0*
4,1,4,0.065000,0.036900,
0.007500,0.036900,
0.007500,0.007500,
0.065000,0.007500,
0.065000,0.036900,0.0*
%
%AMRECTHERMD37~*
4,1,4,-0.007500,-0.007500,
-0.036900,-0.007500,
-0.036900,-0.065000,
-0.007500,-0.065000,
-0.007500,-0.007500,0.0*
4,1,4,-0.007500,0.065000,
-0.036900,0.065000,
-0.036900,0.007500,
-0.007500,0.007500,
-0.007500,0.065000,0.0*
4,1,4,0.036900,-0.007500,
0.007500,-0.007500,
0.007500,-0.065000,
0.036900,-0.065000,
0.036900,-0.007500,0.0*
4,1,4,0.036900,0.065000,
0.007500,0.065000,
0.007500,0.007500,
0.036900,0.007500,
0.036900,0.065000,0.0*
%
%AMRECTHERMD12~~*
4,1,4,-0.007400,-0.007500,
-0.039400,-0.007500,
-0.039400,-0.020700,
-0.007400,-0.020700,
-0.007400,-0.007500,0.0*
4,1,4,-0.007400,0.020700,
-0.039400,0.020700,
-0.039400,0.007500,
-0.007400,0.007500,
-0.007400,0.020700,0.0*
4,1,4,0.039400,-0.007500,
0.007400,-0.007500,
0.007400,-0.020700,
0.039400,-0.020700,
0.039400,-0.007500,0.0*
4,1,4,0.039400,0.020700,
0.007400,0.020700,
0.007400,0.007500,
0.039400,0.007500,
0.039400,0.020700,0.0*
%
%AMRECTHERMD15~~~~~*
4,1,4,-0.007500,-0.007400,
-0.020700,-0.007400,
-0.020700,-0.039400,
-0.007500,-0.039400,
-0.007500,-0.007400,0.0*
4,1,4,-0.007500,0.039400,
-0.020700,0.039400,
-0.020700,0.007400,
-0.007500,0.007400,
-0.007500,0.039400,0.0*
4,1,4,0.020700,-0.007400,
0.007500,-0.007400,
0.007500,-0.039400,
0.020700,-0.039400,
0.020700,-0.007400,0.0*
4,1,4,0.020700,0.039400,
0.007500,0.039400,
0.007500,0.007400,
0.020700,0.007400,
0.020700,0.039400,0.0*
%
%AMRECTHERMD16~~~*
4,1,4,-0.007400,-0.007500,
-0.031600,-0.007500,
-0.031600,-0.033600,
-0.007400,-0.033600,
-0.007400,-0.007500,0.0*
4,1,4,-0.007400,0.033600,
-0.031600,0.033600,
-0.031600,0.007500,
-0.007400,0.007500,
-0.007400,0.033600,0.0*
4,1,4,0.031600,-0.007500,
0.007400,-0.007500,
0.007400,-0.033600,
0.031600,-0.033600,
0.031600,-0.007500,0.0*
4,1,4,0.031600,0.033600,
0.007400,0.033600,
0.007400,0.007500,
0.031600,0.007500,
0.031600,0.033600,0.0*
%
%AMTHERM20~~*
1,1,0.095000,0.000000,0.000000*
1,0,0.075000,0.000000,0.000000*
4,0,4,-0.031800,0.042400,
-0.042400,0.031800,
0.031800,-0.042400,
0.042400,-0.031800,
-0.031800,0.042400,0.0*
4,0,4,0.031800,0.042400,
-0.042400,-0.031800,
-0.031800,-0.042400,
0.042400,0.031800,
0.031800,0.042400,0.0*
%
%AMRECTHERMD21~~~~~*
4,1,4,-0.007500,-0.007500,
-0.041500,-0.007500,
-0.041500,-0.049400,
-0.007500,-0.049400,
-0.007500,-0.007500,0.0*
4,1,4,-0.007500,0.049400,
-0.041500,0.049400,
-0.041500,0.007500,
-0.007500,0.007500,
-0.007500,0.049400,0.0*
4,1,4,0.041500,-0.007500,
0.007500,-0.007500,
0.007500,-0.049400,
0.041500,-0.049400,
0.041500,-0.007500,0.0*
4,1,4,0.041500,0.049400,
0.007500,0.049400,
0.007500,0.007500,
0.041500,0.007500,
0.041500,0.049400,0.0*
%
%AMRECTHERMD24~~~~*
4,1,4,-0.007500,-0.007500,
-0.034000,-0.007500,
-0.034000,-0.030000,
-0.007500,-0.030000,
-0.007500,-0.007500,0.0*
4,1,4,-0.007500,0.030000,
-0.034000,0.030000,
-0.034000,0.007500,
-0.007500,0.007500,
-0.007500,0.030000,0.0*
4,1,4,0.034000,-0.007500,
0.007500,-0.007500,
0.007500,-0.030000,
0.034000,-0.030000,
0.034000,-0.007500,0.0*
4,1,4,0.034000,0.030000,
0.007500,0.030000,
0.007500,0.007500,
0.034000,0.007500,
0.034000,0.030000,0.0*
%
%AMRECTHERMD26~~*
4,1,4,-0.007500,-0.007500,
-0.029700,-0.007500,
-0.029700,-0.054300,
-0.007500,-0.054300,
-0.007500,-0.007500,0.0*
4,1,4,-0.007500,0.054300,
-0.029700,0.054300,
-0.029700,0.007500,
-0.007500,0.007500,
-0.007500,0.054300,0.0*
4,1,4,0.029700,-0.007500,
0.007500,-0.007500,
0.007500,-0.054300,
0.029700,-0.054300,
0.029700,-0.007500,0.0*
4,1,4,0.029700,0.054300,
0.007500,0.054300,
0.007500,0.007500,
0.029700,0.007500,
0.029700,0.054300,0.0*
%
%AMRECTHERMD27~~~*
4,1,4,-0.007500,-0.007500,
-0.047500,-0.007500,
-0.047500,-0.047500,
-0.007500,-0.047500,
-0.007500,-0.007500,0.0*
4,1,4,-0.007500,0.047500,
-0.047500,0.047500,
-0.047500,0.007500,
-0.007500,0.007500,
-0.007500,0.047500,0.0*
4,1,4,0.047500,-0.007500,
0.007500,-0.007500,
0.007500,-0.047500,
0.047500,-0.047500,
0.047500,-0.007500,0.0*
4,1,4,0.047500,0.047500,
0.007500,0.047500,
0.007500,0.007500,
0.047500,0.007500,
0.047500,0.047500,0.0*
%
%AMRECTHERMD29~~*
4,1,4,-0.007500,-0.007500,
-0.030000,-0.007500,
-0.030000,-0.034000,
-0.007500,-0.034000,
-0.007500,-0.007500,0.0*
4,1,4,-0.007500,0.034000,
-0.030000,0.034000,
-0.030000,0.007500,
-0.007500,0.007500,
-0.007500,0.034000,0.0*
4,1,4,0.030000,-0.007500,
0.007500,-0.007500,
0.007500,-0.034000,
0.030000,-0.034000,
0.030000,-0.007500,0.0*
4,1,4,0.030000,0.034000,
0.007500,0.034000,
0.007500,0.007500,
0.030000,0.007500,
0.030000,0.034000,0.0*
%
%AMRECTHERMD31~~*
4,1,4,-0.007500,-0.007400,
-0.033600,-0.007400,
-0.033600,-0.031600,
-0.007500,-0.031600,
-0.007500,-0.007400,0.0*
4,1,4,-0.007500,0.031600,
-0.033600,0.031600,
-0.033600,0.007400,
-0.007500,0.007400,
-0.007500,0.031600,0.0*
4,1,4,0.033600,-0.007400,
0.007500,-0.007400,
0.007500,-0.031600,
0.033600,-0.031600,
0.033600,-0.007400,0.0*
4,1,4,0.033600,0.031600,
0.007500,0.031600,
0.007500,0.007400,
0.033600,0.007400,
0.033600,0.031600,0.0*
%
%AMRECTHERMD34~~*
4,1,4,-0.007500,-0.007500,
-0.065000,-0.007500,
-0.065000,-0.036900,
-0.007500,-0.036900,
-0.007500,-0.007500,0.0*
4,1,4,-0.007500,0.036900,
-0.065000,0.036900,
-0.065000,0.007500,
-0.007500,0.007500,
-0.007500,0.036900,0.0*
4,1,4,0.065000,-0.007500,
0.007500,-0.007500,
0.007500,-0.036900,
0.065000,-0.036900,
0.065000,-0.007500,0.0*
4,1,4,0.065000,0.036900,
0.007500,0.036900,
0.007500,0.007500,
0.065000,0.007500,
0.065000,0.036900,0.0*
%
%AMRECTHERMD37~~*
4,1,4,-0.007500,-0.007500,
-0.036900,-0.007500,
-0.036900,-0.065000,
-0.007500,-0.065000,
-0.007500,-0.007500,0.0*
4,1,4,-0.007500,0.065000,
-0.036900,0.065000,
-0.036900,0.007500,
-0.007500,0.007500,
-0.007500,0.065000,0.0*
4,1,4,0.036900,-0.007500,
0.007500,-0.007500,
0.007500,-0.065000,
0.036900,-0.065000,
0.036900,-0.007500,0.0*
4,1,4,0.036900,0.065000,
0.007500,0.065000,
0.007500,0.007500,
0.036900,0.007500,
0.036900,0.065000,0.0*
%
%AMRECTHERMD12~~~*
4,1,4,-0.007400,-0.007500,
-0.039400,-0.007500,
-0.039400,-0.020700,
-0.007400,-0.020700,
-0.007400,-0.007500,0.0*
4,1,4,-0.007400,0.020700,
-0.039400,0.020700,
-0.039400,0.007500,
-0.007400,0.007500,
-0.007400,0.020700,0.0*
4,1,4,0.039400,-0.007500,
0.007400,-0.007500,
0.007400,-0.020700,
0.039400,-0.020700,
0.039400,-0.007500,0.0*
4,1,4,0.039400,0.020700,
0.007400,0.020700,
0.007400,0.007500,
0.039400,0.007500,
0.039400,0.020700,0.0*
%
%AMRECTHERMD15~~~~~~*
4,1,4,-0.007500,-0.007400,
-0.020700,-0.007400,
-0.020700,-0.039400,
-0.007500,-0.039400,
-0.007500,-0.007400,0.0*
4,1,4,-0.007500,0.039400,
-0.020700,0.039400,
-0.020700,0.007400,
-0.007500,0.007400,
-0.007500,0.039400,0.0*
4,1,4,0.020700,-0.007400,
0.007500,-0.007400,
0.007500,-0.039400,
0.020700,-0.039400,
0.020700,-0.007400,0.0*
4,1,4,0.020700,0.039400,
0.007500,0.039400,
0.007500,0.007400,
0.020700,0.007400,
0.020700,0.039400,0.0*
%
%AMRECTHERMD16~~~~*
4,1,4,-0.007400,-0.007500,
-0.031600,-0.007500,
-0.031600,-0.033600,
-0.007400,-0.033600,
-0.007400,-0.007500,0.0*
4,1,4,-0.007400,0.033600,
-0.031600,0.033600,
-0.031600,0.007500,
-0.007400,0.007500,
-0.007400,0.033600,0.0*
4,1,4,0.031600,-0.007500,
0.007400,-0.007500,
0.007400,-0.033600,
0.031600,-0.033600,
0.031600,-0.007500,0.0*
4,1,4,0.031600,0.033600,
0.007400,0.033600,
0.007400,0.007500,
0.031600,0.007500,
0.031600,0.033600,0.0*
%
%AMTHERM20~~~*
1,1,0.095000,0.000000,0.000000*
1,0,0.075000,0.000000,0.000000*
4,0,4,-0.031800,0.042400,
-0.042400,0.031800,
0.031800,-0.042400,
0.042400,-0.031800,
-0.031800,0.042400,0.0*
4,0,4,0.031800,0.042400,
-0.042400,-0.031800,
-0.031800,-0.042400,
0.042400,0.031800,
0.031800,0.042400,0.0*
%
%AMRECTHERMD21~~~~~~*
4,1,4,-0.007500,-0.007500,
-0.041500,-0.007500,
-0.041500,-0.049400,
-0.007500,-0.049400,
-0.007500,-0.007500,0.0*
4,1,4,-0.007500,0.049400,
-0.041500,0.049400,
-0.041500,0.007500,
-0.007500,0.007500,
-0.007500,0.049400,0.0*
4,1,4,0.041500,-0.007500,
0.007500,-0.007500,
0.007500,-0.049400,
0.041500,-0.049400,
0.041500,-0.007500,0.0*
4,1,4,0.041500,0.049400,
0.007500,0.049400,
0.007500,0.007500,
0.041500,0.007500,
0.041500,0.049400,0.0*
%
%AMRECTHERMD24~~~~~*
4,1,4,-0.007500,-0.007500,
-0.034000,-0.007500,
-0.034000,-0.030000,
-0.007500,-0.030000,
-0.007500,-0.007500,0.0*
4,1,4,-0.007500,0.030000,
-0.034000,0.030000,
-0.034000,0.007500,
-0.007500,0.007500,
-0.007500,0.030000,0.0*
4,1,4,0.034000,-0.007500,
0.007500,-0.007500,
0.007500,-0.030000,
0.034000,-0.030000,
0.034000,-0.007500,0.0*
4,1,4,0.034000,0.030000,
0.007500,0.030000,
0.007500,0.007500,
0.034000,0.007500,
0.034000,0.030000,0.0*
%
%AMRECTHERMD26~~~*
4,1,4,-0.007500,-0.007500,
-0.029700,-0.007500,
-0.029700,-0.054300,
-0.007500,-0.054300,
-0.007500,-0.007500,0.0*
4,1,4,-0.007500,0.054300,
-0.029700,0.054300,
-0.029700,0.007500,
-0.007500,0.007500,
-0.007500,0.054300,0.0*
4,1,4,0.029700,-0.007500,
0.007500,-0.007500,
0.007500,-0.054300,
0.029700,-0.054300,
0.029700,-0.007500,0.0*
4,1,4,0.029700,0.054300,
0.007500,0.054300,
0.007500,0.007500,
0.029700,0.007500,
0.029700,0.054300,0.0*
%
%AMRECTHERMD27~~~~*
4,1,4,-0.007500,-0.007500,
-0.047500,-0.007500,
-0.047500,-0.047500,
-0.007500,-0.047500,
-0.007500,-0.007500,0.0*
4,1,4,-0.007500,0.047500,
-0.047500,0.047500,
-0.047500,0.007500,
-0.007500,0.007500,
-0.007500,0.047500,0.0*
4,1,4,0.047500,-0.007500,
0.007500,-0.007500,
0.007500,-0.047500,
0.047500,-0.047500,
0.047500,-0.007500,0.0*
4,1,4,0.047500,0.047500,
0.007500,0.047500,
0.007500,0.007500,
0.047500,0.007500,
0.047500,0.047500,0.0*
%
%AMRECTHERMD29~~~*
4,1,4,-0.007500,-0.007500,
-0.030000,-0.007500,
-0.030000,-0.034000,
-0.007500,-0.034000,
-0.007500,-0.007500,0.0*
4,1,4,-0.007500,0.034000,
-0.030000,0.034000,
-0.030000,0.007500,
-0.007500,0.007500,
-0.007500,0.034000,0.0*
4,1,4,0.030000,-0.007500,
0.007500,-0.007500,
0.007500,-0.034000,
0.030000,-0.034000,
0.030000,-0.007500,0.0*
4,1,4,0.030000,0.034000,
0.007500,0.034000,
0.007500,0.007500,
0.030000,0.007500,
0.030000,0.034000,0.0*
%
%AMRECTHERMD31~~~*
4,1,4,-0.007500,-0.007400,
-0.033600,-0.007400,
-0.033600,-0.031600,
-0.007500,-0.031600,
-0.007500,-0.007400,0.0*
4,1,4,-0.007500,0.031600,
-0.033600,0.031600,
-0.033600,0.007400,
-0.007500,0.007400,
-0.007500,0.031600,0.0*
4,1,4,0.033600,-0.007400,
0.007500,-0.007400,
0.007500,-0.031600,
0.033600,-0.031600,
0.033600,-0.007400,0.0*
4,1,4,0.033600,0.031600,
0.007500,0.031600,
0.007500,0.007400,
0.033600,0.007400,
0.033600,0.031600,0.0*
%
%AMRECTHERMD34~~~*
4,1,4,-0.007500,-0.007500,
-0.065000,-0.007500,
-0.065000,-0.036900,
-0.007500,-0.036900,
-0.007500,-0.007500,0.0*
4,1,4,-0.007500,0.036900,
-0.065000,0.036900,
-0.065000,0.007500,
-0.007500,0.007500,
-0.007500,0.036900,0.0*
4,1,4,0.065000,-0.007500,
0.007500,-0.007500,
0.007500,-0.036900,
0.065000,-0.036900,
0.065000,-0.007500,0.0*
4,1,4,0.065000,0.036900,
0.007500,0.036900,
0.007500,0.007500,
0.065000,0.007500,
0.065000,0.036900,0.0*
%
%AMRECTHERMD37~~~*
4,1,4,-0.007500,-0.007500,
-0.036900,-0.007500,
-0.036900,-0.065000,
-0.007500,-0.065000,
-0.007500,-0.007500,0.0*
4,1,4,-0.007500,0.065000,
-0.036900,0.065000,
-0.036900,0.007500,
-0.007500,0.007500,
-0.007500,0.065000,0.0*
4,1,4,0.036900,-0.007500,
0.007500,-0.007500,
0.007500,-0.065000,
0.036900,-0.065000,
0.036900,-0.007500,0.0*
4,1,4,0.036900,0.065000,
0.007500,0.065000,
0.007500,0.007500,
0.036900,0.007500,
0.036900,0.065000,0.0*
%
%AMTHERM13~*
1,1,0.095000,0.000000,0.000000*
1,0,0.075000,0.000000,0.000000*
4,0,4,-0.031800,0.042400,
-0.042400,0.031800,
0.031800,-0.042400,
0.042400,-0.031800,
-0.031800,0.042400,0.0*
4,0,4,0.031800,0.042400,
-0.042400,-0.031800,
-0.031800,-0.042400,
0.042400,0.031800,
0.031800,0.042400,0.0*
%
%AMRECTHERMD16~~~~~*
4,1,4,-0.007500,-0.007500,
-0.023800,-0.007500,
-0.023800,-0.053300,
-0.007500,-0.053300,
-0.007500,-0.007500,0.0*
4,1,4,-0.007500,0.053300,
-0.023800,0.053300,
-0.023800,0.007500,
-0.007500,0.007500,
-0.007500,0.053300,0.0*
4,1,4,0.023800,-0.007500,
0.007500,-0.007500,
0.007500,-0.053300,
0.023800,-0.053300,
0.023800,-0.007500,0.0*
4,1,4,0.023800,0.053300,
0.007500,0.053300,
0.007500,0.007500,
0.023800,0.007500,
0.023800,0.053300,0.0*
%
%AMRECTHERMD19~*
4,1,4,-0.007500,-0.007500,
-0.047500,-0.007500,
-0.047500,-0.047500,
-0.007500,-0.047500,
-0.007500,-0.007500,0.0*
4,1,4,-0.007500,0.047500,
-0.047500,0.047500,
-0.047500,0.007500,
-0.007500,0.007500,
-0.007500,0.047500,0.0*
4,1,4,0.047500,-0.007500,
0.007500,-0.007500,
0.007500,-0.047500,
0.047500,-0.047500,
0.047500,-0.007500,0.0*
4,1,4,0.047500,0.047500,
0.007500,0.047500,
0.007500,0.007500,
0.047500,0.007500,
0.047500,0.047500,0.0*
%
%AMRECTHERMD21~~~~~~~*
4,1,4,-0.007500,-0.007500,
-0.030000,-0.007500,
-0.030000,-0.034000,
-0.007500,-0.034000,
-0.007500,-0.007500,0.0*
4,1,4,-0.007500,0.034000,
-0.030000,0.034000,
-0.030000,0.007500,
-0.007500,0.007500,
-0.007500,0.034000,0.0*
4,1,4,0.030000,-0.007500,
0.007500,-0.007500,
0.007500,-0.034000,
0.030000,-0.034000,
0.030000,-0.007500,0.0*
4,1,4,0.030000,0.034000,
0.007500,0.034000,
0.007500,0.007500,
0.030000,0.007500,
0.030000,0.034000,0.0*
%
%AMRECTHERMD22~*
4,1,4,-0.007500,-0.007400,
-0.033600,-0.007400,
-0.033600,-0.031600,
-0.007500,-0.031600,
-0.007500,-0.007400,0.0*
4,1,4,-0.007500,0.031600,
-0.033600,0.031600,
-0.033600,0.007400,
-0.007500,0.007400,
-0.007500,0.031600,0.0*
4,1,4,0.033600,-0.007400,
0.007500,-0.007400,
0.007500,-0.031600,
0.033600,-0.031600,
0.033600,-0.007400,0.0*
4,1,4,0.033600,0.031600,
0.007500,0.031600,
0.007500,0.007400,
0.033600,0.007400,
0.033600,0.031600,0.0*
%
%AMRECTHERMD25~~*
4,1,4,-0.007500,-0.007400,
-0.051300,-0.007400,
-0.051300,-0.098500,
-0.007500,-0.098500,
-0.007500,-0.007400,0.0*
4,1,4,-0.007500,0.098500,
-0.051300,0.098500,
-0.051300,0.007400,
-0.007500,0.007400,
-0.007500,0.098500,0.0*
4,1,4,0.051300,-0.007400,
0.007500,-0.007400,
0.007500,-0.098500,
0.051300,-0.098500,
0.051300,-0.007400,0.0*
4,1,4,0.051300,0.098500,
0.007500,0.098500,
0.007500,0.007400,
0.051300,0.007400,
0.051300,0.098500,0.0*
%
%ADD10R,0.079000X0.041600*%
%ADD11RECTHERMD11*%
%ADD12C,0.001000*%
%ADD13R,0.041600X0.079000*%
%ADD14RECTHERMD14*%
%ADD15RECTHERMD15*%
%ADD16R,0.063300X0.067200*%
%ADD17C,0.095000*%
%ADD18R,0.095000X0.095000*%
%ADD19THERM19*%
%ADD20RECTHERMD20*%
%ADD21R,0.083000X0.098700*%
%ADD22R,0.067200X0.063300*%
%ADD23RECTHERMD23*%
%ADD24R,0.068000X0.060000*%
%ADD25RECTHERMD25*%
%ADD26R,0.059300X0.108500*%
%ADD27RECTHERMD27*%
%ADD28RECTHERMD28*%
%ADD29R,0.060000X0.068000*%
%ADD30RECTHERMD30*%
%ADD31R,0.083000X0.083000*%
%ADD32R,0.098700X0.083000*%
%ADD33RECTHERMD33*%
%ADD34R,0.130000X0.074000*%
%ADD35C,0.048000*%
%ADD36RECTHERMD36*%
%ADD37R,0.074000X0.130000*%
%ADD38C,0.036000*%
%ADD39C,0.040000*%
%ADD40C,0.045000*%
%ADD41C,0.007000*%
%ADD42R,0.059000X0.021600*%
%ADD43R,0.021600X0.059000*%
%ADD44R,0.043300X0.047200*%
%ADD45C,0.075000*%
%ADD46R,0.075000X0.075000*%
%ADD47R,0.063000X0.078700*%
%ADD48R,0.047200X0.043300*%
%ADD49R,0.048000X0.040000*%
%ADD50R,0.039300X0.088500*%
%ADD51R,0.040000X0.048000*%
%ADD52R,0.063000X0.063000*%
%ADD53R,0.078700X0.063000*%
%ADD54R,0.110000X0.054000*%
%ADD55C,0.028000*%
%ADD56R,0.054000X0.110000*%
%ADD57C,0.016000*%
%ADD58C,0.020000*%
%ADD59C,0.025000*%
%ADD60THERM12*%
%ADD61R,0.108500X0.059300*%
%ADD62RECTHERMD15~*%
%ADD63R,0.047500X0.106600*%
%ADD64RECTHERMD18*%
%ADD65RECTHERMD20~*%
%ADD66RECTHERMD21*%
%ADD67R,0.102600X0.197100*%
%ADD68RECTHERMD24*%
%ADD69C,0.055000*%
%ADD70R,0.088500X0.039300*%
%ADD71R,0.027500X0.086600*%
%ADD72R,0.082600X0.177100*%
%ADD73C,0.035000*%
%ADD74C,0.005000*%
%ADD75R,0.075000X0.037600*%
%ADD76R,0.037600X0.075000*%
%ADD77R,0.059300X0.063200*%
%ADD78C,0.091000*%
%ADD79R,0.091000X0.091000*%
%ADD80R,0.079000X0.094700*%
%ADD81R,0.063200X0.059300*%
%ADD82R,0.064000X0.056000*%
%ADD83R,0.055300X0.104500*%
%ADD84R,0.056000X0.064000*%
%ADD85R,0.079000X0.079000*%
%ADD86R,0.094700X0.079000*%
%ADD87R,0.126000X0.070000*%
%ADD88R,0.070000X0.126000*%
%ADD89R,0.104500X0.055300*%
%ADD90R,0.043500X0.102600*%
%ADD91R,0.098600X0.193100*%
%ADD92THERM12~*%
%ADD93RECTHERMD15~~*%
%ADD94RECTHERMD18~*%
%ADD95RECTHERMD20~~*%
%ADD96RECTHERMD21~*%
%ADD97RECTHERMD24~*%
%ADD98C,0.006000*%
%ADD99C,0.010000*%
%ADD100RECTHERMD12*%
%ADD101RECTHERMD15~~~*%
%ADD102RECTHERMD16*%
%ADD103THERM20*%
%ADD104RECTHERMD21~~*%
%ADD105RECTHERMD24~~*%
%ADD106RECTHERMD26*%
%ADD107RECTHERMD27~*%
%ADD108RECTHERMD29*%
%ADD109RECTHERMD31*%
%ADD110RECTHERMD34*%
%ADD111RECTHERMD37*%
%ADD112THERM13*%
%ADD113RECTHERMD16~*%
%ADD114RECTHERMD19*%
%ADD115RECTHERMD21~~~*%
%ADD116RECTHERMD22*%
%ADD117RECTHERMD25~*%
%ADD118RECTHERMD12~*%
%ADD119RECTHERMD15~~~~*%
%ADD120RECTHERMD16~~*%
%ADD121THERM20~*%
%ADD122RECTHERMD21~~~~*%
%ADD123RECTHERMD24~~~*%
%ADD124RECTHERMD26~*%
%ADD125RECTHERMD27~~*%
%ADD126RECTHERMD29~*%
%ADD127RECTHERMD31~*%
%ADD128RECTHERMD34~*%
%ADD129RECTHERMD37~*%
%ADD130RECTHERMD12~~*%
%ADD131RECTHERMD15~~~~~*%
%ADD132RECTHERMD16~~~*%
%ADD133THERM20~~*%
%ADD134RECTHERMD21~~~~~*%
%ADD135RECTHERMD24~~~~*%
%ADD136RECTHERMD26~~*%
%ADD137RECTHERMD27~~~*%
%ADD138RECTHERMD29~~*%
%ADD139RECTHERMD31~~*%
%ADD140RECTHERMD34~~*%
%ADD141RECTHERMD37~~*%
%ADD142RECTHERMD12~~~*%
%ADD143RECTHERMD15~~~~~~*%
%ADD144RECTHERMD16~~~~*%
%ADD145THERM20~~~*%
%ADD146RECTHERMD21~~~~~~*%
%ADD147RECTHERMD24~~~~~*%
%ADD148RECTHERMD26~~~*%
%ADD149RECTHERMD27~~~~*%
%ADD150RECTHERMD29~~~*%
%ADD151RECTHERMD31~~~*%
%ADD152RECTHERMD34~~~*%
%ADD153RECTHERMD37~~~*%
%ADD154THERM13~*%
%ADD155RECTHERMD16~~~~~*%
%ADD156RECTHERMD19~*%
%ADD157RECTHERMD21~~~~~~~*%
%ADD158RECTHERMD22~*%
%ADD159RECTHERMD25~~*%
%ADD501C,0.030000*%
%ADD502C,0.040000*%
%ADD503C,0.011000*%
%LNtop_solder_mask-1*%
%LPD*%
G54D99*
X-25481Y5754D02*
Y4800D01*
X-25800Y5754D02*
X-25163D01*
X-24572Y5436D02*
X-24663Y5390D01*
X-24754Y5300D01*
X-24800Y5163D01*
Y5072D01*
X-24754Y4936D01*
X-24663Y4845D01*
X-24572Y4800D01*
X-24436D01*
X-24345Y4845D01*
X-24254Y4936D01*
X-24209Y5072D01*
Y5163D01*
X-24254Y5300D01*
X-24345Y5390D01*
X-24436Y5436D01*
X-24572D01*
X-23845D02*
Y4481D01*
Y5300D02*
X-23754Y5390D01*
X-23663Y5436D01*
X-23527D01*
X-23436Y5390D01*
X-23345Y5300D01*
X-23300Y5163D01*
Y5072D01*
X-23345Y4936D01*
X-23436Y4845D01*
X-23527Y4800D01*
X-23663D01*
X-23754Y4845D01*
X-23845Y4936D01*
X-21572Y5618D02*
X-21663Y5709D01*
X-21800Y5754D01*
X-21981D01*
X-22118Y5709D01*
X-22209Y5618D01*
Y5527D01*
X-22163Y5436D01*
X-22118Y5390D01*
X-22027Y5345D01*
X-21754Y5254D01*
X-21663Y5209D01*
X-21618Y5163D01*
X-21572Y5072D01*
Y4936D01*
X-21663Y4845D01*
X-21800Y4800D01*
X-21981D01*
X-22118Y4845D01*
X-22209Y4936D01*
X-20981Y5436D02*
X-21072Y5390D01*
X-21163Y5300D01*
X-21209Y5163D01*
Y5072D01*
X-21163Y4936D01*
X-21072Y4845D01*
X-20981Y4800D01*
X-20845D01*
X-20754Y4845D01*
X-20663Y4936D01*
X-20618Y5072D01*
Y5163D01*
X-20663Y5300D01*
X-20754Y5390D01*
X-20845Y5436D01*
X-20981D01*
X-20254Y5754D02*
Y4800D01*
X-19345Y5754D02*
Y4800D01*
Y5300D02*
X-19436Y5390D01*
X-19527Y5436D01*
X-19663D01*
X-19754Y5390D01*
X-19845Y5300D01*
X-19890Y5163D01*
Y5072D01*
X-19845Y4936D01*
X-19754Y4845D01*
X-19663Y4800D01*
X-19527D01*
X-19436Y4845D01*
X-19345Y4936D01*
X-18981Y5163D02*
X-18436D01*
Y5254D01*
X-18481Y5345D01*
X-18527Y5390D01*
X-18618Y5436D01*
X-18754D01*
X-18845Y5390D01*
X-18936Y5300D01*
X-18981Y5163D01*
Y5072D01*
X-18936Y4936D01*
X-18845Y4845D01*
X-18754Y4800D01*
X-18618D01*
X-18527Y4845D01*
X-18436Y4936D01*
X-18072Y5436D02*
Y4800D01*
Y5163D02*
X-18027Y5300D01*
X-17936Y5390D01*
X-17845Y5436D01*
X-17709D01*
X-16618Y5754D02*
Y4800D01*
Y5754D02*
X-16254Y4800D01*
X-15890Y5754D02*
X-16254Y4800D01*
X-15890Y5754D02*
Y4800D01*
X-14981Y5436D02*
Y4800D01*
Y5300D02*
X-15072Y5390D01*
X-15163Y5436D01*
X-15300D01*
X-15390Y5390D01*
X-15481Y5300D01*
X-15527Y5163D01*
Y5072D01*
X-15481Y4936D01*
X-15390Y4845D01*
X-15300Y4800D01*
X-15163D01*
X-15072Y4845D01*
X-14981Y4936D01*
X-14118Y5300D02*
X-14163Y5390D01*
X-14300Y5436D01*
X-14436D01*
X-14572Y5390D01*
X-14618Y5300D01*
X-14572Y5209D01*
X-14481Y5163D01*
X-14254Y5118D01*
X-14163Y5072D01*
X-14118Y4981D01*
Y4936D01*
X-14163Y4845D01*
X-14300Y4800D01*
X-14436D01*
X-14572Y4845D01*
X-14618Y4936D01*
X-13754Y5754D02*
Y4800D01*
X-13300Y5436D02*
X-13754Y4981D01*
X-13572Y5163D02*
X-13254Y4800D01*
G54D75*
X-17744Y12674D03*
Y12359D03*
Y12044D03*
Y11729D03*
Y11414D03*
Y11100D03*
Y10785D03*
Y10470D03*
Y10155D03*
Y9840D03*
Y9525D03*
G54D76*
X-17074Y8855D03*
X-16759D03*
X-16444D03*
X-16129D03*
X-15814D03*
X-15500D03*
X-15185D03*
X-14870D03*
X-14555D03*
X-14240D03*
X-13925D03*
G54D75*
X-13255Y9525D03*
Y9840D03*
Y10155D03*
Y10470D03*
Y10785D03*
Y11100D03*
Y11414D03*
Y11729D03*
Y12044D03*
Y12359D03*
Y12674D03*
G54D76*
X-13925Y13344D03*
X-14240D03*
X-14555D03*
X-14870D03*
X-15185D03*
X-15500D03*
X-15814D03*
X-16129D03*
X-16444D03*
X-16759D03*
X-17074D03*
G54D77*
X-20700Y10500D03*
X-20030D03*
X-22800Y10600D03*
X-22130D03*
G54D78*
X-19400Y10500D03*
X-21400D03*
G54D79*
X-18800Y13000D03*
G54D78*
X-19800Y13000D03*
X-20800D03*
X-21800D03*
X-22800D03*
X-23800D03*
G54D77*
X-20900Y11900D03*
X-21569D03*
G54D80*
X-23400Y12000D03*
X-22297D03*
G54D79*
X-5900Y9700D03*
G54D78*
X-5900Y10700D03*
Y11700D03*
Y12700D03*
Y13700D03*
G54D79*
X-21100Y8400D03*
G54D78*
X-22100Y8400D03*
X-23100D03*
X-24100D03*
G54D77*
X-21100Y7600D03*
X-21769D03*
G54D82*
X-24600Y9500D03*
X-23700Y9100D03*
Y9900D03*
G54D77*
X-22200Y9800D03*
X-22869D03*
X-22900Y9100D03*
X-22230D03*
G54D83*
X-24288Y7700D03*
X-22911D03*
G54D77*
X-15500Y7700D03*
X-16169D03*
X-17100Y7900D03*
X-17769D03*
G54D83*
X-19988Y7700D03*
X-18611D03*
G54D79*
X-18700Y8400D03*
G54D78*
X-19700Y8400D03*
G54D77*
X-12300Y9200D03*
X-11630D03*
X-13800Y7900D03*
X-13130D03*
X-11300Y7600D03*
X-10630D03*
X-9200D03*
X-9869D03*
G54D79*
X-8700Y8500D03*
G54D78*
X-9700Y8500D03*
X-10700D03*
X-11700D03*
X-12700D03*
G54D84*
X-9100Y13000D03*
X-9500Y12100D03*
X-8700D03*
G54D77*
X-10500Y10500D03*
X-11169D03*
G54D81*
X-11900Y10500D03*
Y11169D03*
G54D85*
X-8200Y13800D03*
X-7097D03*
G54D79*
X-5900Y15200D03*
G54D78*
X-5900Y16200D03*
Y17200D03*
G54D85*
X-8800Y14800D03*
X-7697D03*
G54D77*
X-9700Y13900D03*
X-9030D03*
G54D81*
X-17900Y15100D03*
Y14430D03*
G54D80*
X-19800Y14700D03*
X-18697D03*
G54D86*
X-19300Y17100D03*
Y15997D03*
G54D87*
X-24800Y15500D03*
Y17070D03*
G54D79*
X-24300Y10700D03*
G54D78*
X-24300Y11700D03*
G54D81*
X-17000Y14400D03*
Y15069D03*
X-16200Y14600D03*
Y15269D03*
X-15500Y14600D03*
Y15269D03*
X-14800Y14600D03*
Y15269D03*
X-14100Y14600D03*
Y15269D03*
X-13400Y14600D03*
Y15269D03*
X-12600Y14600D03*
Y15269D03*
X-11800Y14300D03*
Y14969D03*
X-11000Y13900D03*
Y14569D03*
G54D77*
X-12200Y13200D03*
X-11530D03*
G54D79*
X-18100Y17100D03*
G54D78*
X-18100Y16100D03*
X-17100Y17100D03*
Y16100D03*
X-16100Y17100D03*
Y16100D03*
X-15100Y17100D03*
Y16100D03*
X-14100Y17100D03*
Y16100D03*
G54D79*
X-12100Y17100D03*
G54D78*
X-12100Y16100D03*
X-11100Y17100D03*
Y16100D03*
X-10100Y17100D03*
Y16100D03*
X-9100Y17100D03*
Y16100D03*
X-8100Y17100D03*
Y16100D03*
G54D80*
X-10500Y12100D03*
X-11602D03*
G54D84*
X-7600Y12900D03*
X-8000Y12000D03*
X-7200D03*
G54D81*
X-8200Y11200D03*
Y10530D03*
X-9000Y10500D03*
Y11169D03*
X-20200Y16300D03*
Y15630D03*
G54D79*
X-23800Y17000D03*
G54D78*
X-22800Y17000D03*
X-21800D03*
X-20800D03*
Y14000D03*
X-21800D03*
X-22800D03*
X-23800D03*
G54D80*
X-8100Y9400D03*
X-6997D03*
G54D88*
X-22600Y15800D03*
X-21030D03*
G54D79*
X-5400Y8400D03*
G54D78*
X-6400Y8400D03*
X-7400D03*
M02*