G04 DipTrace 2.3.1.0*
%INlcd_modul_top.gbr*%
%MOIN*%
%ADD13C,0.013*%
%ADD14C,0.025*%
%ADD15R,0.0709X0.063*%
%ADD16R,0.0591X0.0591*%
%ADD17C,0.0591*%
%ADD18C,0.066*%
%ADD19R,0.0335X0.0394*%
%ADD20R,0.063X0.0709*%
%ADD21R,0.0236X0.0787*%
%ADD41C,0.0046*%
%ADD42C,0.0077*%
%FSLAX44Y44*%
G04*
G70*
G90*
G75*
G01*
%LNTop*%
%LPD*%
X21479Y15628D2*
D13*
Y17348D1*
X21448Y17378D1*
X21501Y13878D2*
Y14378D1*
Y15605D1*
X21479Y15628D1*
X21501Y13878D2*
X20876D1*
X20376Y13378D1*
X15126D1*
X11251D1*
X11001Y13128D1*
Y11230D1*
X11024Y11253D1*
X22876Y14378D2*
X21501D1*
X10066Y11276D2*
X11001D1*
X11024Y11253D1*
X15126Y12502D2*
Y13378D1*
X20448Y17378D2*
Y15700D1*
X20376Y15628D1*
X18371Y14827D2*
X19575D1*
X20376Y15628D1*
X19448Y17378D2*
Y15825D1*
X19001Y15378D1*
X15376D1*
X15126Y15128D1*
Y14628D1*
X14626D2*
Y15378D1*
X15126Y15878D1*
X16626D1*
X17376Y16628D1*
Y17306D1*
X17448Y17378D1*
X14126Y14628D2*
Y15253D1*
X12501Y16878D1*
Y17325D1*
X12448Y17378D1*
X13626Y14628D2*
Y15200D1*
X11448Y17378D1*
X13126Y14628D2*
Y15128D1*
X11501Y16753D1*
X11073D1*
X10448Y17378D1*
X12626Y14628D2*
Y15128D1*
X11376Y16378D1*
X10448D1*
X9448Y17378D1*
X9128Y14503D2*
Y16698D1*
X8448Y17378D1*
X9128Y14503D2*
X8877D1*
X8690Y14316D1*
Y10191D1*
X9753Y9128D1*
X23067D1*
X24567Y7628D1*
X9876Y14503D2*
Y15628D1*
X12126Y14628D2*
Y15128D1*
X11626Y15628D1*
X10979D1*
X9502Y13558D2*
Y13254D1*
X10003Y12753D1*
Y12441D1*
X10066Y12378D1*
X12126Y11253D2*
Y12502D1*
X14126D2*
Y11753D1*
X14251Y11628D1*
X19126D1*
X20814Y13316D1*
X22876D1*
Y13378D1*
X13126Y12502D2*
Y11003D1*
X13376Y10753D1*
X21189D1*
X21814Y11378D1*
X22876D1*
X12626Y12502D2*
Y10628D1*
X12876Y10378D1*
X22876D1*
X4340Y17880D2*
D14*
X5886D1*
X6862D2*
X7104D1*
X7791D2*
X8104D1*
X8791D2*
X9104D1*
X9791D2*
X10104D1*
X10791D2*
X11104D1*
X11791D2*
X12104D1*
X12791D2*
X13104D1*
X13791D2*
X14104D1*
X14791D2*
X15104D1*
X15791D2*
X16104D1*
X16791D2*
X17104D1*
X17791D2*
X18104D1*
X18791D2*
X19104D1*
X19791D2*
X20104D1*
X20791D2*
X21104D1*
X21791D2*
X22104D1*
X22791D2*
X23073D1*
X23772D2*
X24163D1*
X25065D2*
X25351D1*
X4340Y17632D2*
X5886D1*
X23772D2*
X23979D1*
X25248D2*
X25351D1*
X4340Y17383D2*
X5886D1*
X23772D2*
X23929D1*
X4340Y17134D2*
X5886D1*
X23772D2*
X23976D1*
X25252D2*
X25352D1*
X4340Y16886D2*
X7089D1*
X7807D2*
X8089D1*
X12987D2*
X13090D1*
X13807D2*
X14089D1*
X14807D2*
X15089D1*
X15807D2*
X16089D1*
X16807D2*
X17022D1*
X17807D2*
X18089D1*
X18807D2*
X19089D1*
X19807D2*
X20089D1*
X20807D2*
X21089D1*
X21834D2*
X22089D1*
X22807D2*
X24151D1*
X25076D2*
X25351D1*
X4340Y16637D2*
X8698D1*
X9483D2*
X9698D1*
X13233D2*
X16894D1*
X17733D2*
X19093D1*
X19803D2*
X20093D1*
X20803D2*
X21124D1*
X21834D2*
X25351D1*
X4340Y16388D2*
X8772D1*
X9483D2*
X9948D1*
X13483D2*
X16644D1*
X17627D2*
X17727D1*
X19014D2*
X19093D1*
X19803D2*
X20093D1*
X20803D2*
X21124D1*
X21834D2*
X25351D1*
X4340Y16140D2*
X6214D1*
X7041D2*
X7651D1*
X8350D2*
X8772D1*
X13733D2*
X14901D1*
X17381D2*
X17726D1*
X19014D2*
X19093D1*
X22084D2*
X25351D1*
X4340Y15891D2*
X6214D1*
X7041D2*
X7651D1*
X8350D2*
X8772D1*
X13979D2*
X14647D1*
X17131D2*
X17726D1*
X22084D2*
X25351D1*
X4340Y15642D2*
X6214D1*
X7041D2*
X7651D1*
X8350D2*
X8772D1*
X14229D2*
X14397D1*
X22084D2*
X25351D1*
X4340Y15393D2*
X6214D1*
X7041D2*
X7651D1*
X8350D2*
X8772D1*
X19510D2*
X19649D1*
X22084D2*
X25351D1*
X4340Y15145D2*
X8772D1*
X22084D2*
X25351D1*
X4340Y14896D2*
X6218D1*
X8162D2*
X8671D1*
X10334D2*
X11218D1*
X16209D2*
X17726D1*
X20135D2*
X21147D1*
X21858D2*
X22292D1*
X23463D2*
X25351D1*
X4340Y14647D2*
X6089D1*
X8291D2*
X8530D1*
X10334D2*
X11218D1*
X16209D2*
X17726D1*
X19889D2*
X21147D1*
X23463D2*
X23636D1*
X25139D2*
X25351D1*
X4340Y14399D2*
X6081D1*
X10334D2*
X11218D1*
X16209D2*
X17726D1*
X19014D2*
X20858D1*
X23463D2*
X23636D1*
X25139D2*
X25351D1*
X4340Y14150D2*
X6187D1*
X8194D2*
X8335D1*
X10334D2*
X11218D1*
X16209D2*
X20663D1*
X23463D2*
X23636D1*
X25139D2*
X25351D1*
X4340Y13901D2*
X6222D1*
X8158D2*
X8335D1*
X9959D2*
X15511D1*
X16209D2*
X20409D1*
X22147D2*
X22292D1*
X23463D2*
X23636D1*
X25139D2*
X25351D1*
X4340Y13653D2*
X6089D1*
X9959D2*
X11042D1*
X22147D2*
X22362D1*
X23389D2*
X23573D1*
X25139D2*
X25351D1*
X4340Y13404D2*
X6077D1*
X9959D2*
X10784D1*
X23459D2*
X23573D1*
X25139D2*
X25351D1*
X4340Y13155D2*
X6183D1*
X8197D2*
X8335D1*
X10092D2*
X10647D1*
X23416D2*
X23573D1*
X25139D2*
X25351D1*
X4340Y12907D2*
X6229D1*
X8154D2*
X8335D1*
X9045D2*
X9358D1*
X15533D2*
X19913D1*
X22147D2*
X22550D1*
X23205D2*
X23573D1*
X25139D2*
X25351D1*
X4340Y12658D2*
X6089D1*
X9045D2*
X9421D1*
X15533D2*
X19663D1*
X20647D2*
X20858D1*
X22147D2*
X22366D1*
X23385D2*
X23698D1*
X25127D2*
X25351D1*
X4340Y12409D2*
X6077D1*
X9045D2*
X9421D1*
X15533D2*
X19417D1*
X20401D2*
X20858D1*
X22147D2*
X22292D1*
X23459D2*
X23698D1*
X25127D2*
X25351D1*
X4340Y12160D2*
X6179D1*
X8201D2*
X8335D1*
X9045D2*
X9421D1*
X15533D2*
X19167D1*
X20151D2*
X22335D1*
X23416D2*
X23698D1*
X25127D2*
X25351D1*
X4340Y11912D2*
X6233D1*
X8147D2*
X8335D1*
X9045D2*
X9421D1*
X19901D2*
X22542D1*
X23213D2*
X23698D1*
X25127D2*
X25351D1*
X4340Y11663D2*
X6093D1*
X9045D2*
X9421D1*
X13483D2*
X13784D1*
X19654D2*
X21624D1*
X23385D2*
X23573D1*
X25139D2*
X25351D1*
X4340Y11414D2*
X6077D1*
X9045D2*
X9421D1*
X13483D2*
X13972D1*
X19404D2*
X21358D1*
X23459D2*
X23573D1*
X25139D2*
X25351D1*
X4340Y11166D2*
X6175D1*
X8205D2*
X8335D1*
X9045D2*
X9421D1*
X13483D2*
X21108D1*
X23420D2*
X23573D1*
X25139D2*
X25351D1*
X4340Y10917D2*
X6237D1*
X8143D2*
X8335D1*
X9045D2*
X9421D1*
X21846D2*
X22534D1*
X23221D2*
X23573D1*
X25139D2*
X25351D1*
X4340Y10668D2*
X6093D1*
X9045D2*
X10421D1*
X23381D2*
X23698D1*
X25127D2*
X25351D1*
X4340Y10420D2*
X6077D1*
X9045D2*
X12347D1*
X23459D2*
X23698D1*
X25127D2*
X25351D1*
X4340Y10171D2*
X6171D1*
X8209D2*
X8335D1*
X9201D2*
X12593D1*
X23420D2*
X23698D1*
X25127D2*
X25351D1*
X4340Y9922D2*
X6241D1*
X8139D2*
X8468D1*
X9451D2*
X22526D1*
X23229D2*
X23698D1*
X25127D2*
X25351D1*
X4340Y9674D2*
X6097D1*
X8287D2*
X8718D1*
X9697D2*
X25351D1*
X4340Y9425D2*
X6077D1*
X8307D2*
X8964D1*
X23237D2*
X24198D1*
X24936D2*
X25351D1*
X4340Y9176D2*
X6167D1*
X8213D2*
X9214D1*
X23510D2*
X23995D1*
X25139D2*
X25351D1*
X4340Y8928D2*
X4948D1*
X5955D2*
X6249D1*
X8131D2*
X8448D1*
X23760D2*
X23948D1*
X25186D2*
X25351D1*
X4340Y8679D2*
X4948D1*
X5955D2*
X6097D1*
X8283D2*
X8448D1*
X9440D2*
X23026D1*
X25127D2*
X25351D1*
X4340Y8430D2*
X4948D1*
X5955D2*
X6073D1*
X8307D2*
X8448D1*
X9440D2*
X23272D1*
X24897D2*
X25351D1*
X4340Y8181D2*
X4948D1*
X5955D2*
X6167D1*
X8217D2*
X8448D1*
X9440D2*
X23522D1*
X24811D2*
X25351D1*
X4340Y7933D2*
X6499D1*
X6881D2*
X7499D1*
X7881D2*
X22823D1*
X23682D2*
X23773D1*
X25104D2*
X25351D1*
X4340Y7684D2*
X22823D1*
X23682D2*
X23948D1*
X25186D2*
X25351D1*
X4340Y7435D2*
X22823D1*
X23682D2*
X23979D1*
X25154D2*
X25351D1*
X4340Y7187D2*
X13573D1*
X18190D2*
X22823D1*
X23682D2*
X24144D1*
X24990D2*
X25351D1*
X4340Y6938D2*
X13573D1*
X18190D2*
X25351D1*
X4340Y6689D2*
X6644D1*
X7112D2*
X13573D1*
X18190D2*
X25351D1*
X4340Y6441D2*
X6312D1*
X7444D2*
X13573D1*
X18190D2*
X25351D1*
X4340Y6192D2*
X6206D1*
X7549D2*
X13573D1*
X18190D2*
X25351D1*
X4340Y5943D2*
X6206D1*
X7549D2*
X13573D1*
X18190D2*
X25351D1*
X4340Y5695D2*
X6308D1*
X7447D2*
X24187D1*
X25041D2*
X25351D1*
X4340Y5446D2*
X6628D1*
X7127D2*
X23987D1*
X25237D2*
X25354D1*
X4340Y5197D2*
X23929D1*
X4340Y4949D2*
X23968D1*
X25256D2*
X25353D1*
X4340Y4700D2*
X24132D1*
X25096D2*
X25351D1*
X4340Y4451D2*
X25351D1*
X21007Y14458D2*
X21175D1*
X21171Y15007D1*
X20899Y15013D1*
X20956Y15009D1*
X20226D1*
X19808Y14594D1*
X19706Y14524D1*
X19575Y14497D1*
X18993D1*
X18991Y14247D1*
X17752D1*
X17751Y15048D1*
X15513D1*
X15509Y14662D1*
Y13969D1*
X14743Y13973D1*
X14634Y13969D1*
X14243Y13973D1*
X14134Y13969D1*
X13743Y13973D1*
X13634Y13969D1*
X13243Y13973D1*
X13134Y13969D1*
X12743Y13973D1*
X12634Y13969D1*
X12243Y13973D1*
X12134Y13969D1*
X11743Y13973D1*
X11659Y13969D1*
X11243D1*
Y15009D1*
X10399Y15013D1*
X10456Y15009D1*
X10206Y15003D1*
Y14968D1*
X10309Y14965D1*
Y14041D1*
X9444Y14045D1*
X9186Y14041D1*
X9018D1*
X9070Y14020D1*
X9935D1*
Y13290D1*
X10239Y12984D1*
X10321Y12958D1*
X10674D1*
X10671Y13128D1*
X10695Y13250D1*
X10768Y13361D1*
X11018Y13611D1*
X11121Y13681D1*
X11251Y13708D1*
X20240D1*
X20643Y14111D1*
X20746Y14181D1*
X20880Y14208D1*
X20882Y14458D1*
X21007D1*
X22121Y14048D2*
Y13642D1*
X22388Y13646D1*
X22431Y13718D1*
X22533Y13819D1*
X22316Y13818D1*
Y14048D1*
X22122D1*
X22121Y12986D2*
Y12196D1*
X20882D1*
Y12917D1*
X19360Y11395D1*
X19257Y11325D1*
X19126Y11298D1*
X14251D1*
X14129Y11322D1*
X14018Y11395D1*
X13893Y11520D1*
X13826Y11616D1*
X13798Y11717D1*
X13796Y11843D1*
X13459D1*
X13456Y11139D1*
X13626Y11083D1*
X21052D1*
X21580Y11611D1*
X21683Y11681D1*
X21814Y11708D1*
X22427D1*
X22517Y11808D1*
X22625Y11878D1*
X22533Y11936D1*
X22443Y12023D1*
X22375Y12127D1*
X22332Y12244D1*
X22316Y12368D1*
X22328Y12492D1*
X22367Y12611D1*
X22431Y12718D1*
X22517Y12808D1*
X22624Y12878D1*
X22533Y12936D1*
X22480Y12987D1*
X22122Y12986D1*
X22622Y10881D2*
X22533Y10936D1*
X22428Y11045D1*
X21951Y11048D1*
X21608Y10706D1*
X22427Y10708D1*
X22517Y10808D1*
X22625Y10878D1*
X25260Y5049D2*
X25225Y4929D1*
X25168Y4818D1*
X25091Y4720D1*
X24997Y4638D1*
X24889Y4575D1*
X24772Y4534D1*
X24648Y4516D1*
X24523Y4521D1*
X24402Y4550D1*
X24288Y4601D1*
X24186Y4672D1*
X24099Y4762D1*
X24031Y4866D1*
X23983Y4982D1*
X23958Y5104D1*
X23957Y5229D1*
X23979Y5352D1*
X24024Y5468D1*
X24091Y5574D1*
X24176Y5665D1*
X24276Y5739D1*
X24389Y5793D1*
X24510Y5824D1*
X24634Y5832D1*
X24758Y5816D1*
X24877Y5777D1*
X24986Y5717D1*
X25082Y5637D1*
X25161Y5540D1*
X25220Y5430D1*
X25258Y5311D1*
X25272Y5173D1*
X25260Y5049D1*
X7525Y5941D2*
X7490Y5821D1*
X7433Y5710D1*
X7356Y5612D1*
X7262Y5530D1*
X7154Y5467D1*
X7036Y5426D1*
X6912Y5407D1*
X6788Y5413D1*
X6666Y5441D1*
X6552Y5492D1*
X6450Y5564D1*
X6363Y5654D1*
X6295Y5758D1*
X6248Y5874D1*
X6223Y5996D1*
X6221Y6121D1*
X6244Y6244D1*
X6289Y6360D1*
X6355Y6466D1*
X6440Y6557D1*
X6541Y6631D1*
X6653Y6684D1*
X6774Y6716D1*
X6899Y6724D1*
X7023Y6708D1*
X7141Y6669D1*
X7250Y6608D1*
X7346Y6528D1*
X7425Y6432D1*
X7484Y6322D1*
X7522Y6203D1*
X7537Y6065D1*
X7525Y5941D1*
X25260Y17254D2*
X25225Y17134D1*
X25168Y17023D1*
X25091Y16925D1*
X24997Y16843D1*
X24889Y16780D1*
X24772Y16739D1*
X24648Y16720D1*
X24523Y16726D1*
X24402Y16754D1*
X24288Y16805D1*
X24186Y16877D1*
X24099Y16967D1*
X24031Y17071D1*
X23983Y17187D1*
X23958Y17309D1*
X23957Y17434D1*
X23979Y17556D1*
X24024Y17673D1*
X24091Y17779D1*
X24176Y17870D1*
X24276Y17944D1*
X24389Y17997D1*
X24510Y18029D1*
X24634Y18036D1*
X24758Y18021D1*
X24877Y17982D1*
X24986Y17921D1*
X25082Y17841D1*
X25161Y17745D1*
X25220Y17635D1*
X25258Y17516D1*
X25272Y17378D1*
X25260Y17254D1*
X21151Y16863D2*
X21047Y16939D1*
X20951Y17056D1*
X20845Y16935D1*
X20779Y16887D1*
X20778Y16249D1*
X20956Y16243D1*
X20899Y16247D1*
X21149Y16253D1*
Y16866D1*
X20119Y16886D2*
X20047Y16939D1*
X19951Y17056D1*
X19845Y16935D1*
X19779Y16887D1*
X19778Y15825D1*
X19755Y15703D1*
X19681Y15592D1*
X19248Y15158D1*
X19438Y15157D1*
X19798Y15516D1*
X19796Y16247D1*
X20121D1*
X20118Y16884D1*
X19119Y16886D2*
X19047Y16939D1*
X18951Y17056D1*
X18863Y16952D1*
X18765Y16875D1*
X18653Y16820D1*
X18532Y16789D1*
X18408Y16784D1*
X18285Y16806D1*
X18169Y16853D1*
X18066Y16922D1*
X17979Y17012D1*
X17948Y17056D1*
X17845Y16935D1*
X17744Y16862D1*
X17705Y16845D1*
X17706Y16628D1*
X17683Y16506D1*
X17610Y16395D1*
X16922Y15707D1*
X17755Y15708D1*
X17752Y15899D1*
Y16509D1*
X18991D1*
Y15833D1*
X19119Y15962D1*
X19118Y16884D1*
X17044Y16942D2*
X16951Y17056D1*
X16845Y16935D1*
X16744Y16862D1*
X16630Y16811D1*
X16508Y16786D1*
X16383Y16787D1*
X16261Y16813D1*
X16147Y16865D1*
X16047Y16939D1*
X15951Y17056D1*
X15845Y16935D1*
X15744Y16862D1*
X15630Y16811D1*
X15508Y16786D1*
X15383Y16787D1*
X15261Y16813D1*
X15147Y16865D1*
X15047Y16939D1*
X14951Y17056D1*
X14845Y16935D1*
X14744Y16862D1*
X14630Y16811D1*
X14508Y16786D1*
X14383Y16787D1*
X14261Y16813D1*
X14147Y16865D1*
X14047Y16939D1*
X13951Y17056D1*
X13845Y16935D1*
X13744Y16862D1*
X13630Y16811D1*
X13508Y16786D1*
X13383Y16787D1*
X13261Y16813D1*
X13147Y16865D1*
X13047Y16939D1*
X12951Y17056D1*
X12874Y16967D1*
X13177Y16669D1*
X14329Y15517D1*
X14393Y15611D1*
X14893Y16111D1*
X14996Y16181D1*
X15126Y16208D1*
X16490D1*
X17048Y16766D1*
X17046Y16937D1*
X9565Y16798D2*
X9449Y16786D1*
X9458Y16698D1*
Y16249D1*
X10113Y16247D1*
X9566Y16794D1*
X9457Y16703D1*
X8285Y14479D2*
X8266Y14355D1*
X8223Y14238D1*
X8156Y14133D1*
X8068Y14044D1*
X8012Y14003D1*
X8096Y13939D1*
X8178Y13845D1*
X8238Y13736D1*
X8274Y13616D1*
X8285Y13504D1*
X8272Y13380D1*
X8234Y13261D1*
X8171Y13153D1*
X8087Y13060D1*
X8008Y13003D1*
X8077Y12956D1*
X8163Y12865D1*
X8228Y12759D1*
X8269Y12641D1*
X8285Y12517D1*
X8277Y12404D1*
X8243Y12284D1*
X8185Y12173D1*
X8106Y12077D1*
X8012Y12003D1*
X8096Y11939D1*
X8178Y11845D1*
X8238Y11736D1*
X8274Y11616D1*
X8285Y11504D1*
X8272Y11380D1*
X8234Y11261D1*
X8171Y11153D1*
X8087Y11060D1*
X8008Y11003D1*
X8096Y10939D1*
X8178Y10845D1*
X8238Y10736D1*
X8274Y10616D1*
X8285Y10504D1*
X8272Y10380D1*
X8234Y10261D1*
X8171Y10153D1*
X8087Y10060D1*
X8008Y10003D1*
X8096Y9939D1*
X8178Y9845D1*
X8238Y9736D1*
X8274Y9616D1*
X8285Y9504D1*
X8272Y9380D1*
X8234Y9261D1*
X8171Y9153D1*
X8087Y9060D1*
X8008Y9003D1*
X8096Y8939D1*
X8178Y8845D1*
X8238Y8736D1*
X8274Y8616D1*
X8285Y8504D1*
X8272Y8380D1*
X8234Y8261D1*
X8171Y8153D1*
X8087Y8060D1*
X7986Y7987D1*
X7872Y7937D1*
X7750Y7912D1*
X7625D1*
X7503Y7939D1*
X7389Y7990D1*
X7289Y8064D1*
X7193Y8181D1*
X7087Y8060D1*
X6986Y7987D1*
X6872Y7937D1*
X6750Y7912D1*
X6625D1*
X6503Y7939D1*
X6389Y7990D1*
X6289Y8064D1*
X6206Y8158D1*
X6145Y8266D1*
X6107Y8385D1*
X6095Y8509D1*
X6110Y8633D1*
X6149Y8752D1*
X6213Y8859D1*
X6298Y8951D1*
X6371Y9002D1*
X6289Y9064D1*
X6206Y9158D1*
X6145Y9266D1*
X6107Y9385D1*
X6095Y9509D1*
X6110Y9633D1*
X6149Y9752D1*
X6213Y9859D1*
X6298Y9951D1*
X6371Y10002D1*
X6289Y10064D1*
X6206Y10158D1*
X6145Y10266D1*
X6107Y10385D1*
X6095Y10509D1*
X6110Y10633D1*
X6149Y10752D1*
X6213Y10859D1*
X6298Y10951D1*
X6371Y11002D1*
X6289Y11064D1*
X6206Y11158D1*
X6145Y11266D1*
X6107Y11385D1*
X6095Y11509D1*
X6110Y11633D1*
X6149Y11752D1*
X6213Y11859D1*
X6298Y11951D1*
X6371Y12002D1*
X6289Y12064D1*
X6206Y12158D1*
X6145Y12266D1*
X6107Y12385D1*
X6095Y12509D1*
X6110Y12633D1*
X6149Y12752D1*
X6213Y12859D1*
X6298Y12951D1*
X6371Y13002D1*
X6289Y13064D1*
X6206Y13158D1*
X6145Y13266D1*
X6107Y13385D1*
X6095Y13509D1*
X6110Y13633D1*
X6149Y13752D1*
X6213Y13859D1*
X6298Y13951D1*
X6371Y14002D1*
X6289Y14064D1*
X6206Y14158D1*
X6145Y14266D1*
X6107Y14385D1*
X6095Y14509D1*
X6110Y14633D1*
X6149Y14752D1*
X6213Y14859D1*
X6298Y14951D1*
X6399Y15023D1*
X6514Y15072D1*
X6636Y15096D1*
X6761Y15094D1*
X6883Y15067D1*
X6996Y15014D1*
X7096Y14939D1*
X7191Y14821D1*
X7228Y14879D1*
X7317Y14967D1*
X7422Y15034D1*
X7538Y15079D1*
X7661Y15098D1*
X7786Y15091D1*
X7906Y15058D1*
X8017Y15001D1*
X8114Y14922D1*
X8192Y14824D1*
X8247Y14713D1*
X8279Y14592D1*
X8285Y14479D1*
X24456Y8209D2*
X24513Y8220D1*
X24638Y8219D1*
X24760Y8191D1*
X24873Y8138D1*
X24973Y8063D1*
X25055Y7969D1*
X25115Y7860D1*
X25151Y7741D1*
X25162Y7628D1*
X25149Y7504D1*
X25110Y7385D1*
X25048Y7277D1*
X24964Y7185D1*
X24863Y7112D1*
X24749Y7061D1*
X24627Y7036D1*
X24502D1*
X24380Y7063D1*
X24266Y7115D1*
X24166Y7189D1*
X24083Y7282D1*
X24022Y7390D1*
X23984Y7509D1*
X23972Y7634D1*
X23980Y7748D1*
X22928Y8800D1*
X20692Y8798D1*
X9753D1*
X9631Y8821D1*
X9520Y8895D1*
X9418Y8997D1*
X9415Y8024D1*
X8473D1*
Y9095D1*
X9321D1*
X8457Y9957D1*
X8387Y10060D1*
X8361Y10191D1*
Y14316D1*
X8384Y14438D1*
X8457Y14549D1*
X8696Y14791D1*
Y14965D1*
X8801D1*
X8798Y15628D1*
Y16562D1*
X8565Y16798D1*
X8508Y16786D1*
X8383Y16787D1*
X8261Y16813D1*
X8147Y16865D1*
X8047Y16939D1*
X7951Y17056D1*
X7863Y16952D1*
X7765Y16875D1*
X7653Y16820D1*
X7532Y16789D1*
X7408Y16784D1*
X7285Y16806D1*
X7169Y16853D1*
X7066Y16922D1*
X6979Y17012D1*
X6913Y17118D1*
X6871Y17235D1*
X6853Y17359D1*
X6863Y17483D1*
X6897Y17603D1*
X6956Y17713D1*
X7037Y17808D1*
X7136Y17884D1*
X7248Y17938D1*
X7370Y17968D1*
X7494Y17971D1*
X7617Y17949D1*
X7732Y17901D1*
X7835Y17830D1*
X7921Y17740D1*
X7948Y17701D1*
X8055Y17825D1*
X8157Y17897D1*
X8272Y17946D1*
X8394Y17971D1*
X8519Y17969D1*
X8641Y17941D1*
X8754Y17888D1*
X8854Y17814D1*
X8949Y17696D1*
X8971Y17733D1*
X9055Y17825D1*
X9157Y17897D1*
X9272Y17946D1*
X9394Y17971D1*
X9519Y17969D1*
X9641Y17941D1*
X9754Y17888D1*
X9854Y17814D1*
X9949Y17696D1*
X9971Y17733D1*
X10055Y17825D1*
X10157Y17897D1*
X10272Y17946D1*
X10394Y17971D1*
X10519Y17969D1*
X10641Y17941D1*
X10754Y17888D1*
X10854Y17814D1*
X10949Y17696D1*
X10971Y17733D1*
X11055Y17825D1*
X11157Y17897D1*
X11272Y17946D1*
X11394Y17971D1*
X11519Y17969D1*
X11641Y17941D1*
X11754Y17888D1*
X11854Y17814D1*
X11949Y17696D1*
X11971Y17733D1*
X12055Y17825D1*
X12157Y17897D1*
X12272Y17946D1*
X12394Y17971D1*
X12519Y17969D1*
X12641Y17941D1*
X12754Y17888D1*
X12854Y17814D1*
X12949Y17696D1*
X12971Y17733D1*
X13055Y17825D1*
X13157Y17897D1*
X13272Y17946D1*
X13394Y17971D1*
X13519Y17969D1*
X13641Y17941D1*
X13754Y17888D1*
X13854Y17814D1*
X13949Y17696D1*
X13971Y17733D1*
X14055Y17825D1*
X14157Y17897D1*
X14272Y17946D1*
X14394Y17971D1*
X14519Y17969D1*
X14641Y17941D1*
X14754Y17888D1*
X14854Y17814D1*
X14949Y17696D1*
X14971Y17733D1*
X15055Y17825D1*
X15157Y17897D1*
X15272Y17946D1*
X15394Y17971D1*
X15519Y17969D1*
X15641Y17941D1*
X15754Y17888D1*
X15854Y17814D1*
X15949Y17696D1*
X15971Y17733D1*
X16055Y17825D1*
X16157Y17897D1*
X16272Y17946D1*
X16394Y17971D1*
X16519Y17969D1*
X16641Y17941D1*
X16754Y17888D1*
X16854Y17814D1*
X16949Y17696D1*
X16971Y17733D1*
X17055Y17825D1*
X17157Y17897D1*
X17272Y17946D1*
X17394Y17971D1*
X17519Y17969D1*
X17641Y17941D1*
X17754Y17888D1*
X17854Y17814D1*
X17949Y17695D1*
X17971Y17733D1*
X18055Y17825D1*
X18157Y17897D1*
X18272Y17946D1*
X18394Y17971D1*
X18519Y17969D1*
X18641Y17941D1*
X18754Y17888D1*
X18854Y17814D1*
X18936Y17719D1*
X18949Y17696D1*
X18971Y17733D1*
X19055Y17825D1*
X19157Y17897D1*
X19272Y17946D1*
X19394Y17971D1*
X19519Y17969D1*
X19641Y17941D1*
X19754Y17888D1*
X19854Y17814D1*
X19949Y17696D1*
X19971Y17733D1*
X20055Y17825D1*
X20157Y17897D1*
X20272Y17946D1*
X20394Y17971D1*
X20519Y17969D1*
X20641Y17941D1*
X20754Y17888D1*
X20854Y17814D1*
X20949Y17696D1*
X20971Y17733D1*
X21055Y17825D1*
X21157Y17897D1*
X21272Y17946D1*
X21394Y17971D1*
X21519Y17969D1*
X21641Y17941D1*
X21754Y17888D1*
X21854Y17814D1*
X21949Y17695D1*
X21971Y17733D1*
X22055Y17825D1*
X22157Y17897D1*
X22272Y17946D1*
X22394Y17971D1*
X22519Y17969D1*
X22641Y17941D1*
X22754Y17888D1*
X22854Y17814D1*
X22936Y17719D1*
X22996Y17610D1*
X23032Y17491D1*
X23043Y17378D1*
X23030Y17254D1*
X22991Y17135D1*
X22929Y17027D1*
X22845Y16935D1*
X22744Y16862D1*
X22630Y16811D1*
X22508Y16786D1*
X22383Y16787D1*
X22261Y16813D1*
X22147Y16865D1*
X22047Y16939D1*
X21964Y17032D1*
X21948Y17056D1*
X21845Y16935D1*
X21810Y16910D1*
X21809Y16250D1*
X22059Y16247D1*
Y15009D1*
X21828D1*
X21831Y14711D1*
X22318Y14708D1*
X22316Y14938D1*
X23437D1*
Y13818D1*
X23222D1*
X23303Y13741D1*
X23373Y13638D1*
X23418Y13522D1*
X23437Y13378D1*
X23423Y13254D1*
X23382Y13136D1*
X23316Y13030D1*
X23228Y12942D1*
X23126Y12877D1*
X23212Y12827D1*
X23303Y12741D1*
X23373Y12638D1*
X23418Y12522D1*
X23436Y12398D1*
X23428Y12279D1*
X23392Y12159D1*
X23331Y12050D1*
X23247Y11958D1*
X23145Y11886D1*
X23129Y11878D1*
X23212Y11827D1*
X23303Y11741D1*
X23373Y11638D1*
X23418Y11522D1*
X23437Y11378D1*
X23423Y11254D1*
X23382Y11136D1*
X23316Y11030D1*
X23228Y10942D1*
X23126Y10877D1*
X23212Y10827D1*
X23303Y10741D1*
X23373Y10638D1*
X23418Y10522D1*
X23437Y10378D1*
X23423Y10254D1*
X23382Y10136D1*
X23316Y10030D1*
X23228Y9942D1*
X23123Y9875D1*
X23005Y9833D1*
X22881Y9818D1*
X22757Y9831D1*
X22639Y9870D1*
X22533Y9936D1*
X22428Y10045D1*
X21376Y10048D1*
X12876D1*
X12754Y10072D1*
X12643Y10145D1*
X12393Y10395D1*
X12323Y10498D1*
X12296Y10632D1*
X11546Y10634D1*
X10444D1*
Y10692D1*
X10185Y10696D1*
X9446D1*
X9450Y11856D1*
X9446Y11798D1*
Y12841D1*
X9267Y13024D1*
X9185Y13096D1*
X9070D1*
Y14020D1*
X9020Y14039D1*
Y10328D1*
X9888Y9460D1*
X14003Y9458D1*
X23067D1*
X23189Y9435D1*
X23300Y9361D1*
X24452Y8210D1*
X25162Y8916D2*
X25143Y8792D1*
X25100Y8675D1*
X25033Y8570D1*
X24945Y8481D1*
X24841Y8412D1*
X24725Y8367D1*
X24602Y8347D1*
X24477Y8352D1*
X24356Y8384D1*
X24245Y8440D1*
X24148Y8518D1*
X24069Y8615D1*
X24012Y8726D1*
X23980Y8847D1*
X23973Y8971D1*
X23992Y9095D1*
X24037Y9211D1*
X24105Y9316D1*
X24194Y9404D1*
X24298Y9471D1*
X24415Y9516D1*
X24538Y9535D1*
X24663Y9528D1*
X24783Y9495D1*
X24894Y9438D1*
X24991Y9359D1*
X25068Y9261D1*
X25124Y9149D1*
X25156Y9029D1*
X25162Y8916D1*
X15509Y13048D2*
Y11962D1*
X16501Y11958D1*
X18990D1*
X20078Y13046D1*
X15513Y13048D1*
X23787Y14846D2*
X25113D1*
X25114Y12775D1*
X25102D1*
X25104Y11906D1*
X25114Y11908D1*
Y10837D1*
X25102D1*
X25104Y9837D1*
X23725D1*
Y10839D1*
X23600Y10837D1*
Y11908D1*
X23729D1*
X23725Y12337D1*
Y12778D1*
X23600Y12775D1*
Y13846D1*
X23666D1*
X23662Y14275D1*
Y14846D1*
X23787D1*
X23225Y17971D2*
X23748D1*
Y16900D1*
X23100D1*
Y17971D1*
X23225D1*
X6036D2*
X6838D1*
Y16900D1*
X5911D1*
Y17971D1*
X6036D1*
X7800Y16221D2*
X8324D1*
Y15150D1*
X7675D1*
Y16221D1*
X7800D1*
X15662Y14971D2*
X16185D1*
Y13900D1*
X15537D1*
Y14971D1*
X15662D1*
X5098Y9158D2*
X5929D1*
Y8087D1*
X4973D1*
Y9158D1*
X5098D1*
X6363Y16221D2*
X7015D1*
Y15150D1*
X6238D1*
Y16221D1*
X6363D1*
X22975Y8033D2*
X23656D1*
Y6961D1*
X22850D1*
Y8033D1*
X22975D1*
X13724Y7268D2*
X18165D1*
Y5836D1*
X13599D1*
Y7268D1*
X13724D1*
X4315Y18004D2*
Y4378D1*
X25376D1*
Y18128D1*
X4315Y18129D1*
Y18004D1*
X21501Y12776D2*
D13*
Y12196D1*
X20882Y12776D2*
X22120D1*
X22480Y12774D2*
X23272Y11982D1*
Y12774D2*
X22480Y11982D1*
X22028Y17798D2*
X22869Y16958D1*
Y17798D2*
X22028Y16958D1*
X18028Y17798D2*
X18869Y16958D1*
Y17798D2*
X18028Y16958D1*
X7028Y17798D2*
X7869Y16958D1*
Y17798D2*
X7028Y16958D1*
X7270Y14924D2*
X8111Y14083D1*
Y14924D2*
X7690Y14504D1*
Y12504D2*
X8111Y12083D1*
Y12924D2*
X7690Y12504D1*
X24147Y9361D2*
X24988Y8520D1*
Y9361D2*
X24147Y8520D1*
X18371Y16509D2*
Y15929D1*
X17752D2*
X18990D1*
X11626Y14628D2*
Y13970D1*
X11244Y14628D2*
X11626D1*
X13626Y12502D2*
Y11844D1*
D15*
X21501Y13878D3*
Y12776D3*
D16*
X22876Y14378D3*
D17*
Y13378D3*
Y12378D3*
Y11378D3*
Y10378D3*
D18*
X22448Y17378D3*
X21448D3*
X20448D3*
X19448D3*
X18448D3*
X17448D3*
X16448D3*
X15448D3*
X14448D3*
X13448D3*
X12448D3*
X11448D3*
X10448D3*
X9448D3*
X8448D3*
X7448D3*
X7690Y14504D3*
X6690D3*
X7690Y13504D3*
X6690D3*
X7690Y12504D3*
X6690D3*
X7690Y11504D3*
X6690D3*
X7690Y10504D3*
X6690D3*
X7690Y9504D3*
X6690D3*
X7690Y8504D3*
X6690D3*
X24567Y7628D3*
Y8941D3*
D19*
X9876Y14503D3*
X9128D3*
X9502Y13558D3*
D20*
X20376Y15628D3*
X21479D3*
D15*
X18371Y15929D3*
Y14827D3*
D20*
X9876Y15628D3*
X10979D3*
D15*
X10066Y12378D3*
Y11276D3*
D20*
X12126Y11253D3*
X11024D3*
D21*
X15126Y14628D3*
X14626D3*
X14126D3*
X13626D3*
X13126D3*
X12626D3*
X12126D3*
X11626D3*
Y12502D3*
X12126D3*
X12626D3*
X13126D3*
X13626D3*
X14126D3*
X14626D3*
X15126D3*
X24080Y14457D2*
D41*
Y14199D1*
X23951Y14328D2*
X24209D1*
X24474Y14479D2*
X24330D1*
X24316Y14350D1*
X24330Y14364D1*
X24373Y14379D1*
X24416D1*
X24459Y14364D1*
X24488Y14335D1*
X24502Y14292D1*
Y14264D1*
X24488Y14221D1*
X24459Y14192D1*
X24416Y14178D1*
X24373D1*
X24330Y14192D1*
X24316Y14206D1*
X24302Y14235D1*
X24595Y14479D2*
X24710Y14178D1*
X24825Y14479D1*
X24228Y12470D2*
X24214Y12498D1*
X24185Y12527D1*
X24157Y12541D1*
X24099D1*
X24070Y12527D1*
X24042Y12498D1*
X24027Y12470D1*
X24013Y12427D1*
Y12355D1*
X24027Y12312D1*
X24042Y12283D1*
X24070Y12254D1*
X24099Y12240D1*
X24157D1*
X24185Y12254D1*
X24214Y12283D1*
X24228Y12312D1*
Y12355D1*
X24157D1*
X24522Y12541D2*
Y12240D1*
X24321Y12541D1*
Y12240D1*
X24615Y12541D2*
Y12240D1*
X24715D1*
X24758Y12254D1*
X24787Y12283D1*
X24801Y12312D1*
X24815Y12355D1*
Y12427D1*
X24801Y12470D1*
X24787Y12498D1*
X24758Y12527D1*
X24715Y12541D1*
X24615D1*
X24118Y11240D2*
Y11541D1*
X24003Y11240D1*
X23888Y11541D1*
Y11240D1*
X24210Y11541D2*
Y11240D1*
X24504Y11498D2*
X24475Y11527D1*
X24432Y11541D1*
X24375D1*
X24332Y11527D1*
X24303Y11498D1*
Y11470D1*
X24317Y11441D1*
X24332Y11427D1*
X24360Y11412D1*
X24446Y11383D1*
X24475Y11369D1*
X24490Y11355D1*
X24504Y11326D1*
Y11283D1*
X24475Y11254D1*
X24432Y11240D1*
X24375D1*
X24332Y11254D1*
X24303Y11283D1*
X24683Y11541D2*
X24654Y11527D1*
X24625Y11498D1*
X24611Y11470D1*
X24596Y11427D1*
Y11355D1*
X24611Y11312D1*
X24625Y11283D1*
X24654Y11254D1*
X24683Y11240D1*
X24740D1*
X24769Y11254D1*
X24797Y11283D1*
X24812Y11312D1*
X24826Y11355D1*
Y11427D1*
X24812Y11470D1*
X24797Y11498D1*
X24769Y11527D1*
X24740Y11541D1*
X24683D1*
X24214Y10498D2*
X24186Y10527D1*
X24142Y10541D1*
X24085D1*
X24042Y10527D1*
X24013Y10498D1*
Y10470D1*
X24028Y10441D1*
X24042Y10426D1*
X24070Y10412D1*
X24157Y10383D1*
X24186Y10369D1*
X24200Y10354D1*
X24214Y10326D1*
Y10283D1*
X24186Y10254D1*
X24142Y10240D1*
X24085D1*
X24042Y10254D1*
X24013Y10283D1*
X24522Y10470D2*
X24508Y10498D1*
X24479Y10527D1*
X24450Y10541D1*
X24393D1*
X24364Y10527D1*
X24336Y10498D1*
X24321Y10470D1*
X24307Y10426D1*
Y10354D1*
X24321Y10312D1*
X24336Y10283D1*
X24364Y10254D1*
X24393Y10240D1*
X24450D1*
X24479Y10254D1*
X24508Y10283D1*
X24522Y10312D1*
X24615Y10541D2*
Y10240D1*
X24815Y10541D2*
X24615Y10340D1*
X24686Y10412D2*
X24815Y10240D1*
X24118Y13178D2*
Y13479D1*
X24003Y13178D1*
X23888Y13479D1*
Y13178D1*
X24296Y13479D2*
X24268Y13465D1*
X24239Y13436D1*
X24224Y13407D1*
X24210Y13364D1*
Y13292D1*
X24224Y13249D1*
X24239Y13221D1*
X24268Y13192D1*
X24296Y13178D1*
X24354D1*
X24382Y13192D1*
X24411Y13221D1*
X24425Y13249D1*
X24440Y13292D1*
Y13364D1*
X24425Y13407D1*
X24411Y13436D1*
X24382Y13465D1*
X24354Y13479D1*
X24296D1*
X24733Y13436D2*
X24705Y13465D1*
X24662Y13479D1*
X24604D1*
X24561Y13465D1*
X24532Y13436D1*
Y13407D1*
X24547Y13378D1*
X24561Y13364D1*
X24590Y13350D1*
X24676Y13321D1*
X24705Y13307D1*
X24719Y13292D1*
X24733Y13264D1*
Y13221D1*
X24705Y13192D1*
X24662Y13178D1*
X24604D1*
X24561Y13192D1*
X24532Y13221D1*
X24826Y13479D2*
Y13178D1*
X23388Y17547D2*
X23417Y17561D1*
X23460Y17604D1*
Y17303D1*
X6199Y17547D2*
X6228Y17561D1*
X6271Y17604D1*
Y17303D1*
X6535Y17561D2*
X6521Y17590D1*
X6478Y17604D1*
X6450D1*
X6406Y17590D1*
X6378Y17547D1*
X6363Y17475D1*
Y17403D1*
X6378Y17346D1*
X6406Y17317D1*
X6450Y17303D1*
X6464D1*
X6507Y17317D1*
X6535Y17346D1*
X6550Y17389D1*
Y17403D1*
X6535Y17447D1*
X6507Y17475D1*
X6464Y17489D1*
X6450D1*
X6406Y17475D1*
X6378Y17447D1*
X6363Y17403D1*
X7964Y15796D2*
X7992Y15811D1*
X8036Y15854D1*
Y15553D1*
X15825Y14546D2*
X15854Y14561D1*
X15897Y14604D1*
Y14303D1*
X5261Y8733D2*
X5290Y8748D1*
X5333Y8791D1*
Y8490D1*
X5569D2*
Y8791D1*
X5426Y8590D1*
X5641D1*
X6541Y15782D2*
Y15796D1*
X6555Y15825D1*
X6569Y15840D1*
X6598Y15854D1*
X6655D1*
X6684Y15840D1*
X6698Y15825D1*
X6713Y15796D1*
Y15768D1*
X6698Y15739D1*
X6670Y15696D1*
X6526Y15553D1*
X6727D1*
X8761Y8671D2*
X8790Y8685D1*
X8833Y8728D1*
Y8427D1*
X8955Y8728D2*
X9112D1*
X9027Y8613D1*
X9070D1*
X9098Y8599D1*
X9112Y8585D1*
X9127Y8542D1*
Y8513D1*
X9112Y8470D1*
X9084Y8441D1*
X9041Y8427D1*
X8998D1*
X8955Y8441D1*
X8941Y8456D1*
X8926Y8484D1*
X23368Y7364D2*
X23253Y7666D1*
X23138Y7364D1*
X23181Y7465D2*
X23325D1*
X14285Y6331D2*
D42*
X14094Y6833D1*
X13902Y6331D1*
X13974Y6498D2*
X14214D1*
X14703Y6594D2*
X14679Y6642D1*
X14607Y6666D1*
X14535D1*
X14464Y6642D1*
X14440Y6594D1*
X14464Y6546D1*
X14512Y6522D1*
X14631Y6498D1*
X14679Y6475D1*
X14703Y6426D1*
Y6403D1*
X14679Y6355D1*
X14607Y6331D1*
X14535D1*
X14464Y6355D1*
X14440Y6403D1*
X15145Y6594D2*
X15097Y6642D1*
X15049Y6666D1*
X14977D1*
X14929Y6642D1*
X14882Y6594D1*
X14857Y6522D1*
Y6475D1*
X14882Y6403D1*
X14929Y6355D1*
X14977Y6331D1*
X15049D1*
X15097Y6355D1*
X15145Y6403D1*
X15299Y6522D2*
X15586D1*
Y6570D1*
X15562Y6618D1*
X15538Y6642D1*
X15490Y6666D1*
X15419D1*
X15371Y6642D1*
X15323Y6594D1*
X15299Y6522D1*
Y6475D1*
X15323Y6403D1*
X15371Y6355D1*
X15419Y6331D1*
X15490D1*
X15538Y6355D1*
X15586Y6403D1*
X15812Y6833D2*
Y6426D1*
X15836Y6355D1*
X15884Y6331D1*
X15932D1*
X15740Y6666D2*
X15908D1*
X16572Y6833D2*
Y6331D1*
X16859D1*
X17372Y6714D2*
X17348Y6761D1*
X17300Y6809D1*
X17253Y6833D1*
X17157D1*
X17109Y6809D1*
X17061Y6761D1*
X17037Y6714D1*
X17013Y6642D1*
Y6522D1*
X17037Y6451D1*
X17061Y6403D1*
X17109Y6355D1*
X17157Y6331D1*
X17253D1*
X17300Y6355D1*
X17348Y6403D1*
X17372Y6451D1*
X17526Y6833D2*
Y6331D1*
X17694D1*
X17766Y6355D1*
X17814Y6403D1*
X17838Y6451D1*
X17861Y6522D1*
Y6642D1*
X17838Y6714D1*
X17814Y6761D1*
X17766Y6809D1*
X17694Y6833D1*
X17526D1*
M02*
