M48
INCH
T01C0.0354
T02C0.0394
T03C0.0787
%
T01
X+022876Y+014378
X+022876Y+013378
X+022876Y+012378
X+022876Y+011378
X+022876Y+010378
T02
X+022448Y+017378
X+021448Y+017378
X+020448Y+017378
X+019448Y+017378
X+018448Y+017378
X+017448Y+017378
X+016448Y+017378
X+015448Y+017378
X+014448Y+017378
X+013448Y+017378
X+012448Y+017378
X+011448Y+017378
X+010448Y+017378
X+009448Y+017378
X+008448Y+017378
X+007448Y+017378
X+007690Y+014504
X+006690Y+014504
X+006690Y+013504
X+007690Y+013504
X+007690Y+012504
X+006690Y+012504
X+006690Y+011504
X+007690Y+011504
X+007690Y+010504
X+006690Y+010504
X+006690Y+009504
X+007690Y+009504
X+007690Y+008504
X+006690Y+008504
X+024567Y+008941
X+024567Y+007628
T03
X+024614Y+005173
X+024614Y+017378
X+006878Y+006065
T00
M30
