G04 CAM Products 2000  RS274-X Output*
G04 Serial Number: 0000-00-00000*
G04 File Name:Z:\media\yandex\zakaz_moduli_lcd_bt\lcd_shield\gerberRS274X\lcd_modul_bot.gbr *
%FSLAX34Y34*%
%MOIN*%
%SFA1B1*%

%IPPOS*%
%ADD11C,0.006000*%
%ADD13C,0.013000*%
%ADD14C,0.025000*%
%ADD15R,0.070900X0.063000*%
%ADD16R,0.059100X0.059100*%
%ADD17C,0.059100*%
%ADD18C,0.066000*%
%ADD19R,0.033500X0.039400*%
%ADD20R,0.063000X0.070900*%
%ADD21R,0.023600X0.078700*%
%ADD22C,0.078700*%
%ADD26R,0.031600X0.086700*%
%ADD28R,0.071000X0.078900*%
%ADD30R,0.041500X0.047400*%
%ADD32C,0.074000*%
%ADD34C,0.067100*%
%ADD36R,0.067100X0.067100*%
%ADD38R,0.078900X0.071000*%
%ADD41C,0.004600*%
%ADD42C,0.007700*%
%ADD500C,0.035400*%
%ADD501C,0.039400*%
%ADD502C,0.078700*%
%LNlcd_modul_bot-1*%
%LPD*%
G54D13*
X6690Y14504D02*
Y14566D01*
X7315Y15191*
X20567*
X21380Y14378*
X22876*
X7690Y13504D02*
X8941D01*
X9566Y12878*
X23380*
X23755Y13253*
Y15066*
X23567Y15254*
X21504*
X20448Y16310*
Y17378*
X6690Y13504D02*
X7190Y14004D01*
X9691*
X9816Y13879*
X23380*
X23442Y13941*
Y14879*
X23380Y14941*
X21317*
X19448Y16810*
Y17378*
X6690Y12504D02*
X6128Y13066D01*
Y14754*
X6878Y15504*
X15879*
X17448Y17073*
Y17378*
X7690Y9504D02*
Y9753D01*
X7440Y10003*
X6378*
X5815Y10566*
Y14879*
X6753Y15816*
X10691*
X12253Y17378*
X12448*
X11448D02*
Y17261D01*
X10316Y16129*
X6628*
X5503Y15004*
Y10378*
X6377Y9504*
X6690*
X7690Y8504D02*
X7190Y9003D01*
X6378*
X5190Y10191*
Y15129*
X6503Y16441*
X9511*
X10448Y17378*
X9448D02*
Y17324D01*
X8878Y16754*
X6378*
X4878Y15254*
Y10003*
X6377Y8504*
X6690*
G54D14*
X4403Y17880D02*
X7104D01*
X7791D02*
X8104D01*
X8791D02*
X9104D01*
X9791D02*
X10104D01*
X10791D02*
X11104D01*
X11791D02*
X12104D01*
X12791D02*
X13104D01*
X13791D02*
X14104D01*
X14791D02*
X15104D01*
X15791D02*
X16104D01*
X16791D02*
X17104D01*
X17791D02*
X18104D01*
X18791D02*
X19104D01*
X19791D02*
X20104D01*
X20791D02*
X21104D01*
X21791D02*
X22104D01*
X22791D02*
X24163D01*
X25065D02*
X25351D01*
X4403Y17632D02*
X6886D01*
X23010D02*
X23979D01*
X25248D02*
X25350D01*
X4403Y17383D02*
X6827D01*
X23069D02*
X23929D01*
X4403Y17134D02*
X6882D01*
X23014D02*
X23976D01*
X25252D02*
X25350D01*
X4403Y16886D02*
X6019D01*
X12807D02*
X13089D01*
X13807D02*
X14089D01*
X14807D02*
X15089D01*
X15807D02*
X16089D01*
X17807D02*
X18089D01*
X18807D02*
X19089D01*
X19865D02*
X20089D01*
X20807D02*
X21089D01*
X21807D02*
X22089D01*
X22807D02*
X24151D01*
X25076D02*
X25351D01*
X4403Y16637D02*
X5769D01*
X12002D02*
X16519D01*
X17502D02*
X19144D01*
X20803D02*
X25351D01*
X4403Y16388D02*
X5522D01*
X11756D02*
X16272D01*
X17256D02*
X19378D01*
X20862D02*
X25351D01*
X4403Y16140D02*
X5272D01*
X11506D02*
X16022D01*
X17006D02*
X19628D01*
X21112D02*
X25351D01*
X4403Y15891D02*
X5022D01*
X11256D02*
X15772D01*
X16756D02*
X19874D01*
X21358D02*
X25351D01*
X4403Y15642D02*
X4776D01*
X16510D02*
X20124D01*
X21608D02*
X25351D01*
X4403Y15393D02*
X4554D01*
X23920D02*
X25351D01*
X4403Y15145D02*
X4522D01*
X24100D02*
X25351D01*
X4403Y14896D02*
X4522D01*
X24108D02*
X25351D01*
X4403Y14647D02*
X4522D01*
X8291D02*
X20620D01*
X24108D02*
X25351D01*
X4403Y14399D02*
X4522D01*
X8299D02*
X20866D01*
X24108D02*
X25351D01*
X4403Y14150D02*
X4522D01*
X24108D02*
X25351D01*
X4403Y13901D02*
X4522D01*
X24108D02*
X25351D01*
X4403Y13653D02*
X4522D01*
X9283D02*
X9550D01*
X24108D02*
X25351D01*
X4403Y13404D02*
X4522D01*
X9533D02*
X22292D01*
X24108D02*
X25351D01*
X4403Y13155D02*
X4522D01*
X8197D02*
X8796D01*
X24096D02*
X25351D01*
X4403Y12907D02*
X4522D01*
X8154D02*
X9046D01*
X23901D02*
X25351D01*
X4403Y12658D02*
X4522D01*
X8291D02*
X9296D01*
X23651D02*
X25351D01*
X4403Y12409D02*
X4522D01*
X8303D02*
X22292D01*
X23459D02*
X25351D01*
X4403Y12160D02*
X4522D01*
X8201D02*
X22335D01*
X23416D02*
X25351D01*
X4403Y11912D02*
X4522D01*
X8147D02*
X22542D01*
X23213D02*
X25351D01*
X4403Y11663D02*
X4522D01*
X8287D02*
X22370D01*
X23385D02*
X25351D01*
X4403Y11414D02*
X4522D01*
X8303D02*
X22292D01*
X23459D02*
X25351D01*
X4403Y11166D02*
X4522D01*
X8205D02*
X22331D01*
X23420D02*
X25351D01*
X4403Y10917D02*
X4522D01*
X8143D02*
X22534D01*
X23221D02*
X25351D01*
X4403Y10668D02*
X4522D01*
X8287D02*
X22374D01*
X23381D02*
X25351D01*
X4403Y10420D02*
X4522D01*
X8303D02*
X22292D01*
X23459D02*
X25351D01*
X4403Y10171D02*
X4522D01*
X8209D02*
X22331D01*
X23420D02*
X25351D01*
X4403Y9922D02*
X4534D01*
X8139D02*
X22526D01*
X23229D02*
X25351D01*
X4403Y9674D02*
X4714D01*
X8287D02*
X25351D01*
X4403Y9425D02*
X4964D01*
X8307D02*
X24198D01*
X24936D02*
X25351D01*
X4403Y9176D02*
X5214D01*
X8213D02*
X23995D01*
X25139D02*
X25351D01*
X4403Y8928D02*
X5460D01*
X8131D02*
X23948D01*
X25186D02*
X25349D01*
X4403Y8679D02*
X5710D01*
X8283D02*
X24007D01*
X25127D02*
X25351D01*
X4403Y8430D02*
X5960D01*
X8307D02*
X24237D01*
X24897D02*
X25351D01*
X4403Y8181D02*
X6167D01*
X8217D02*
X24323D01*
X24811D02*
X25351D01*
X4403Y7933D02*
X6499D01*
X6881D02*
X7499D01*
X7881D02*
X24030D01*
X25104D02*
X25351D01*
X4403Y7684D02*
X23948D01*
X25186D02*
X25349D01*
X4403Y7435D02*
X23979D01*
X25154D02*
X25349D01*
X4403Y7187D02*
X24144D01*
X24990D02*
X25351D01*
X4403Y6938D02*
X25351D01*
X4403Y6689D02*
X6644D01*
X7112D02*
X25351D01*
X4403Y6441D02*
X6312D01*
X7444D02*
X25351D01*
X4403Y6192D02*
X6206D01*
X7549D02*
X25351D01*
X4403Y5943D02*
X6206D01*
X7549D02*
X25351D01*
X4403Y5695D02*
X6308D01*
X7447D02*
X24187D01*
X25041D02*
X25351D01*
X4403Y5446D02*
X6628D01*
X7127D02*
X23987D01*
X25237D02*
X25350D01*
X4403Y5197D02*
X23929D01*
X4403Y4949D02*
X23968D01*
X25256D02*
X25350D01*
X4403Y4700D02*
X24132D01*
X25096D02*
X25351D01*
X4403Y4451D02*
X25351D01*
X22344Y13211D02*
X22316Y13368D01*
X22328Y13492*
X22346Y13548*
X9816Y13549*
X9694Y13572*
X9582Y13645*
X9554Y13674*
X9234*
X9701Y13209*
X22343Y13208*
X23436Y12353D02*
X23417Y12230D01*
X23370Y12114*
X23300Y12011*
X23208Y11927*
X23129Y11878*
X23212Y11827*
X23303Y11741*
X23373Y11638*
X23418Y11522*
X23437Y11378*
X23423Y11254*
X23382Y11136*
X23316Y11030*
X23228Y10942*
X23126Y10877*
X23212Y10827*
X23303Y10741*
X23373Y10638*
X23418Y10522*
X23437Y10378*
X23423Y10254*
X23382Y10136*
X23316Y10030*
X23228Y9942*
X23123Y9875*
X23005Y9833*
X22881Y9818*
X22757Y9831*
X22639Y9870*
X22533Y9936*
X22443Y10023*
X22375Y10127*
X22332Y10244*
X22316Y10368*
X22328Y10492*
X22367Y10611*
X22431Y10718*
X22517Y10808*
X22625Y10878*
X22533Y10936*
X22443Y11023*
X22375Y11127*
X22332Y11244*
X22316Y11368*
X22328Y11492*
X22367Y11611*
X22431Y11718*
X22517Y11808*
X22625Y11878*
X22533Y11936*
X22443Y12023*
X22375Y12127*
X22332Y12244*
X22316Y12368*
X22328Y12492*
X22343Y12549*
X9566Y12548*
X9444Y12572*
X9332Y12645*
X8805Y13173*
X8187Y13174*
X8087Y13060*
X8008Y13003*
X8077Y12956*
X8163Y12865*
X8228Y12759*
X8269Y12641*
X8285Y12517*
X8277Y12404*
X8243Y12284*
X8185Y12173*
X8106Y12077*
X8012Y12003*
X8096Y11939*
X8178Y11845*
X8238Y11736*
X8275Y11616*
X8285Y11504*
X8272Y11380*
X8234Y11261*
X8171Y11153*
X8087Y11060*
X8008Y11003*
X8096Y10939*
X8178Y10845*
X8238Y10736*
X8275Y10616*
X8285Y10504*
X8272Y10380*
X8234Y10261*
X8171Y10153*
X8087Y10060*
X8008Y10003*
X8096Y9939*
X8178Y9845*
X8238Y9736*
X8275Y9616*
X8285Y9504*
X8272Y9380*
X8234Y9261*
X8171Y9153*
X8087Y9060*
X8008Y9003*
X8096Y8939*
X8178Y8845*
X8238Y8736*
X8275Y8616*
X8285Y8504*
X8272Y8380*
X8234Y8261*
X8171Y8153*
X8087Y8060*
X7986Y7987*
X7872Y7937*
X7750Y7912*
X7625*
X7503Y7939*
X7389Y7990*
X7289Y8064*
X7193Y8181*
X7087Y8060*
X6986Y7987*
X6872Y7937*
X6750Y7912*
X6625*
X6503Y7939*
X6389Y7990*
X6289Y8064*
X6206Y8158*
X6144Y8270*
X4644Y9770*
X4575Y9873*
X4548Y10003*
Y15254*
X4571Y15376*
X4644Y15487*
X6144Y16987*
X6247Y17057*
X6378Y17084*
X6929*
X6877Y17211*
X6855Y17334*
X6859Y17459*
X6888Y17580*
X6943Y17692*
X7019Y17791*
X7115Y17871*
X7225Y17930*
X7345Y17964*
X7469Y17973*
X7593Y17955*
X7710Y17912*
X7816Y17846*
X7905Y17759*
X7948Y17701*
X8055Y17825*
X8157Y17897*
X8272Y17946*
X8394Y17971*
X8519Y17969*
X8641Y17941*
X8754Y17888*
X8854Y17814*
X8949Y17695*
X8971Y17733*
X9055Y17825*
X9157Y17897*
X9272Y17946*
X9394Y17971*
X9519Y17969*
X9641Y17941*
X9754Y17888*
X9854Y17814*
X9949Y17695*
X9971Y17733*
X10055Y17825*
X10157Y17897*
X10272Y17946*
X10394Y17971*
X10519Y17969*
X10641Y17941*
X10754Y17888*
X10854Y17814*
X10949Y17695*
X10971Y17733*
X11055Y17825*
X11157Y17897*
X11272Y17946*
X11394Y17971*
X11519Y17969*
X11641Y17941*
X11754Y17888*
X11854Y17814*
X11949Y17695*
X11971Y17733*
X12055Y17825*
X12157Y17897*
X12272Y17946*
X12394Y17971*
X12519Y17969*
X12641Y17941*
X12754Y17888*
X12854Y17814*
X12949Y17695*
X12971Y17733*
X13055Y17825*
X13157Y17897*
X13272Y17946*
X13394Y17971*
X13519Y17969*
X13641Y17941*
X13754Y17888*
X13854Y17814*
X13949Y17695*
X13971Y17733*
X14055Y17825*
X14157Y17897*
X14272Y17946*
X14394Y17971*
X14519Y17969*
X14641Y17941*
X14754Y17888*
X14854Y17814*
X14949Y17695*
X14971Y17733*
X15055Y17825*
X15157Y17897*
X15272Y17946*
X15394Y17971*
X15519Y17969*
X15641Y17941*
X15754Y17888*
X15854Y17814*
X15949Y17695*
X15971Y17733*
X16055Y17825*
X16157Y17897*
X16272Y17946*
X16394Y17971*
X16519Y17969*
X16641Y17941*
X16754Y17888*
X16854Y17814*
X16949Y17695*
X16971Y17733*
X17055Y17825*
X17157Y17897*
X17272Y17946*
X17394Y17971*
X17519Y17969*
X17641Y17941*
X17754Y17888*
X17854Y17814*
X17949Y17695*
X17986Y17753*
X18075Y17841*
X18179Y17909*
X18296Y17953*
X18419Y17972*
X18544Y17965*
X18664Y17932*
X18775Y17875*
X18872Y17796*
X18948Y17701*
X19055Y17825*
X19157Y17897*
X19272Y17946*
X19394Y17971*
X19519Y17969*
X19641Y17941*
X19754Y17888*
X19854Y17814*
X19949Y17695*
X19971Y17733*
X20055Y17825*
X20157Y17897*
X20272Y17946*
X20394Y17971*
X20519Y17969*
X20641Y17941*
X20754Y17888*
X20854Y17814*
X20949Y17695*
X20971Y17733*
X21055Y17825*
X21157Y17897*
X21272Y17946*
X21394Y17971*
X21519Y17969*
X21641Y17941*
X21754Y17888*
X21854Y17814*
X21949Y17695*
X21986Y17753*
X22075Y17841*
X22179Y17909*
X22296Y17953*
X22419Y17972*
X22544Y17965*
X22664Y17932*
X22775Y17875*
X22872Y17796*
X22949Y17699*
X23005Y17587*
X23037Y17466*
X23043Y17353*
X23024Y17230*
X22981Y17113*
X22914Y17008*
X22826Y16919*
X22722Y16850*
X22606Y16804*
X22483Y16784*
X22358Y16790*
X22237Y16822*
X22126Y16878*
X22029Y16956*
X21948Y17056*
X21845Y16935*
X21744Y16862*
X21630Y16811*
X21508Y16786*
X21383Y16787*
X21261Y16813*
X21147Y16865*
X21047Y16939*
X20951Y17056*
X20845Y16935*
X20779Y16887*
X20778Y16444*
X21640Y15585*
X23567Y15584*
X23689Y15560*
X23800Y15487*
X23988Y15299*
X24058Y15197*
X24085Y15066*
Y13253*
X24061Y13131*
X23988Y13020*
X23613Y12645*
X23506Y12575*
X23413Y12550*
X23432Y12448*
X23436Y12353*
X25260Y5049D02*
X25225Y4929D01*
X25168Y4818*
X25091Y4720*
X24997Y4638*
X24889Y4575*
X24772Y4534*
X24648Y4516*
X24523Y4521*
X24402Y4550*
X24288Y4601*
X24186Y4672*
X24099Y4762*
X24031Y4866*
X23983Y4982*
X23958Y5104*
X23957Y5229*
X23979Y5352*
X24024Y5468*
X24091Y5574*
X24176Y5665*
X24276Y5739*
X24389Y5793*
X24510Y5824*
X24634Y5832*
X24758Y5816*
X24877Y5777*
X24986Y5717*
X25082Y5637*
X25161Y5540*
X25220Y5430*
X25258Y5311*
X25272Y5173*
X25260Y5049*
X7525Y5941D02*
X7490Y5821D01*
X7433Y5710*
X7356Y5612*
X7262Y5530*
X7154Y5467*
X7036Y5426*
X6912Y5407*
X6788Y5413*
X6666Y5441*
X6552Y5492*
X6450Y5564*
X6363Y5654*
X6295Y5758*
X6248Y5874*
X6223Y5996*
X6221Y6121*
X6244Y6244*
X6289Y6360*
X6355Y6466*
X6440Y6557*
X6541Y6631*
X6653Y6685*
X6774Y6716*
X6899Y6724*
X7023Y6708*
X7141Y6669*
X7250Y6608*
X7346Y6528*
X7425Y6432*
X7484Y6322*
X7522Y6203*
X7537Y6065*
X7525Y5941*
X25260Y17254D02*
X25225Y17134D01*
X25168Y17023*
X25091Y16925*
X24997Y16843*
X24889Y16780*
X24772Y16739*
X24648Y16720*
X24523Y16726*
X24402Y16754*
X24288Y16805*
X24186Y16877*
X24099Y16967*
X24031Y17071*
X23983Y17187*
X23958Y17309*
X23957Y17434*
X23979Y17556*
X24024Y17673*
X24091Y17779*
X24176Y17870*
X24276Y17944*
X24389Y17997*
X24510Y18029*
X24634Y18036*
X24758Y18021*
X24877Y17982*
X24986Y17921*
X25082Y17841*
X25161Y17745*
X25220Y17635*
X25258Y17516*
X25272Y17378*
X25260Y17254*
X20119Y16886D02*
X20047Y16939D01*
X19951Y17056*
X19845Y16935*
X19810Y16910*
X20121Y16604*
X20118Y16884*
X19119Y16886D02*
X19047Y16939D01*
X18951Y17056*
X18863Y16952*
X18765Y16875*
X18653Y16820*
X18532Y16789*
X18408Y16784*
X18285Y16806*
X18169Y16853*
X18066Y16922*
X17979Y17012*
X17948Y17056*
X17845Y16935*
X17744Y16862*
X17669Y16829*
X16364Y15522*
X20272Y15521*
X19215Y16577*
X19145Y16679*
X19118Y16810*
Y16884*
X16946Y17058D02*
X16863Y16955D01*
X16744Y16862*
X16630Y16811*
X16508Y16786*
X16383Y16787*
X16261Y16813*
X16147Y16865*
X16047Y16939*
X15951Y17056*
X15845Y16935*
X15744Y16862*
X15630Y16811*
X15508Y16786*
X15383Y16787*
X15261Y16813*
X15147Y16865*
X15047Y16939*
X14951Y17056*
X14845Y16935*
X14744Y16862*
X14630Y16811*
X14508Y16786*
X14383Y16787*
X14261Y16813*
X14147Y16865*
X14047Y16939*
X13951Y17056*
X13845Y16935*
X13744Y16862*
X13630Y16811*
X13508Y16786*
X13383Y16787*
X13261Y16813*
X13147Y16865*
X13047Y16939*
X12951Y17056*
X12845Y16935*
X12744Y16862*
X12630Y16811*
X12508Y16786*
X12383Y16787*
X12261Y16813*
X12186Y16847*
X11174Y15833*
X15741Y15834*
X16794Y16886*
X25149Y7504D02*
X25110Y7385D01*
X25048Y7277*
X24964Y7185*
X24863Y7112*
X24749Y7061*
X24627Y7036*
X24502*
X24380Y7063*
X24266Y7115*
X24166Y7189*
X24083Y7282*
X24022Y7390*
X23984Y7509*
X23972Y7634*
X23986Y7758*
X24026Y7876*
X24090Y7983*
X24174Y8075*
X24276Y8147*
X24391Y8196*
X24513Y8220*
X24638Y8219*
X24760Y8191*
X24873Y8138*
X24973Y8063*
X25055Y7969*
X25115Y7860*
X25151Y7741*
X25162Y7628*
X25149Y7504*
X8285Y14479D02*
X8266Y14355D01*
X8260Y14333*
X9691Y14334*
X9813Y14310*
X9924Y14237*
X9953Y14208*
X21085Y14209*
X20431Y14860*
X8164Y14861*
X8217Y14781*
X8263Y14665*
X8284Y14542*
X8285Y14479*
X25162Y8916D02*
X25143Y8792D01*
X25100Y8675*
X25033Y8570*
X24945Y8481*
X24841Y8412*
X24725Y8367*
X24602Y8347*
X24477Y8352*
X24356Y8384*
X24245Y8440*
X24148Y8518*
X24069Y8615*
X24012Y8726*
X23980Y8847*
X23973Y8971*
X23992Y9095*
X24037Y9211*
X24105Y9316*
X24194Y9404*
X24298Y9471*
X24415Y9516*
X24538Y9535*
X24663Y9528*
X24783Y9495*
X24894Y9438*
X24991Y9359*
X25068Y9261*
X25124Y9149*
X25156Y9029*
X25162Y8916*
X4378Y18004D02*
Y4378D01*
X25376*
Y18128*
X4378Y18129*
Y18004*
G54D13*
X22876Y12378D02*
X23272Y11982D01*
X22876Y12378D02*
X22480Y11982D01*
X22028Y17798D02*
X22869Y16958D01*
Y17798D02*
X22028Y16958D01*
X18028Y17798D02*
X18869Y16958D01*
Y17798D02*
X18028Y16958D01*
X7028Y17798D02*
X7448Y17378D01*
X7869Y17798D02*
X7448Y17378D01*
X8111Y14924D02*
X7690Y14504D01*
Y12504D02*
X8111Y12083D01*
Y12924D02*
X7690Y12504D01*
X24147Y9361D02*
X24988Y8520D01*
Y9361D02*
X24147Y8520D01*
G54D16*
X22876Y14378D03*
G54D17*
X22876Y13378D03*
Y12378D03*
Y11378D03*
Y10378D03*
G54D18*
X22448Y17378D03*
X21448D03*
X20448D03*
X19448D03*
X18448D03*
X17448D03*
X16448D03*
X15448D03*
X14448D03*
X13448D03*
X12448D03*
X11448D03*
X10448D03*
X9448D03*
X8448D03*
X7448D03*
X7690Y14504D03*
X6690D03*
X7690Y13504D03*
X6690D03*
X7690Y12504D03*
X6690D03*
X7690Y11504D03*
X6690D03*
X7690Y10504D03*
X6690D03*
X7690Y9504D03*
X6690D03*
X7690Y8504D03*
X6690D03*
X24567Y7628D03*
Y8941D03*
M02*