G04 CAM Products 2000  RS274-X Output*
G04 Serial Number: 0000-00-00000*
G04 File Name:Z:\media\yandex\zakaz_moduli_lcd_bt\lcd_shield\gerberRS274X\lcd_modul_top.gbr *
%FSLAX34Y34*%
%MOIN*%
%SFA1B1*%

%IPPOS*%
%ADD11C,0.006000*%
%ADD13C,0.013000*%
%ADD14C,0.025000*%
%ADD15R,0.070900X0.063000*%
%ADD16R,0.059100X0.059100*%
%ADD17C,0.059100*%
%ADD18C,0.066000*%
%ADD19R,0.033500X0.039400*%
%ADD20R,0.063000X0.070900*%
%ADD21R,0.023600X0.078700*%
%ADD22C,0.078700*%
%ADD26R,0.031600X0.086700*%
%ADD28R,0.071000X0.078900*%
%ADD30R,0.041500X0.047400*%
%ADD32C,0.074000*%
%ADD34C,0.067100*%
%ADD36R,0.067100X0.067100*%
%ADD38R,0.078900X0.071000*%
%ADD41C,0.004600*%
%ADD42C,0.007700*%
%ADD500C,0.035400*%
%ADD501C,0.039400*%
%ADD502C,0.078700*%
%LNlcd_modul_top-1*%
%LPD*%
G54D13*
X21479Y15628D02*
Y17348D01*
X21448Y17378*
X21501Y13878D02*
Y14378D01*
Y15605*
X21479Y15628*
X11024Y11253D02*
X9524D01*
X9501Y11276*
X21501Y13878D02*
X20876D01*
X20376Y13378*
X11251*
X11001Y13128*
Y11230*
X11024Y11253*
X22876Y14378D02*
X21501D01*
X20448Y17378D02*
Y15700D01*
X20376Y15628*
X18371Y14827D02*
X19575D01*
X20376Y15628*
X19448Y17378D02*
Y15825D01*
X19001Y15378*
X15376*
X15126Y15128*
Y14628*
X14626D02*
Y15378D01*
X15126Y15878*
X16626*
X17376Y16628*
Y17306*
X17448Y17378*
X14126Y14628D02*
Y15253D01*
X12501Y16878*
Y17325*
X12448Y17378*
X13626Y14628D02*
Y15200D01*
X11448Y17378*
X13126Y14628D02*
Y15128D01*
X11501Y16753*
X11073*
X10448Y17378*
X12626Y14628D02*
Y15128D01*
X11376Y16378*
X10448*
X9448Y17378*
X9128Y14503D02*
Y16698D01*
X8448Y17378*
X9128Y14503D02*
X8877D01*
X8753Y14379*
Y10691*
X9503Y9941*
X22254*
X24567Y7628*
X9876Y14503D02*
Y15628D01*
X12126Y14628D02*
Y15128D01*
X11626Y15628*
X10979*
X9501Y12378D02*
Y13557D01*
X9502Y13558*
X12126Y11253D02*
Y12502D01*
X14126D02*
Y11753D01*
X14251Y11628*
X19126*
X20814Y13316*
X22876*
Y13378*
X13126Y12502D02*
Y11003D01*
X13376Y10753*
X21189*
X21814Y11378*
X22876*
X12626Y12502D02*
Y10628D01*
X12876Y10378*
X22876*
G54D14*
X4340Y17880D02*
X5886D01*
X6862D02*
X7104D01*
X7791D02*
X8104D01*
X8791D02*
X9104D01*
X9791D02*
X10104D01*
X10791D02*
X11104D01*
X11791D02*
X12104D01*
X12791D02*
X13104D01*
X13791D02*
X14104D01*
X14791D02*
X15104D01*
X15791D02*
X16104D01*
X16791D02*
X17104D01*
X17791D02*
X18104D01*
X18791D02*
X19104D01*
X19791D02*
X20104D01*
X20791D02*
X21104D01*
X21791D02*
X22104D01*
X22791D02*
X23073D01*
X23772D02*
X24163D01*
X25065D02*
X25351D01*
X4340Y17632D02*
X5886D01*
X23772D02*
X23979D01*
X25248D02*
X25351D01*
X4340Y17383D02*
X5886D01*
X23772D02*
X23929D01*
X4340Y17134D02*
X5886D01*
X23772D02*
X23976D01*
X25252D02*
X25352D01*
X4340Y16886D02*
X7089D01*
X7807D02*
X8089D01*
X12987D02*
X13090D01*
X13807D02*
X14089D01*
X14807D02*
X15089D01*
X15807D02*
X16089D01*
X16807D02*
X17022D01*
X17807D02*
X18089D01*
X18807D02*
X19089D01*
X19807D02*
X20089D01*
X20807D02*
X21089D01*
X21834D02*
X22089D01*
X22807D02*
X24151D01*
X25076D02*
X25351D01*
X4340Y16637D02*
X8698D01*
X9483D02*
X9698D01*
X13233D02*
X16894D01*
X17733D02*
X19093D01*
X19803D02*
X20093D01*
X20803D02*
X21124D01*
X21834D02*
X25351D01*
X4340Y16388D02*
X8772D01*
X9483D02*
X9948D01*
X13483D02*
X16644D01*
X17627D02*
X17727D01*
X19014D02*
X19093D01*
X19803D02*
X20093D01*
X20803D02*
X21124D01*
X21834D02*
X25351D01*
X4340Y16140D02*
X6214D01*
X7041D02*
X7651D01*
X8350D02*
X8772D01*
X13733D02*
X14901D01*
X17381D02*
X17726D01*
X19014D02*
X19093D01*
X22084D02*
X25351D01*
X4340Y15891D02*
X6214D01*
X7041D02*
X7651D01*
X8350D02*
X8772D01*
X13979D02*
X14647D01*
X17131D02*
X17726D01*
X22084D02*
X25351D01*
X4340Y15642D02*
X6214D01*
X7041D02*
X7651D01*
X8350D02*
X8772D01*
X14229D02*
X14397D01*
X22084D02*
X25351D01*
X4340Y15393D02*
X6214D01*
X7041D02*
X7651D01*
X8350D02*
X8772D01*
X19510D02*
X19649D01*
X22084D02*
X25351D01*
X4340Y15145D02*
X8772D01*
X22084D02*
X25351D01*
X4340Y14896D02*
X6218D01*
X8162D02*
X8671D01*
X10334D02*
X11218D01*
X16209D02*
X17726D01*
X20135D02*
X21147D01*
X21858D02*
X22292D01*
X23463D02*
X25351D01*
X4340Y14647D02*
X6089D01*
X8291D02*
X8530D01*
X10334D02*
X11218D01*
X16209D02*
X17726D01*
X19889D02*
X21147D01*
X23463D02*
X23636D01*
X25139D02*
X25351D01*
X4340Y14399D02*
X6081D01*
X8299D02*
X8397D01*
X10334D02*
X11218D01*
X16209D02*
X17726D01*
X19014D02*
X20858D01*
X23463D02*
X23636D01*
X25139D02*
X25351D01*
X4340Y14150D02*
X6187D01*
X8194D02*
X8397D01*
X10334D02*
X11218D01*
X16209D02*
X20663D01*
X23463D02*
X23636D01*
X25139D02*
X25351D01*
X4340Y13901D02*
X6222D01*
X8158D02*
X8397D01*
X9959D02*
X15511D01*
X16209D02*
X20409D01*
X22147D02*
X22292D01*
X23463D02*
X23636D01*
X25139D02*
X25351D01*
X4340Y13653D02*
X6089D01*
X8291D02*
X8396D01*
X9959D02*
X11042D01*
X22147D02*
X22362D01*
X23389D02*
X23573D01*
X25139D02*
X25351D01*
X4340Y13404D02*
X6077D01*
X8303D02*
X8397D01*
X9959D02*
X10784D01*
X23459D02*
X23573D01*
X25139D02*
X25351D01*
X4340Y13155D02*
X6183D01*
X8197D02*
X8397D01*
X9959D02*
X10647D01*
X23416D02*
X23573D01*
X25139D02*
X25351D01*
X4340Y12907D02*
X6229D01*
X8154D02*
X8397D01*
X10147D02*
X10647D01*
X15533D02*
X19913D01*
X22147D02*
X22550D01*
X23205D02*
X23573D01*
X25139D02*
X25351D01*
X4340Y12658D02*
X6089D01*
X8291D02*
X8396D01*
X10147D02*
X10647D01*
X15533D02*
X19663D01*
X20647D02*
X20858D01*
X22147D02*
X22366D01*
X23385D02*
X23698D01*
X25127D02*
X25351D01*
X4340Y12409D02*
X6077D01*
X8303D02*
X8397D01*
X10147D02*
X10647D01*
X15533D02*
X19417D01*
X20401D02*
X20858D01*
X22147D02*
X22292D01*
X23459D02*
X23698D01*
X25127D02*
X25351D01*
X4340Y12160D02*
X6179D01*
X8201D02*
X8397D01*
X10147D02*
X10647D01*
X15533D02*
X19167D01*
X20151D02*
X22335D01*
X23416D02*
X23698D01*
X25127D02*
X25351D01*
X4340Y11912D02*
X6233D01*
X8147D02*
X8397D01*
X10147D02*
X10647D01*
X19901D02*
X22542D01*
X23213D02*
X23698D01*
X25127D02*
X25351D01*
X4340Y11663D02*
X6093D01*
X8287D02*
X8396D01*
X10147D02*
X10421D01*
X13483D02*
X13784D01*
X19654D02*
X21624D01*
X23385D02*
X23573D01*
X25139D02*
X25351D01*
X4340Y11414D02*
X6077D01*
X8303D02*
X8397D01*
X13483D02*
X13972D01*
X19404D02*
X21358D01*
X23459D02*
X23573D01*
X25139D02*
X25351D01*
X4340Y11166D02*
X6175D01*
X8205D02*
X8397D01*
X13483D02*
X21108D01*
X23420D02*
X23573D01*
X25139D02*
X25351D01*
X4340Y10917D02*
X6237D01*
X8143D02*
X8397D01*
X10147D02*
X10421D01*
X21846D02*
X22534D01*
X23221D02*
X23573D01*
X25139D02*
X25351D01*
X4340Y10668D02*
X6093D01*
X8287D02*
X8401D01*
X9268D02*
X10421D01*
X23381D02*
X23698D01*
X25127D02*
X25351D01*
X4340Y10420D02*
X6077D01*
X8303D02*
X8534D01*
X9514D02*
X12347D01*
X23459D02*
X23698D01*
X25127D02*
X25351D01*
X4340Y10171D02*
X6171D01*
X8209D02*
X8780D01*
X23420D02*
X23698D01*
X25127D02*
X25351D01*
X4340Y9922D02*
X6241D01*
X8139D02*
X9030D01*
X23229D02*
X23698D01*
X25127D02*
X25351D01*
X4340Y9674D02*
X6097D01*
X8287D02*
X9284D01*
X23014D02*
X25351D01*
X4340Y9425D02*
X6077D01*
X8307D02*
X22280D01*
X23260D02*
X24198D01*
X24936D02*
X25351D01*
X4340Y9176D02*
X6167D01*
X8213D02*
X22526D01*
X23510D02*
X23995D01*
X25139D02*
X25351D01*
X4340Y8928D02*
X4948D01*
X5955D02*
X6249D01*
X8131D02*
X8448D01*
X9440D02*
X22776D01*
X23760D02*
X23948D01*
X25186D02*
X25351D01*
X4340Y8679D02*
X4948D01*
X5955D02*
X6097D01*
X8283D02*
X8448D01*
X9440D02*
X23026D01*
X25127D02*
X25351D01*
X4340Y8430D02*
X4948D01*
X5955D02*
X6073D01*
X8307D02*
X8448D01*
X9440D02*
X23272D01*
X24897D02*
X25351D01*
X4340Y8181D02*
X4948D01*
X5955D02*
X6167D01*
X8217D02*
X8448D01*
X9440D02*
X23522D01*
X24811D02*
X25351D01*
X4340Y7933D02*
X6499D01*
X6881D02*
X7499D01*
X7881D02*
X22823D01*
X23682D02*
X23773D01*
X25104D02*
X25351D01*
X4340Y7684D02*
X22823D01*
X23682D02*
X23948D01*
X25186D02*
X25351D01*
X4340Y7435D02*
X22823D01*
X23682D02*
X23979D01*
X25154D02*
X25351D01*
X4340Y7187D02*
X13573D01*
X18166D02*
X22823D01*
X23682D02*
X24144D01*
X24990D02*
X25351D01*
X4340Y6938D02*
X13573D01*
X18166D02*
X25351D01*
X4340Y6689D02*
X6644D01*
X7112D02*
X13573D01*
X18166D02*
X25351D01*
X4340Y6441D02*
X6312D01*
X7444D02*
X13573D01*
X18166D02*
X25351D01*
X4340Y6192D02*
X6206D01*
X7549D02*
X13573D01*
X18166D02*
X25351D01*
X4340Y5943D02*
X6206D01*
X7549D02*
X13573D01*
X18166D02*
X25351D01*
X4340Y5695D02*
X6308D01*
X7447D02*
X24187D01*
X25041D02*
X25351D01*
X4340Y5446D02*
X6628D01*
X7127D02*
X23987D01*
X25237D02*
X25354D01*
X4340Y5197D02*
X23929D01*
X4340Y4949D02*
X23968D01*
X25256D02*
X25353D01*
X4340Y4700D02*
X24132D01*
X25096D02*
X25351D01*
X4340Y4451D02*
X25351D01*
X21007Y14458D02*
X21175D01*
X21171Y15007*
X20899Y15013*
X20956Y15009*
X20226*
X19808Y14594*
X19706Y14524*
X19575Y14497*
X18993*
X18991Y14247*
X17752*
X17751Y15048*
X15513*
X15509Y14662*
Y13969*
X14743Y13973*
X14634Y13969*
X14243Y13973*
X14134Y13969*
X13743Y13973*
X13634Y13969*
X13243Y13973*
X13134Y13969*
X12743Y13973*
X12634Y13969*
X12243Y13973*
X12134Y13969*
X11743Y13973*
X11634Y13969*
X11243*
Y15012*
X10684Y15009*
X10399Y15013*
X10456Y15009*
X10206Y15003*
Y14968*
X10309Y14965*
Y14041*
X9444Y14045*
X9186Y14041*
X9080*
X9195Y14020*
X9935*
Y13096*
X9829*
X9831Y12960*
X10121Y12958*
X10117Y11798*
X10121Y11856*
Y11586*
X10442Y11583*
X10444Y11872*
X10674*
X10671Y13105*
X10695Y13250*
X10768Y13361*
X11018Y13611*
X11121Y13681*
X11251Y13708*
X20240*
X20643Y14111*
X20746Y14181*
X20880Y14208*
X20882Y14458*
X21007*
X22121Y14048D02*
Y13642D01*
X22388Y13646*
X22431Y13718*
X22533Y13819*
X22316Y13818*
Y14048*
X22122*
X22121Y12986D02*
Y12196D01*
X20882*
Y12917*
X19360Y11395*
X19257Y11325*
X19126Y11298*
X14251*
X14129Y11322*
X14018Y11395*
X13893Y11520*
X13826Y11616*
X13798Y11717*
X13796Y11843*
X13459*
X13456Y11139*
X13626Y11083*
X21052*
X21580Y11611*
X21683Y11681*
X21814Y11708*
X22427*
X22517Y11808*
X22625Y11878*
X22533Y11936*
X22443Y12023*
X22375Y12127*
X22332Y12244*
X22316Y12368*
X22328Y12492*
X22367Y12611*
X22431Y12718*
X22517Y12808*
X22624Y12878*
X22533Y12936*
X22480Y12987*
X22122Y12986*
X22441Y14938D02*
X23437D01*
Y13818*
X23222*
X23303Y13741*
X23373Y13638*
X23418Y13522*
X23437Y13378*
X23423Y13254*
X23382Y13136*
X23316Y13030*
X23228Y12942*
X23126Y12877*
X23212Y12827*
X23303Y12741*
X23373Y12638*
X23418Y12522*
X23436Y12398*
X23428Y12279*
X23392Y12159*
X23331Y12050*
X23247Y11958*
X23145Y11886*
X23129Y11878*
X23212Y11827*
X23303Y11741*
X23373Y11638*
X23418Y11522*
X23437Y11378*
X23423Y11254*
X23382Y11136*
X23316Y11030*
X23228Y10942*
X23126Y10877*
X23212Y10827*
X23303Y10741*
X23373Y10638*
X23418Y10522*
X23437Y10378*
X23423Y10254*
X23382Y10136*
X23316Y10030*
X23228Y9942*
X23123Y9875*
X23005Y9833*
X22881Y9818*
X22839Y9822*
X24452Y8210*
X24513Y8220*
X24638Y8219*
X24760Y8191*
X24873Y8138*
X24973Y8063*
X25055Y7969*
X25115Y7860*
X25151Y7741*
X25162Y7628*
X25149Y7504*
X25110Y7385*
X25048Y7277*
X24964Y7185*
X24863Y7112*
X24749Y7061*
X24627Y7036*
X24502*
X24380Y7063*
X24266Y7115*
X24166Y7189*
X24083Y7282*
X24022Y7390*
X23984Y7509*
X23972Y7634*
X23980Y7748*
X22116Y9613*
X17504Y9611*
X9503*
X9381Y9634*
X9270Y9707*
X8520Y10457*
X8450Y10560*
X8423Y10691*
Y14379*
X8446Y14501*
X8520Y14612*
X8696Y14791*
Y14965*
X8801*
X8798Y15628*
Y16562*
X8566Y16793*
X8383Y16787*
X8261Y16813*
X8147Y16865*
X8047Y16939*
X7951Y17056*
X7863Y16952*
X7765Y16875*
X7653Y16820*
X7532Y16789*
X7408Y16784*
X7285Y16806*
X7169Y16853*
X7066Y16922*
X6979Y17012*
X6913Y17118*
X6871Y17235*
X6853Y17359*
X6863Y17483*
X6897Y17603*
X6956Y17713*
X7037Y17808*
X7136Y17884*
X7248Y17938*
X7370Y17968*
X7494Y17971*
X7617Y17949*
X7732Y17901*
X7835Y17830*
X7921Y17740*
X7948Y17701*
X8055Y17825*
X8157Y17897*
X8272Y17946*
X8394Y17971*
X8519Y17969*
X8641Y17941*
X8754Y17888*
X8854Y17814*
X8949Y17695*
X8971Y17733*
X9055Y17825*
X9157Y17897*
X9272Y17946*
X9394Y17971*
X9519Y17969*
X9641Y17941*
X9754Y17888*
X9854Y17814*
X9949Y17695*
X9971Y17733*
X10055Y17825*
X10157Y17897*
X10272Y17946*
X10394Y17971*
X10519Y17969*
X10641Y17941*
X10754Y17888*
X10854Y17814*
X10949Y17695*
X10971Y17733*
X11055Y17825*
X11157Y17897*
X11272Y17946*
X11394Y17971*
X11519Y17969*
X11641Y17941*
X11754Y17888*
X11854Y17814*
X11949Y17695*
X11971Y17733*
X12055Y17825*
X12157Y17897*
X12272Y17946*
X12394Y17971*
X12519Y17969*
X12641Y17941*
X12754Y17888*
X12854Y17814*
X12949Y17695*
X12971Y17733*
X13055Y17825*
X13157Y17897*
X13272Y17946*
X13394Y17971*
X13519Y17969*
X13641Y17941*
X13754Y17888*
X13854Y17814*
X13949Y17695*
X13971Y17733*
X14055Y17825*
X14157Y17897*
X14272Y17946*
X14394Y17971*
X14519Y17969*
X14641Y17941*
X14754Y17888*
X14854Y17814*
X14949Y17695*
X14971Y17733*
X15055Y17825*
X15157Y17897*
X15272Y17946*
X15394Y17971*
X15519Y17969*
X15641Y17941*
X15754Y17888*
X15854Y17814*
X15949Y17695*
X15971Y17733*
X16055Y17825*
X16157Y17897*
X16272Y17946*
X16394Y17971*
X16519Y17969*
X16641Y17941*
X16754Y17888*
X16854Y17814*
X16949Y17695*
X16971Y17733*
X17055Y17825*
X17157Y17897*
X17272Y17946*
X17394Y17971*
X17519Y17969*
X17641Y17941*
X17754Y17888*
X17854Y17814*
X17949Y17695*
X17986Y17753*
X18075Y17841*
X18179Y17909*
X18296Y17953*
X18419Y17972*
X18544Y17965*
X18664Y17932*
X18775Y17875*
X18872Y17796*
X18948Y17701*
X19055Y17825*
X19157Y17897*
X19272Y17946*
X19394Y17971*
X19519Y17969*
X19641Y17941*
X19754Y17888*
X19854Y17814*
X19949Y17695*
X19971Y17733*
X20055Y17825*
X20157Y17897*
X20272Y17946*
X20394Y17971*
X20519Y17969*
X20641Y17941*
X20754Y17888*
X20854Y17814*
X20949Y17695*
X20971Y17733*
X21055Y17825*
X21157Y17897*
X21272Y17946*
X21394Y17971*
X21519Y17969*
X21641Y17941*
X21754Y17888*
X21854Y17814*
X21949Y17695*
X21986Y17753*
X22075Y17841*
X22179Y17909*
X22296Y17953*
X22419Y17972*
X22544Y17965*
X22664Y17932*
X22775Y17875*
X22872Y17796*
X22949Y17699*
X23005Y17587*
X23037Y17466*
X23043Y17353*
X23024Y17230*
X22981Y17113*
X22914Y17008*
X22826Y16919*
X22722Y16850*
X22606Y16804*
X22483Y16784*
X22358Y16790*
X22237Y16822*
X22126Y16878*
X22029Y16956*
X21948Y17056*
X21845Y16935*
X21810Y16910*
X21809Y16250*
X22059Y16247*
Y15009*
X21828*
X21831Y14711*
X22318Y14708*
X22316Y14938*
X22441*
X22622Y10881D02*
X22533Y10936D01*
X22428Y11045*
X21951Y11048*
X21608Y10706*
X22427Y10708*
X22517Y10808*
X22625Y10878*
X25260Y5049D02*
X25225Y4929D01*
X25168Y4818*
X25091Y4720*
X24997Y4638*
X24889Y4575*
X24772Y4534*
X24648Y4516*
X24523Y4521*
X24402Y4550*
X24288Y4601*
X24186Y4672*
X24099Y4762*
X24031Y4866*
X23983Y4982*
X23958Y5104*
X23957Y5229*
X23979Y5352*
X24024Y5468*
X24091Y5574*
X24176Y5665*
X24276Y5739*
X24389Y5793*
X24510Y5824*
X24634Y5832*
X24758Y5816*
X24877Y5777*
X24986Y5717*
X25082Y5637*
X25161Y5540*
X25220Y5430*
X25258Y5311*
X25272Y5173*
X25260Y5049*
X7525Y5941D02*
X7490Y5821D01*
X7433Y5710*
X7356Y5612*
X7262Y5530*
X7154Y5467*
X7036Y5426*
X6912Y5407*
X6788Y5413*
X6666Y5441*
X6552Y5492*
X6450Y5564*
X6363Y5654*
X6295Y5758*
X6248Y5874*
X6223Y5996*
X6221Y6121*
X6244Y6244*
X6289Y6360*
X6355Y6466*
X6440Y6557*
X6541Y6631*
X6653Y6684*
X6774Y6716*
X6899Y6724*
X7023Y6708*
X7141Y6669*
X7250Y6608*
X7346Y6528*
X7425Y6432*
X7484Y6322*
X7522Y6203*
X7537Y6065*
X7525Y5941*
X25260Y17254D02*
X25225Y17134D01*
X25168Y17023*
X25091Y16925*
X24997Y16843*
X24889Y16780*
X24772Y16739*
X24648Y16720*
X24523Y16726*
X24402Y16754*
X24288Y16805*
X24186Y16877*
X24099Y16967*
X24031Y17071*
X23983Y17187*
X23958Y17309*
X23957Y17434*
X23979Y17556*
X24024Y17673*
X24091Y17779*
X24176Y17870*
X24276Y17944*
X24389Y17997*
X24510Y18029*
X24634Y18036*
X24758Y18021*
X24877Y17982*
X24986Y17921*
X25082Y17841*
X25161Y17745*
X25220Y17635*
X25258Y17516*
X25272Y17378*
X25260Y17254*
X21151Y16863D02*
X21047Y16939D01*
X20951Y17056*
X20845Y16935*
X20779Y16887*
X20778Y16249*
X20956Y16243*
X20899Y16247*
X21149Y16253*
Y16866*
X20119Y16886D02*
X20047Y16939D01*
X19951Y17056*
X19845Y16935*
X19779Y16887*
X19778Y15825*
X19755Y15703*
X19681Y15592*
X19248Y15158*
X19438Y15157*
X19798Y15516*
X19796Y16247*
X20121*
X20118Y16884*
X19119Y16886D02*
X19047Y16939D01*
X18951Y17056*
X18863Y16952*
X18765Y16875*
X18653Y16820*
X18532Y16789*
X18408Y16784*
X18285Y16806*
X18169Y16853*
X18066Y16922*
X17979Y17012*
X17948Y17056*
X17845Y16935*
X17744Y16862*
X17705Y16845*
X17706Y16628*
X17683Y16506*
X17610Y16395*
X16922Y15707*
X17755Y15708*
X17752Y15899*
Y16509*
X18991*
Y15833*
X19119Y15962*
X19118Y16884*
X17044Y16942D02*
X16951Y17056D01*
X16845Y16935*
X16744Y16862*
X16630Y16811*
X16508Y16786*
X16383Y16787*
X16261Y16813*
X16147Y16865*
X16047Y16939*
X15951Y17056*
X15845Y16935*
X15744Y16862*
X15630Y16811*
X15508Y16786*
X15383Y16787*
X15261Y16813*
X15147Y16865*
X15047Y16939*
X14951Y17056*
X14845Y16935*
X14744Y16862*
X14630Y16811*
X14508Y16786*
X14383Y16787*
X14261Y16813*
X14147Y16865*
X14047Y16939*
X13951Y17056*
X13845Y16935*
X13744Y16862*
X13630Y16811*
X13508Y16786*
X13383Y16787*
X13261Y16813*
X13147Y16865*
X13047Y16939*
X12951Y17056*
X12874Y16967*
X13177Y16669*
X14329Y15517*
X14393Y15611*
X14893Y16111*
X14996Y16181*
X15126Y16208*
X16490*
X17048Y16766*
X17046Y16937*
X9565Y16798D02*
X9449Y16786D01*
X9458Y16698*
Y16249*
X10113Y16247*
X9566Y16794*
X9457Y16703*
X10121Y10922D02*
Y10696D01*
X9218*
X9641Y10269*
X12515Y10271*
X12393Y10395*
X12323Y10498*
X12296Y10632*
X11546Y10634*
X10444*
Y10927*
X10122Y10923*
X15509Y13048D02*
Y11962D01*
X16501Y11958*
X18990*
X20078Y13046*
X15513Y13048*
X8285Y14479D02*
X8266Y14355D01*
X8223Y14238*
X8156Y14133*
X8068Y14044*
X8012Y14003*
X8096Y13939*
X8178Y13845*
X8238Y13736*
X8274Y13616*
X8285Y13504*
X8272Y13380*
X8234Y13261*
X8171Y13153*
X8087Y13060*
X8008Y13003*
X8077Y12956*
X8163Y12865*
X8228Y12759*
X8269Y12641*
X8285Y12517*
X8277Y12404*
X8243Y12284*
X8185Y12173*
X8106Y12077*
X8012Y12003*
X8096Y11939*
X8178Y11845*
X8238Y11736*
X8274Y11616*
X8285Y11504*
X8272Y11380*
X8234Y11261*
X8171Y11153*
X8087Y11060*
X8008Y11003*
X8096Y10939*
X8178Y10845*
X8238Y10736*
X8274Y10616*
X8285Y10504*
X8272Y10380*
X8234Y10261*
X8171Y10153*
X8087Y10060*
X8008Y10003*
X8096Y9939*
X8178Y9845*
X8238Y9736*
X8274Y9616*
X8285Y9504*
X8272Y9380*
X8234Y9261*
X8171Y9153*
X8087Y9060*
X8008Y9003*
X8096Y8939*
X8178Y8845*
X8238Y8736*
X8274Y8616*
X8285Y8504*
X8272Y8380*
X8234Y8261*
X8171Y8153*
X8087Y8060*
X7986Y7987*
X7872Y7937*
X7750Y7912*
X7625*
X7503Y7939*
X7389Y7990*
X7289Y8064*
X7193Y8181*
X7087Y8060*
X6986Y7987*
X6872Y7937*
X6750Y7912*
X6625*
X6503Y7939*
X6389Y7990*
X6289Y8064*
X6206Y8158*
X6145Y8266*
X6107Y8385*
X6095Y8509*
X6110Y8633*
X6149Y8752*
X6213Y8859*
X6298Y8951*
X6371Y9002*
X6289Y9064*
X6206Y9158*
X6145Y9266*
X6107Y9385*
X6095Y9509*
X6110Y9633*
X6149Y9752*
X6213Y9859*
X6298Y9951*
X6371Y10002*
X6289Y10064*
X6206Y10158*
X6145Y10266*
X6107Y10385*
X6095Y10509*
X6110Y10633*
X6149Y10752*
X6213Y10859*
X6298Y10951*
X6371Y11002*
X6289Y11064*
X6206Y11158*
X6145Y11266*
X6107Y11385*
X6095Y11509*
X6110Y11633*
X6149Y11752*
X6213Y11859*
X6298Y11951*
X6371Y12002*
X6289Y12064*
X6206Y12158*
X6145Y12266*
X6107Y12385*
X6095Y12509*
X6110Y12633*
X6149Y12752*
X6213Y12859*
X6298Y12951*
X6371Y13002*
X6289Y13064*
X6206Y13158*
X6145Y13266*
X6107Y13385*
X6095Y13509*
X6110Y13633*
X6149Y13752*
X6213Y13859*
X6298Y13951*
X6371Y14002*
X6289Y14064*
X6206Y14158*
X6145Y14266*
X6107Y14385*
X6095Y14509*
X6110Y14633*
X6149Y14752*
X6213Y14859*
X6298Y14951*
X6399Y15023*
X6514Y15072*
X6636Y15096*
X6761Y15094*
X6883Y15067*
X6996Y15014*
X7096Y14939*
X7191Y14821*
X7228Y14879*
X7317Y14967*
X7422Y15034*
X7538Y15079*
X7661Y15098*
X7786Y15091*
X7906Y15058*
X8017Y15001*
X8114Y14922*
X8192Y14824*
X8247Y14713*
X8279Y14592*
X8285Y14479*
X25162Y8916D02*
X25143Y8792D01*
X25100Y8675*
X25033Y8570*
X24945Y8481*
X24841Y8412*
X24725Y8367*
X24602Y8347*
X24477Y8352*
X24356Y8384*
X24245Y8440*
X24148Y8518*
X24069Y8615*
X24012Y8726*
X23980Y8847*
X23973Y8971*
X23992Y9095*
X24037Y9211*
X24105Y9316*
X24194Y9404*
X24298Y9471*
X24415Y9516*
X24538Y9535*
X24663Y9528*
X24783Y9495*
X24894Y9438*
X24991Y9359*
X25068Y9261*
X25124Y9149*
X25156Y9029*
X25162Y8916*
X23787Y14846D02*
X25113D01*
X25114Y12775*
X25102*
X25104Y11906*
X25114Y11908*
Y10837*
X25102*
X25104Y9837*
X23725*
Y10839*
X23600Y10837*
Y11908*
X23729*
X23725Y12337*
Y12778*
X23600Y12775*
Y13846*
X23666*
X23662Y14275*
Y14846*
X23787*
X23225Y17971D02*
X23748D01*
Y16900*
X23100*
Y17971*
X23225*
X6036D02*
X6838D01*
Y16900*
X5911*
Y17971*
X6036*
X7800Y16221D02*
X8324D01*
Y15150*
X7675*
Y16221*
X7800*
X15662Y14971D02*
X16185D01*
Y13900*
X15537*
Y14971*
X15662*
X5098Y9158D02*
X5929D01*
Y8087*
X4973*
Y9158*
X5098*
X6363Y16221D02*
X7015D01*
Y15150*
X6238*
Y16221*
X6363*
X8598Y9095D02*
X9415D01*
Y8024*
X8473*
Y9095*
X8598*
X22975Y8033D02*
X23656D01*
Y6961*
X22850*
Y8033*
X22975*
X13724Y7268D02*
X18141D01*
Y5836*
X13599*
Y7268*
X13724*
X4315Y18004D02*
Y4378D01*
X25376*
Y18128*
X4315Y18129*
Y18004*
G54D13*
X21501Y12776D02*
Y12196D01*
X20882Y12776D02*
X22120D01*
X22480Y12774D02*
X23272Y11982D01*
Y12774D02*
X22480Y11982D01*
X22028Y17798D02*
X22869Y16958D01*
Y17798D02*
X22028Y16958D01*
X18028Y17798D02*
X18869Y16958D01*
Y17798D02*
X18028Y16958D01*
X7028Y17798D02*
X7869Y16958D01*
Y17798D02*
X7028Y16958D01*
X18371Y16509D02*
Y15929D01*
X17752D02*
X18990D01*
X13626Y12502D02*
Y11844D01*
X7270Y14924D02*
X8111Y14083D01*
Y14924D02*
X7690Y14504D01*
Y12504D02*
X8111Y12083D01*
Y12924D02*
X7690Y12504D01*
X24147Y9361D02*
X24988Y8520D01*
Y9361D02*
X24147Y8520D01*
G54D15*
X21501Y13878D03*
Y12776D03*
G54D16*
X22876Y14378D03*
G54D17*
X22876Y13378D03*
Y12378D03*
Y11378D03*
Y10378D03*
G54D18*
X22448Y17378D03*
X21448D03*
X20448D03*
X19448D03*
X18448D03*
X17448D03*
X16448D03*
X15448D03*
X14448D03*
X13448D03*
X12448D03*
X11448D03*
X10448D03*
X9448D03*
X8448D03*
X7448D03*
X7690Y14504D03*
X6690D03*
X7690Y13504D03*
X6690D03*
X7690Y12504D03*
X6690D03*
X7690Y11504D03*
X6690D03*
X7690Y10504D03*
X6690D03*
X7690Y9504D03*
X6690D03*
X7690Y8504D03*
X6690D03*
X24567Y7628D03*
Y8941D03*
G54D19*
X9876Y14503D03*
X9128D03*
X9502Y13558D03*
G54D20*
X20376Y15628D03*
X21479D03*
G54D15*
X18371Y15929D03*
Y14827D03*
G54D20*
X9876Y15628D03*
X10979D03*
G54D15*
X9501Y12378D03*
Y11276D03*
G54D20*
X12126Y11253D03*
X11024D03*
G54D21*
X15126Y14628D03*
X14626D03*
X14126D03*
X13626D03*
X13126D03*
X12626D03*
X12126D03*
X11626D03*
Y12502D03*
X12126D03*
X12626D03*
X13126D03*
X13626D03*
X14126D03*
X14626D03*
X15126D03*
G54D41*
X24080Y14457D02*
Y14199D01*
X23951Y14328D02*
X24209D01*
X24474Y14479D02*
X24330D01*
X24316Y14350*
X24330Y14364*
X24373Y14379*
X24416*
X24459Y14364*
X24488Y14335*
X24502Y14292*
Y14264*
X24488Y14221*
X24459Y14192*
X24416Y14178*
X24373*
X24330Y14192*
X24316Y14206*
X24302Y14235*
X24595Y14479D02*
X24710Y14178D01*
X24825Y14479*
X24228Y12470D02*
X24214Y12498D01*
X24185Y12527*
X24157Y12541*
X24099*
X24070Y12527*
X24042Y12498*
X24027Y12470*
X24013Y12427*
Y12355*
X24027Y12312*
X24042Y12283*
X24070Y12254*
X24099Y12240*
X24157*
X24185Y12254*
X24214Y12283*
X24228Y12312*
Y12355*
X24157*
X24522Y12541D02*
Y12240D01*
X24321Y12541*
Y12240*
X24615Y12541D02*
Y12240D01*
X24715*
X24758Y12254*
X24787Y12283*
X24801Y12312*
X24815Y12355*
Y12427*
X24801Y12470*
X24787Y12498*
X24758Y12527*
X24715Y12541*
X24615*
X24118Y11240D02*
Y11541D01*
X24003Y11240*
X23888Y11541*
Y11240*
X24210Y11541D02*
Y11240D01*
X24504Y11498D02*
X24475Y11527D01*
X24432Y11541*
X24375*
X24332Y11527*
X24303Y11498*
Y11470*
X24317Y11441*
X24332Y11427*
X24360Y11412*
X24446Y11383*
X24475Y11369*
X24490Y11355*
X24504Y11326*
Y11283*
X24475Y11254*
X24432Y11240*
X24375*
X24332Y11254*
X24303Y11283*
X24683Y11541D02*
X24654Y11527D01*
X24625Y11498*
X24611Y11470*
X24596Y11427*
Y11355*
X24611Y11312*
X24625Y11283*
X24654Y11254*
X24683Y11240*
X24740*
X24769Y11254*
X24797Y11283*
X24812Y11312*
X24826Y11355*
Y11427*
X24812Y11470*
X24797Y11498*
X24769Y11527*
X24740Y11541*
X24683*
X24214Y10498D02*
X24186Y10527D01*
X24142Y10541*
X24085*
X24042Y10527*
X24013Y10498*
Y10470*
X24028Y10441*
X24042Y10426*
X24070Y10412*
X24157Y10383*
X24186Y10369*
X24200Y10354*
X24214Y10326*
Y10283*
X24186Y10254*
X24142Y10240*
X24085*
X24042Y10254*
X24013Y10283*
X24522Y10470D02*
X24508Y10498D01*
X24479Y10527*
X24450Y10541*
X24393*
X24364Y10527*
X24336Y10498*
X24321Y10470*
X24307Y10426*
Y10354*
X24321Y10312*
X24336Y10283*
X24364Y10254*
X24393Y10240*
X24450*
X24479Y10254*
X24508Y10283*
X24522Y10312*
X24615Y10541D02*
Y10240D01*
X24815Y10541D02*
X24615Y10340D01*
X24686Y10412D02*
X24815Y10240D01*
X24118Y13178D02*
Y13479D01*
X24003Y13178*
X23888Y13479*
Y13178*
X24296Y13479D02*
X24268Y13465D01*
X24239Y13436*
X24224Y13407*
X24210Y13364*
Y13292*
X24224Y13249*
X24239Y13221*
X24268Y13192*
X24296Y13178*
X24354*
X24382Y13192*
X24411Y13221*
X24425Y13249*
X24440Y13292*
Y13364*
X24425Y13407*
X24411Y13436*
X24382Y13465*
X24354Y13479*
X24296*
X24733Y13436D02*
X24705Y13465D01*
X24662Y13479*
X24604*
X24561Y13465*
X24532Y13436*
Y13407*
X24547Y13378*
X24561Y13364*
X24590Y13350*
X24676Y13321*
X24705Y13307*
X24719Y13292*
X24733Y13264*
Y13221*
X24705Y13192*
X24662Y13178*
X24604*
X24561Y13192*
X24532Y13221*
X24826Y13479D02*
Y13178D01*
X23388Y17547D02*
X23417Y17561D01*
X23460Y17604*
Y17303*
X6199Y17547D02*
X6228Y17561D01*
X6271Y17604*
Y17303*
X6535Y17561D02*
X6521Y17590D01*
X6478Y17604*
X6450*
X6406Y17590*
X6378Y17547*
X6363Y17475*
Y17403*
X6378Y17346*
X6406Y17317*
X6450Y17303*
X6464*
X6507Y17317*
X6535Y17346*
X6550Y17389*
Y17403*
X6535Y17447*
X6507Y17475*
X6464Y17489*
X6450*
X6406Y17475*
X6378Y17447*
X6363Y17403*
X7964Y15796D02*
X7992Y15811D01*
X8036Y15854*
Y15553*
X15825Y14546D02*
X15854Y14561D01*
X15897Y14604*
Y14303*
X5261Y8733D02*
X5290Y8748D01*
X5333Y8791*
Y8490*
X5569D02*
Y8791D01*
X5426Y8590*
X5641*
X6541Y15782D02*
Y15796D01*
X6555Y15825*
X6569Y15840*
X6598Y15854*
X6655*
X6684Y15840*
X6698Y15825*
X6713Y15796*
Y15768*
X6698Y15739*
X6670Y15696*
X6526Y15553*
X6727*
X8761Y8671D02*
X8790Y8685D01*
X8833Y8728*
Y8427*
X8955Y8728D02*
X9112D01*
X9027Y8613*
X9070*
X9098Y8599*
X9112Y8585*
X9127Y8542*
Y8513*
X9112Y8470*
X9084Y8441*
X9041Y8427*
X8998*
X8955Y8441*
X8941Y8456*
X8926Y8484*
X23368Y7364D02*
X23253Y7666D01*
X23138Y7364*
X23181Y7465D02*
X23325D01*
G54D42*
X14285Y6331D02*
X14094Y6833D01*
X13902Y6331*
X13974Y6498D02*
X14214D01*
X14703Y6594D02*
X14679Y6642D01*
X14607Y6666*
X14535*
X14464Y6642*
X14440Y6594*
X14464Y6546*
X14512Y6522*
X14631Y6498*
X14679Y6475*
X14703Y6426*
Y6403*
X14679Y6355*
X14607Y6331*
X14535*
X14464Y6355*
X14440Y6403*
X15145Y6594D02*
X15097Y6642D01*
X15049Y6666*
X14977*
X14929Y6642*
X14882Y6594*
X14857Y6522*
Y6475*
X14882Y6403*
X14929Y6355*
X14977Y6331*
X15049*
X15097Y6355*
X15145Y6403*
X15299Y6522D02*
X15586D01*
Y6570*
X15562Y6618*
X15538Y6642*
X15490Y6666*
X15419*
X15371Y6642*
X15323Y6594*
X15299Y6522*
Y6475*
X15323Y6403*
X15371Y6355*
X15419Y6331*
X15490*
X15538Y6355*
X15586Y6403*
X15812Y6833D02*
Y6426D01*
X15836Y6355*
X15884Y6331*
X15932*
X15740Y6666D02*
X15908D01*
X16572Y6833D02*
Y6331D01*
X16859*
X17372Y6714D02*
X17348Y6761D01*
X17300Y6809*
X17253Y6833*
X17157*
X17109Y6809*
X17061Y6761*
X17037Y6714*
X17013Y6642*
Y6522*
X17037Y6451*
X17061Y6403*
X17109Y6355*
X17157Y6331*
X17253*
X17300Y6355*
X17348Y6403*
X17372Y6451*
X17526Y6833D02*
Y6331D01*
X17694*
X17766Y6355*
X17814Y6403*
X17838Y6451*
X17861Y6522*
Y6642*
X17838Y6714*
X17814Y6761*
X17766Y6809*
X17694Y6833*
X17526*
M02*