;Holesize 1 =   40.0 PLATED MILS
;Holesize 2 =   11.0 PLATED MILS
M48
INCH,00.0000
T01C0.040
T02C0.011
%
G05
G90
T01
X-004500Y012400
X-004500Y013400
X-004500Y014400
X000900Y008700
X000900Y007700
X000500Y015500
X-002500Y015500
T02
X001800Y010700
X-001700Y012100
X-000300Y010900
X-003800Y017800
X-004300Y016100
X-003200Y010900
X-004500Y008000
X001900Y017900
X-003200Y009700
X-001700Y009700
X-001700Y010900
X-001700Y008200
X-003200Y008200
X-000300Y008200
X-000300Y009700
X001800Y013500
X-001100Y015000
X001200Y017000
M30
