G04 CAM Products 2000  RS274-X Output*
G04 Serial Number: 0000-00-00000*
G04 File Name:bottom_copper.grb *
%FSLAX34Y34*%
%MOIN*%
%SFA1B1*%

%IPPOS*%
%AMRECTHERMD10*
4,1,4,-0.007500,-0.007500,
-0.047500,-0.007500,
-0.047500,-0.047500,
-0.007500,-0.047500,
-0.007500,-0.007500,0.0*
4,1,4,-0.007500,0.047500,
-0.047500,0.047500,
-0.047500,0.007500,
-0.007500,0.007500,
-0.007500,0.047500,0.0*
4,1,4,0.047500,-0.007500,
0.007500,-0.007500,
0.007500,-0.047500,
0.047500,-0.047500,
0.047500,-0.007500,0.0*
4,1,4,0.047500,0.047500,
0.007500,0.047500,
0.007500,0.007500,
0.047500,0.007500,
0.047500,0.047500,0.0*
%
%AMTHERM14*
1,1,0.095000,0.000000,0.000000*
1,0,0.075000,0.000000,0.000000*
4,0,4,-0.031800,0.042400,
-0.042400,0.031800,
0.031800,-0.042400,
0.042400,-0.031800,
-0.031800,0.042400,0.0*
4,0,4,0.031800,0.042400,
-0.042400,-0.031800,
-0.031800,-0.042400,
0.042400,0.031800,
0.031800,0.042400,0.0*
%
%AMRECTHERMD16*
4,1,4,-0.007500,-0.007500,
-0.033600,-0.007500,
-0.033600,-0.088700,
-0.007500,-0.088700,
-0.007500,-0.007500,0.0*
4,1,4,-0.007500,0.088700,
-0.033600,0.088700,
-0.033600,0.007500,
-0.007500,0.007500,
-0.007500,0.088700,0.0*
4,1,4,0.033600,-0.007500,
0.007500,-0.007500,
0.007500,-0.088700,
0.033600,-0.088700,
0.033600,-0.007500,0.0*
4,1,4,0.033600,0.088700,
0.007500,0.088700,
0.007500,0.007500,
0.033600,0.007500,
0.033600,0.088700,0.0*
%
%AMRECTHERMD19*
4,1,4,-0.007400,-0.007500,
-0.035500,-0.007500,
-0.035500,-0.041500,
-0.007400,-0.041500,
-0.007400,-0.007500,0.0*
4,1,4,-0.007400,0.041500,
-0.035500,0.041500,
-0.035500,0.007500,
-0.007400,0.007500,
-0.007400,0.041500,0.0*
4,1,4,0.035500,-0.007500,
0.007400,-0.007500,
0.007400,-0.041500,
0.035500,-0.041500,
0.035500,-0.007500,0.0*
4,1,4,0.035500,0.041500,
0.007400,0.041500,
0.007400,0.007500,
0.035500,0.007500,
0.035500,0.041500,0.0*
%
%AMRECTHERMD22*
4,1,4,-0.007500,-0.007400,
-0.041500,-0.007400,
-0.041500,-0.035500,
-0.007500,-0.035500,
-0.007500,-0.007400,0.0*
4,1,4,-0.007500,0.035500,
-0.041500,0.035500,
-0.041500,0.007400,
-0.007500,0.007400,
-0.007500,0.035500,0.0*
4,1,4,0.041500,-0.007400,
0.007500,-0.007400,
0.007500,-0.035500,
0.041500,-0.035500,
0.041500,-0.007400,0.0*
4,1,4,0.041500,0.035500,
0.007500,0.035500,
0.007500,0.007400,
0.041500,0.007400,
0.041500,0.035500,0.0*
%
%AMRECTHERMD24*
4,1,4,-0.007400,-0.007500,
-0.031600,-0.007500,
-0.031600,-0.033600,
-0.007400,-0.033600,
-0.007400,-0.007500,0.0*
4,1,4,-0.007400,0.033600,
-0.031600,0.033600,
-0.031600,0.007500,
-0.007400,0.007500,
-0.007400,0.033600,0.0*
4,1,4,0.031600,-0.007500,
0.007400,-0.007500,
0.007400,-0.033600,
0.031600,-0.033600,
0.031600,-0.007500,0.0*
4,1,4,0.031600,0.033600,
0.007400,0.033600,
0.007400,0.007500,
0.031600,0.007500,
0.031600,0.033600,0.0*
%
%AMRECTHERMD10~*
4,1,4,-0.007500,-0.007500,
-0.047500,-0.007500,
-0.047500,-0.047500,
-0.007500,-0.047500,
-0.007500,-0.007500,0.0*
4,1,4,-0.007500,0.047500,
-0.047500,0.047500,
-0.047500,0.007500,
-0.007500,0.007500,
-0.007500,0.047500,0.0*
4,1,4,0.047500,-0.007500,
0.007500,-0.007500,
0.007500,-0.047500,
0.047500,-0.047500,
0.047500,-0.007500,0.0*
4,1,4,0.047500,0.047500,
0.007500,0.047500,
0.007500,0.007500,
0.047500,0.007500,
0.047500,0.047500,0.0*
%
%AMTHERM14~*
1,1,0.095000,0.000000,0.000000*
1,0,0.075000,0.000000,0.000000*
4,0,4,-0.031800,0.042400,
-0.042400,0.031800,
0.031800,-0.042400,
0.042400,-0.031800,
-0.031800,0.042400,0.0*
4,0,4,0.031800,0.042400,
-0.042400,-0.031800,
-0.031800,-0.042400,
0.042400,0.031800,
0.031800,0.042400,0.0*
%
%AMRECTHERMD17*
4,1,4,-0.007500,-0.007400,
-0.051300,-0.007400,
-0.051300,-0.098500,
-0.007500,-0.098500,
-0.007500,-0.007400,0.0*
4,1,4,-0.007500,0.098500,
-0.051300,0.098500,
-0.051300,0.007400,
-0.007500,0.007400,
-0.007500,0.098500,0.0*
4,1,4,0.051300,-0.007400,
0.007500,-0.007400,
0.007500,-0.098500,
0.051300,-0.098500,
0.051300,-0.007400,0.0*
4,1,4,0.051300,0.098500,
0.007500,0.098500,
0.007500,0.007400,
0.051300,0.007400,
0.051300,0.098500,0.0*
%
%ADD10C,0.005000*%
%ADD11RECTHERMD10*%
%ADD12C,0.001000*%
%ADD13C,0.095000*%
%ADD14R,0.095000X0.095000*%
%ADD15THERM14*%
%ADD16R,0.067200X0.177400*%
%ADD17RECTHERMD16*%
%ADD18R,0.394000X0.374300*%
%ADD19R,0.120000X0.160000*%
%ADD20RECTHERMD19*%
%ADD21R,0.071100X0.083000*%
%ADD22R,0.063300X0.067200*%
%ADD23RECTHERMD22*%
%ADD24R,0.083000X0.071100*%
%ADD25RECTHERMD24*%
%ADD26R,0.083000X0.083000*%
%ADD27C,0.040000*%
%ADD28C,0.070000*%
%ADD29C,0.060000*%
%ADD30C,0.055000*%
%ADD31C,0.036000*%
%ADD32C,0.056000*%
%ADD33C,0.010000*%
%ADD34C,0.008000*%
%ADD35R,0.075000X0.075000*%
%ADD36C,0.075000*%
%ADD37R,0.047200X0.157400*%
%ADD38R,0.374000X0.354300*%
%ADD39R,0.100000X0.140000*%
%ADD40R,0.051100X0.063000*%
%ADD41C,0.028000*%
%ADD42R,0.043300X0.047200*%
%ADD43R,0.063000X0.051100*%
%ADD44R,0.063000X0.063000*%
%ADD45C,0.020000*%
%ADD46C,0.050000*%
%ADD47C,0.035000*%
%ADD48C,0.016000*%
%ADD49RECTHERMD10~*%
%ADD50THERM14~*%
%ADD51R,0.240000X0.233000*%
%ADD52R,0.102600X0.197100*%
%ADD53RECTHERMD17*%
%ADD54R,0.220000X0.213000*%
%ADD55R,0.082600X0.177100*%
%ADD56R,0.091000X0.091000*%
%ADD57C,0.091000*%
%ADD58R,0.063200X0.173400*%
%ADD59R,0.390000X0.370300*%
%ADD60R,0.116000X0.156000*%
%ADD61R,0.067100X0.079000*%
%ADD62R,0.059300X0.063200*%
%ADD63R,0.079000X0.067100*%
%ADD64R,0.079000X0.079000*%
%ADD65R,0.236000X0.229000*%
%ADD66R,0.098600X0.193100*%
%ADD501C,0.040000*%
%ADD502C,0.011000*%
%LNbottom_copper-1*%
%LPD*%
G36*
X2175Y6950D02*
X-5175D01*
Y18150*
X2175*
Y6950*
G37*
%LNbottom_copper-2*%
%LPC*%
G54D49*
X-4500Y12400D03*
G54D13*
X-4500Y13400D03*
Y14400D03*
G54D14*
X900Y8700D03*
G54D50*
X900Y7700D03*
G54D51*
X500Y15500D03*
X-2500D03*
G54D52*
X-2500Y11771D03*
G54D53*
X-2500Y8228D03*
G54D28*
X-2500Y15500D02*
Y15775D01*
Y14100D01*
X900Y10700D01*
Y8550D01*
Y8700D01*
G54D27*
X-4500Y14400D02*
X-3625D01*
X-2450Y15575D01*
X-2500Y15500D01*
G54D28*
X-2500Y11771D02*
Y12150D01*
X-3750Y13400D01*
X-4625D01*
X-4500D01*
G54D34*
X-4809Y15381D02*
Y15072D01*
X-4827Y15018D01*
X-4863Y15000D01*
X-4900D01*
X-4754Y15254D02*
X-4881D01*
X-4390Y15381D02*
Y15000D01*
Y15200D02*
X-4427Y15236D01*
X-4463Y15254D01*
X-4518D01*
X-4554Y15236D01*
X-4590Y15200D01*
X-4609Y15145D01*
Y15109D01*
X-4590Y15054D01*
X-4554Y15018D01*
X-4518Y15000D01*
X-4463D01*
X-4427Y15018D01*
X-4390Y15054D01*
X-3954Y15381D02*
X-4100Y15000D01*
X-4245Y15381D02*
X-4100Y15000D01*
X-4745Y11681D02*
Y11300D01*
Y11681D02*
X-4872D01*
X-4927Y11663D01*
X-4963Y11627D01*
X-4981Y11590D01*
X-5000Y11536D01*
Y11445D01*
X-4981Y11390D01*
X-4963Y11354D01*
X-4927Y11318D01*
X-4872Y11300D01*
X-4745D01*
X-4345Y11681D02*
Y11300D01*
Y11681D02*
X-4600Y11300D01*
Y11681D02*
Y11300D01*
X-4200Y11590D02*
X-4181Y11627D01*
X-4145Y11663D01*
X-4109Y11681D01*
X-4036D01*
X-4000Y11663D01*
X-3963Y11627D01*
X-3945Y11590D01*
X-3927Y11536D01*
Y11445D01*
X-3945Y11390D01*
X-3963Y11354D01*
X-4000Y11318D01*
X-4036Y11300D01*
X-4109D01*
X-4145Y11318D01*
X-4181Y11354D01*
X-4200Y11390D01*
Y11445D01*
X-4109D02*
X-4200D01*
X-3336Y14027D02*
Y13700D01*
X-3172Y13863D02*
X-3500D01*
%LNbottom_copper-3*%
%LPD*%
G54D35*
X-4500Y12400D03*
G54D36*
X-4500Y13400D03*
Y14400D03*
G54D35*
X900Y8700D03*
G54D36*
X900Y7700D03*
G54D54*
X500Y15500D03*
X-2500D03*
G54D55*
X-2500Y11771D03*
Y8228D03*
G54D41*
X1800Y10700D03*
X-1700Y12100D03*
X-300Y10900D03*
X-3800Y17800D03*
X-4300Y16100D03*
X-3200Y10900D03*
X-4500Y8000D03*
X1900Y17900D03*
X-3200Y9700D03*
X-1700D03*
Y10900D03*
Y8200D03*
X-3200D03*
X-300D03*
Y9700D03*
X1800Y13500D03*
X-1100Y15000D03*
X1200Y17000D03*
G54D46*
X-2500Y15500D02*
Y15775D01*
Y14100D01*
X900Y10700D01*
Y8550D01*
Y8700D01*
G54D45*
X-4500Y14400D02*
X-3625D01*
X-2450Y15575D01*
X-2500Y15500D01*
G54D46*
X-2500Y11771D02*
Y12150D01*
X-3750Y13400D01*
X-4625D01*
X-4500D01*
%LNbottom_copper-4*%
%LPC*%
G54D45*
X-4500Y12400D03*
Y13400D03*
Y14400D03*
X900Y8700D03*
Y7700D03*
X500Y15500D03*
X-2500D03*
X1800Y10700D03*
X-1700Y12100D03*
X-300Y10900D03*
X-3800Y17800D03*
X-4300Y16100D03*
X-3200Y10900D03*
X-4500Y8000D03*
X1900Y17900D03*
X-3200Y9700D03*
X-1700D03*
Y10900D03*
Y8200D03*
X-3200D03*
X-300D03*
Y9700D03*
X1800Y13500D03*
X-1100Y15000D03*
X1200Y17000D03*
M02*