G04 CAM Products 2000  RS274-X Output*
G04 Serial Number: 0000-00-00000*
G04 File Name:top_copper.grb *
%FSLAX34Y34*%
%MOIN*%
%SFA1B1*%

%IPPOS*%
%AMRECTHERMD10*
4,1,4,-0.007500,-0.007500,
-0.047500,-0.007500,
-0.047500,-0.047500,
-0.007500,-0.047500,
-0.007500,-0.007500,0.0*
4,1,4,-0.007500,0.047500,
-0.047500,0.047500,
-0.047500,0.007500,
-0.007500,0.007500,
-0.007500,0.047500,0.0*
4,1,4,0.047500,-0.007500,
0.007500,-0.007500,
0.007500,-0.047500,
0.047500,-0.047500,
0.047500,-0.007500,0.0*
4,1,4,0.047500,0.047500,
0.007500,0.047500,
0.007500,0.007500,
0.047500,0.007500,
0.047500,0.047500,0.0*
%
%AMTHERM14*
1,1,0.095000,0.000000,0.000000*
1,0,0.075000,0.000000,0.000000*
4,0,4,-0.031800,0.042400,
-0.042400,0.031800,
0.031800,-0.042400,
0.042400,-0.031800,
-0.031800,0.042400,0.0*
4,0,4,0.031800,0.042400,
-0.042400,-0.031800,
-0.031800,-0.042400,
0.042400,0.031800,
0.031800,0.042400,0.0*
%
%AMRECTHERMD16*
4,1,4,-0.007500,-0.007500,
-0.033600,-0.007500,
-0.033600,-0.088700,
-0.007500,-0.088700,
-0.007500,-0.007500,0.0*
4,1,4,-0.007500,0.088700,
-0.033600,0.088700,
-0.033600,0.007500,
-0.007500,0.007500,
-0.007500,0.088700,0.0*
4,1,4,0.033600,-0.007500,
0.007500,-0.007500,
0.007500,-0.088700,
0.033600,-0.088700,
0.033600,-0.007500,0.0*
4,1,4,0.033600,0.088700,
0.007500,0.088700,
0.007500,0.007500,
0.033600,0.007500,
0.033600,0.088700,0.0*
%
%AMRECTHERMD19*
4,1,4,-0.007400,-0.007500,
-0.035500,-0.007500,
-0.035500,-0.041500,
-0.007400,-0.041500,
-0.007400,-0.007500,0.0*
4,1,4,-0.007400,0.041500,
-0.035500,0.041500,
-0.035500,0.007500,
-0.007400,0.007500,
-0.007400,0.041500,0.0*
4,1,4,0.035500,-0.007500,
0.007400,-0.007500,
0.007400,-0.041500,
0.035500,-0.041500,
0.035500,-0.007500,0.0*
4,1,4,0.035500,0.041500,
0.007400,0.041500,
0.007400,0.007500,
0.035500,0.007500,
0.035500,0.041500,0.0*
%
%AMRECTHERMD22*
4,1,4,-0.007500,-0.007400,
-0.041500,-0.007400,
-0.041500,-0.035500,
-0.007500,-0.035500,
-0.007500,-0.007400,0.0*
4,1,4,-0.007500,0.035500,
-0.041500,0.035500,
-0.041500,0.007400,
-0.007500,0.007400,
-0.007500,0.035500,0.0*
4,1,4,0.041500,-0.007400,
0.007500,-0.007400,
0.007500,-0.035500,
0.041500,-0.035500,
0.041500,-0.007400,0.0*
4,1,4,0.041500,0.035500,
0.007500,0.035500,
0.007500,0.007400,
0.041500,0.007400,
0.041500,0.035500,0.0*
%
%AMRECTHERMD24*
4,1,4,-0.007400,-0.007500,
-0.031600,-0.007500,
-0.031600,-0.033600,
-0.007400,-0.033600,
-0.007400,-0.007500,0.0*
4,1,4,-0.007400,0.033600,
-0.031600,0.033600,
-0.031600,0.007500,
-0.007400,0.007500,
-0.007400,0.033600,0.0*
4,1,4,0.031600,-0.007500,
0.007400,-0.007500,
0.007400,-0.033600,
0.031600,-0.033600,
0.031600,-0.007500,0.0*
4,1,4,0.031600,0.033600,
0.007400,0.033600,
0.007400,0.007500,
0.031600,0.007500,
0.031600,0.033600,0.0*
%
%AMRECTHERMD10~*
4,1,4,-0.007500,-0.007500,
-0.047500,-0.007500,
-0.047500,-0.047500,
-0.007500,-0.047500,
-0.007500,-0.007500,0.0*
4,1,4,-0.007500,0.047500,
-0.047500,0.047500,
-0.047500,0.007500,
-0.007500,0.007500,
-0.007500,0.047500,0.0*
4,1,4,0.047500,-0.007500,
0.007500,-0.007500,
0.007500,-0.047500,
0.047500,-0.047500,
0.047500,-0.007500,0.0*
4,1,4,0.047500,0.047500,
0.007500,0.047500,
0.007500,0.007500,
0.047500,0.007500,
0.047500,0.047500,0.0*
%
%AMTHERM14~*
1,1,0.095000,0.000000,0.000000*
1,0,0.075000,0.000000,0.000000*
4,0,4,-0.031800,0.042400,
-0.042400,0.031800,
0.031800,-0.042400,
0.042400,-0.031800,
-0.031800,0.042400,0.0*
4,0,4,0.031800,0.042400,
-0.042400,-0.031800,
-0.031800,-0.042400,
0.042400,0.031800,
0.031800,0.042400,0.0*
%
%AMRECTHERMD17*
4,1,4,-0.007500,-0.007400,
-0.051300,-0.007400,
-0.051300,-0.098500,
-0.007500,-0.098500,
-0.007500,-0.007400,0.0*
4,1,4,-0.007500,0.098500,
-0.051300,0.098500,
-0.051300,0.007400,
-0.007500,0.007400,
-0.007500,0.098500,0.0*
4,1,4,0.051300,-0.007400,
0.007500,-0.007400,
0.007500,-0.098500,
0.051300,-0.098500,
0.051300,-0.007400,0.0*
4,1,4,0.051300,0.098500,
0.007500,0.098500,
0.007500,0.007400,
0.051300,0.007400,
0.051300,0.098500,0.0*
%
%ADD10C,0.005000*%
%ADD11RECTHERMD10*%
%ADD12C,0.001000*%
%ADD13C,0.095000*%
%ADD14R,0.095000X0.095000*%
%ADD15THERM14*%
%ADD16R,0.067200X0.177400*%
%ADD17RECTHERMD16*%
%ADD18R,0.394000X0.374300*%
%ADD19R,0.120000X0.160000*%
%ADD20RECTHERMD19*%
%ADD21R,0.071100X0.083000*%
%ADD22R,0.063300X0.067200*%
%ADD23RECTHERMD22*%
%ADD24R,0.083000X0.071100*%
%ADD25RECTHERMD24*%
%ADD26R,0.083000X0.083000*%
%ADD27C,0.040000*%
%ADD28C,0.070000*%
%ADD29C,0.060000*%
%ADD30C,0.055000*%
%ADD31C,0.036000*%
%ADD32C,0.056000*%
%ADD33C,0.010000*%
%ADD34C,0.008000*%
%ADD35R,0.075000X0.075000*%
%ADD36C,0.075000*%
%ADD37R,0.047200X0.157400*%
%ADD38R,0.374000X0.354300*%
%ADD39R,0.100000X0.140000*%
%ADD40R,0.051100X0.063000*%
%ADD41C,0.028000*%
%ADD42R,0.043300X0.047200*%
%ADD43R,0.063000X0.051100*%
%ADD44R,0.063000X0.063000*%
%ADD45C,0.020000*%
%ADD46C,0.050000*%
%ADD47C,0.035000*%
%ADD48C,0.016000*%
%ADD49RECTHERMD10~*%
%ADD50THERM14~*%
%ADD51R,0.240000X0.233000*%
%ADD52R,0.102600X0.197100*%
%ADD53RECTHERMD17*%
%ADD54R,0.220000X0.213000*%
%ADD55R,0.082600X0.177100*%
%ADD56R,0.091000X0.091000*%
%ADD57C,0.091000*%
%ADD58R,0.063200X0.173400*%
%ADD59R,0.390000X0.370300*%
%ADD60R,0.116000X0.156000*%
%ADD61R,0.067100X0.079000*%
%ADD62R,0.059300X0.063200*%
%ADD63R,0.079000X0.067100*%
%ADD64R,0.079000X0.079000*%
%ADD65R,0.236000X0.229000*%
%ADD66R,0.098600X0.193100*%
%ADD501C,0.040000*%
%ADD502C,0.011000*%
%LNtop_copper-1*%
%LPD*%
G36*
X2175Y6950D02*
X-5175D01*
Y18150*
X2175*
Y6950*
G37*
%LNtop_copper-2*%
%LPC*%
G54D11*
X-4500Y12400D03*
G54D13*
X-4500Y13400D03*
Y14400D03*
G54D14*
X900Y8700D03*
G54D15*
X900Y7700D03*
G54D16*
X-400Y13600D03*
X-1069D03*
G54D17*
X-1738Y13600D03*
G54D16*
X-2407Y13600D03*
X-3077D03*
G54D18*
X-1738Y9662D03*
G54D19*
X400Y16900D03*
X-2100D03*
G54D20*
X1700Y9700D03*
G54D21*
X951Y9700D03*
G54D13*
X500Y15500D03*
X-2500D03*
G54D20*
X-3900Y16900D03*
G54D21*
X-3151Y16900D03*
G54D22*
X400Y13000D03*
X1069D03*
G54D23*
X1100Y11500D03*
G54D24*
X1100Y12248D03*
G54D22*
X400Y13800D03*
G54D25*
X1069Y13800D03*
G54D26*
X1600Y15800D03*
Y14697D03*
G54D27*
X500Y15500D02*
X450Y15575D01*
G54D28*
X450Y15575D02*
X-1375D01*
X-2350Y14625D01*
G54D29*
X-2350Y14625D02*
X-2407Y14542D01*
Y13600D01*
G54D28*
X400Y16900D02*
X500D01*
Y15500D01*
G54D27*
X-400Y13600D02*
Y13000D01*
X400D01*
X1069D02*
X1050Y13025D01*
X1100Y12975D01*
Y12248D01*
X400Y13800D02*
Y14275D01*
X50Y14625D01*
X-876D01*
X-1069Y14432D01*
Y13600D01*
X1600Y14697D02*
X822D01*
X400Y14275D01*
Y13725D01*
Y13800D01*
G54D28*
X-2500Y15500D02*
X-3075Y14925D01*
Y14650D01*
G54D29*
X-3075Y14650D02*
X-3077Y13600D01*
G54D27*
X900Y8700D02*
Y9700D01*
X951D01*
G54D30*
X-3151Y16900D02*
X-3150D01*
Y16275D01*
X-3725Y15700D01*
Y13725D01*
X-4050Y13400D01*
X-4500D01*
G54D31*
X1600Y15800D02*
Y17575D01*
X1325Y17850D01*
X-1375D01*
X-2100Y17125D01*
Y16900D01*
G54D32*
X-3151Y16900D02*
X-2100D01*
G54D33*
X-4031Y11145D02*
X-4700Y11400D01*
X-4031Y11145D02*
X-4700Y10890D01*
X-4477Y11304D02*
Y10986D01*
X-4350Y10286D02*
X-4286Y10318D01*
X-4254Y10413D01*
Y10509D01*
X-4286Y10604D01*
X-4350Y10636D01*
X-4413Y10604D01*
X-4445Y10540D01*
X-4477Y10381D01*
X-4509Y10318D01*
X-4572Y10286D01*
X-4604D01*
X-4668Y10318D01*
X-4700Y10413D01*
Y10509D01*
X-4668Y10604D01*
X-4604Y10636D01*
X-4350Y9650D02*
X-4286Y9713D01*
X-4254Y9777D01*
Y9872D01*
X-4286Y9936D01*
X-4350Y10000D01*
X-4445Y10031D01*
X-4509D01*
X-4604Y10000D01*
X-4668Y9936D01*
X-4700Y9872D01*
Y9777D01*
X-4668Y9713D01*
X-4604Y9650D01*
X-4445Y9395D02*
Y9013D01*
X-4381D01*
X-4318Y9045D01*
X-4286Y9077D01*
X-4254Y9140D01*
Y9236D01*
X-4286Y9300D01*
X-4350Y9363D01*
X-4445Y9395D01*
X-4509D01*
X-4604Y9363D01*
X-4668Y9300D01*
X-4700Y9236D01*
Y9140D01*
X-4668Y9077D01*
X-4604Y9013D01*
X-4031Y8663D02*
X-4572D01*
X-4668Y8631D01*
X-4700Y8568D01*
Y8504D01*
X-4254Y8759D02*
Y8536D01*
G54D34*
X-4145Y7527D02*
X-4181Y7563D01*
X-4236Y7581D01*
X-4309D01*
X-4363Y7563D01*
X-4400Y7527D01*
Y7490D01*
X-4381Y7454D01*
X-4363Y7436D01*
X-4327Y7418D01*
X-4218Y7381D01*
X-4181Y7363D01*
X-4163Y7345D01*
X-4145Y7309D01*
Y7254D01*
X-4181Y7218D01*
X-4236Y7200D01*
X-4309D01*
X-4363Y7218D01*
X-4400Y7254D01*
X-3945Y7581D02*
Y7272D01*
X-3927Y7218D01*
X-3890Y7200D01*
X-3854D01*
X-4000Y7454D02*
X-3872D01*
X-3709Y7345D02*
X-3490D01*
Y7381D01*
X-3509Y7418D01*
X-3527Y7436D01*
X-3563Y7454D01*
X-3618D01*
X-3654Y7436D01*
X-3690Y7400D01*
X-3709Y7345D01*
Y7309D01*
X-3690Y7254D01*
X-3654Y7218D01*
X-3618Y7200D01*
X-3563D01*
X-3527Y7218D01*
X-3490Y7254D01*
X-3345Y7454D02*
Y7072D01*
Y7400D02*
X-3309Y7436D01*
X-3272Y7454D01*
X-3218D01*
X-3181Y7436D01*
X-3145Y7400D01*
X-3127Y7345D01*
Y7309D01*
X-3145Y7254D01*
X-3181Y7218D01*
X-3218Y7200D01*
X-3272D01*
X-3309Y7218D01*
X-3345Y7254D01*
X-2981Y7581D02*
Y7309D01*
X-2963Y7254D01*
X-2927Y7218D01*
X-2872Y7200D01*
X-2836D01*
X-2781Y7218D01*
X-2745Y7254D01*
X-2727Y7309D01*
Y7581D01*
X-2581D02*
Y7200D01*
Y7581D02*
X-2418D01*
X-2363Y7563D01*
X-2345Y7545D01*
X-2327Y7509D01*
Y7454D01*
X-2345Y7418D01*
X-2363Y7400D01*
X-2418Y7381D01*
X-2581D01*
X-1890Y7581D02*
Y7200D01*
Y7581D02*
X-1763D01*
X-1709Y7563D01*
X-1672Y7527D01*
X-1654Y7490D01*
X-1636Y7436D01*
Y7345D01*
X-1654Y7290D01*
X-1672Y7254D01*
X-1709Y7218D01*
X-1763Y7200D01*
X-1890D01*
X-1218Y7490D02*
X-1236Y7527D01*
X-1272Y7563D01*
X-1309Y7581D01*
X-1381D01*
X-1418Y7563D01*
X-1454Y7527D01*
X-1472Y7490D01*
X-1490Y7436D01*
Y7345D01*
X-1472Y7290D01*
X-1454Y7254D01*
X-1418Y7218D01*
X-1381Y7200D01*
X-1309D01*
X-1272Y7218D01*
X-1236Y7254D01*
X-1218Y7290D01*
X-745Y7654D02*
X-1072Y7072D01*
X-600Y7581D02*
Y7200D01*
Y7581D02*
X-472D01*
X-418Y7563D01*
X-381Y7527D01*
X-363Y7490D01*
X-345Y7436D01*
Y7345D01*
X-363Y7290D01*
X-381Y7254D01*
X-418Y7218D01*
X-472Y7200D01*
X-600D01*
X72Y7490D02*
X54Y7527D01*
X18Y7563D01*
X-18Y7581D01*
X-90D01*
X-127Y7563D01*
X-163Y7527D01*
X-181Y7490D01*
X-200Y7436D01*
Y7345D01*
X-181Y7290D01*
X-163Y7254D01*
X-127Y7218D01*
X-90Y7200D01*
X-18D01*
X18Y7218D01*
X54Y7254D01*
X72Y7290D01*
X1618Y7900D02*
X2000D01*
Y8118D01*
X1618Y8263D02*
X1636Y8281D01*
X1618Y8299D01*
X1600Y8281D01*
X1618Y8263D01*
X1745Y8281D02*
X2000D01*
X1736Y7200D02*
Y7527D01*
X1763Y8927D02*
Y8600D01*
X1600Y8763D02*
X1927D01*
%LNtop_copper-3*%
%LPD*%
G54D35*
X-4500Y12400D03*
G54D36*
X-4500Y13400D03*
Y14400D03*
G54D35*
X900Y8700D03*
G54D36*
X900Y7700D03*
G54D37*
X-400Y13600D03*
X-1069D03*
X-1738D03*
X-2407D03*
X-3077D03*
G54D38*
X-1738Y9662D03*
G54D39*
X400Y16900D03*
X-2100D03*
G54D40*
X1700Y9700D03*
X951D03*
G54D36*
X500Y15500D03*
X-2500D03*
G54D41*
X1800Y10700D03*
X-1700Y12100D03*
X-300Y10900D03*
X-3800Y17800D03*
X-4300Y16100D03*
X-3200Y10900D03*
G54D40*
X-3900Y16900D03*
X-3151D03*
G54D41*
X-4500Y8000D03*
X1900Y17900D03*
X-3200Y9700D03*
X-1700D03*
Y10900D03*
Y8200D03*
X-3200D03*
X-300D03*
Y9700D03*
X1800Y13500D03*
G54D42*
X400Y13000D03*
X1069D03*
G54D43*
X1100Y11500D03*
Y12248D03*
G54D42*
X400Y13800D03*
X1069D03*
G54D44*
X1600Y15800D03*
Y14697D03*
G54D41*
X-1100Y15000D03*
X1200Y17000D03*
G54D45*
X500Y15500D02*
X450Y15575D01*
G54D46*
X450Y15575D02*
X-1375D01*
X-2350Y14625D01*
G54D27*
X-2350Y14625D02*
X-2407Y14542D01*
Y13600D01*
G54D46*
X400Y16900D02*
X500D01*
Y15500D01*
G54D45*
X-400Y13600D02*
Y13000D01*
X400D01*
X1069D02*
X1050Y13025D01*
X1100Y12975D01*
Y12248D01*
X400Y13800D02*
Y14275D01*
X50Y14625D01*
X-876D01*
X-1069Y14432D01*
Y13600D01*
X1600Y14697D02*
X822D01*
X400Y14275D01*
Y13725D01*
Y13800D01*
G54D46*
X-2500Y15500D02*
X-3075Y14925D01*
Y14650D01*
G54D27*
X-3075Y14650D02*
X-3077Y13600D01*
G54D45*
X900Y8700D02*
Y9700D01*
X951D01*
G54D47*
X-3151Y16900D02*
X-3150D01*
Y16275D01*
X-3725Y15700D01*
Y13725D01*
X-4050Y13400D01*
X-4500D01*
G54D48*
X1600Y15800D02*
Y17575D01*
X1325Y17850D01*
X-1375D01*
X-2100Y17125D01*
Y16900D01*
G54D31*
X-3151Y16900D02*
X-2100D01*
%LNtop_copper-4*%
%LPC*%
G54D45*
X-4500Y12400D03*
Y13400D03*
Y14400D03*
X900Y8700D03*
Y7700D03*
X500Y15500D03*
X-2500D03*
X1800Y10700D03*
X-1700Y12100D03*
X-300Y10900D03*
X-3800Y17800D03*
X-4300Y16100D03*
X-3200Y10900D03*
X-4500Y8000D03*
X1900Y17900D03*
X-3200Y9700D03*
X-1700D03*
Y10900D03*
Y8200D03*
X-3200D03*
X-300D03*
Y9700D03*
X1800Y13500D03*
X-1100Y15000D03*
X1200Y17000D03*
M02*