G04 CAM Products 2000  RS274-X Output*
G04 Serial Number: 0000-00-00000*
G04 File Name:rs232_modul_bottom_copper.grb *
%FSLAX34Y34*%
%MOIN*%
%SFA1B1*%

%IPPOS*%
%AMRECTHERMD12*
4,1,4,-0.007500,-0.007500,
-0.041500,-0.007500,
-0.041500,-0.049400,
-0.007500,-0.049400,
-0.007500,-0.007500,0.0*
4,1,4,-0.007500,0.049400,
-0.041500,0.049400,
-0.041500,0.007500,
-0.007500,0.007500,
-0.007500,0.049400,0.0*
4,1,4,0.041500,-0.007500,
0.007500,-0.007500,
0.007500,-0.049400,
0.041500,-0.049400,
0.041500,-0.007500,0.0*
4,1,4,0.041500,0.049400,
0.007500,0.049400,
0.007500,0.007500,
0.041500,0.007500,
0.041500,0.049400,0.0*
%
%AMTHERM16*
1,1,0.095000,0.000000,0.000000*
1,0,0.075000,0.000000,0.000000*
4,0,4,-0.031800,0.042400,
-0.042400,0.031800,
0.031800,-0.042400,
0.042400,-0.031800,
-0.031800,0.042400,0.0*
4,0,4,0.031800,0.042400,
-0.042400,-0.031800,
-0.031800,-0.042400,
0.042400,0.031800,
0.031800,0.042400,0.0*
%
%AMRECTHERMD11*
4,1,4,-0.007400,-0.007400,
-0.053400,-0.007400,
-0.053400,-0.023900,
-0.007400,-0.023900,
-0.007400,-0.007400,0.0*
4,1,4,-0.007400,0.023900,
-0.053400,0.023900,
-0.053400,0.007400,
-0.007400,0.007400,
-0.007400,0.023900,0.0*
4,1,4,0.053400,-0.007400,
0.007400,-0.007400,
0.007400,-0.023900,
0.053400,-0.023900,
0.053400,-0.007400,0.0*
4,1,4,0.053400,0.023900,
0.007400,0.023900,
0.007400,0.007400,
0.053400,0.007400,
0.053400,0.023900,0.0*
%
%AMTHERM15*
1,1,0.095000,0.000000,0.000000*
1,0,0.075000,0.000000,0.000000*
4,0,4,-0.031800,0.042400,
-0.042400,0.031800,
0.031800,-0.042400,
0.042400,-0.031800,
-0.031800,0.042400,0.0*
4,0,4,0.031800,0.042400,
-0.042400,-0.031800,
-0.031800,-0.042400,
0.042400,0.031800,
0.031800,0.042400,0.0*
%
%ADD10C,0.005000*%
%ADD11R,0.094700X0.079000*%
%ADD12R,0.079000X0.094700*%
%ADD13R,0.091000X0.091000*%
%ADD14C,0.091000*%
%ADD15R,0.098700X0.083000*%
%ADD16R,0.083000X0.098700*%
%ADD17RECTHERMD12*%
%ADD18C,0.001000*%
%ADD19R,0.095000X0.095000*%
%ADD20C,0.095000*%
%ADD21THERM16*%
%ADD22C,0.048000*%
%ADD23C,0.036000*%
%ADD24C,0.045000*%
%ADD25R,0.078700X0.063000*%
%ADD26R,0.063000X0.078700*%
%ADD27R,0.075000X0.075000*%
%ADD28C,0.075000*%
%ADD29C,0.028000*%
%ADD30C,0.016000*%
%ADD31C,0.025000*%
%ADD32C,0.020000*%
%ADD33R,0.107000X0.048000*%
%ADD34RECTHERMD11*%
%ADD35THERM15*%
%ADD36C,0.040000*%
%ADD37R,0.087000X0.028000*%
%ADD38R,0.103000X0.044000*%
%LNrs232_modul_bottom_copper-1*%
%LPD*%
G36*
X-6125Y8625D02*
X-11125D01*
Y14475*
X-6125*
Y8625*
G37*
%LNrs232_modul_bottom_copper-2*%
%LPC*%
G54D15*
X-7600Y10700D03*
Y11802D03*
X-9400Y11800D03*
Y10697D03*
G54D16*
X-8400Y9500D03*
X-9502D03*
G54D17*
X-9300Y12900D03*
G54D16*
X-8197Y12900D03*
G54D19*
X-6900Y13900D03*
G54D20*
X-7900Y13900D03*
G54D21*
X-8900Y13900D03*
G54D19*
X-10500Y9700D03*
G54D20*
X-10500Y10700D03*
Y11700D03*
Y12700D03*
G54D21*
X-10500Y13700D03*
G54D22*
X-8300Y11900D03*
Y11300D03*
Y10700D03*
X-7600Y10000D03*
Y9500D03*
Y9000D03*
G54D23*
X-7600Y10000D02*
Y10700D01*
X-8300Y11900D02*
X-8425Y12025D01*
Y12725D01*
X-8197Y12900D01*
X-7600Y9000D02*
X-7425D01*
X-6975Y9450D01*
Y11250D01*
X-7550Y11825D01*
X-7600Y11802D01*
X-8300Y10700D02*
X-9400Y10697D01*
G54D24*
X-10500Y9700D02*
X-10300Y9500D01*
X-9502D01*
G54D23*
X-8300Y11300D02*
X-8825D01*
X-9325Y11800D01*
X-9400D01*
X-7600Y9500D02*
X-8400D01*
%LNrs232_modul_bottom_copper-3*%
%LPD*%
G54D25*
X-7600Y10700D03*
Y11802D03*
X-9400Y11800D03*
Y10697D03*
G54D26*
X-8400Y9500D03*
X-9502D03*
X-9300Y12900D03*
X-8197D03*
G54D27*
X-6900Y13900D03*
G54D28*
X-7900Y13900D03*
X-8900D03*
G54D27*
X-10500Y9700D03*
G54D28*
X-10500Y10700D03*
Y11700D03*
Y12700D03*
Y13700D03*
G54D29*
X-8300Y11900D03*
Y11300D03*
Y10700D03*
X-7600Y10000D03*
Y9500D03*
Y9000D03*
X-8600Y10200D03*
G54D30*
X-7600Y10000D02*
Y10700D01*
X-8300Y11900D02*
X-8425Y12025D01*
Y12725D01*
X-8197Y12900D01*
X-7600Y9000D02*
X-7425D01*
X-6975Y9450D01*
Y11250D01*
X-7550Y11825D01*
X-7600Y11802D01*
X-8300Y10700D02*
X-9400Y10697D01*
G54D31*
X-10500Y9700D02*
X-10300Y9500D01*
X-9502D01*
G54D30*
X-8300Y11300D02*
X-8825D01*
X-9325Y11800D01*
X-9400D01*
X-7600Y9500D02*
X-8400D01*
%LNrs232_modul_bottom_copper-4*%
%LPC*%
G54D32*
X-6900Y13900D03*
X-7900D03*
X-8900D03*
X-10500Y9700D03*
Y10700D03*
Y11700D03*
Y12700D03*
Y13700D03*
X-8300Y11900D03*
Y11300D03*
Y10700D03*
X-7600Y10000D03*
Y9500D03*
Y9000D03*
X-8600Y10200D03*
M02*